<svg width="55" height="65" viewBox="0 0 55 65" fill="none" xmlns="http://www.w3.org/2000/svg">
<path d="M48.9846 12.2915C51.5853 16.027 53.1685 20.3714 53.5796 24.8998V24.7453C53.9594 28.607 53.4721 32.5045 52.153 36.1552C50.8339 39.8058 48.7161 43.118 45.9532 45.8514L29.5845 62.2604C29.2963 62.5501 28.9534 62.7799 28.5756 62.9368C28.1978 63.0937 27.7926 63.1745 27.3834 63.1745C26.9741 63.1745 26.5689 63.0937 26.1911 62.9368C25.8133 62.7799 25.4705 62.5501 25.1823 62.2604L8.7515 45.8514C5.98865 43.118 3.87084 39.8058 2.55174 36.1552C1.23264 32.5045 0.745328 28.607 1.12515 24.7453C1.51234 20.8581 2.75841 17.1047 4.77385 13.7546C6.78928 10.4045 9.52405 7.54099 12.7817 5.36967C16.5843 2.85842 20.9758 1.37412 25.5266 1.06197C30.0773 0.749834 34.6314 1.62055 38.7433 3.58892C42.8551 5.5573 46.384 8.55594 48.9846 12.2915Z" fill="#FF5005" stroke="#FFA985" stroke-width="2"/>
<path d="M20.1052 22.1566V36.4049C20.1052 36.8248 20.2749 37.2275 20.5769 37.5244C20.8789 37.8213 21.2886 37.9881 21.7157 37.9881H31.3782C31.8053 37.9881 32.2149 37.8213 32.5169 37.5244C32.819 37.2275 32.9886 36.8248 32.9886 36.4049V22.1566H20.1052ZM36.2095 22.1566H37.8199C39.1012 22.1566 40.3301 22.657 41.2361 23.5477C42.1422 24.4384 42.6512 25.6464 42.6512 26.906V31.6555C42.6512 32.9151 42.1422 34.1232 41.2361 35.0138C40.3301 35.9045 39.1012 36.4049 37.8199 36.4049H36.2095C36.2095 37.6646 35.7005 38.8726 34.7944 39.7633C33.8884 40.654 32.6595 41.1544 31.3782 41.1544H21.7157C20.4343 41.1544 19.2055 40.654 18.2994 39.7633C17.3934 38.8726 16.8844 37.6646 16.8844 36.4049V22.1566C16.8844 21.3168 17.2237 20.5115 17.8278 19.9177C18.4318 19.3239 19.251 18.9903 20.1052 18.9903H32.9886C33.8428 18.9903 34.6621 19.3239 35.2661 19.9177C35.8701 20.5115 36.2095 21.3168 36.2095 22.1566ZM36.2095 25.3229V33.2386H37.8199C38.247 33.2386 38.6566 33.0718 38.9586 32.7749C39.2606 32.478 39.4303 32.0754 39.4303 31.6555V26.906C39.4303 26.4862 39.2606 26.0835 38.9586 25.7866C38.6566 25.4897 38.247 25.3229 37.8199 25.3229H36.2095ZM23.3261 25.3229C23.7532 25.3229 24.1628 25.4897 24.4648 25.7866C24.7668 26.0835 24.9365 26.4862 24.9365 26.906V33.2386C24.9365 33.6585 24.7668 34.0612 24.4648 34.3581C24.1628 34.655 23.7532 34.8218 23.3261 34.8218C22.899 34.8218 22.4894 34.655 22.1873 34.3581C21.8853 34.0612 21.7157 33.6585 21.7157 33.2386V26.906C21.7157 26.4862 21.8853 26.0835 22.1873 25.7866C22.4894 25.4897 22.899 25.3229 23.3261 25.3229ZM29.7678 25.3229C30.1949 25.3229 30.6045 25.4897 30.9065 25.7866C31.2085 26.0835 31.3782 26.4862 31.3782 26.906V33.2386C31.3782 33.6585 31.2085 34.0612 30.9065 34.3581C30.6045 34.655 30.1949 34.8218 29.7678 34.8218C29.3407 34.8218 28.9311 34.655 28.629 34.3581C28.327 34.0612 28.1574 33.6585 28.1574 33.2386V26.906C28.1574 26.4862 28.327 26.0835 28.629 25.7866C28.9311 25.4897 29.3407 25.3229 29.7678 25.3229ZM27.3521 12.6577C29.2741 12.6577 31.1174 13.4083 32.4765 14.7443C33.8355 16.0804 34.599 17.8924 34.599 19.7819V22.1709H16.8844V19.7819C16.8844 19.032 17.0393 18.2899 17.3396 17.6005C17.6399 16.9111 18.0794 16.2889 18.6315 15.7714C19.1837 15.254 19.8369 14.8521 20.5517 14.5901C21.2664 14.3281 22.0279 14.2114 22.7898 14.2472C24.0791 13.2168 25.6906 12.6554 27.3521 12.6577ZM20.1052 18.9903H31.3782C31.3782 18.1506 31.0389 17.3452 30.4348 16.7514C29.8308 16.1576 29.0116 15.824 28.1574 15.824H26.5469C25.9717 15.8239 25.407 15.9752 24.9114 16.2623C24.4158 16.5493 24.0074 16.9616 23.7287 17.4562C23.5971 17.4233 23.4619 17.4068 23.3261 17.4072H21.7157C21.2886 17.4072 20.8789 17.574 20.5769 17.8709C20.2749 18.1678 20.1052 18.5704 20.1052 18.9903Z" fill="white"/>
</svg>
