<svg width="24" height="20" viewBox="0 0 24 20" fill="none" xmlns="http://www.w3.org/2000/svg">
<path d="M23.9436 18.6968L22.6651 9.21836C22.64 9.00403 22.4645 8.78969 22.2389 8.71824L20.083 7.97997C19.8824 8.3372 19.6819 8.71824 19.4813 9.07547L21.4116 9.7423L22.5147 17.9109L17.9271 16.5058L17.6012 11.6951C17.3756 11.7904 17.1249 11.838 16.8491 11.838C16.6737 11.838 16.4731 11.8142 16.3227 11.7666L16.6486 16.5296L12.6376 17.9109V9.69467L14.242 9.07547L13.6404 7.97997L12.036 8.62298L7.62388 6.88447C7.47347 6.83684 7.29799 6.81303 7.14758 6.86066L1.83303 8.71824C1.60741 8.78969 1.457 8.98021 1.40686 9.21836L0.128358 18.6968C0.103289 18.9112 0.178495 19.1017 0.353975 19.2446C0.529456 19.3875 0.755074 19.4113 0.955623 19.3636L6.69634 17.6013L11.8103 19.3636C11.9608 19.4113 12.1112 19.4113 12.2365 19.3636L17.3505 17.6013L23.0912 19.3636C23.1664 19.3875 23.2166 19.3875 23.2918 19.3875C23.4422 19.3875 23.5926 19.3398 23.6929 19.2446C23.8684 19.1017 23.9686 18.9112 23.9436 18.6968ZM6.11976 16.5058L1.5322 17.9109L2.63522 9.7423L6.67127 8.36102L6.11976 16.5058ZM11.3842 17.9109L7.37319 16.5296L7.9247 8.3372L11.3842 9.69467V17.9109Z" fill="#FF5005"/>
<path d="M16.3979 10.3377C16.5984 10.7187 17.175 10.7187 17.3755 10.3377C17.3755 10.3377 19.6568 6.09857 20.1832 5.09833C20.7097 4.09809 20.7347 2.97878 20.1832 1.93091C19.2808 0.192399 17.0496 -0.498241 15.2196 0.382921C13.3896 1.26408 12.6877 3.43127 13.5902 5.09833C14.4926 6.7654 16.3979 10.3377 16.3979 10.3377ZM16.8992 1.90709C17.8769 1.90709 18.654 2.64537 18.654 3.57416C18.654 4.50295 17.8769 5.24122 16.8992 5.24122C15.9216 5.24122 15.1444 4.50295 15.1444 3.57416C15.1444 2.66918 15.9216 1.90709 16.8992 1.90709Z" fill="#FF5005"/>
</svg>
