<svg width="16" height="20" viewBox="0 0 16 20" fill="none" xmlns="http://www.w3.org/2000/svg">
<path d="M13.5 3.10679C12.0413 1.6481 10.0629 0.828613 7.99998 0.828613C5.93708 0.828613 3.95867 1.6481 2.49998 3.10679C1.04129 4.56548 0.221802 6.54389 0.221802 8.60679C0.221802 10.6697 1.04129 12.6481 2.49998 14.1068L7.33081 18.9468C7.41603 19.0327 7.51741 19.1009 7.62911 19.1474C7.74082 19.194 7.86063 19.2179 7.98164 19.2179C8.10265 19.2179 8.22247 19.194 8.33417 19.1474C8.44587 19.1009 8.54726 19.0327 8.63247 18.9468L13.5 14.061C14.9526 12.6083 15.7686 10.6382 15.7686 8.58387C15.7686 6.52957 14.9526 4.55941 13.5 3.10679ZM12.1891 12.7501L7.99998 16.9576L3.81081 12.7501C2.98319 11.9217 2.41975 10.8666 2.1917 9.71805C1.96365 8.56951 2.08123 7.37914 2.52959 6.29741C2.97794 5.21568 3.73694 4.29117 4.71064 3.64073C5.68433 2.99028 6.82901 2.64312 7.99998 2.64312C9.17094 2.64312 10.3156 2.99028 11.2893 3.64073C12.263 4.29117 13.022 5.21568 13.4704 6.29741C13.9187 7.37914 14.0363 8.56951 13.8083 9.71805C13.5802 10.8666 13.0168 11.9217 12.1891 12.7501ZM5.24998 5.79262C4.50996 6.53491 4.09442 7.54031 4.09442 8.58845C4.09442 9.6366 4.50996 10.642 5.24998 11.3843C5.79976 11.935 6.49993 12.3111 7.26265 12.4654C8.02538 12.6197 8.81668 12.5453 9.53729 12.2516C10.2579 11.9579 10.8757 11.4579 11.3132 10.8143C11.7508 10.1708 11.9885 9.41242 11.9966 8.63429C12.0008 8.11472 11.9007 7.59961 11.7023 7.11939C11.5039 6.63918 11.2113 6.20361 10.8416 5.83845C10.4783 5.46682 10.0451 5.1707 9.56695 4.96713C9.08876 4.76357 8.57504 4.65657 8.05534 4.65231C7.53565 4.64805 7.02024 4.74661 6.53878 4.94231C6.05732 5.13801 5.61932 5.42699 5.24998 5.79262ZM9.54914 10.0826C9.20177 10.4353 8.74267 10.6564 8.25034 10.708C7.75802 10.7597 7.26303 10.6387 6.85002 10.3658C6.43701 10.0929 6.13162 9.68501 5.98607 9.21186C5.84051 8.73872 5.86382 8.2297 6.05202 7.77185C6.24022 7.31399 6.58162 6.93572 7.01785 6.70171C7.45407 6.46771 7.95804 6.3925 8.44358 6.48894C8.92913 6.58538 9.36609 6.84748 9.67978 7.23044C9.99346 7.6134 10.1644 8.09343 10.1633 8.58845C10.15 9.15429 9.91259 9.69169 9.50331 10.0826H9.54914Z" fill="#FF5005"/>
</svg>
