<svg width="16" height="18" viewBox="0 0 16 18" fill="none" xmlns="http://www.w3.org/2000/svg">
<path d="M7.16667 8.91669V13.1667C7.16667 13.3877 7.25446 13.5997 7.41074 13.7559C7.56702 13.9122 7.77899 14 8 14C8.22101 14 8.43297 13.9122 8.58926 13.7559C8.74554 13.5997 8.83333 13.3877 8.83333 13.1667V8.91669C9.84504 8.71018 10.744 8.13537 11.356 7.3037C11.968 6.47203 12.2493 5.44276 12.1456 4.41542C12.0418 3.38809 11.5602 2.43588 10.7943 1.74341C10.0283 1.05094 9.03256 0.667542 8 0.667542C6.96744 0.667542 5.97165 1.05094 5.20571 1.74341C4.43976 2.43588 3.95821 3.38809 3.85443 4.41542C3.75065 5.44276 4.03202 6.47203 4.644 7.3037C5.25598 8.13537 6.15496 8.71018 7.16667 8.91669ZM8 2.33336C8.49445 2.33336 8.9778 2.47998 9.38893 2.75468C9.80005 3.02939 10.1205 3.41983 10.3097 3.87665C10.4989 4.33346 10.5484 4.83613 10.452 5.32108C10.3555 5.80604 10.1174 6.25149 9.76777 6.60112C9.41814 6.95076 8.97268 7.18886 8.48773 7.28532C8.00277 7.38178 7.50011 7.33228 7.04329 7.14306C6.58648 6.95384 6.19603 6.63341 5.92133 6.22228C5.64662 5.81116 5.5 5.32781 5.5 4.83336C5.5 4.17032 5.76339 3.53443 6.23223 3.06559C6.70107 2.59675 7.33696 2.33336 8 2.33336ZM11.5083 11.0167C11.3989 10.9937 11.286 10.9925 11.1761 11.0132C11.0662 11.0338 10.9615 11.0759 10.8678 11.137C10.7742 11.1982 10.6935 11.2771 10.6304 11.3694C10.5673 11.4618 10.523 11.5656 10.5 11.675C10.477 11.7845 10.4758 11.8973 10.4965 12.0072C10.5171 12.1171 10.5592 12.2219 10.6203 12.3155C10.6815 12.4092 10.7604 12.4898 10.8528 12.553C10.9451 12.6161 11.0489 12.6604 11.1583 12.6834C13.05 13.0584 13.8333 13.7334 13.8333 14C13.8333 14.4834 11.7917 15.6667 8 15.6667C4.20833 15.6667 2.16667 14.4834 2.16667 14C2.16667 13.7334 2.95 13.0584 4.84167 12.65C4.9511 12.627 5.05494 12.5827 5.14725 12.5196C5.23956 12.4565 5.31853 12.3758 5.37967 12.2822C5.4408 12.1886 5.48289 12.0838 5.50354 11.9739C5.52418 11.864 5.52298 11.7511 5.5 11.6417C5.47702 11.5323 5.43271 11.4284 5.3696 11.3361C5.30649 11.2438 5.22581 11.1648 5.13218 11.1037C5.03855 11.0426 4.93379 11.0005 4.82389 10.9798C4.71399 10.9592 4.6011 10.9604 4.49167 10.9834C1.95833 11.5667 0.5 12.6584 0.5 14C0.5 16.1917 4.275 17.3334 8 17.3334C11.725 17.3334 15.5 16.1917 15.5 14C15.5 12.6584 14.0417 11.5667 11.5083 11.0167Z" fill="#9F9A99"/>
</svg>
