<svg width="57" height="117" viewBox="0 0 57 117" fill="none" xmlns="http://www.w3.org/2000/svg">
<g clip-path="url(#clip0)">
<path d="M0.0117769 99.5315V110.299C0.0117769 110.539 0.025124 110.783 0.0526033 111.045C0.405124 114.44 3.08554 117 6.28727 117H50.7143C53.916 117 56.5964 114.44 56.949 111.045C56.9764 110.784 56.9898 110.54 56.9898 110.3V24.545H56.9262C56.9757 24.0956 57.0008 23.6462 57.0008 23.2031C57.0008 20.3802 56.0304 17.6736 54.267 15.5821C52.5727 13.5732 50.2919 12.2957 47.818 11.9618C46.2564 5.01334 40.3938 0 33.7776 0C29.5709 0 25.6013 1.9736 22.8479 5.42346C21.0751 4.3361 17.8098 3.86941 16.2552 4.02497C11.1472 4.53566 7.69422 9.23866 8.2438 14.2669C2.96541 14.3204 0 18.4223 0 24.1263C0 24.2858 0.0031405 24.4515 0.0117769 24.6197V36.6176V99.5315ZM44.2111 14.0823L44.4317 15.8838L46.2603 15.8029C46.3435 15.799 46.4275 15.7951 46.5115 15.7951C50.1341 15.7951 53.0807 19.1176 53.0807 23.2023C53.0807 23.6541 53.0453 24.1035 52.9731 24.5442H44.4113V41.3905C44.4113 42.5439 43.565 43.482 42.5247 43.482C41.4844 43.482 40.638 42.5439 40.638 41.3905V24.5442H30.9684V31.1101C30.9684 32.2634 30.1221 33.2015 29.0818 33.2015C28.0415 33.2015 27.1943 32.2634 27.1943 31.1101V24.5442H3.93112C3.92326 24.4044 3.91934 24.2653 3.91934 24.1263C3.91934 20.5515 6.48905 17.6429 9.64839 17.6429C9.96244 17.6429 10.2843 17.6744 10.607 17.7357L12.4529 18.0892C12.4529 18.0892 9.89335 12.8519 14.5067 9.02025C18.7731 5.47689 24.4181 10.0573 24.4181 10.0573L25.2669 8.76098C27.2493 5.73066 30.4306 3.92127 33.7784 3.92127C39.0191 3.92205 43.5053 8.28957 44.2111 14.0823ZM53.0697 110.299C53.0697 110.402 53.0634 110.513 53.05 110.638C52.9056 112.03 51.9014 113.079 50.7135 113.079H6.28649C5.0986 113.079 4.09442 112.03 3.94996 110.639C3.93661 110.511 3.93033 110.4 3.93033 110.299V28.4655H23.2758V31.1093C23.2758 34.4256 25.88 37.1228 29.0818 37.1228C32.2827 37.1228 34.8878 34.4256 34.8878 31.1093V28.4655H36.7187V41.3897C36.7187 44.706 39.3237 47.4032 42.5247 47.4032C45.7264 47.4032 48.3307 44.7052 48.3307 41.3897V28.4655H53.0697V110.299Z" fill="white"/>
<path d="M9.54956 43.3779H15.2912C18.8125 43.3866 20.5727 45.284 20.5727 49.0709V52.9489C20.5727 55.7278 19.3157 57.5286 16.8018 58.3528C16.1972 58.5452 15.3304 58.6419 14.2006 58.6419H13.9251V69.6986H9.55035V43.3779H9.54956ZM13.9243 47.5726V54.4354H14.4495C14.9222 54.4354 15.2291 54.4095 15.3689 54.3568C15.9208 54.1376 16.1964 53.6686 16.1964 52.9497V49.0717C16.1964 48.0723 15.767 47.5726 14.9088 47.5726H13.9243Z" fill="white"/>
<path d="M34.4066 64.4265C34.4066 68.2126 32.5144 70.1108 28.7309 70.1194C24.956 70.1194 23.0686 68.222 23.0686 64.4265V48.6503C23.0686 44.8642 24.956 42.9707 28.7309 42.9707C32.5144 42.9707 34.4066 44.8642 34.4066 48.6503V64.4265ZM30.0319 48.6503C30.0319 47.669 29.6024 47.1732 28.7443 47.1646H28.7184C27.8689 47.1646 27.4441 47.6596 27.4441 48.6503V64.4273C27.4441 65.418 27.8728 65.913 28.7317 65.913C29.5985 65.913 30.0327 65.418 30.0327 64.4273V48.6503H30.0319Z" fill="white"/>
<path d="M9.54956 97.6004V71.2798H13.9243V93.4065H19.8496V97.6004H9.54956Z" fill="white"/>
<path d="M33.1457 88.1609L34.394 97.6007H29.9793L29.257 92.1317H26.0379L25.3023 97.6007H20.9009L22.1492 88.2002L24.8163 71.2793H30.4919L33.1457 88.1609ZM28.6917 87.9244L27.6404 79.957L26.5891 87.9244H28.6917Z" fill="white"/>
<path d="M36.3647 76.5517C36.3647 72.7655 38.2522 70.8721 42.0271 70.8721C45.8106 70.8721 47.7027 72.7655 47.7027 76.5517V80.2851H43.328V76.5517C43.328 75.5704 42.8986 75.0746 42.0404 75.066H42.0145C41.165 75.066 40.7402 75.5609 40.7402 76.5517V78.8922C40.7402 79.9614 41.8614 81.3026 44.1037 82.9148C46.5039 84.6236 47.7035 86.675 47.7035 89.0673V92.3278C47.7035 96.1234 45.8161 98.0208 42.0412 98.0208C38.2577 98.0121 36.3655 96.1148 36.3655 92.3278V88.5944H40.7402V92.3278C40.7402 93.3186 41.1736 93.8135 42.0412 93.8135C42.8993 93.8135 43.3288 93.3186 43.3288 92.3278V89.3832C43.3288 88.218 42.2076 86.8282 39.9653 85.2152C37.5652 83.5064 36.3655 81.4244 36.3655 78.9707V76.5517H36.3647Z" fill="white"/>
<path d="M9.56128 99.1357H11.1323C12.0964 99.1381 12.5777 99.6574 12.5777 100.694V101.755C12.5777 102.408 12.3163 102.83 11.7942 103.022L12.9483 106.34H11.6434L10.8238 103.242H10.7594V106.34H9.56206V99.1357H9.56128ZM10.7586 100.284V102.162H10.9023C11.0318 102.162 11.1158 102.155 11.1543 102.141C11.305 102.081 11.3804 101.952 11.3804 101.756V100.695C11.3804 100.421 11.2634 100.284 11.0279 100.284H10.7586V100.284Z" fill="white"/>
<path d="M13.5229 99.1367H16.3416V100.285H14.7211V102.163H16.1162V103.315H14.7211V105.193H16.3423V106.341H13.5237V99.1367H13.5229Z" fill="white"/>
<path d="M20.1282 104.897C20.1282 105.933 19.6108 106.453 18.5752 106.455C17.542 106.455 17.0254 105.936 17.0254 104.897V100.579C17.0254 99.5427 17.542 99.0249 18.5752 99.0249C19.6108 99.0249 20.1282 99.5427 20.1282 100.579V101.601H18.9309V100.579C18.9309 100.31 18.8131 100.175 18.5784 100.172H18.5713C18.3389 100.172 18.2227 100.308 18.2227 100.579V104.897C18.2227 105.168 18.3397 105.304 18.5752 105.304C18.8123 105.304 18.9309 105.168 18.9309 104.897V103.875H20.1282V104.897Z" fill="white"/>
<path d="M23.9832 103.756L24.3248 106.34H23.1165L22.9186 104.843H22.0377L21.8367 106.34H20.6323L20.9739 103.767L21.704 99.1367H23.257L23.9832 103.756ZM22.7639 103.692L22.4766 101.512L22.1892 103.692H22.7639Z" fill="white"/>
<path d="M24.9355 99.1367H26.5066C27.4707 99.1391 27.952 99.6584 27.952 100.695V101.756C27.952 102.409 27.6905 102.831 27.1684 103.023L28.3226 106.34H27.0177L26.198 103.243H26.1336V106.34H24.9355V99.1367ZM26.1336 100.285V102.163H26.2773C26.4069 102.163 26.4909 102.156 26.5293 102.142C26.6801 102.082 26.7555 101.953 26.7555 101.757V100.695C26.7555 100.422 26.6385 100.285 26.4029 100.285H26.1336V100.285Z" fill="white"/>
<path d="M30.4228 102.162H31.9295V104.897C31.9295 105.933 31.4121 106.453 30.3765 106.455C29.3433 106.455 28.8267 105.936 28.8267 104.897V100.579C28.8267 99.5427 29.3433 99.0249 30.3765 99.0249C31.4121 99.0249 31.9295 99.5427 31.9295 100.579V101.601H30.7322V100.579C30.7322 100.31 30.6144 100.175 30.3796 100.172H30.3726C30.1402 100.172 30.024 100.308 30.024 100.579V104.897C30.024 105.168 30.141 105.304 30.3765 105.304C30.6136 105.304 30.7322 105.168 30.7322 104.897V103.314H30.4228V102.162Z" fill="white"/>
<path d="M35.8197 103.756L36.1612 106.34H34.9529L34.755 104.843H33.8741L33.6731 106.34H32.4688L32.8103 103.767L33.5404 99.1367H35.0934L35.8197 103.756ZM34.6012 103.692L34.3138 101.512L34.0264 103.692H34.6012Z" fill="white"/>
<path d="M36.7729 99.1367H38.4303C39.3937 99.1391 39.8758 99.6584 39.8758 100.695V104.786C39.8758 105.82 39.3733 106.337 38.3691 106.34H36.7729V99.1367ZM37.9703 100.285V105.193H38.3259C38.5607 105.193 38.6784 105.057 38.6784 104.786V100.695C38.6784 100.421 38.5607 100.285 38.3259 100.285H37.9703Z" fill="white"/>
<path d="M43.766 103.756L44.1075 106.34H42.8992L42.7013 104.843H41.8204L41.6194 106.34H40.415L40.7566 103.767L41.4867 99.1367H43.0397L43.766 103.756ZM42.5474 103.692L42.2601 101.512L41.9727 103.692H42.5474Z" fill="white"/>
<path d="M44.647 100.579C44.647 99.5427 45.1636 99.0249 46.1968 99.0249C47.2324 99.0249 47.7498 99.5427 47.7498 100.579V101.601H46.5525V100.579C46.5525 100.31 46.4347 100.175 46.1999 100.172H46.1929C45.9605 100.172 45.8443 100.308 45.8443 100.579V101.219C45.8443 101.512 46.1513 101.879 46.7645 102.32C47.4208 102.787 47.7498 103.349 47.7498 104.004V104.896C47.7498 105.935 47.2332 106.454 46.1999 106.454C45.1644 106.452 44.647 105.932 44.647 104.896V103.874H45.8443V104.896C45.8443 105.167 45.9628 105.303 46.1999 105.303C46.4347 105.303 46.5525 105.167 46.5525 104.896V104.09C46.5525 103.771 46.2455 103.391 45.6323 102.949C44.9752 102.482 44.647 101.912 44.647 101.24V100.579Z" fill="white"/>
<path d="M10.1587 38.2713C10.2584 38.2713 10.3416 38.2713 10.4209 38.3247C10.4978 38.3766 10.5473 38.4418 10.5473 38.5258C10.5473 38.6343 10.4609 38.6995 10.3479 38.7317C10.5096 38.7513 10.6195 38.8676 10.6195 39.009C10.6195 39.1096 10.574 39.1945 10.4861 39.2604C10.384 39.3367 10.2843 39.3382 10.1508 39.3382H9.59888V39.3335C9.69152 39.2832 9.67817 39.1921 9.67817 39.1065V38.5007C9.67817 38.4166 9.69152 38.3239 9.59888 38.2752V38.2705H10.1587V38.2713ZM10.0244 38.6806C10.0378 38.6838 10.0472 38.6869 10.0605 38.6869C10.1508 38.6869 10.1979 38.617 10.1979 38.5471C10.1979 38.4834 10.1602 38.4221 10.0794 38.4221C10.0605 38.4221 10.0433 38.4253 10.0244 38.4316V38.6806ZM10.0244 39.167C10.0527 39.1835 10.0731 39.1866 10.1076 39.1866C10.2301 39.1866 10.2796 39.0986 10.2796 39.0051C10.2796 38.8818 10.2136 38.8268 10.0707 38.8268H10.0252V39.167H10.0244Z" fill="white"/>
<path d="M11.0631 39.0163L11.0176 39.1263C11.0042 39.1585 10.9838 39.2088 10.9838 39.2434C10.9838 39.2889 11.0176 39.3101 11.0513 39.3345V39.3392H10.665V39.3345C10.7365 39.2779 10.7608 39.2308 10.7954 39.1475L11.0552 38.5001C11.0662 38.4679 11.0969 38.4043 11.0969 38.3705C11.0969 38.3265 11.0631 38.2974 11.0254 38.2762V38.2715H11.4871L11.8427 39.1074C11.8883 39.2111 11.8977 39.2489 12.0045 39.3345V39.3392H11.4352V39.3345C11.4784 39.3101 11.5122 39.2874 11.5122 39.2355C11.5122 39.208 11.5083 39.2001 11.4973 39.1734L11.4352 39.0163H11.0631ZM11.2437 38.5457H11.2421L11.1181 38.8654H11.374L11.2437 38.5457Z" fill="white"/>
<path d="M12.255 39.3618L11.8734 38.4174C11.8506 38.3609 11.8302 38.3169 11.7808 38.276V38.2713H12.2063V38.276L12.2047 38.2839C12.2047 38.3294 12.2463 38.4237 12.2628 38.4669L12.5023 39.064L12.7245 38.4764C12.7355 38.4473 12.7512 38.4127 12.7512 38.3821C12.7512 38.3286 12.7151 38.2996 12.668 38.2752V38.2705H13.0056V38.2752L12.5706 39.3618H12.255Z" fill="white"/>
<path d="M13.2184 39.0163L13.1728 39.1263C13.1595 39.1585 13.1391 39.2088 13.1391 39.2434C13.1391 39.2889 13.1728 39.3101 13.2066 39.3345V39.3392H12.8203V39.3345C12.8918 39.2779 12.9161 39.2308 12.9506 39.1475L13.2105 38.5001C13.2215 38.4679 13.2521 38.4043 13.2521 38.3705C13.2521 38.3265 13.2184 38.2974 13.1807 38.2762V38.2715H13.6423L13.9988 39.1074C14.0443 39.2111 14.053 39.2489 14.1605 39.3345V39.3392H13.5913V39.3345C13.6345 39.3101 13.6682 39.2874 13.6682 39.2355C13.6682 39.208 13.6643 39.2001 13.6533 39.1734L13.5913 39.0163H13.2184ZM13.3997 38.5457H13.3982L13.2741 38.8654H13.5301L13.3997 38.5457Z" fill="white"/>
<path d="M14.6191 39.1074C14.6191 39.1915 14.6057 39.2842 14.6984 39.3345V39.3392H14.1912V39.3345C14.2838 39.2842 14.2705 39.1915 14.2705 39.1074V38.5033C14.2705 38.4192 14.2838 38.3265 14.1912 38.2762V38.2715H14.7486C14.8412 38.2715 14.9166 38.2699 15.0014 38.3084C15.1129 38.3603 15.1694 38.4467 15.1694 38.5551C15.1694 38.6769 15.0697 38.7665 14.9449 38.8112L15.1694 39.1342C15.2205 39.2072 15.2746 39.2756 15.35 39.329L15.0901 39.3439C14.9637 39.3502 14.9033 39.3361 14.8373 39.2355L14.6191 38.882V39.1074ZM14.6191 38.4286V38.7955C14.736 38.7775 14.8224 38.6918 14.8224 38.5897C14.8224 38.5378 14.7981 38.4828 14.747 38.4514C14.7148 38.4318 14.6756 38.4286 14.6379 38.4286H14.6191Z" fill="white"/>
<path d="M15.7904 39.109C15.7904 39.1931 15.7771 39.2842 15.8697 39.3345V39.3392H15.3625V39.3345C15.4552 39.2842 15.4418 39.1931 15.4418 39.109V38.5033C15.4418 38.4192 15.4552 38.3265 15.3625 38.2762V38.2715H15.8697V38.2762C15.7771 38.3265 15.7904 38.4192 15.7904 38.5033V39.109Z" fill="white"/>
<path d="M16.3085 39.0163L16.2629 39.1263C16.2496 39.1585 16.2292 39.2088 16.2292 39.2434C16.2292 39.2889 16.2629 39.3101 16.2967 39.3345V39.3392H15.9104V39.3345C15.9818 39.2779 16.0062 39.2308 16.0407 39.1475L16.3006 38.5001C16.3116 38.4679 16.3422 38.4043 16.3422 38.3705C16.3422 38.3265 16.3085 38.2974 16.2708 38.2762V38.2715H16.7324L17.0889 39.1074C17.1344 39.2111 17.1438 39.2489 17.2506 39.3345V39.3392H16.6814V39.3345C16.7246 39.3101 16.7583 39.2874 16.7583 39.2355C16.7583 39.208 16.7544 39.2001 16.7434 39.1734L16.6814 39.0163H16.3085ZM16.4898 38.5457H16.4875L16.3626 38.8654H16.6186L16.4898 38.5457Z" fill="white"/>
<path d="M15.3727 35.864C15.3727 35.864 16.1641 35.5796 16.1641 35.2473C16.1641 34.8804 15.1254 34.4365 14.5758 34.3076C14.3913 34.405 13.2372 34.9566 13.2372 34.9566C13.2372 34.9566 12.39 34.3838 11.8499 34.3225C11.623 34.4396 10.2286 35.1703 10.2286 35.1703C10.2286 35.1703 11.2728 35.1797 11.7085 35.7328C11.7085 36.0274 11.7085 37.096 11.7085 37.2437C11.4447 37.5634 10.1367 37.6019 10.1367 37.6019V37.6781C10.1367 37.6781 12.9859 37.6781 14.5585 37.6781C15.4905 37.6781 16.5237 37.3073 16.5237 36.8053C16.5229 36.2741 15.3727 35.864 15.3727 35.864ZM13.2474 35.1616C13.2474 35.1616 14.3246 35.2426 14.3034 35.7077C14.2861 36.0832 13.2474 36.1602 13.2474 36.1602V35.1616ZM13.2474 37.3034V36.3134C13.2474 36.3134 14.7556 36.7173 14.7556 37.1926C14.7548 37.7559 13.2474 37.3034 13.2474 37.3034Z" fill="white"/>
<path d="M14.3348 34.1261C14.323 34.1057 14.3042 34.108 14.294 34.112C14.2571 34.1261 14.2178 34.1355 14.1754 34.1355C14.0404 34.1355 13.9257 34.0491 13.8818 33.9281L13.8802 33.925C13.8802 33.925 13.8543 33.8511 13.8433 33.7403C13.8315 33.6296 13.7365 32.8156 13.7365 32.8156H13.7593C13.8386 32.8156 13.8731 32.7661 13.8731 32.704V32.6616C13.8731 32.6616 12.9176 32.6616 12.8839 32.6616H12.8855C12.8156 32.6616 12.7575 32.7135 12.7473 32.7818L12.5989 32.7842C12.5227 32.7842 12.4615 32.847 12.4615 32.924L12.4576 33.2595C12.4615 33.2611 12.4662 33.2619 12.4701 33.2619C12.4905 33.2619 12.5047 33.2407 12.5149 33.2242C12.5314 33.199 12.551 33.1566 12.551 33.1566H12.8305L12.88 33.2359H12.5714V33.3263V33.3255C12.5714 33.3923 12.6248 33.4457 12.69 33.4457H12.8352L12.8226 33.9988C12.752 34.0876 12.6436 34.145 12.5219 34.145C12.4733 34.145 12.4144 34.1347 12.3649 34.1112C12.3649 34.1112 12.3429 34.1017 12.3264 34.1222C12.3131 34.1395 12.3225 34.1591 12.3319 34.167C12.5274 34.3233 12.701 34.3374 12.8541 34.3374C13.1179 34.3374 13.3212 34.2243 13.3879 34.185C13.4515 34.2314 13.6078 34.3382 13.841 34.3382C14.0262 34.3382 14.1927 34.2746 14.3262 34.1662C14.3324 34.163 14.3458 34.145 14.3348 34.1261ZM13.1084 33.034C13.0488 33.034 13.0009 32.9853 13.0009 32.9264C13.1265 32.928 13.1375 32.9264 13.2168 32.9264C13.2168 32.9861 13.1681 33.034 13.1084 33.034Z" fill="white"/>
<path d="M43.5831 52.4559C42.3152 53.7248 42.6637 56.1289 42.6637 56.1289C42.6637 56.1289 45.0662 56.477 46.3342 55.2089C47.6014 53.94 47.2536 51.5359 47.2536 51.5359C47.2536 51.5359 44.8511 51.1878 43.5831 52.4559Z" fill="white"/>
<path d="M41.6814 52.4559C42.9494 53.7248 42.6016 56.1289 42.6016 56.1289C42.6016 56.1289 40.1983 56.477 38.9304 55.2089C37.6632 53.94 38.011 51.5359 38.011 51.5359C38.011 51.5359 40.4135 51.1878 41.6814 52.4559Z" fill="white"/>
<path d="M43.5831 57.6893C42.3152 58.9574 42.6637 61.3623 42.6637 61.3623C42.6637 61.3623 45.0662 61.7104 46.3342 60.4423C47.6014 59.1734 47.2536 56.7693 47.2536 56.7693C47.2536 56.7693 44.8511 56.4213 43.5831 57.6893Z" fill="white"/>
<path d="M41.6814 57.6893C42.9494 58.9574 42.6016 61.3623 42.6016 61.3623C42.6016 61.3623 40.1983 61.7104 38.9304 60.4423C37.6632 59.1734 38.011 56.7693 38.011 56.7693C38.011 56.7693 40.4135 56.4213 41.6814 57.6893Z" fill="white"/>
<path d="M43.5831 62.9222C42.3152 64.1903 42.6637 66.5953 42.6637 66.5953C42.6637 66.5953 45.0662 66.9433 46.3342 65.6752C47.6014 64.4064 47.2536 62.0022 47.2536 62.0022C47.2536 62.0022 44.8511 61.6542 43.5831 62.9222Z" fill="white"/>
<path d="M41.6814 62.9222C42.9494 64.1903 42.6016 66.5953 42.6016 66.5953C42.6016 66.5953 40.1983 66.9433 38.9304 65.6752C37.6632 64.4064 38.011 62.0022 38.011 62.0022C38.011 62.0022 40.4135 61.6542 41.6814 62.9222Z" fill="white"/>
</g>
<defs>
<clipPath id="clip0">
<rect width="57" height="117" fill="white"/>
</clipPath>
</defs>
</svg>
