<svg width="83" height="40" viewBox="0 0 83 40" fill="none" xmlns="http://www.w3.org/2000/svg">
<path fill-rule="evenodd" clip-rule="evenodd" d="M60.5488 7.36668C61.5787 7.36668 62.0666 6.72105 62.0666 5.88049C62.0666 5.04105 61.5257 4.39429 60.5488 4.39429C59.573 4.39429 59.0311 5.04105 59.0311 5.88049C59.0311 6.71992 59.5201 7.36668 60.5488 7.36668ZM57.5562 9.49739C57.5562 11.1774 56.5793 12.4698 54.5207 12.4698C52.4621 12.4698 51.4863 11.1774 51.4863 9.49739C51.4863 7.81739 52.568 6.52499 54.5207 6.52499C56.4745 6.52499 57.5562 7.81739 57.5562 9.49739ZM60.3427 8.82584C59.8311 8.82584 59.3714 8.88893 58.9579 9.00386C58.9748 9.17288 58.9838 9.34415 58.9838 9.51992C58.9838 11.4039 58.1151 12.9486 56.3055 13.5357C56.5365 15.5594 57.9528 17.0467 60.3427 17.0467C62.9635 17.0467 64.4148 15.2596 64.4148 12.9363C64.4148 10.6129 63.1044 8.82584 60.3427 8.82584ZM57.457 17.9109C58.212 18.3481 59.4198 18.5971 60.3427 18.5971C61.3928 18.5971 62.3968 18.3402 63.1584 17.8884V31.192C63.1584 31.6765 62.7663 32.0686 62.2818 32.0686H58.3337C57.8491 32.0686 57.457 31.6765 57.457 31.192V17.9109ZM67.2677 26.7402V21.0444H65.1122C64.7494 21.0444 64.4542 20.7503 64.4542 20.3864V17.3408C64.4542 16.9779 64.7483 16.6827 65.1122 16.6827H67.2306L67.2644 14.1498C67.2655 14.0968 67.2689 14.0439 67.2801 13.992C67.4187 13.3419 67.8773 13.0163 68.5534 13.0163H72.0553C72.5399 13.0163 72.932 13.4084 72.932 13.8929V16.6827H75.6058C75.9686 16.6827 76.2638 16.9768 76.2638 17.3408V20.3875C76.2638 20.7503 75.9697 21.0456 75.6058 21.0456H72.9331V26.7999C72.9331 27.4726 73.2553 27.7363 73.6644 27.7363C74.2796 27.7363 74.4846 27.121 74.4846 26.5656C74.4846 26.3898 74.4846 26.2433 74.4553 26.0968C74.3967 25.4816 74.6018 25.1605 75.1866 25.1605H77.3522C77.821 25.1605 78.2007 25.3363 78.3472 25.805C78.4903 26.1757 78.5489 26.5746 78.5793 26.9746C78.5804 26.9949 78.5815 27.0163 78.5815 27.0365C78.5669 31.3137 75.5314 32.392 72.9027 32.392C70.1522 32.3898 67.2677 31.2484 67.2677 26.7402Z" fill="#FF5005"/>
<path fill-rule="evenodd" clip-rule="evenodd" d="M7.42965 26.7403V21.0445H5.16486C4.80205 21.0445 4.50684 20.7504 4.50684 20.3865V17.3409C4.50684 16.978 4.80092 16.6828 5.16486 16.6828H7.39247L7.42627 14.1499C7.4274 14.0969 7.43078 14.044 7.44205 13.9921C7.58064 13.342 8.03923 13.0164 8.71529 13.0164H12.2173C12.7018 13.0164 13.0939 13.4085 13.0939 13.893V16.6828H15.7666C16.1294 16.6828 16.4246 16.9769 16.4246 17.3409V20.3876C16.4246 20.7504 16.1305 21.0457 15.7666 21.0457H13.0939V26.8C13.0939 27.4727 13.4161 27.7364 13.8251 27.7364C14.4404 27.7364 14.6454 27.1211 14.6454 26.5657C14.6454 26.3899 14.6454 26.2434 14.6161 26.0969C14.5575 25.4817 14.7626 25.1606 15.3474 25.1606H17.513C17.9818 25.1606 18.3615 25.3364 18.508 25.8051C18.6511 26.1758 18.7097 26.5747 18.7401 26.9747C18.7412 26.9949 18.7423 27.0164 18.7423 27.0366C18.7277 31.3138 15.6922 32.3921 13.0635 32.3921C10.313 32.3899 7.42965 31.2485 7.42965 26.7403ZM19.2133 24.3696C19.2133 29.0242 22.3457 32.3899 26.4437 32.3899C28.4336 32.3899 30.0145 31.5414 30.8347 30.1363V31.2101C30.8347 31.6947 31.2268 32.0868 31.7114 32.0868H35.6595C36.144 32.0868 36.5361 31.6947 36.5361 31.2101V17.5471C36.5361 17.0626 36.144 16.6704 35.6595 16.6704H31.7114C31.2268 16.6704 30.8347 17.0626 30.8347 17.5471V18.5724C30.0145 17.1966 28.4336 16.3482 26.4437 16.3482C22.3446 16.3493 19.2133 19.7149 19.2133 24.3696ZM24.7153 24.293C24.7153 22.613 25.797 21.3206 27.7508 21.3206C29.7035 21.3206 30.7852 22.613 30.7852 24.293C30.7852 25.973 29.8083 27.2654 27.7508 27.2654C25.6922 27.2654 24.7153 25.973 24.7153 24.293ZM44.313 18.5735C45.1333 17.1978 46.7142 16.3493 48.704 16.3493C52.802 16.3493 55.9344 19.715 55.9344 24.3707C55.9344 29.0242 52.802 32.391 48.704 32.391C46.7142 32.391 45.1333 31.5426 44.313 30.1375V34.8282C44.313 35.3127 43.9209 35.7048 43.4364 35.7048H39.4882C39.0037 35.7048 38.6116 35.3127 38.6116 34.8282V17.5482C38.6116 17.0637 39.0037 16.6716 39.4882 16.6716H43.4364C43.9209 16.6716 44.313 17.0637 44.313 17.5482V18.5735ZM44.3626 24.293C44.3626 25.973 45.3384 27.2654 47.397 27.2654C49.4556 27.2654 50.4325 25.973 50.4325 24.293C50.4325 22.613 49.3497 21.3206 47.397 21.3206C45.4443 21.3206 44.3626 22.613 44.3626 24.293Z" fill="#191419"/>
</svg>
