<svg width="155" height="65" viewBox="0 0 155 65" fill="none" xmlns="http://www.w3.org/2000/svg">
<g clip-path="url(#clip0)">
<path d="M116.834 9.2002C115.763 9.2002 114.801 9.33119 113.936 9.56979C113.971 9.92068 113.99 10.2762 113.99 10.6412C113.99 14.5523 112.172 17.7594 108.386 18.9781C108.869 23.1794 111.833 26.2672 116.834 26.2672C122.318 26.2672 125.354 22.5572 125.354 17.7337C125.354 12.9102 122.612 9.2002 116.834 9.2002Z" fill="white"/>
<path d="M111.003 10.5942C111.003 14.082 108.959 16.7651 104.651 16.7651C100.344 16.7651 98.302 14.082 98.302 10.5942C98.302 7.10643 100.565 4.42334 104.651 4.42334C108.74 4.42334 111.003 7.10643 111.003 10.5942Z" fill="white"/>
<path d="M30.7727 41.4698C30.7727 51.1332 37.3271 58.1204 45.9021 58.1204C50.0658 58.1204 53.3736 56.359 55.09 53.442V55.6713C55.09 56.6771 55.9105 57.4912 56.9243 57.4912H65.1857C66.1995 57.4912 67.02 56.6771 67.02 55.6713V27.3058C67.02 26.3 66.1995 25.4859 65.1857 25.4859H56.9243C55.9105 25.4859 55.09 26.3 55.09 27.3058V29.4345C53.3736 26.5783 50.0658 24.8169 45.9021 24.8169C37.3248 24.8192 30.7727 31.8065 30.7727 41.4698ZM42.2854 41.3108C42.2854 37.823 44.5488 35.1399 48.637 35.1399C52.7229 35.1399 54.9863 37.823 54.9863 41.3108C54.9863 44.7985 52.9422 47.4816 48.637 47.4816C44.3295 47.4816 42.2854 44.7985 42.2854 41.3108Z" fill="white"/>
<path d="M116.833 29.486C114.903 29.486 112.375 28.9691 110.795 28.0614V55.6339C110.795 56.6397 111.616 57.4538 112.63 57.4538H120.891C121.905 57.4538 122.725 56.6397 122.725 55.6339V28.0146C121.132 28.9527 119.031 29.486 116.833 29.486Z" fill="white"/>
<path d="M6.11588 46.3916V34.5669H1.3769C0.617718 34.5669 0 33.9563 0 33.2008V26.8778C0 26.1246 0.61536 25.5117 1.3769 25.5117H6.03807L6.1088 20.2532C6.11116 20.1432 6.11823 20.0333 6.14181 19.9257C6.43181 18.5759 7.39139 17.8999 8.80601 17.8999H16.1337C17.1476 17.8999 17.968 18.714 17.968 19.7198V25.5117H23.5605C24.3197 25.5117 24.9374 26.1223 24.9374 26.8778V33.2031C24.9374 33.9563 24.322 34.5692 23.5605 34.5692H17.968V46.5156C17.968 47.9121 18.6423 48.4595 19.4982 48.4595C20.7855 48.4595 21.2146 47.1823 21.2146 46.0291C21.2146 45.6642 21.2146 45.3601 21.1533 45.056C21.0307 43.7787 21.4598 43.1121 22.6834 43.1121H27.2149C28.1957 43.1121 28.9903 43.477 29.2968 44.4501C29.5962 45.2197 29.7188 46.0478 29.7825 46.8782C29.7848 46.9203 29.7872 46.9648 29.7872 47.0069C29.7565 55.8866 23.4049 58.1252 17.9044 58.1252C12.1492 58.1205 6.11588 55.7509 6.11588 46.3916Z" fill="white"/>
<path d="M131.324 46.3916V34.5669H126.814C126.054 34.5669 125.437 33.9563 125.437 33.2008V26.8778C125.437 26.1246 126.052 25.5117 126.814 25.5117H131.246L131.317 20.2532C131.319 20.1432 131.326 20.0333 131.35 19.9257C131.64 18.5759 132.599 17.8999 134.014 17.8999H141.342C142.356 17.8999 143.176 18.714 143.176 19.7198V25.5117H148.771C149.53 25.5117 150.148 26.1223 150.148 26.8778V33.2031C150.148 33.9563 149.532 34.5692 148.771 34.5692H143.178V46.5156C143.178 47.9121 143.853 48.4595 144.709 48.4595C145.996 48.4595 146.425 47.1823 146.425 46.0291C146.425 45.6642 146.425 45.3601 146.364 45.056C146.241 43.7787 146.67 43.1121 147.894 43.1121H152.425C153.406 43.1121 154.201 43.477 154.507 44.4501C154.807 45.2197 154.929 46.0478 154.993 46.8782C154.995 46.9203 154.998 46.9648 154.998 47.0069C154.967 55.8866 148.615 58.1252 143.115 58.1252C137.36 58.1205 131.324 55.7509 131.324 46.3916Z" fill="white"/>
<path d="M92.4807 24.8193C88.317 24.8193 85.0092 26.5808 83.2928 29.437V27.3083C83.2928 26.3024 82.4723 25.4884 81.4585 25.4884H73.1971C72.1833 25.4884 71.3628 26.3024 71.3628 27.3083V63.1826C71.3628 64.1885 72.1833 65.0025 73.1971 65.0025H81.4585C82.4723 65.0025 83.2928 64.1885 83.2928 63.1826V53.4444C85.0092 56.3614 88.317 58.1229 92.4807 58.1229C101.056 58.1229 107.61 51.1333 107.61 41.4723C107.61 31.8066 101.056 24.8193 92.4807 24.8193ZM89.7458 47.4817C85.4383 47.4817 83.3965 44.7986 83.3965 41.3109C83.3965 37.8231 85.6599 35.14 89.7458 35.14C93.8317 35.14 96.0974 37.8231 96.0974 41.3109C96.0974 44.7986 94.0533 47.4817 89.7458 47.4817Z" fill="white"/>
<path d="M120.441 3.08544C120.441 4.8305 119.42 6.17087 117.265 6.17087C115.112 6.17087 114.089 4.82816 114.089 3.08544C114.089 1.34271 115.223 0 117.265 0C119.309 0 120.441 1.34271 120.441 3.08544Z" fill="white"/>
</g>
<defs>
<clipPath id="clip0">
<rect width="155" height="65" fill="white"/>
</clipPath>
</defs>
</svg>
