<svg width="24" height="24" viewBox="0 0 24 24" fill="none" xmlns="http://www.w3.org/2000/svg">
<path d="M17.0001 9.17019C16.8127 8.98394 16.5593 8.87939 16.2951 8.87939C16.0309 8.87939 15.7774 8.98394 15.5901 9.17019L12.0001 12.7102L8.46007 9.17019C8.27271 8.98394 8.01926 8.87939 7.75507 8.87939C7.49089 8.87939 7.23743 8.98394 7.05007 9.17019C6.95634 9.26315 6.88195 9.37375 6.83118 9.49561C6.78041 9.61747 6.75427 9.74818 6.75427 9.88019C6.75427 10.0122 6.78041 10.1429 6.83118 10.2648C6.88195 10.3866 6.95634 10.4972 7.05007 10.5902L11.2901 14.8302C11.383 14.9239 11.4936 14.9983 11.6155 15.0491C11.7374 15.0998 11.8681 15.126 12.0001 15.126C12.1321 15.126 12.2628 15.0998 12.3846 15.0491C12.5065 14.9983 12.6171 14.9239 12.7101 14.8302L17.0001 10.5902C17.0938 10.4972 17.1682 10.3866 17.219 10.2648C17.2697 10.1429 17.2959 10.0122 17.2959 9.88019C17.2959 9.74818 17.2697 9.61747 17.219 9.49561C17.1682 9.37375 17.0938 9.26315 17.0001 9.17019Z" fill="black"/>
</svg>
