<svg width="104" height="63" viewBox="0 0 104 63" fill="none" xmlns="http://www.w3.org/2000/svg">
<circle cx="30" cy="33" r="30" fill="white"/>
<circle cx="66.5" cy="31.5" r="31.5" fill="white"/>
<circle cx="82.5" cy="41.5" r="21.5" fill="white"/>
<path fill-rule="evenodd" clip-rule="evenodd" d="M76.9013 21.1036C78.0562 21.1036 78.6033 20.3934 78.6033 19.4688C78.6033 18.5454 77.9968 17.834 76.9013 17.834C75.807 17.834 75.1992 18.5454 75.1992 19.4688C75.1992 20.3922 75.7476 21.1036 76.9013 21.1036ZM73.5452 23.4474C73.5452 25.2954 72.4497 26.717 70.1411 26.717C67.8326 26.717 66.7383 25.2954 66.7383 23.4474C66.7383 21.5994 67.9513 20.1778 70.1411 20.1778C72.3322 20.1778 73.5452 21.5994 73.5452 23.4474ZM76.6701 22.7087C76.0964 22.7087 75.5809 22.7781 75.1172 22.9045C75.1361 23.0904 75.1462 23.2788 75.1462 23.4722C75.1462 25.5445 74.172 27.2438 72.1427 27.8895C72.4017 30.1156 73.99 31.7516 76.6701 31.7516C79.6092 31.7516 81.2367 29.7859 81.2367 27.2302C81.2367 24.6744 79.7671 22.7087 76.6701 22.7087ZM73.434 32.7023C74.2806 33.1832 75.6352 33.4571 76.6701 33.4571C77.8477 33.4571 78.9736 33.1745 79.8278 32.6775V47.3115C79.8278 47.8445 79.388 48.2758 78.8447 48.2758H74.4171C73.8737 48.2758 73.434 47.8445 73.434 47.3115V32.7023ZM84.4361 42.4145V36.1491H82.0188C81.612 36.1491 81.2809 35.8256 81.2809 35.4253V32.0751C81.2809 31.676 81.6107 31.3513 82.0188 31.3513H84.3944L84.4323 28.565C84.4336 28.5068 84.4373 28.4485 84.45 28.3915C84.6054 27.6764 85.1197 27.3182 85.8778 27.3182H89.8051C90.3484 27.3182 90.7881 27.7495 90.7881 28.2824V31.3513H93.7866C94.1935 31.3513 94.5246 31.6748 94.5246 32.0751V35.4265C94.5246 35.8256 94.1948 36.1504 93.7866 36.1504H90.7894V42.4802C90.7894 43.2201 91.1508 43.5102 91.6095 43.5102C92.2994 43.5102 92.5294 42.8334 92.5294 42.2224C92.5294 42.029 92.5294 41.8679 92.4965 41.7068C92.4308 41.03 92.6608 40.6768 93.3166 40.6768H95.7452C96.2708 40.6768 96.6967 40.8702 96.8609 41.3858C97.0214 41.7935 97.0871 42.2323 97.1212 42.6723C97.1225 42.6946 97.1237 42.7182 97.1237 42.7405C97.1073 47.4454 93.7032 48.6315 90.7553 48.6315C87.6709 48.629 84.4361 47.3735 84.4361 42.4145Z" fill="#FF5005"/>
<path fill-rule="evenodd" clip-rule="evenodd" d="M17.3321 42.4142V36.1489H14.7923C14.3854 36.1489 14.0543 35.8254 14.0543 35.425V32.0748C14.0543 31.6757 14.3841 31.351 14.7923 31.351H17.2904L17.3283 28.5647C17.3295 28.5065 17.3333 28.4482 17.346 28.3912C17.5014 27.6761 18.0157 27.3179 18.7738 27.3179H22.701C23.2444 27.3179 23.6841 27.7492 23.6841 28.2822V31.351H26.6813C27.0882 31.351 27.4193 31.6745 27.4193 32.0748V35.4263C27.4193 35.8254 27.0895 36.1501 26.6813 36.1501H23.6841V42.4799C23.6841 43.2198 24.0455 43.5099 24.5042 43.5099C25.1941 43.5099 25.4241 42.8331 25.4241 42.2221C25.4241 42.0287 25.4241 41.8676 25.3912 41.7065C25.3255 41.0298 25.5555 40.6765 26.2113 40.6765H28.6399C29.1656 40.6765 29.5914 40.8699 29.7557 41.3855C29.9161 41.7933 29.9818 42.232 30.016 42.672C30.0166 42.6841 30.0173 42.6965 30.0178 42.7089C30.0182 42.7194 30.0185 42.7299 30.0185 42.7402C30.0021 47.4451 26.5979 48.6312 23.65 48.6312C20.5656 48.6287 17.3321 47.3732 17.3321 42.4142ZM30.5467 39.8064C30.5467 44.9265 34.0594 48.6287 38.6551 48.6287C40.8866 48.6287 42.6594 47.6954 43.5793 46.1499V47.331C43.5793 47.864 44.019 48.2953 44.5624 48.2953H48.99C49.5333 48.2953 49.9731 47.864 49.9731 47.331V32.3017C49.9731 31.7687 49.5333 31.3374 48.99 31.3374H44.5624C44.019 31.3374 43.5793 31.7687 43.5793 32.3017V33.4295C42.6594 31.9162 40.8866 30.9829 38.6551 30.9829C34.0582 30.9841 30.5467 34.6863 30.5467 39.8064ZM36.7168 39.7221C36.7168 37.8742 37.9298 36.4525 40.1209 36.4525C42.3107 36.4525 43.5237 37.8742 43.5237 39.7221C43.5237 41.5701 42.4282 42.9918 40.1209 42.9918C37.8123 42.9918 36.7168 41.5701 36.7168 39.7221ZM58.6943 33.4308C59.6142 31.9174 61.387 30.9841 63.6185 30.9841C68.2142 30.9841 71.727 34.6863 71.727 39.8077C71.727 44.9266 68.2142 48.63 63.6185 48.63C61.387 48.63 59.6142 47.6967 58.6943 46.1511V51.3109C58.6943 51.8438 58.2546 52.2752 57.7112 52.2752H53.2836C52.7403 52.2752 52.3006 51.8438 52.3006 51.3109V32.3029C52.3006 31.7699 52.7403 31.3386 53.2836 31.3386H57.7112C58.2546 31.3386 58.6943 31.7699 58.6943 32.3029V33.4308ZM58.7499 39.7222C58.7499 41.5702 59.8442 42.9918 62.1528 42.9918C64.4613 42.9918 65.5569 41.5702 65.5569 39.7222C65.5569 37.8742 64.3426 36.4525 62.1528 36.4525C59.963 36.4525 58.7499 37.8742 58.7499 39.7222Z" fill="#191419"/>
<path d="M49.5468 17.132C50.3388 17.132 51.1668 16.952 51.8748 16.436C52.1988 16.196 52.2228 15.872 51.9828 15.584L51.8508 15.416C51.6228 15.14 51.3588 15.116 51.0348 15.296C50.5668 15.56 50.1108 15.668 49.6668 15.668C48.4788 15.668 47.7468 14.96 47.7708 14.228H52.0668C52.4268 14.228 52.6668 14.072 52.6548 13.724C52.5708 11.756 51.1308 10.7 49.3788 10.7C47.3028 10.7 45.9948 12.2 45.9948 13.94C45.9948 15.704 47.3388 17.132 49.5468 17.132ZM47.8188 13.196C48.0228 12.392 48.7548 12.104 49.4028 12.104C50.0388 12.104 50.7468 12.368 50.9148 13.196H47.8188ZM54.2907 17H54.9987C55.3707 17 55.5747 16.796 55.5747 16.424V13.856C55.5747 12.704 56.2347 12.212 56.8707 12.212C57.5067 12.212 57.8427 12.716 57.8427 13.58V16.424C57.8427 16.796 58.0467 17 58.4187 17H59.1147C59.4867 17 59.7027 16.796 59.7027 16.424V13.448C59.7027 11.996 59.1027 10.7 57.4467 10.7C56.5347 10.7 55.8747 11.108 55.5747 11.816V11.408C55.5747 11.036 55.3707 10.832 54.9987 10.832H54.2907C53.9187 10.832 53.7147 11.036 53.7147 11.408V16.424C53.7147 16.796 53.9187 17 54.2907 17Z" fill="black"/>
</svg>
