<svg xmlns="http://www.w3.org/2000/svg" width="477" height="289" viewBox="0 0 477 289">
  <g id="edit-profile-img-1" transform="translate(-228 -347)">
    <g id="Group_299" data-name="Group 299" transform="translate(228 347)">
      <circle id="Elipse_1" data-name="Elipse 1" cx="137.5" cy="137.5" r="137.5" transform="translate(0 14)" fill="#fff"/>
      <ellipse id="Elipse_2" data-name="Elipse 2" cx="144" cy="144.5" rx="144" ry="144.5" transform="translate(161)" fill="#fff"/>
      <circle id="Elipse_3" data-name="Elipse 3" cx="98.5" cy="98.5" r="98.5" transform="translate(280 92)" fill="#fff"/>
    </g>
    <g id="tap-it_black-orange" transform="translate(302.464 435.946)">
      <path id="Trazado_1" data-name="Trazado 1" d="M102.626,19.275c5.1,0,7.518-3.137,7.518-7.221s-2.679-7.221-7.518-7.221-7.517,3.142-7.517,7.221S97.531,19.275,102.626,19.275ZM87.8,29.627c0,8.162-4.839,14.441-15.035,14.441s-15.03-6.279-15.03-14.441S63.1,15.186,72.768,15.186,87.8,21.465,87.8,29.627Zm13.8-3.263a25.98,25.98,0,0,0-6.859.865,24.588,24.588,0,0,1,.129,2.507c0,9.153-4.3,16.658-13.266,19.51,1.144,9.832,8.16,17.058,20,17.058,12.981,0,20.169-8.682,20.169-19.97S115.284,26.364,101.605,26.364ZM87.312,70.5c3.739,2.124,9.722,3.334,14.293,3.334a28.217,28.217,0,0,0,13.947-3.443v64.635a4.3,4.3,0,0,1-4.342,4.259H91.654a4.3,4.3,0,0,1-4.342-4.259Zm48.594,42.9V85.727H125.229a3.229,3.229,0,0,1-3.259-3.2v-14.8a3.229,3.229,0,0,1,3.259-3.2h10.492l.167-12.306a3.953,3.953,0,0,1,.078-.766c.687-3.158,2.958-4.741,6.307-4.741h17.345a4.3,4.3,0,0,1,4.342,4.259V64.537H177.2a3.229,3.229,0,0,1,3.259,3.2v14.8a3.229,3.229,0,0,1-3.259,3.2H163.967V113.69c0,3.268,1.6,4.549,3.622,4.549,3.047,0,4.063-2.989,4.063-5.688a11.3,11.3,0,0,0-.145-2.277c-.291-2.989.725-4.549,3.622-4.549h10.726c2.322,0,4.2.854,4.928,3.131a19.575,19.575,0,0,1,1.15,5.682c.006.1.011.2.011.3-.072,20.78-15.108,26.019-28.128,26.019C150.192,140.848,135.906,135.3,135.906,113.4Z" transform="translate(180.008 0)" fill="#ff5005" fill-rule="evenodd"/>
      <path id="Trazado_2" data-name="Trazado 2" d="M19.531,80.995V53.322H8.314a3.229,3.229,0,0,1-3.259-3.2v-14.8a3.229,3.229,0,0,1,3.259-3.2H19.347l.167-12.306a3.926,3.926,0,0,1,.078-.766c.687-3.158,2.958-4.741,6.307-4.741H43.245a4.3,4.3,0,0,1,4.342,4.259V32.131H60.825a3.229,3.229,0,0,1,3.26,3.2v14.8a3.229,3.229,0,0,1-3.26,3.2H47.587V81.285c0,3.268,1.6,4.549,3.622,4.549,3.047,0,4.063-2.989,4.063-5.688a11.271,11.271,0,0,0-.145-2.277c-.29-2.989.726-4.549,3.622-4.549H69.475c2.322,0,4.2.854,4.928,3.131a19.607,19.607,0,0,1,1.15,5.682c0,.053.006.108.008.163s0,.093,0,.138c-.072,20.78-15.108,26.019-28.128,26.019C33.813,108.443,19.531,102.9,19.531,80.995ZM77.9,69.477c0,22.614,15.515,38.966,35.813,38.966,9.856,0,17.686-4.122,21.749-10.948v5.217a4.3,4.3,0,0,0,4.342,4.259h19.556a4.3,4.3,0,0,0,4.342-4.259V36.33a4.3,4.3,0,0,0-4.342-4.259H139.8a4.3,4.3,0,0,0-4.342,4.259v4.981c-4.063-6.684-11.893-10.806-21.749-10.806C93.407,30.511,77.9,46.862,77.9,69.477Zm27.252-.372c0-8.162,5.358-14.441,15.035-14.441s15.029,6.279,15.029,14.441-4.839,14.441-15.029,14.441S105.149,77.266,105.149,69.1Zm97.069-27.787c4.063-6.684,11.893-10.806,21.749-10.806,20.3,0,35.813,16.352,35.813,38.972s-15.515,38.966-35.813,38.966c-9.856,0-17.686-4.122-21.749-10.949v22.79a4.3,4.3,0,0,1-4.342,4.259H178.321a4.3,4.3,0,0,1-4.342-4.259V36.335a4.3,4.3,0,0,1,4.342-4.259h19.556a4.3,4.3,0,0,1,4.342,4.259Zm.246,27.788c0,8.162,4.833,14.441,15.03,14.441s15.035-6.279,15.035-14.441-5.363-14.441-15.035-14.441S202.464,60.943,202.464,69.1Z" transform="translate(0 32.404)" fill="#191419" fill-rule="evenodd"/>
    </g>
    <path id="en" d="M19.122,33.525A19.86,19.86,0,0,0,31,29.973a2.759,2.759,0,0,0,.551-4.348l-.674-.857c-1.164-1.409-2.511-1.531-4.164-.612a13.967,13.967,0,0,1-6.981,1.9c-6.063,0-9.8-3.613-9.676-7.349H31.982c1.837,0,3.062-.8,3-2.572C34.554,6.089,27.206.7,18.265.7,7.67.7.995,8.355.995,17.235.995,26.237,7.854,33.525,19.122,33.525ZM10.3,13.438c1.041-4.1,4.777-5.573,8.084-5.573,3.246,0,6.859,1.347,7.716,5.573ZM43.332,32.851h3.613a2.649,2.649,0,0,0,2.94-2.94V16.806c0-5.879,3.368-8.39,6.614-8.39s4.96,2.572,4.96,6.981V29.912a2.649,2.649,0,0,0,2.94,2.94H67.95a2.694,2.694,0,0,0,3-2.94V14.724C70.951,7.314,67.889.7,59.438.7c-4.654,0-8.022,2.082-9.553,5.7V4.313a2.649,2.649,0,0,0-2.94-2.94H43.332a2.649,2.649,0,0,0-2.94,2.94v25.6A2.649,2.649,0,0,0,43.332,32.851Z" transform="translate(445.527 402.3)"/>
  </g>
</svg>
