<svg width="24" height="24" viewBox="0 0 24 24" fill="none" xmlns="http://www.w3.org/2000/svg">
<path fill-rule="evenodd" clip-rule="evenodd" d="M11.9996 3.80169C14.6698 3.80169 14.9858 3.81201 16.0404 3.86004C17.0153 3.9045 17.5448 4.06724 17.8973 4.20418C18.3641 4.38558 18.6971 4.60231 19.0472 4.95201C19.3973 5.30211 19.614 5.63514 19.795 6.10193C19.932 6.45441 20.0947 6.98392 20.1392 7.9588C20.1872 9.01306 20.1975 9.32942 20.1975 11.9996C20.1975 14.6698 20.1872 14.9857 20.1392 16.0404C20.0947 17.0153 19.932 17.5448 19.795 17.8973C19.6136 18.3641 19.3969 18.6971 19.0472 19.0472C18.6971 19.3973 18.3641 19.614 17.8973 19.795C17.5448 19.932 17.0153 20.0947 16.0404 20.1392C14.9861 20.1872 14.6698 20.1975 11.9996 20.1975C9.32942 20.1975 9.01306 20.1872 7.9588 20.1392C6.98392 20.0947 6.45441 19.932 6.10193 19.795C5.63514 19.6136 5.30211 19.3969 4.95201 19.0472C4.60191 18.6971 4.38519 18.3641 4.20418 17.8973C4.06724 17.5448 3.9045 17.0153 3.86004 16.0404C3.81201 14.9861 3.80169 14.6698 3.80169 11.9996C3.80169 9.32942 3.81201 9.01346 3.86004 7.9588C3.9045 6.98392 4.06724 6.45441 4.20418 6.10193C4.38558 5.63514 4.60231 5.30211 4.95201 4.95201C5.30211 4.60191 5.63514 4.38519 6.10193 4.20418C6.45441 4.06724 6.98392 3.9045 7.9588 3.86004C9.01346 3.81201 9.32942 3.80169 11.9996 3.80169ZM11.9996 2C9.28377 2 8.9432 2.01151 7.87663 2.06033C6.81245 2.10876 6.08566 2.27785 5.44937 2.52515C4.79165 2.78077 4.23395 3.12253 3.67824 3.67864C3.12253 4.23435 2.78038 4.79205 2.52515 5.44937C2.27785 6.08566 2.10876 6.81245 2.06033 7.87663C2.01151 8.9432 2 9.28377 2 11.9996C2 14.7154 2.01151 15.056 2.06033 16.1226C2.10876 17.1868 2.27785 17.9135 2.52515 18.5498C2.78077 19.2076 3.12253 19.7653 3.67864 20.321C4.23475 20.8771 4.79205 21.2188 5.44977 21.4745C6.08566 21.7217 6.81285 21.8908 7.87703 21.9393C8.9436 21.9881 9.28417 21.9996 12 21.9996C14.7158 21.9996 15.0564 21.9881 16.123 21.9393C17.1872 21.8908 17.9143 21.7217 18.5502 21.4745C19.208 21.2188 19.7656 20.8771 20.3214 20.321C20.8775 19.7649 21.2192 19.2076 21.4749 18.5498C21.7221 17.9139 21.8912 17.1868 21.9397 16.1226C21.9885 15.056 22 14.7154 22 11.9996C22 9.28377 21.9885 8.9432 21.9397 7.87663C21.8912 6.81245 21.7221 6.08526 21.4749 5.44937C21.2192 4.79165 20.8775 4.23395 20.3214 3.67824C19.7653 3.12214 19.208 2.78038 18.5502 2.52475C17.9135 2.27785 17.1868 2.10876 16.1226 2.06033C15.056 2.01151 14.7154 2 11.9996 2ZM11.9996 6.86484C9.1635 6.86484 6.86485 9.16389 6.86485 11.9996C6.86485 14.8353 9.1639 17.1344 11.9996 17.1344C14.8353 17.1344 17.1344 14.8353 17.1344 11.9996C17.1344 9.16389 14.8357 6.86484 11.9996 6.86484ZM11.9996 15.3327C10.1586 15.3327 8.66654 13.8402 8.66654 11.9996C8.66654 10.1586 10.159 8.66653 11.9996 8.66653C13.8402 8.66653 15.3327 10.159 15.3327 11.9996C15.3327 13.8406 13.8406 15.3327 11.9996 15.3327ZM18.5375 6.66161C18.5375 7.32432 18.0003 7.86155 17.3376 7.86155C16.6749 7.86155 16.1377 7.32432 16.1377 6.66161C16.1377 5.99891 16.6749 5.46168 17.3376 5.46168C18.0003 5.46168 18.5375 5.99891 18.5375 6.66161Z" fill="black"/>
</svg>
