<svg width="50" height="24" viewBox="0 0 50 24" fill="none" xmlns="http://www.w3.org/2000/svg">
<path fill-rule="evenodd" clip-rule="evenodd" d="M36.3292 4.42004C36.9471 4.42004 37.2399 4.03265 37.2399 3.52832C37.2399 3.02465 36.9154 2.6366 36.3292 2.6366C35.7438 2.6366 35.4186 3.02465 35.4186 3.52832C35.4186 4.03198 35.712 4.42004 36.3292 4.42004ZM34.5336 5.69846C34.5336 6.70646 33.9475 7.4819 32.7123 7.4819C31.4772 7.4819 30.8917 6.70646 30.8917 5.69846C30.8917 4.69046 31.5407 3.91502 32.7123 3.91502C33.8846 3.91502 34.5336 4.69046 34.5336 5.69846ZM36.2055 5.29553C35.8986 5.29553 35.6228 5.33339 35.3747 5.40234C35.3848 5.50375 35.3902 5.60651 35.3902 5.71198C35.3902 6.84234 34.869 7.76921 33.7832 8.12144C33.9218 9.33564 34.7716 10.228 36.2055 10.228C37.778 10.228 38.6488 9.1558 38.6488 7.76178C38.6488 6.36775 37.8625 5.29553 36.2055 5.29553ZM34.4742 10.7466C34.9271 11.0089 35.6518 11.1583 36.2055 11.1583C36.8356 11.1583 37.438 11.0041 37.895 10.733V18.7152C37.895 19.0059 37.6597 19.2412 37.369 19.2412H35.0001C34.7094 19.2412 34.4742 19.0059 34.4742 18.7152V10.7466ZM40.3606 16.0441V12.6267H39.0673C38.8496 12.6267 38.6725 12.4502 38.6725 12.2319V10.4045C38.6725 10.1868 38.8489 10.0097 39.0673 10.0097H40.3383L40.3585 8.48989C40.3592 8.45812 40.3612 8.42634 40.368 8.39524C40.4512 8.00516 40.7263 7.80978 41.1319 7.80978H43.2331C43.5238 7.80978 43.7591 8.04505 43.7591 8.33575V10.0097H45.3634C45.5811 10.0097 45.7582 10.1861 45.7582 10.4045V12.2325C45.7582 12.4502 45.5817 12.6274 45.3634 12.6274H43.7598V16.08C43.7598 16.4836 43.9531 16.6418 44.1985 16.6418C44.5677 16.6418 44.6907 16.2727 44.6907 15.9394C44.6907 15.8339 44.6907 15.746 44.6731 15.6581C44.638 15.289 44.761 15.0963 45.1119 15.0963H46.4113C46.6925 15.0963 46.9203 15.2018 47.0082 15.483C47.0941 15.7054 47.1292 15.9448 47.1475 16.1848C47.1482 16.1969 47.1488 16.2098 47.1488 16.2219C47.1401 18.7883 45.3188 19.4352 43.7415 19.4352C42.0913 19.4339 40.3606 18.749 40.3606 16.0441Z" fill="#FF5005"/>
<path fill-rule="evenodd" clip-rule="evenodd" d="M4.45791 16.0442V12.6267H3.09904C2.88135 12.6267 2.70422 12.4503 2.70422 12.2319V10.4045C2.70422 10.1868 2.88067 10.0097 3.09904 10.0097H4.4356L4.45589 8.48993C4.45656 8.45815 4.45859 8.42638 4.46535 8.39528C4.54851 8.00519 4.82366 7.80981 5.22929 7.80981H7.33048C7.62118 7.80981 7.85645 8.04508 7.85645 8.33579V10.0097H9.46005C9.67775 10.0097 9.85487 10.1862 9.85487 10.4045V12.2326C9.85487 12.4503 9.67842 12.6274 9.46005 12.6274H7.85645V16.08C7.85645 16.4836 8.0498 16.6418 8.29521 16.6418C8.66434 16.6418 8.78738 16.2727 8.78738 15.9394C8.78738 15.8339 8.78738 15.746 8.7698 15.6582C8.73465 15.289 8.85769 15.0964 9.20856 15.0964H10.5079C10.7892 15.0964 11.017 15.2018 11.1049 15.4831C11.1908 15.7055 11.2259 15.9448 11.2442 16.1848C11.2448 16.197 11.2455 16.2098 11.2455 16.222C11.2367 18.7883 9.41544 19.4353 7.8382 19.4353C6.18794 19.4339 4.45791 18.7491 4.45791 16.0442ZM11.5281 14.6218C11.5281 17.4145 13.4076 19.4339 15.8664 19.4339C17.0603 19.4339 18.0088 18.9248 18.501 18.0818V18.7261C18.501 19.0168 18.7362 19.2521 19.0269 19.2521H21.3958C21.6866 19.2521 21.9218 19.0168 21.9218 18.7261V10.5282C21.9218 10.2375 21.6866 10.0023 21.3958 10.0023H19.0269C18.7362 10.0023 18.501 10.2375 18.501 10.5282V11.1434C18.0088 10.318 17.0603 9.80891 15.8664 9.80891C13.4069 9.80959 11.5281 11.829 11.5281 14.6218ZM14.8293 14.5758C14.8293 13.5678 15.4783 12.7923 16.6506 12.7923C17.8222 12.7923 18.4712 13.5678 18.4712 14.5758C18.4712 15.5838 17.8851 16.3592 16.6506 16.3592C15.4154 16.3592 14.8293 15.5838 14.8293 14.5758ZM26.5879 11.1441C27.0801 10.3187 28.0286 9.80959 29.2225 9.80959C31.6814 9.80959 33.5608 11.829 33.5608 14.6224C33.5608 17.4146 31.6814 19.4346 29.2225 19.4346C28.0286 19.4346 27.0801 18.9255 26.5879 18.0825V20.8969C26.5879 21.1876 26.3527 21.4229 26.062 21.4229H23.6931C23.4024 21.4229 23.1671 21.1876 23.1671 20.8969V10.5289C23.1671 10.2382 23.4024 10.0029 23.6931 10.0029H26.062C26.3527 10.0029 26.5879 10.2382 26.5879 10.5289V11.1441ZM26.6177 14.5758C26.6177 15.5838 27.2032 16.3592 28.4383 16.3592C29.6735 16.3592 30.2596 15.5838 30.2596 14.5758C30.2596 13.5678 29.6099 12.7924 28.4383 12.7924C27.2667 12.7924 26.6177 13.5678 26.6177 14.5758Z" fill="#191419"/>
</svg>
