<svg width="55" height="114" viewBox="0 0 55 114" fill="none" xmlns="http://www.w3.org/2000/svg">
<g clip-path="url(#clip0)">
<path d="M0.0113636 96.9794V107.471C0.0113636 107.704 0.0242424 107.942 0.0507576 108.198C0.390909 111.506 2.97727 114 6.06667 114H48.9348C52.0242 114 54.6106 111.505 54.9508 108.197C54.9773 107.943 54.9902 107.706 54.9902 107.472V23.9157H54.9288C54.9765 23.4778 55.0008 23.0399 55.0008 22.6082C55.0008 19.8576 54.0644 17.2204 52.3629 15.1826C50.728 13.2252 48.5273 11.9804 46.1402 11.6551C44.6333 4.8848 38.9765 0 32.5924 0C28.5333 0 24.703 1.92299 22.0462 5.2844C20.3356 4.22492 17.1848 3.7702 15.6848 3.92177C10.7561 4.41936 7.42424 9.00177 7.95455 13.9011C2.86136 13.9532 0 17.95 0 23.5076C0 23.663 0.0030303 23.8246 0.0113636 23.9884V35.6787V96.9794ZM42.6598 13.7212L42.8727 15.4766L44.6371 15.3977C44.7174 15.3939 44.7985 15.3901 44.8795 15.3901C48.375 15.3901 51.2182 18.6274 51.2182 22.6074C51.2182 23.0476 51.1841 23.4854 51.1144 23.9149H42.853V40.3292C42.853 41.453 42.0364 42.3671 41.0326 42.3671C40.0288 42.3671 39.2121 41.453 39.2121 40.3292V23.9149H29.8818V30.3124C29.8818 31.4362 29.0652 32.3502 28.0614 32.3502C27.0576 32.3502 26.2402 31.4362 26.2402 30.3124V23.9149H3.79318C3.78561 23.7786 3.78182 23.6431 3.78182 23.5076C3.78182 20.0245 6.26136 17.1906 9.30985 17.1906C9.61288 17.1906 9.92349 17.2212 10.2348 17.2809L12.0159 17.6254C12.0159 17.6254 9.54621 12.5224 13.9977 8.78896C18.1144 5.33645 23.5614 9.79945 23.5614 9.79945L24.3803 8.53634C26.2932 5.58372 29.3629 3.82072 32.5932 3.82072C37.65 3.82149 41.9788 8.07702 42.6598 13.7212ZM51.2076 107.471C51.2076 107.571 51.2015 107.679 51.1886 107.801C51.0492 109.157 50.0803 110.179 48.9341 110.179H6.06591C4.9197 110.179 3.95076 109.157 3.81136 107.802C3.79849 107.678 3.79242 107.569 3.79242 107.471V27.7356H22.4591V30.3116C22.4591 33.5429 24.972 36.1709 28.0614 36.1709C31.15 36.1709 33.6636 33.5429 33.6636 30.3116V27.7356H35.4303V40.3285C35.4303 43.5597 37.9439 46.1878 41.0326 46.1878C44.122 46.1878 46.6348 43.559 46.6348 40.3285V27.7356H51.2076V107.471Z" fill="#C2C2C2"/>
<path d="M9.21436 42.2653H14.7545C18.1522 42.2737 19.8507 44.1224 19.8507 47.8122V51.5908C19.8507 54.2985 18.6378 56.0531 16.2121 56.8561C15.6287 57.0437 14.7924 57.1378 13.7022 57.1378H13.4363V67.911H9.21511V42.2653H9.21436ZM13.4356 46.3524V53.0392H13.9424C14.3984 53.0392 14.6947 53.014 14.8295 52.9627C15.3621 52.7491 15.628 52.2921 15.628 51.5916V47.813C15.628 46.8393 15.2136 46.3524 14.3856 46.3524H13.4356Z" fill="#C2C2C2"/>
<path d="M33.1992 62.7743C33.1992 66.4633 31.3734 68.3128 27.7227 68.3212C24.0802 68.3212 22.259 66.4725 22.259 62.7743V47.4026C22.259 43.7136 24.0802 41.8687 27.7227 41.8687C31.3734 41.8687 33.1992 43.7136 33.1992 47.4026V62.7743ZM28.978 47.4026C28.978 46.4465 28.5636 45.9634 27.7355 45.955H27.7105C26.8909 45.955 26.481 46.4373 26.481 47.4026V62.775C26.481 63.7404 26.8946 64.2226 27.7234 64.2226C28.5598 64.2226 28.9787 63.7404 28.9787 62.775V47.4026H28.978Z" fill="#C2C2C2"/>
<path d="M9.21436 95.0978V69.452H13.4356V91.0114H19.153V95.0978H9.21436Z" fill="#C2C2C2"/>
<path d="M31.9826 85.8999L33.1872 95.0977H28.9273L28.2304 89.7689H25.1243L24.4144 95.0977H20.1675L21.372 85.9382L23.9455 69.4512H29.422L31.9826 85.8999ZM27.6849 85.6695L26.6705 77.9064L25.6561 85.6695H27.6849Z" fill="#C2C2C2"/>
<path d="M35.0886 74.5886C35.0886 70.8996 36.9098 69.0547 40.5523 69.0547C44.203 69.0547 46.0288 70.8996 46.0288 74.5886V78.2264H41.8076V74.5886C41.8076 73.6325 41.3932 73.1495 40.5651 73.141H40.5401C39.7204 73.141 39.3106 73.6233 39.3106 74.5886V76.8691C39.3106 77.911 40.3924 79.2177 42.5561 80.7886C44.872 82.4536 46.0295 84.4524 46.0295 86.7834V89.9603C46.0295 93.6585 44.2083 95.5073 40.5659 95.5073C36.9151 95.4989 35.0894 93.6501 35.0894 89.9603V86.3226H39.3106V89.9603C39.3106 90.9256 39.7288 91.4079 40.5659 91.4079C41.3939 91.4079 41.8083 90.9256 41.8083 89.9603V87.0911C41.8083 85.9559 40.7265 84.6017 38.5629 83.03C36.247 81.365 35.0894 79.3364 35.0894 76.9457V74.5886H35.0886Z" fill="#C2C2C2"/>
<path d="M9.22583 96.5944H10.7417C11.672 96.5967 12.1364 97.1027 12.1364 98.1124V99.1466C12.1364 99.7828 11.8842 100.194 11.3804 100.381L12.494 103.613H11.2349L10.444 100.595H10.3819V103.613H9.22659V96.5944H9.22583ZM10.3811 97.7128V99.5431H10.5198C10.6448 99.5431 10.7258 99.5363 10.763 99.5225C10.9084 99.4643 10.9811 99.3388 10.9811 99.1474V98.1132C10.9811 97.8468 10.8683 97.7136 10.641 97.7136H10.3811V97.7128Z" fill="#C2C2C2"/>
<path d="M13.0486 96.5944H15.7683V97.7128H14.2046V99.5431H15.5509V100.665H14.2046V102.496H15.769V103.614H13.0493V96.5944H13.0486Z" fill="#C2C2C2"/>
<path d="M19.4222 102.207C19.4222 103.217 18.9229 103.723 17.9237 103.725C16.9267 103.725 16.4282 103.219 16.4282 102.207V97.9998C16.4282 96.9901 16.9267 96.4856 17.9237 96.4856C18.9229 96.4856 19.4222 96.9901 19.4222 97.9998V98.9957H18.2669V97.9998C18.2669 97.738 18.1532 97.6063 17.9267 97.6033H17.9199C17.6956 97.6033 17.5835 97.7357 17.5835 97.9998V102.207C17.5835 102.471 17.6964 102.604 17.9237 102.604C18.1525 102.604 18.2669 102.471 18.2669 102.207V101.211H19.4222V102.207Z" fill="#C2C2C2"/>
<path d="M23.1418 101.096L23.4713 103.613H22.3054L22.1145 102.154H21.2645L21.0706 103.613H19.9084L20.238 101.106L20.9425 96.5944H22.441L23.1418 101.096ZM21.9653 101.033L21.688 98.9085L21.4107 101.033H21.9653Z" fill="#C2C2C2"/>
<path d="M24.0608 96.5944H25.5767C26.507 96.5967 26.9714 97.1027 26.9714 98.1124V99.1466C26.9714 99.7828 26.7191 100.194 26.2153 100.381L27.329 103.613H26.0699L25.279 100.595H25.2169V103.613H24.0608V96.5944ZM25.2169 97.7128V99.5431H25.3555C25.4805 99.5431 25.5615 99.5363 25.5987 99.5225C25.7441 99.4643 25.8169 99.3388 25.8169 99.1474V98.1132C25.8169 97.8468 25.704 97.7136 25.4767 97.7136H25.2169V97.7128Z" fill="#C2C2C2"/>
<path d="M29.3553 99.5423H30.8091V102.207C30.8091 103.217 30.3099 103.723 29.3106 103.725C28.3137 103.725 27.8152 103.219 27.8152 102.207V97.9998C27.8152 96.9901 28.3137 96.4856 29.3106 96.4856C30.3099 96.4856 30.8091 96.9901 30.8091 97.9998V98.9957H29.6538V97.9998C29.6538 97.738 29.5402 97.6063 29.3137 97.6033H29.3069C29.0826 97.6033 28.9705 97.7357 28.9705 97.9998V102.207C28.9705 102.471 29.0834 102.604 29.3106 102.604C29.5394 102.604 29.6538 102.471 29.6538 102.207V100.665H29.3553V99.5423Z" fill="#C2C2C2"/>
<path d="M34.5629 101.096L34.8925 103.613H33.7266L33.5357 102.154H32.6857L32.4917 103.613H31.3296L31.6591 101.106L32.3637 96.5944H33.8622L34.5629 101.096ZM33.3872 101.033L33.1099 98.9085L32.8326 101.033H33.3872Z" fill="#C2C2C2"/>
<path d="M35.4827 96.5944H37.0819C38.0115 96.5967 38.4766 97.1027 38.4766 98.1124V102.098C38.4766 103.106 37.9918 103.61 37.0228 103.613H35.4827V96.5944ZM36.638 97.7128V102.495H36.9812C37.2077 102.495 37.3213 102.363 37.3213 102.098V98.1124C37.3213 97.846 37.2077 97.7128 36.9812 97.7128H36.638Z" fill="#C2C2C2"/>
<path d="M42.2304 101.096L42.5599 103.613H41.394L41.2031 102.154H40.3531L40.1592 103.613H38.9971L39.3266 101.106L40.0312 96.5944H41.5296L42.2304 101.096ZM41.0546 101.033L40.7774 98.9085L40.5001 101.033H41.0546Z" fill="#C2C2C2"/>
<path d="M43.0803 97.9998C43.0803 96.9901 43.5788 96.4856 44.5758 96.4856C45.575 96.4856 46.0743 96.9901 46.0743 97.9998V98.9957H44.919V97.9998C44.919 97.738 44.8053 97.6063 44.5788 97.6033H44.572C44.3477 97.6033 44.2356 97.7357 44.2356 97.9998V98.6237C44.2356 98.9085 44.5318 99.2667 45.1235 99.6962C45.7568 100.152 46.0743 100.699 46.0743 101.337V102.206C46.0743 103.218 45.5758 103.724 44.5788 103.724C43.5796 103.722 43.0803 103.216 43.0803 102.206V101.21H44.2356V102.206C44.2356 102.47 44.35 102.603 44.5788 102.603C44.8053 102.603 44.919 102.47 44.919 102.206V101.421C44.919 101.11 44.6227 100.74 44.0311 100.309C43.397 99.8539 43.0803 99.2989 43.0803 98.6444V97.9998Z" fill="#C2C2C2"/>
<path d="M9.80236 37.2903C9.89857 37.2903 9.97887 37.2903 10.0554 37.3424C10.1296 37.3929 10.1774 37.4564 10.1774 37.5383C10.1774 37.644 10.094 37.7075 9.98493 37.7389C10.141 37.7581 10.2471 37.8713 10.2471 38.0091C10.2471 38.1071 10.2031 38.1898 10.1183 38.2541C10.0198 38.3284 9.92357 38.3299 9.79478 38.3299H9.26221V38.3253C9.3516 38.2763 9.33872 38.1875 9.33872 38.1041V37.5139C9.33872 37.4319 9.3516 37.3416 9.26221 37.2941V37.2896H9.80236V37.2903ZM9.67281 37.6892C9.68569 37.6922 9.69478 37.6953 9.70766 37.6953C9.79478 37.6953 9.84024 37.6271 9.84024 37.559C9.84024 37.497 9.80387 37.4373 9.72584 37.4373C9.70766 37.4373 9.69099 37.4404 9.67281 37.4465V37.6892ZM9.67281 38.163C9.70009 38.1791 9.71978 38.1821 9.75312 38.1821C9.8713 38.1821 9.91902 38.0964 9.91902 38.0053C9.91902 37.8851 9.85539 37.8315 9.71751 37.8315H9.67357V38.163H9.67281Z" fill="#C2C2C2"/>
<path d="M10.6751 38.016L10.6312 38.1232C10.6183 38.1546 10.5986 38.2036 10.5986 38.2372C10.5986 38.2816 10.6312 38.3023 10.6637 38.326V38.3306H10.291V38.326C10.36 38.2709 10.3834 38.225 10.4168 38.1438L10.6675 37.5131C10.6781 37.4817 10.7077 37.4197 10.7077 37.3867C10.7077 37.3439 10.6751 37.3155 10.6387 37.2949V37.2903H11.0842L11.4274 38.1048C11.4713 38.2058 11.4804 38.2426 11.5834 38.326V38.3306H11.0342V38.326C11.0759 38.3023 11.1084 38.2801 11.1084 38.2296C11.1084 38.2028 11.1047 38.1951 11.094 38.1691L11.0342 38.016H10.6751ZM10.8493 37.5574H10.8478L10.7281 37.869H10.9751L10.8493 37.5574Z" fill="#C2C2C2"/>
<path d="M11.825 38.3529L11.4568 37.4327C11.4349 37.3776 11.4152 37.3347 11.3674 37.2949V37.2903H11.778V37.2949L11.7765 37.3026C11.7765 37.347 11.8167 37.4388 11.8326 37.4809L12.0636 38.0627L12.278 37.4901C12.2886 37.4618 12.3038 37.4281 12.3038 37.3983C12.3038 37.3462 12.2689 37.3179 12.2235 37.2941V37.2896H12.5492V37.2941L12.1296 38.3529H11.825Z" fill="#C2C2C2"/>
<path d="M12.7547 38.016L12.7108 38.1232C12.6979 38.1546 12.6782 38.2036 12.6782 38.2372C12.6782 38.2816 12.7108 38.3023 12.7433 38.326V38.3306H12.3706V38.326C12.4395 38.2709 12.463 38.225 12.4964 38.1438L12.7471 37.5131C12.7577 37.4817 12.7873 37.4197 12.7873 37.3867C12.7873 37.3439 12.7547 37.3155 12.7183 37.2949V37.2903H13.1638L13.5077 38.1048C13.5517 38.2058 13.56 38.2426 13.6638 38.326V38.3306H13.1145V38.326C13.1562 38.3023 13.1888 38.2801 13.1888 38.2296C13.1888 38.2028 13.185 38.1951 13.1744 38.1691L13.1145 38.016H12.7547ZM12.9297 37.5574H12.9282L12.8085 37.869H13.0555L12.9297 37.5574Z" fill="#C2C2C2"/>
<path d="M14.1062 38.1048C14.1062 38.1867 14.0934 38.277 14.1828 38.326V38.3306H13.6934V38.326C13.7828 38.277 13.7699 38.1867 13.7699 38.1048V37.5161C13.7699 37.4342 13.7828 37.3439 13.6934 37.2949V37.2903H14.2312C14.3206 37.2903 14.3934 37.2888 14.4752 37.3263C14.5828 37.3768 14.6373 37.461 14.6373 37.5666C14.6373 37.6853 14.5411 37.7726 14.4206 37.8162L14.6373 38.1308C14.6865 38.202 14.7388 38.2686 14.8115 38.3207L14.5608 38.3352C14.4388 38.3413 14.3805 38.3276 14.3168 38.2296L14.1062 37.8851V38.1048ZM14.1062 37.4434V37.8009C14.2191 37.7833 14.3024 37.6998 14.3024 37.6003C14.3024 37.5498 14.279 37.4962 14.2297 37.4656C14.1987 37.4465 14.1608 37.4434 14.1244 37.4434H14.1062Z" fill="#C2C2C2"/>
<path d="M15.2364 38.1063C15.2364 38.1882 15.2235 38.277 15.3129 38.326V38.3306H14.8235V38.326C14.9129 38.277 14.9 38.1882 14.9 38.1063V37.5161C14.9 37.4342 14.9129 37.3439 14.8235 37.2949V37.2903H15.3129V37.2949C15.2235 37.3439 15.2364 37.4342 15.2364 37.5161V38.1063Z" fill="#C2C2C2"/>
<path d="M15.7364 38.016L15.6924 38.1232C15.6796 38.1546 15.6599 38.2036 15.6599 38.2372C15.6599 38.2816 15.6924 38.3023 15.725 38.326V38.3306H15.3523V38.326C15.4212 38.2709 15.4447 38.225 15.4781 38.1438L15.7288 37.5131C15.7394 37.4817 15.769 37.4197 15.769 37.3867C15.769 37.3439 15.7364 37.3155 15.7 37.2949V37.2903H16.1455L16.4894 38.1048C16.5334 38.2058 16.5424 38.2426 16.6455 38.326V38.3306H16.0962V38.326C16.1379 38.3023 16.1705 38.2801 16.1705 38.2296C16.1705 38.2028 16.1667 38.1951 16.1561 38.1691L16.0962 38.016H15.7364ZM15.9114 37.5574H15.9091L15.7887 37.869H16.0356L15.9114 37.5574Z" fill="#C2C2C2"/>
<path d="M14.8335 34.9446C14.8335 34.9446 15.5972 34.6675 15.5972 34.3437C15.5972 33.9862 14.5949 33.5536 14.0646 33.4281C13.8866 33.523 12.7729 34.0604 12.7729 34.0604C12.7729 34.0604 11.9555 33.5024 11.4343 33.4426C11.2153 33.5567 9.86989 34.2686 9.86989 34.2686C9.86989 34.2686 10.8775 34.2778 11.2979 34.8168C11.2979 35.1038 11.2979 36.1449 11.2979 36.2889C11.0434 36.6004 9.78125 36.6379 9.78125 36.6379V36.7122C9.78125 36.7122 12.5305 36.7122 14.0479 36.7122C14.9472 36.7122 15.9441 36.3509 15.9441 35.8617C15.9434 35.3442 14.8335 34.9446 14.8335 34.9446ZM12.7828 34.2602C12.7828 34.2602 13.8222 34.3391 13.8017 34.7923C13.785 35.1582 12.7828 35.2332 12.7828 35.2332V34.2602ZM12.7828 36.347V35.3825C12.7828 35.3825 14.2381 35.776 14.2381 36.2391C14.2373 36.788 12.7828 36.347 12.7828 36.347Z" fill="#C2C2C2"/>
<path d="M13.832 33.2513C13.8206 33.2314 13.8024 33.2337 13.7926 33.2375C13.757 33.2513 13.7191 33.2605 13.6782 33.2605C13.5479 33.2605 13.4373 33.1763 13.3948 33.0584L13.3933 33.0553C13.3933 33.0553 13.3683 32.9833 13.3577 32.8754C13.3464 32.7675 13.2547 31.9744 13.2547 31.9744H13.2767C13.3532 31.9744 13.3865 31.9262 13.3865 31.8657V31.8243C13.3865 31.8243 12.4645 31.8243 12.432 31.8243H12.4335C12.3661 31.8243 12.31 31.8749 12.3001 31.9415L12.157 31.9438C12.0835 31.9438 12.0244 32.005 12.0244 32.08L12.0206 32.4069C12.0244 32.4084 12.0289 32.4092 12.0327 32.4092C12.0524 32.4092 12.0661 32.3885 12.0759 32.3725C12.0918 32.348 12.1108 32.3066 12.1108 32.3066H12.3805L12.4282 32.3839H12.1305V32.472V32.4712C12.1305 32.5363 12.182 32.5883 12.2448 32.5883H12.385L12.3729 33.1273C12.3047 33.2138 12.2001 33.2696 12.0827 33.2696C12.0358 33.2696 11.9789 33.2597 11.9312 33.2367C11.9312 33.2367 11.91 33.2275 11.8941 33.2474C11.8812 33.2643 11.8903 33.2834 11.8994 33.2911C12.088 33.4434 12.2555 33.4572 12.4032 33.4572C12.6577 33.4572 12.8539 33.347 12.9183 33.3087C12.9797 33.3539 13.1305 33.458 13.3555 33.458C13.5342 33.458 13.6948 33.396 13.8236 33.2903C13.8297 33.2873 13.8426 33.2696 13.832 33.2513ZM12.6486 32.1872C12.5911 32.1872 12.5448 32.1397 12.5448 32.0823C12.6661 32.0839 12.6767 32.0823 12.7532 32.0823C12.7532 32.1405 12.7062 32.1872 12.6486 32.1872Z" fill="#C2C2C2"/>
<path d="M42.0537 51.1109C40.8302 52.3472 41.1666 54.6897 41.1666 54.6897C41.1666 54.6897 43.4848 55.0288 44.7083 53.7933C45.931 52.557 45.5954 50.2145 45.5954 50.2145C45.5954 50.2145 43.2772 49.8753 42.0537 51.1109Z" fill="#C2C2C2"/>
<path d="M40.2188 51.1109C41.4423 52.3472 41.1067 54.6897 41.1067 54.6897C41.1067 54.6897 38.7878 55.0288 37.5643 53.7933C36.3416 52.557 36.6772 50.2145 36.6772 50.2145C36.6772 50.2145 38.9953 49.8753 40.2188 51.1109Z" fill="#C2C2C2"/>
<path d="M42.0537 56.2099C40.8302 57.4454 41.1666 59.7887 41.1666 59.7887C41.1666 59.7887 43.4848 60.1278 44.7083 58.8923C45.931 57.656 45.5954 55.3135 45.5954 55.3135C45.5954 55.3135 43.2772 54.9743 42.0537 56.2099Z" fill="#C2C2C2"/>
<path d="M40.2188 56.2099C41.4423 57.4454 41.1067 59.7887 41.1067 59.7887C41.1067 59.7887 38.7878 60.1278 37.5643 58.8923C36.3416 57.656 36.6772 55.3135 36.6772 55.3135C36.6772 55.3135 38.9953 54.9743 40.2188 56.2099Z" fill="#C2C2C2"/>
<path d="M42.0537 61.309C40.8302 62.5446 41.1666 64.8879 41.1666 64.8879C41.1666 64.8879 43.4848 65.227 44.7083 63.9914C45.931 62.7551 45.5954 60.4126 45.5954 60.4126C45.5954 60.4126 43.2772 60.0735 42.0537 61.309Z" fill="#C2C2C2"/>
<path d="M40.2188 61.309C41.4423 62.5446 41.1067 64.8879 41.1067 64.8879C41.1067 64.8879 38.7878 65.227 37.5643 63.9914C36.3416 62.7551 36.6772 60.4126 36.6772 60.4126C36.6772 60.4126 38.9953 60.0735 40.2188 61.309Z" fill="#C2C2C2"/>
</g>
<defs>
<clipPath id="clip0">
<rect width="55" height="114" fill="white"/>
</clipPath>
</defs>
</svg>
