<svg id="Layer_1" data-name="Layer 1" xmlns="http://www.w3.org/2000/svg" viewBox="0 0 28 41.16"><defs><style>.cls-1{fill:#231f20;}.cls-1,.cls-2{stroke:#231f20;stroke-miterlimit:10;stroke-width:2px;}.cls-2{fill:none;}</style></defs><path class="cls-1" d="M32.5,15.42a13,13,0,0,1,13,13V41.58a13,13,0,0,1-26,0V28.42A13,13,0,0,1,32.5,15.42Zm0,38.84A12.7,12.7,0,0,0,45.18,41.58V28.42a12.68,12.68,0,0,0-25.36,0V41.58A12.7,12.7,0,0,0,32.5,54.26Z" transform="translate(-18.5 -14.42)"/><line class="cls-2" x1="27" y1="14" x2="1" y2="14"/><line class="cls-2" x1="14" y1="1" x2="14" y2="14"/></svg>