<svg width="30" height="60" viewBox="0 0 30 60" fill="none" xmlns="http://www.w3.org/2000/svg">
<path opacity="0.9" d="M0 30C0 46.5685 13.4315 60 30 60V0C13.4315 0 0 13.4315 0 30Z" fill="white"/>
<path d="M20.0658 29.2309L15.4725 24.6376C15.3718 24.536 15.252 24.4555 15.12 24.4005C14.9879 24.3455 14.8463 24.3171 14.7033 24.3171C14.5603 24.3171 14.4187 24.3455 14.2867 24.4005C14.1547 24.4555 14.0349 24.536 13.9342 24.6376C13.7324 24.8406 13.6191 25.1151 13.6191 25.4013C13.6191 25.6875 13.7324 25.9621 13.9342 26.1651L17.7692 30.0001L13.9342 33.8351C13.7324 34.0381 13.6191 34.3126 13.6191 34.5988C13.6191 34.885 13.7324 35.1596 13.9342 35.3626C14.0354 35.463 14.1554 35.5424 14.2874 35.5963C14.4194 35.6502 14.5608 35.6776 14.7033 35.6768C14.8459 35.6776 14.9872 35.6502 15.1192 35.5963C15.2512 35.5424 15.3713 35.463 15.4725 35.3626L20.0658 30.7693C20.1674 30.6685 20.248 30.5487 20.303 30.4167C20.358 30.2847 20.3863 30.1431 20.3863 30.0001C20.3863 29.8571 20.358 29.7155 20.303 29.5835C20.248 29.4514 20.1674 29.3316 20.0658 29.2309V29.2309Z" fill="#FF5005"/>
<path d="M20.0658 29.2309L15.4725 24.6376C15.3718 24.536 15.252 24.4555 15.12 24.4005C14.9879 24.3455 14.8463 24.3171 14.7033 24.3171C14.5603 24.3171 14.4187 24.3455 14.2867 24.4005C14.1547 24.4555 14.0349 24.536 13.9342 24.6376C13.7324 24.8406 13.6191 25.1151 13.6191 25.4013C13.6191 25.6875 13.7324 25.9621 13.9342 26.1651L17.7692 30.0001L13.9342 33.8351C13.7324 34.0381 13.6191 34.3126 13.6191 34.5988C13.6191 34.885 13.7324 35.1596 13.9342 35.3626C14.0354 35.463 14.1554 35.5424 14.2874 35.5963C14.4194 35.6502 14.5608 35.6776 14.7033 35.6768C14.8459 35.6776 14.9872 35.6502 15.1192 35.5963C15.2512 35.5424 15.3713 35.463 15.4725 35.3626L20.0658 30.7693C20.1674 30.6685 20.248 30.5487 20.303 30.4167C20.358 30.2847 20.3863 30.1431 20.3863 30.0001C20.3863 29.8571 20.358 29.7155 20.303 29.5835C20.248 29.4514 20.1674 29.3316 20.0658 29.2309V29.2309Z" fill="#FF5005"/>
</svg>
