<svg width="48" height="48" viewBox="0 0 48 48" fill="none" xmlns="http://www.w3.org/2000/svg">
  <circle cx="24" cy="24" r="24" fill="white" fill-opacity="0.9"/>
  <path d="M19.9341 24.7691L24.5274 29.3625C24.6281 29.464 24.748 29.5446 24.88 29.5996C25.012 29.6546 25.1536 29.6829 25.2966 29.6829C25.4396 29.6829 25.5812 29.6546 25.7132 29.5996C25.8452 29.5446 25.9651 29.464 26.0658 29.3625C26.2675 29.1595 26.3808 28.8849 26.3808 28.5987C26.3808 28.3125 26.2675 28.038 26.0658 27.835L22.2308 24L26.0658 20.165C26.2675 19.962 26.3808 19.6874 26.3808 19.4012C26.3808 19.115 26.2675 18.8405 26.0658 18.6375C25.9645 18.5371 25.8445 18.4576 25.7125 18.4037C25.5805 18.3498 25.4392 18.3225 25.2966 18.3233C25.154 18.3225 25.0127 18.3498 24.8807 18.4037C24.7487 18.4576 24.6287 18.5371 24.5274 18.6375L19.9341 23.2308C19.8326 23.3315 19.752 23.4513 19.697 23.5833C19.642 23.7154 19.6137 23.857 19.6137 24C19.6137 24.143 19.642 24.2846 19.697 24.4166C19.752 24.5486 19.8326 24.6684 19.9341 24.7691V24.7691Z" fill="#FF5005"/>
</svg>
