<svg width="12" height="18" viewBox="0 0 12 18" fill="none" xmlns="http://www.w3.org/2000/svg">
<path d="M4.81637 9.00008L10.7164 3.10008C11.0268 2.78781 11.201 2.36539 11.201 1.92508C11.201 1.48477 11.0268 1.06235 10.7164 0.750077C10.5614 0.593863 10.3771 0.469872 10.174 0.385258C9.9709 0.300643 9.75305 0.25708 9.53304 0.25708C9.31301 0.25708 9.09517 0.300643 8.89207 0.385258C8.68897 0.469872 8.50464 0.593863 8.3497 0.750077L1.28304 7.81674C1.12682 7.97168 1.00283 8.15602 0.918218 8.35911C0.833603 8.56221 0.790039 8.78006 0.790039 9.00008C0.790039 9.2201 0.833603 9.43794 0.918218 9.64104C1.00283 9.84414 1.12682 10.0285 1.28304 10.1834L8.3497 17.3334C8.50544 17.4879 8.69013 17.6101 8.89319 17.693C9.09625 17.776 9.31369 17.818 9.53304 17.8167C9.75238 17.818 9.96982 17.776 10.1729 17.693C10.3759 17.6101 10.5606 17.4879 10.7164 17.3334C11.0268 17.0211 11.201 16.5987 11.201 16.1584C11.201 15.7181 11.0268 15.2957 10.7164 14.9834L4.81637 9.00008Z" fill="#191419"/>
</svg>
