<svg width="14" height="10" viewBox="0 0 14 10" fill="none" xmlns="http://www.w3.org/2000/svg">
<path d="M5 3.66634C4.82319 3.66634 4.65362 3.73658 4.5286 3.8616C4.40357 3.98663 4.33333 4.1562 4.33333 4.33301V5.66634C4.33333 5.84315 4.40357 6.01272 4.5286 6.13775C4.65362 6.26277 4.82319 6.33301 5 6.33301C5.17681 6.33301 5.34638 6.26277 5.4714 6.13775C5.59643 6.01272 5.66667 5.84315 5.66667 5.66634V4.33301C5.66667 4.1562 5.59643 3.98663 5.4714 3.8616C5.34638 3.73658 5.17681 3.66634 5 3.66634ZM13 4.33301C13.1768 4.33301 13.3464 4.26277 13.4714 4.13775C13.5964 4.01272 13.6667 3.84315 13.6667 3.66634V0.999674C13.6667 0.822863 13.5964 0.653294 13.4714 0.52827C13.3464 0.403246 13.1768 0.333008 13 0.333008H1C0.823189 0.333008 0.65362 0.403246 0.528596 0.52827C0.403571 0.653294 0.333333 0.822863 0.333333 0.999674V3.66634C0.333333 3.84315 0.403571 4.01272 0.528596 4.13775C0.65362 4.26277 0.823189 4.33301 1 4.33301C1.17681 4.33301 1.34638 4.40325 1.4714 4.52827C1.59643 4.65329 1.66667 4.82286 1.66667 4.99967C1.66667 5.17649 1.59643 5.34605 1.4714 5.47108C1.34638 5.5961 1.17681 5.66634 1 5.66634C0.823189 5.66634 0.65362 5.73658 0.528596 5.8616C0.403571 5.98663 0.333333 6.1562 0.333333 6.33301V8.99967C0.333333 9.17649 0.403571 9.34606 0.528596 9.47108C0.65362 9.5961 0.823189 9.66634 1 9.66634H13C13.1768 9.66634 13.3464 9.5961 13.4714 9.47108C13.5964 9.34606 13.6667 9.17649 13.6667 8.99967V6.33301C13.6667 6.1562 13.5964 5.98663 13.4714 5.8616C13.3464 5.73658 13.1768 5.66634 13 5.66634C12.8232 5.66634 12.6536 5.5961 12.5286 5.47108C12.4036 5.34605 12.3333 5.17649 12.3333 4.99967C12.3333 4.82286 12.4036 4.65329 12.5286 4.52827C12.6536 4.40325 12.8232 4.33301 13 4.33301ZM12.3333 3.11967C11.9472 3.25981 11.6136 3.51543 11.3779 3.85178C11.1421 4.18814 11.0157 4.58893 11.0157 4.99967C11.0157 5.41042 11.1421 5.81121 11.3779 6.14756C11.6136 6.48392 11.9472 6.73954 12.3333 6.87967V8.33301H5.66667C5.66667 8.1562 5.59643 7.98663 5.4714 7.8616C5.34638 7.73658 5.17681 7.66634 5 7.66634C4.82319 7.66634 4.65362 7.73658 4.5286 7.8616C4.40357 7.98663 4.33333 8.1562 4.33333 8.33301H1.66667V6.87967C2.05277 6.73954 2.38636 6.48392 2.62211 6.14756C2.85785 5.81121 2.98432 5.41042 2.98432 4.99967C2.98432 4.58893 2.85785 4.18814 2.62211 3.85178C2.38636 3.51543 2.05277 3.25981 1.66667 3.11967V1.66634H4.33333C4.33333 1.84315 4.40357 2.01272 4.5286 2.13775C4.65362 2.26277 4.82319 2.33301 5 2.33301C5.17681 2.33301 5.34638 2.26277 5.4714 2.13775C5.59643 2.01272 5.66667 1.84315 5.66667 1.66634H12.3333V3.11967Z" fill="#FF5005"/>
</svg>
