<svg width="16" height="16" viewBox="0 0 16 16" fill="none" xmlns="http://www.w3.org/2000/svg">
<path fill-rule="evenodd" clip-rule="evenodd" d="M9.87451 4.24969C8.60387 4.24969 7.99951 3.43351 7.99951 2.37377C7.99951 1.31588 8.66768 0.499695 9.87451 0.499695C11.0813 0.499695 11.7495 1.31588 11.7495 2.37562C11.7476 3.43537 11.1452 4.24969 9.87451 4.24969ZM3.62451 9.24969C1.50579 9.24969 0.499512 7.89195 0.499512 6.12469C0.499512 4.35744 1.61416 2.99969 3.62451 2.99969C5.63486 2.99969 6.74951 4.35744 6.74951 6.12469C6.74951 7.89195 5.74323 9.24969 3.62451 9.24969ZM8.34201 5.89078C8.96451 5.63831 9.68701 5.49969 10.4995 5.49969C13.7195 5.49969 15.502 7.67296 15.4995 10.4997C15.4995 13.3264 13.892 15.4997 10.4995 15.4997C7.10701 15.4997 5.49951 13.3264 5.49951 10.4997C5.49951 10.4106 5.50201 10.3215 5.50451 10.2348C7.42201 9.65563 8.34201 8.0096 8.34201 5.98979V5.89078Z" fill="#9F9A99"/>
</svg>
