<svg width="18" height="18" viewBox="0 0 18 18" fill="none" xmlns="http://www.w3.org/2000/svg">
<path d="M16.3334 5.7138L10.8334 1.37949C10.3292 0.974113 9.67652 0.75 9.00008 0.75C8.32365 0.75 7.67094 0.974113 7.16675 1.37949L1.66675 5.7138C1.37559 5.94789 1.14325 6.23504 0.985186 6.55615C0.827127 6.87726 0.746982 7.22495 0.750087 7.57608V14.778C0.750087 15.4336 1.03982 16.0624 1.55554 16.526C2.07127 16.9896 2.77074 17.25 3.50009 17.25H14.5001C15.2294 17.25 15.9289 16.9896 16.4446 16.526C16.9604 16.0624 17.2501 15.4336 17.2501 14.778V7.56784C17.2519 7.21809 17.1711 6.87199 17.0131 6.55239C16.8551 6.23279 16.6234 5.94696 16.3334 5.7138ZM10.8334 15.602H7.16675V11.4819C7.16675 11.2634 7.26333 11.0538 7.43524 10.8992C7.60715 10.7447 7.8403 10.6579 8.08342 10.6579H9.91675C10.1599 10.6579 10.393 10.7447 10.5649 10.8992C10.7368 11.0538 10.8334 11.2634 10.8334 11.4819V15.602ZM15.4168 14.778C15.4168 14.9965 15.3202 15.2061 15.1483 15.3606C14.9764 15.5152 14.7432 15.602 14.5001 15.602H12.6668V11.4819C12.6668 10.8263 12.377 10.1975 11.8613 9.7339C11.3456 9.27031 10.6461 9.00986 9.91675 9.00986H8.08342C7.35407 9.00986 6.6546 9.27031 6.13888 9.7339C5.62315 10.1975 5.33342 10.8263 5.33342 11.4819V15.602H3.50009C3.25697 15.602 3.02381 15.5152 2.85191 15.3606C2.68 15.2061 2.58342 14.9965 2.58342 14.778V7.56784C2.58358 7.45084 2.61146 7.33521 2.6652 7.22865C2.71894 7.12209 2.79731 7.02704 2.89509 6.94983L8.39509 2.62375C8.56237 2.49165 8.77742 2.41879 9.00008 2.41879C9.22275 2.41879 9.4378 2.49165 9.60509 2.62375L15.1051 6.94983C15.2029 7.02704 15.2812 7.12209 15.335 7.22865C15.3887 7.33521 15.4166 7.45084 15.4168 7.56784V14.778Z" fill="#9F9A99"/>
</svg>
