<svg xmlns="http://www.w3.org/2000/svg" width="104.219" height="92.639" viewBox="0 0 104.219 92.639">
  <path id="exclamation-triangle" d="M103.046,79.614a8.69,8.69,0,0,1-7.523,13.025H8.694A8.69,8.69,0,0,1,1.172,79.614L44.586,4.34a8.69,8.69,0,0,1,15.046,0l43.414,75.274ZM52.109,64.051a8.323,8.323,0,1,0,8.323,8.323A8.323,8.323,0,0,0,52.109,64.051Zm-7.9-29.917,1.342,24.607a2.171,2.171,0,0,0,2.168,2.053H56.5a2.171,2.171,0,0,0,2.168-2.053l1.342-24.607a2.171,2.171,0,0,0-2.168-2.29H46.375a2.171,2.171,0,0,0-2.168,2.29Z" transform="translate(0)" fill="#ff5005"/>
</svg>
