<svg width="17" height="49" viewBox="0 0 17 49" fill="none" xmlns="http://www.w3.org/2000/svg">
<path d="M14.3289 18.0591C13.3206 16.3229 12.2805 8.9415 11.8575 5.35285H12.077C12.4936 5.35285 12.8308 5.02004 12.8308 4.60874V2.80029C12.8308 1.38744 11.6667 0.241455 10.2385 0.241455H6.00826C4.57696 0.241455 3.41602 1.39058 3.41602 2.80029V4.6056C3.41602 5.0169 3.75317 5.34971 4.17301 5.34971H4.39248C3.96945 8.93836 2.92938 16.3197 1.92111 18.056C0.442098 20.6023 -0.0763498 23.0198 0.0127088 26.9758L0.435737 45.8704C0.470724 47.4057 1.76207 48.6521 3.31742 48.6521H12.9389C14.4943 48.6521 15.7856 47.4025 15.8206 45.8704L16.2436 26.9758C16.3263 23.0198 15.8111 20.6023 14.3289 18.0591ZM1.52034 26.9444C1.49808 25.9585 1.51398 25.0857 1.57441 24.2914C1.66347 24.3071 1.76207 24.3196 1.86703 24.3196H14.6024C14.6278 24.3196 14.6533 24.3165 14.6787 24.3165C14.736 25.1077 14.7551 25.9711 14.7328 26.9475L14.5133 36.7622H1.86703C1.8225 36.7622 1.78116 36.7653 1.73981 36.7684L1.52034 26.9444ZM4.92365 2.80029C4.92365 2.21003 5.41029 1.72966 6.00826 1.72966H10.2385C10.8365 1.72966 11.3231 2.21003 11.3231 2.80029V3.85836H11.0146H5.23535H4.92683V2.80029H4.92365ZM3.22836 18.8001C4.52607 16.5678 5.60431 7.98703 5.91284 5.34971H10.3371C10.6425 7.9839 11.7239 16.5678 13.0216 18.8001C13.8963 20.304 14.3893 21.7357 14.6056 23.5724H14.6024H1.86703C1.78752 23.5724 1.71436 23.5787 1.64439 23.5881C1.85749 21.7451 2.35049 20.3103 3.22836 18.8001ZM12.9357 47.1639H3.31423C2.57314 47.1639 1.95927 46.5705 1.94019 45.839L1.75253 37.5C1.78752 37.5031 1.82569 37.5063 1.86385 37.5063H14.4911L14.3034 45.8421C14.2907 46.5705 13.6736 47.1639 12.9357 47.1639Z" fill="#2E2C3C"/>
</svg>
