<svg width="18" height="15" viewBox="0 0 18 15" fill="none" xmlns="http://www.w3.org/2000/svg">
<path d="M14.2575 1.07113L6.73144 9.51659L3.83681 6.27589C3.67954 6.07029 3.486 5.9033 3.26835 5.78541C3.0507 5.66752 2.81364 5.60128 2.57203 5.59083C2.33043 5.58038 2.08951 5.62596 1.86438 5.7247C1.63926 5.82344 1.4348 5.97322 1.26383 6.16463C1.09286 6.35603 0.959081 6.58494 0.870884 6.83698C0.782686 7.08902 0.741975 7.35874 0.751307 7.62923C0.760639 7.89972 0.819813 8.16513 0.925113 8.4088C1.03041 8.65247 1.17957 8.86914 1.36321 9.04521L5.48587 13.6804C5.64979 13.8624 5.8442 14.0064 6.05794 14.1042C6.27168 14.2019 6.50056 14.2515 6.73144 14.25C7.19167 14.2478 7.6327 14.0432 7.95946 13.6804L16.7311 3.8601C16.8955 3.67751 17.026 3.46029 17.1151 3.22095C17.2041 2.98161 17.25 2.72489 17.25 2.46561C17.25 2.20634 17.2041 1.94962 17.1151 1.71028C17.026 1.47095 16.8955 1.25372 16.7311 1.07113C16.4024 0.705325 15.9577 0.5 15.4943 0.5C15.0308 0.5 14.5862 0.705325 14.2575 1.07113Z" fill="white"/>
</svg>
