<svg width="14" height="14" viewBox="0 0 14 14" fill="none" xmlns="http://www.w3.org/2000/svg">
<path d="M9.00001 6.33301H7.66668V3.66634C7.66668 3.48953 7.59644 3.31996 7.47142 3.19494C7.34639 3.06991 7.17682 2.99967 7.00001 2.99967C6.8232 2.99967 6.65363 3.06991 6.52861 3.19494C6.40358 3.31996 6.33335 3.48953 6.33335 3.66634V6.99967C6.33335 7.17649 6.40358 7.34606 6.52861 7.47108C6.65363 7.5961 6.8232 7.66634 7.00001 7.66634H9.00001C9.17682 7.66634 9.34639 7.5961 9.47142 7.47108C9.59644 7.34606 9.66668 7.17649 9.66668 6.99967C9.66668 6.82286 9.59644 6.65329 9.47142 6.52827C9.34639 6.40325 9.17682 6.33301 9.00001 6.33301ZM7.00001 0.333008C5.68147 0.333008 4.39254 0.724001 3.29621 1.45654C2.19988 2.18909 1.3454 3.23028 0.840816 4.44845C0.336232 5.66663 0.20421 7.00707 0.461445 8.30028C0.718679 9.59348 1.35362 10.7814 2.28597 11.7137C3.21832 12.6461 4.4062 13.281 5.69941 13.5382C6.99262 13.7955 8.33306 13.6635 9.55124 13.1589C10.7694 12.6543 11.8106 11.7998 12.5431 10.7035C13.2757 9.60715 13.6667 8.31822 13.6667 6.99967C13.6647 5.23216 12.9617 3.5376 11.7119 2.28777C10.4621 1.03795 8.76753 0.334949 7.00001 0.333008ZM7.00001 12.333C5.94518 12.333 4.91403 12.0202 4.03697 11.4342C3.15991 10.8481 2.47632 10.0152 2.07266 9.04065C1.66899 8.06611 1.56337 6.99376 1.76916 5.95919C1.97495 4.92463 2.4829 3.97432 3.22878 3.22844C3.97466 2.48256 4.92497 1.97461 5.95953 1.76882C6.9941 1.56303 8.06645 1.66865 9.04099 2.07232C10.0155 2.47598 10.8485 3.15957 11.4345 4.03663C12.0206 4.9137 12.3333 5.94484 12.3333 6.99967C12.3316 8.41362 11.7691 9.76915 10.7693 10.769C9.76949 11.7688 8.41396 12.3312 7.00001 12.333Z" fill="#BCB9B8"/>
</svg>
