<svg width="22" height="22" viewBox="0 0 22 22" fill="none" xmlns="http://www.w3.org/2000/svg">
<path d="M14.71 14.71C14.617 14.8037 14.5064 14.8781 14.3845 14.9289C14.2627 14.9797 14.132 15.0058 14 15.0058C13.8679 15.0058 13.7372 14.9797 13.6154 14.9289C13.4935 14.8781 13.3829 14.8037 13.29 14.71L11 12.41L8.70996 14.71C8.52165 14.8983 8.26626 15.0041 7.99996 15.0041C7.73366 15.0041 7.47826 14.8983 7.28996 14.71C7.10165 14.5217 6.99587 14.2663 6.99587 14C6.99587 13.7337 7.10165 13.4783 7.28996 13.29L9.58996 11L7.28996 8.71001C7.19623 8.61705 7.12183 8.50645 7.07107 8.38459C7.0203 8.26273 6.99416 8.13202 6.99416 8.00001C6.99416 7.868 7.0203 7.7373 7.07107 7.61544C7.12183 7.49358 7.19623 7.38298 7.28996 7.29001C7.38292 7.19628 7.49352 7.12189 7.61538 7.07112C7.73724 7.02035 7.86795 6.99421 7.99996 6.99421C8.13197 6.99421 8.26267 7.02035 8.38453 7.07112C8.50639 7.12189 8.61699 7.19628 8.70996 7.29001L11 9.59001L13.29 7.29001C13.3829 7.19628 13.4935 7.12189 13.6154 7.07112C13.7372 7.02035 13.8679 6.99421 14 6.99421C14.132 6.99421 14.2627 7.02035 14.3845 7.07112C14.5064 7.12189 14.617 7.19628 14.71 7.29001C14.8037 7.38298 14.8781 7.49358 14.9288 7.61544C14.9796 7.7373 15.0058 7.868 15.0058 8.00001C15.0058 8.13202 14.9796 8.26273 14.9288 8.38459C14.8781 8.50645 14.8037 8.61705 14.71 8.71001L12.41 11L14.71 13.29C14.8037 13.383 14.8781 13.4936 14.9288 13.6154C14.9796 13.7373 15.0058 13.868 15.0058 14C15.0058 14.132 14.9796 14.2627 14.9288 14.3846C14.8781 14.5064 14.8037 14.617 14.71 14.71ZM18.07 18.07C17.1475 19.0251 16.044 19.7869 14.824 20.311C13.604 20.8351 12.2918 21.111 10.964 21.1225C9.63618 21.1341 8.31938 20.881 7.09042 20.3782C5.86145 19.8754 4.74493 19.1329 3.80601 18.194C2.86708 17.255 2.12455 16.1385 1.62174 14.9096C1.11893 13.6806 0.865915 12.3638 0.877453 11.036C0.888991 9.70821 1.16485 8.39601 1.68894 7.17597C2.21303 5.95593 2.97486 4.85248 3.92996 3.93001C4.85243 2.97491 5.95587 2.21309 7.17591 1.689C8.39595 1.16491 9.70815 0.889044 11.0359 0.877506C12.3637 0.865969 13.6805 1.11898 14.9095 1.62179C16.1385 2.1246 17.255 2.86713 18.1939 3.80606C19.1328 4.74499 19.8754 5.86151 20.3782 7.09047C20.881 8.31944 21.134 9.63623 21.1225 10.964C21.1109 12.2918 20.8351 13.604 20.311 14.8241C19.7869 16.0441 19.0251 17.1475 18.07 18.07ZM16.66 5.34001C15.352 4.0306 13.6305 3.21519 11.7888 3.0327C9.94701 2.85022 8.09896 3.31195 6.55948 4.33924C5.02 5.36652 3.88432 6.8958 3.34593 8.66653C2.80754 10.4373 2.89976 12.3399 3.60687 14.0502C4.31398 15.7606 5.59223 17.1729 7.22385 18.0465C8.85546 18.92 10.7395 19.2009 12.555 18.8411C14.3704 18.4814 16.005 17.5033 17.1802 16.0736C18.3554 14.6438 18.9985 12.8508 19 11C19.0035 9.94872 18.7985 8.90717 18.3969 7.93563C17.9952 6.96409 17.4049 6.08186 16.66 5.34001Z" fill="black"/>
</svg>
