<svg id="Discount-code" xmlns="http://www.w3.org/2000/svg" width="34" height="34" viewBox="0 0 34 34">
  <defs>
    <style>
      .cls-1, .cls-2 {
        fill: #fff;
      }

      .cls-1, .cls-3 {
        fill-rule: evenodd;
      }

      .cls-3 {
        fill: #262424;
      }
    </style>
  </defs>
  <path id="Shape_6_copy" data-name="Shape 6 copy" class="cls-1" d="M-405.178,51.022h3.185a0.381,0.381,0,0,0,.274.08,18.74,18.74,0,0,1,5.6,1.259,21.191,21.191,0,0,1,13.655,16.392c0.148,0.734.221,1.483,0.328,2.226V74a2.689,2.689,0,0,0-.079.361,18.882,18.882,0,0,1-1.26,5.6,21.186,21.186,0,0,1-16.379,13.66c-0.734.148-1.484,0.221-2.226,0.329h-3.017c-0.675-.09-1.353-0.16-2.024-0.276a21.148,21.148,0,0,1-11.206-5.587A21.172,21.172,0,0,1-424.8,75.766a13.473,13.473,0,0,0-.239-1.686V70.894c0.092-.658.167-1.32,0.281-1.974a21.15,21.15,0,0,1,5.533-11.133,21.154,21.154,0,0,1,12.362-6.525A13.486,13.486,0,0,0-405.178,51.022Zm1.633,33.057a12.624,12.624,0,0,0,2.081-.177,11.615,11.615,0,0,0,9.428-13.364,11.659,11.659,0,0,0-13.736-9.387A11.556,11.556,0,0,0-413.694,78.2a0.688,0.688,0,0,1,.06.624q-0.937,2.726-1.849,5.46c-0.036.108-.165,0.236-0.043,0.341a0.331,0.331,0,0,0,.312-0.056q2.845-.9,5.689-1.81a0.8,0.8,0,0,1,.668.051A11.289,11.289,0,0,0-403.545,84.078Zm0.288-1.84a9.8,9.8,0,0,1-5.307-1.379,0.826,0.826,0,0,0-.771-0.1c-0.989.335-1.988,0.639-2.985,0.947-0.1.03-.21,0.149-0.3,0.032a0.306,0.306,0,0,1,.048-0.273c0.321-.95.629-1.9,0.965-2.849a0.715,0.715,0,0,0-.084-0.723,9.717,9.717,0,0,1,6.5-14.979A9.8,9.8,0,0,1-393.9,70.69a9.783,9.783,0,0,1-7.659,11.358A9.807,9.807,0,0,1-403.257,82.238Zm-5.953-12.253a4.771,4.771,0,0,0,.058.626,7.122,7.122,0,0,0,1.266,2.523,10.946,10.946,0,0,0,6.843,4.738,3,3,0,0,0,2.988-.977,2.089,2.089,0,0,0,.431-1.573,0.353,0.353,0,0,0-.242-0.312q-1.149-.552-2.3-1.092a0.473,0.473,0,0,0-.65.185c-0.256.348-.547,0.671-0.817,1.009a0.5,0.5,0,0,1-.662.15,7.831,7.831,0,0,1-3.806-3.208,0.557,0.557,0,0,1,.06-0.81,3.135,3.135,0,0,0,.615-0.791,0.674,0.674,0,0,0,.048-0.6c-0.308-.732-0.613-1.465-0.924-2.2a0.674,0.674,0,0,0-.277-0.358,1.779,1.779,0,0,0-1.583.23A3.118,3.118,0,0,0-409.21,69.985Zm96.851,2.486a21.431,21.431,0,0,1,21.482-21.409,21.434,21.434,0,0,1,21.4,21.573,21.491,21.491,0,0,1-21.562,21.315A21.483,21.483,0,0,1-312.359,72.471Zm12.711-7.788a4.578,4.578,0,0,0,.237,4.63c0.19,0.283.432,0.531,0.646,0.8,0.066,0.082.164,0.175,0.074,0.286a0.219,0.219,0,0,1-.26.01c-0.3-.095-0.591-0.192-0.888-0.281-0.4-.119-0.472-0.056-0.395.359a4.647,4.647,0,0,0,2.693,3.575,0.812,0.812,0,0,1,.478.328c-0.425,0-.8.015-1.168,0-0.392-.02-0.415.174-0.3,0.462a2.84,2.84,0,0,0,.427.72,5.261,5.261,0,0,0,2.394,1.639,2.805,2.805,0,0,1,.776.306,9.289,9.289,0,0,1-5.927,1.651,1.51,1.51,0,0,0,.121.19,0.656,0.656,0,0,0,.116.078,12.73,12.73,0,0,0,8.79,1.375c5.452-1.047,9.354-6.144,9.618-11.878a1.537,1.537,0,0,1,.447-1.084q0.378-.382.748-0.771a4.365,4.365,0,0,0,.806-1.008,7.025,7.025,0,0,0-1.262.337c-0.184.042-.425,0.242-0.553,0.043s0.14-.339.26-0.487a4.944,4.944,0,0,0,1.056-1.688c-0.384.171-.7,0.3-1,0.446a2.381,2.381,0,0,1-2.72-.149,4.2,4.2,0,0,0-6.3,2.635,5.538,5.538,0,0,0-.081,1.717c0.015,0.222-.011.343-0.3,0.309a12.676,12.676,0,0,1-5.651-2.014A19.355,19.355,0,0,1-299.648,64.683Zm65.1-13.483a21.431,21.431,0,0,0-21.482,21.408,21.483,21.483,0,0,0,21.316,21.48,21.49,21.49,0,0,0,21.561-21.315A21.433,21.433,0,0,0-234.544,51.2ZM-244.4,66.934a3.069,3.069,0,0,1,2.933-1.863c2.29-.015,4.58,0,6.87,0h0c2.283,0,4.565,0,6.848,0a3.1,3.1,0,0,1,2.949,1.808,0.551,0.551,0,0,1-.289.849q-4.555,2.374-9.11,4.75a0.776,0.776,0,0,1-.774,0q-4.584-2.39-9.17-4.778A0.493,0.493,0,0,1-244.4,66.934Zm19.87,10.42a3.063,3.063,0,0,1-2.7,2.823c-1.095.09-2.193,0.027-3.29,0.036-1.355.011-2.71,0-4.065,0h0q-3.447,0-6.893,0a3.127,3.127,0,0,1-3.129-2.5,2.6,2.6,0,0,1-.067-0.591q0-3.305,0-6.61a0.53,0.53,0,0,1,.862-0.523q4.293,2.234,8.581,4.477a1.261,1.261,0,0,0,1.288,0q4.255-2.237,8.523-4.448a0.936,0.936,0,0,1,.308-0.115,0.473,0.473,0,0,1,.6.469C-224.508,72.7-224.492,75.026-224.527,77.354ZM-368.7,72.5a21.5,21.5,0,0,1,21.474-21.46,21.492,21.492,0,0,1,21.418,21.467A21.454,21.454,0,0,1-347.28,93.951,21.45,21.45,0,0,1-368.7,72.5Zm13.149,14.41c0.21-.108.35-0.177,0.487-0.252,1.221-.674,2.445-1.342,3.659-2.029a1.046,1.046,0,0,1,.818-0.1,13.882,13.882,0,0,0,11.3-2A11.938,11.938,0,0,0-337.665,63.7a14.033,14.033,0,0,0-18-.851,11.7,11.7,0,0,0-4.771,11.224,11.736,11.736,0,0,0,4.531,7.84,0.854,0.854,0,0,1,.357.766C-355.56,84.062-355.55,85.443-355.55,86.912Zm16.888-17.767q-1.25,1.334-2.5,2.667c-1.47,1.571-2.944,3.138-4.4,4.72-0.221.239-.335,0.236-0.551,0-0.94-1.033-1.909-2.041-2.845-3.077a0.452,0.452,0,0,0-.682-0.1c-1.844,1.036-3.7,2.047-5.556,3.065a1.6,1.6,0,0,1-.512.2c0.068-.088.129-0.181,0.2-0.262q3.306-3.537,6.608-7.077c0.245-.265.368-0.282,0.622-0.006,0.946,1.028,1.931,2.02,2.881,3.043a0.453,0.453,0,0,0,.675.11c1.991-1.131,4-2.238,6-3.354Z"/>
  <circle class="cls-2" cx="17" cy="17" r="17"/>
  <path class="cls-3" d="M8.788,18.744c0-1.568,0-3.136,0-4.7A1.713,1.713,0,0,1,10.6,12.246q4.684,0,9.367,0a1.728,1.728,0,0,1,1.83,1.8c0.011,1.425,0,2.851,0,4.277,0,1.7,0,3.407,0,5.111A1.738,1.738,0,0,1,20.532,25.2a1.88,1.88,0,0,1-.5.067q-4.735,0-9.469,0a1.714,1.714,0,0,1-1.772-1.773C8.785,21.908,8.788,20.326,8.788,18.744ZM15.3,13.969q-2.25,0-4.5,0c-0.342,0-.307-0.038-0.307.3q0,4.53,0,9.059a0.169,0.169,0,0,0,.205.209q4.591-.007,9.181,0c0.164,0,.2-0.047.2-0.205q-0.006-4.581,0-9.161c0-.176-0.056-0.211-0.219-0.21C18.344,13.971,16.824,13.969,15.3,13.969Zm2.586-3.483H12.514c-0.273,0-.273,0-0.226-0.265a1.7,1.7,0,0,1,1.73-1.443c2.288-.006,4.576,0,6.863,0,0.876,0,1.752,0,2.627,0a1.714,1.714,0,0,1,1.767,1.779q0,4.735,0,9.471a1.733,1.733,0,0,1-1.447,1.735c-0.272.036-.277,0.033-0.277-0.237q0-3.34,0-6.68c0-1.378,0-2.756,0-4.134a0.184,0.184,0,0,0-.227-0.229c-1.812.006-3.625,0-5.438,0v0Z"/>
</svg>
