<svg fill="none" height="266" viewBox="0 0 272 266" width="272" xmlns="http://www.w3.org/2000/svg">
  <g clip-path="url(#clip0)">
    <path clip-rule="evenodd"
          d="M245.663 108.605C245.663 108.605 232.786 1.12088 102.033 27.1446C102.033 27.1446 14.3663 43.3971 24.6894 165.854C24.6894 165.854 38.7711 240.121 110.867 240.715C110.867 240.708 272.457 270.833 245.663 108.605Z"
          fill="#FF5005"
          fill-rule="evenodd"/>
    <path clip-rule="evenodd"
          d="M267.732 103.633C267.732 103.633 252.234 -25.7798 94.8003 5.55152C94.8003 5.55152 -10.7532 25.1138 1.68079 172.553C1.68079 172.553 18.6345 261.965 105.441 262.684C105.441 262.684 299.985 298.947 267.732 103.633Z"
          fill-rule="evenodd"
          stroke="#FF5005" stroke-miterlimit="10" stroke-width="2"/>
    <path clip-rule="evenodd"
          d="M223.68 113.451C223.68 113.451 213.364 27.3161 108.578 48.1707C108.578 48.1707 38.3211 61.1925 46.5994 159.327C46.5994 159.327 57.882 218.838 115.665 219.32C115.658 219.313 245.153 243.458 223.68 113.451Z"
          fill-rule="evenodd"
          stroke="white" stroke-miterlimit="10" stroke-width="2"/>
    <rect fill="white" height="96.8874" rx="8.38962" width="16.7792" x="128.052" y="64.2981"/>
    <ellipse cx="136.442" cy="185.407" fill="white" rx="11.9221" ry="11.8907"/>
  </g>
  <defs>
    <clipPath id="clip0">
      <rect fill="white" height="266" width="272"/>
    </clipPath>
  </defs>
</svg>
