<svg width="21" height="23" viewBox="0 0 21 23" fill="none" xmlns="http://www.w3.org/2000/svg">
<path d="M18.1667 8.625C17.8129 8.625 17.4812 8.7214 17.1962 8.88937C17.089 7.93293 16.2757 7.1875 15.2917 7.1875C14.8237 7.1875 14.3937 7.3569 14.0596 7.63905C13.7241 7.08175 13.1134 6.70832 12.4167 6.70832C12.0681 6.70832 11.7405 6.80189 11.4584 6.96568V1.91668C11.4583 0.85958 10.5987 0 9.54168 0C8.48463 0 7.625 0.85958 7.625 1.91668V14.7409C7.625 14.9824 7.46589 15.1064 7.39756 15.1485C7.32924 15.1906 7.14533 15.2772 6.9315 15.1696L3.85435 13.631C3.57404 13.4906 3.26008 13.4167 2.94657 13.4167C1.82725 13.4167 0.916685 14.3273 0.916685 15.4466V15.8125C0.916685 15.9454 0.971894 16.0722 1.06875 16.163L6.5993 21.3248C7.75694 22.4048 9.26654 23 10.8495 23H13.8541C17.2888 23 20.0833 20.2055 20.0833 16.7708V10.5417C20.0833 9.48458 19.2237 8.625 18.1667 8.625ZM19.125 16.7708C19.125 19.6772 16.7605 22.0416 13.8542 22.0416H10.8496C9.51033 22.0416 8.23288 21.5382 7.2535 20.6238L1.875 15.6043V15.4466C1.875 14.8556 2.35558 14.375 2.94657 14.375C3.11175 14.375 3.27787 14.4143 3.42575 14.4882L6.5029 16.0268C6.95167 16.2519 7.47478 16.2271 7.90154 15.9641C8.3283 15.7002 8.58332 15.243 8.58332 14.7409V1.91668C8.58332 1.3884 9.01336 0.958363 9.54164 0.958363C10.0699 0.958363 10.5 1.3884 10.5 1.91668V9.10418C10.5 9.36904 10.7143 9.58336 10.9791 9.58336C11.244 9.58336 11.4583 9.36904 11.4583 9.10418V8.625C11.4583 8.09672 11.8884 7.66668 12.4166 7.66668C12.9449 7.66668 13.375 8.09672 13.375 8.625V9.10418C13.375 9.10513 13.375 9.10607 13.375 9.10701V9.10746C13.3768 9.37043 13.5907 9.58336 13.8541 9.58336C14.119 9.58336 14.3333 9.36904 14.3333 9.10418V9.09668C14.337 8.57213 14.7666 8.14582 15.2916 8.14582C15.8199 8.14582 16.25 8.57586 16.25 9.10414V10.5416C16.25 10.8065 16.4643 11.0208 16.7291 11.0208C16.994 11.0208 17.2083 10.8065 17.2083 10.5416C17.2083 10.0134 17.6384 9.58332 18.1666 9.58332C18.6949 9.58332 19.125 10.0134 19.125 10.5417V16.7708Z" fill="black"/>
</svg>
