<svg width="79" height="79" viewBox="0 0 79 79" fill="none" xmlns="http://www.w3.org/2000/svg">
<path d="M39.5 0.75C31.836 0.75 24.3441 3.02265 17.9717 7.28055C11.5993 11.5385 6.63258 17.5904 3.69969 24.671C0.76679 31.7517 -0.00058943 39.543 1.49459 47.0597C2.98977 54.5765 6.68034 61.4811 12.0996 66.9004C17.5189 72.3197 24.4235 76.0103 31.9403 77.5054C39.457 79.0006 47.2484 78.2332 54.329 75.3003C61.4096 72.3674 67.4615 67.4007 71.7195 61.0283C75.9774 54.6559 78.25 47.164 78.25 39.5C78.25 34.4113 77.2477 29.3724 75.3003 24.671C73.353 19.9696 70.4987 15.6979 66.9004 12.0996C63.3021 8.50134 59.0304 5.64704 54.329 3.69967C49.6276 1.7523 44.5887 0.75 39.5 0.75ZM43.375 70.2288V66.625C43.375 65.5973 42.9668 64.6117 42.2401 63.885C41.5134 63.1583 40.5277 62.75 39.5 62.75C38.4723 62.75 37.4867 63.1583 36.76 63.885C36.0333 64.6117 35.625 65.5973 35.625 66.625V70.2288C28.8049 69.3639 22.4658 66.2565 17.6047 61.3954C12.7435 56.5342 9.63614 50.1951 8.77127 43.375H12.375C13.4027 43.375 14.3884 42.9667 15.1151 42.24C15.8418 41.5133 16.25 40.5277 16.25 39.5C16.25 38.4723 15.8418 37.4867 15.1151 36.76C14.3884 36.0333 13.4027 35.625 12.375 35.625H8.77127C9.63614 28.8049 12.7435 22.4658 17.6047 17.6046C22.4658 12.7435 28.8049 9.63612 35.625 8.77125V12.375C35.625 13.4027 36.0333 14.3883 36.76 15.115C37.4867 15.8417 38.4723 16.25 39.5 16.25C40.5277 16.25 41.5134 15.8417 42.2401 15.115C42.9668 14.3883 43.375 13.4027 43.375 12.375V8.77125C50.1951 9.63612 56.5342 12.7435 61.3954 17.6046C66.2565 22.4658 69.3639 28.8049 70.2288 35.625H66.625C65.5973 35.625 64.6117 36.0333 63.885 36.76C63.1583 37.4867 62.75 38.4723 62.75 39.5C62.75 40.5277 63.1583 41.5133 63.885 42.24C64.6117 42.9667 65.5973 43.375 66.625 43.375H70.2288C69.3639 50.1951 66.2565 56.5342 61.3954 61.3954C56.5342 66.2565 50.1951 69.3639 43.375 70.2288ZM51.6675 22.2563L32.2925 30.4713C31.3893 30.8626 30.6689 31.583 30.2775 32.4862L22.0625 51.8612C21.7573 52.5718 21.6717 53.3575 21.8168 54.1171C21.9618 54.8767 22.3308 55.5756 22.8763 56.1238C23.5917 56.8539 24.5667 57.2717 25.5888 57.2863C26.1249 57.2868 26.6545 57.1676 27.1388 56.9375L46.5138 48.7225C47.417 48.3311 48.1374 47.6107 48.5288 46.7075L56.7438 27.3325C57.0432 26.6224 57.1242 25.8392 56.9762 25.0829C56.8283 24.3266 56.4582 23.6316 55.9133 23.0867C55.3684 22.5418 54.6734 22.1717 53.9171 22.0238C53.1608 21.8759 52.3776 21.9568 51.6675 22.2563ZM42.0188 42.0187L33.1838 45.8937L37.0588 37.0588L45.8938 33.1838L42.0188 42.0187Z" fill="#FF5005"/>
</svg>
