<svg width="97" height="97" viewBox="0 0 97 97" fill="none" xmlns="http://www.w3.org/2000/svg">
<path d="M34.6053 51.3341C33.857 52.0824 33.4367 53.0972 33.4367 54.1554C33.4367 55.2137 33.857 56.2285 34.6053 56.9768L40.248 62.6195C40.9963 63.3678 42.0112 63.7882 43.0694 63.7882C44.1276 63.7882 45.1425 63.3678 45.8907 62.6195C46.639 61.8712 47.0594 60.8564 47.0594 59.7982C47.0594 58.7399 46.639 57.7251 45.8907 56.9768L40.248 51.3341C39.4997 50.5858 38.4849 50.1654 37.4267 50.1654C36.3684 50.1655 35.3536 50.5858 34.6053 51.3341ZM71.2829 20.2992C72.0312 19.5509 72.4516 18.536 72.4516 17.4778C72.4516 16.4196 72.0312 15.4047 71.2829 14.6565L59.9975 3.37104C59.2492 2.62277 58.2344 2.2024 57.1761 2.20239C56.1179 2.20239 55.1031 2.62277 54.3548 3.37104L3.57038 54.1555C2.82211 54.9037 2.40174 55.9186 2.40174 56.9768C2.40174 58.035 2.82211 59.0499 3.57038 59.7982L14.8558 71.0836C15.6041 71.8319 16.6189 72.2522 17.6772 72.2522C18.7354 72.2522 19.7502 71.8319 20.4985 71.0836C21.2468 70.3353 22.2617 69.9149 23.3199 69.9149C24.3781 69.9149 25.393 70.3353 26.1412 71.0836C26.8895 71.8319 27.3099 72.8467 27.3099 73.9049C27.3099 74.9632 26.8895 75.978 26.1412 76.7263C25.393 77.4746 24.9726 78.4894 24.9726 79.5477C24.9726 80.6059 25.393 81.6207 26.1412 82.369L37.4267 93.6544C38.1749 94.4027 39.1898 94.8231 40.248 94.8231C41.3062 94.8231 42.3211 94.4027 43.0694 93.6544L93.8538 42.87C94.602 42.1218 95.0224 41.1069 95.0224 40.0487C95.0224 38.9905 94.602 37.9756 93.8538 37.2273L82.5683 25.9419C81.8201 25.1936 80.8052 24.7732 79.747 24.7732C78.6888 24.7732 77.6739 25.1936 76.9256 25.9419C76.1774 26.6902 75.1625 27.1105 74.1043 27.1105C73.0461 27.1105 72.0312 26.6902 71.2829 25.9419C70.5347 25.1936 70.1143 24.1788 70.1143 23.1205C70.1143 22.0623 70.5347 21.0474 71.2829 20.2992ZM63.3267 17.9857C62.2858 20.2127 61.9558 22.7063 62.3816 25.1274C62.8074 27.5486 63.9683 29.7799 65.7066 31.5182C67.4449 33.2565 69.6762 34.4175 72.0974 34.8432C74.5185 35.269 77.0121 34.939 79.2392 33.8981L85.3897 40.0487L57.1761 68.2622C56.4279 67.514 55.413 67.0936 54.3548 67.0936C53.2966 67.0936 52.2817 67.514 51.5334 68.2622C50.7852 69.0105 50.3648 70.0254 50.3648 71.0836C50.3648 72.1418 50.7852 73.1567 51.5334 73.9049L40.248 85.1904L34.0974 79.0398C35.1384 76.8128 35.4684 74.3192 35.0426 71.898C34.6168 69.4769 33.4559 67.2455 31.7176 65.5072C29.9793 63.7689 27.7479 62.608 25.3268 62.1822C22.9056 61.7564 20.4121 62.0864 18.185 63.1274L12.0344 56.9768L23.3199 45.6914C24.0681 46.4397 25.083 46.86 26.1412 46.86C27.1994 46.86 28.2143 46.4397 28.9626 45.6914C29.7109 44.9431 30.1312 43.9282 30.1312 42.87C30.1312 41.8118 29.7109 40.7969 28.9626 40.0487L57.1761 11.8351L63.3267 17.9857Z" fill="#FF5005"/>
</svg>
