<svg width="65" height="65" viewBox="0 0 65 65" fill="none" xmlns="http://www.w3.org/2000/svg">
<path d="M57.5855 23.3999V23.4702L57.6094 23.5362C59.7086 29.3277 59.7086 35.6722 57.6094 41.4636L57.5855 41.5297V41.5999V41.6641C55.7004 46.7693 52.299 51.1765 47.8371 54.2941C43.3558 57.4252 38.021 59.1043 32.5542 59.1043C27.0875 59.1043 21.7527 57.4252 17.2714 54.2941C12.8095 51.1765 9.40814 46.7693 7.523 41.6641V41.5999V41.5297L7.49906 41.4636C5.39986 35.6722 5.39986 29.3277 7.49906 23.5362L7.523 23.4702V23.3999V23.3357C9.40814 18.2306 12.8095 13.8234 17.2714 10.7058C21.7527 7.57471 27.0875 5.89561 32.5542 5.89561C38.021 5.89561 43.3558 7.57471 47.8371 10.7058C52.299 13.8234 55.7004 18.2306 57.5855 23.3357V23.3999ZM11.1509 38.0189L11.2296 38.3166H11.5376H16.5751H17.0261L16.9722 37.8688C16.5428 34.3024 16.5428 30.6974 16.9722 27.1311L17.0261 26.6833H16.5751H11.5376H11.2296L11.1509 26.981C10.194 30.5981 10.194 34.4018 11.1509 38.0189ZM13.7584 42.9333H13.0607L13.4132 43.5354C15.0668 46.3601 17.3281 48.7815 20.0332 50.6243L20.6123 50.1073C19.4625 47.9243 18.5649 45.6175 17.9369 43.2315L17.8584 42.9333H17.5501H13.7584ZM17.5501 22.0666H17.8615L17.9379 21.7646C18.5402 19.382 19.4108 17.0753 20.533 14.8888L19.9495 14.3773C17.2744 16.2294 15.042 18.6502 13.4122 21.4662L13.0647 22.0666H13.7584H17.5501ZM29.5551 53.6766L30.1917 54.1438V53.3541V43.3333V42.9333H29.7917H23.2105H22.7089L22.8205 43.4223C23.7605 47.5385 26.1511 51.1787 29.5551 53.6766ZM29.7917 38.3166H30.1917V37.9166V27.0833V26.6833H29.7917H22.0459H21.6982L21.6498 27.0276C21.1392 30.6579 21.1392 34.3419 21.6498 37.9723L21.6982 38.3166H22.0459H29.7917ZM29.7917 22.0666H30.1917V21.6666V11.6458V10.8561L29.5551 11.3233C26.1511 13.8212 23.7605 17.4613 22.8205 21.5776L22.7089 22.0666H23.2105H29.7917ZM51.2417 22.0666H51.9394L51.5869 21.4645C49.9333 18.6398 47.6721 16.2184 44.9669 14.3756L44.3878 14.8926C45.5377 17.0756 46.4353 19.3824 47.0633 21.7684L47.1417 22.0666H47.4501H51.2417ZM35.4451 11.3233L34.8084 10.8561V11.6458V21.6666V22.0666H35.2084H41.7897H42.2913L42.1796 21.5776C41.2397 17.4613 38.849 13.8212 35.4451 11.3233ZM34.8084 53.3541V54.1438L35.4451 53.6766C38.849 51.1787 41.2397 47.5385 42.1796 43.4223L42.2913 42.9333H41.7897H35.2084H34.8084V43.3333V53.3541ZM42.9542 38.3166H43.3019L43.3503 37.9723C43.8609 34.3419 43.8609 30.6579 43.3503 27.0276L43.3019 26.6833H42.9542H35.2084H34.8084V27.0833V37.9166V38.3166H35.2084H42.9542ZM44.4691 50.1073L45.0482 50.6243C47.7533 48.7815 50.0146 46.3601 51.6682 43.5354L52.0207 42.9333H51.323H47.5313H47.223L47.1445 43.2315C46.5165 45.6175 45.6189 47.9243 44.4691 50.1073ZM53.4626 38.3166H53.7705L53.8493 38.0189C54.8062 34.4018 54.8062 30.5981 53.8493 26.981L53.7705 26.6833H53.4626H48.4251H47.9733L48.028 27.1317C48.2455 28.9126 48.353 30.7052 48.3501 32.4993L48.3501 32.5008C48.3539 34.2948 48.2463 36.0873 48.028 37.8679L47.9731 38.3166H48.4251H53.4626Z" fill="#FF5005" stroke="#FFC9B3" stroke-width="0.8"/>
</svg>
