<svg width="92" height="92" viewBox="0 0 92 92" fill="none" xmlns="http://www.w3.org/2000/svg">
<path d="M87.2503 82.6667H81.567L61.4462 10.2501C60.6444 7.35232 58.9149 4.79724 56.5226 2.97609C54.1303 1.15494 51.207 0.168118 48.2003 0.166748H43.617C40.6418 0.207854 37.7603 1.21293 35.405 3.03107C33.0497 4.84921 31.3477 7.38232 30.5545 10.2501L10.4337 82.6667H4.75033C3.53475 82.6667 2.36896 83.1496 1.50942 84.0092C0.649878 84.8687 0.166992 86.0345 0.166992 87.2501C0.166992 88.4657 0.649878 89.6315 1.50942 90.491C2.36896 91.3505 3.53475 91.8334 4.75033 91.8334H87.2503C88.4659 91.8334 89.6317 91.3505 90.4912 90.491C91.3508 89.6315 91.8337 88.4657 91.8337 87.2501C91.8337 86.0345 91.3508 84.8687 90.4912 84.0092C89.6317 83.1496 88.4659 82.6667 87.2503 82.6667ZM39.4003 12.6792C39.6776 11.6879 40.2805 10.8187 41.1119 10.2117C41.9434 9.60476 42.9549 9.29538 43.9837 9.33342H48.567C49.5957 9.29538 50.6073 9.60476 51.4387 10.2117C52.2702 10.8187 52.8731 11.6879 53.1503 12.6792L56.7712 27.6667H35.2295L39.4003 12.6792ZM32.6628 36.8334H59.3378L64.3337 55.1667H27.667L32.6628 36.8334ZM19.967 82.6667L25.0545 64.3334H66.9462L72.0337 82.6667H19.967Z" fill="#FF5005"/>
</svg>
