<svg width="13" height="17" viewBox="0 0 13 17" fill="none" xmlns="http://www.w3.org/2000/svg">
<path d="M6.49996 0.583374C4.82025 0.583374 3.20935 1.25063 2.02162 2.43836C0.833886 3.62609 0.166626 5.237 0.166626 6.91671C0.166626 11.1917 5.74788 16.0209 5.98538 16.2267C6.12877 16.3494 6.31126 16.4168 6.49996 16.4168C6.68865 16.4168 6.87115 16.3494 7.01454 16.2267C7.29163 16.0209 12.8333 11.1917 12.8333 6.91671C12.8333 5.237 12.166 3.62609 10.9783 2.43836C9.79057 1.25063 8.17966 0.583374 6.49996 0.583374ZM6.49996 14.5563C4.81371 12.973 1.74996 9.56087 1.74996 6.91671C1.74996 5.65693 2.2504 4.44875 3.1412 3.55795C4.032 2.66715 5.24018 2.16671 6.49996 2.16671C7.75974 2.16671 8.96792 2.66715 9.85872 3.55795C10.7495 4.44875 11.25 5.65693 11.25 6.91671C11.25 9.56087 8.18621 12.9809 6.49996 14.5563ZM6.49996 3.75004C5.87365 3.75004 5.26141 3.93576 4.74065 4.28372C4.2199 4.63168 3.81402 5.12624 3.57434 5.70488C3.33466 6.28351 3.27195 6.92022 3.39414 7.53449C3.51633 8.14877 3.81792 8.71301 4.26079 9.15588C4.70365 9.59875 5.2679 9.90034 5.88217 10.0225C6.49645 10.1447 7.13316 10.082 7.71179 9.84233C8.29042 9.60265 8.78499 9.19677 9.13295 8.67601C9.4809 8.15526 9.66663 7.54302 9.66663 6.91671C9.66663 6.07686 9.333 5.2714 8.73913 4.67754C8.14527 4.08367 7.33981 3.75004 6.49996 3.75004ZM6.49996 8.50004C6.18681 8.50004 5.88068 8.40718 5.62031 8.2332C5.35993 8.05922 5.15699 7.81194 5.03715 7.52262C4.91731 7.23331 4.88596 6.91495 4.94705 6.60781C5.00814 6.30068 5.15894 6.01856 5.38037 5.79712C5.60181 5.57569 5.88393 5.42489 6.19107 5.3638C6.4982 5.3027 6.81656 5.33406 7.10587 5.4539C7.39519 5.57374 7.64247 5.77668 7.81645 6.03706C7.99043 6.29743 8.08329 6.60355 8.08329 6.91671C8.08329 7.33663 7.91648 7.73936 7.61954 8.03629C7.32261 8.33323 6.91989 8.50004 6.49996 8.50004Z" fill="#FF5005"/>
</svg>
