<svg width="17" height="208" viewBox="0 0 17 208" fill="none" xmlns="http://www.w3.org/2000/svg">
<path fill-rule="evenodd" clip-rule="evenodd" d="M8 207.799C3.58747 207.799 0 204.211 0 199.799V192C0 187.588 3.58747 184 8 184C12.4125 184 16 187.588 16 192V199.799C16 204.211 12.4125 207.799 8 207.799ZM0.782222 199.799C0.782222 203.777 4.02142 207.016 8 207.016C11.9786 207.016 15.2178 203.777 15.2178 199.799V192.296H0.782222V199.799ZM8.2963 191.704H15.2118C15.0597 187.96 12.0398 184.94 8.2963 184.788V191.704ZM7.7037 191.704H0.788233C0.940332 187.96 3.96015 184.94 7.7037 184.788V191.704Z" fill="#716C6A"/>
<path d="M8 132V180" stroke="#716C6A" stroke-dasharray="5 5"/>
<path d="M12.132 124.496C12.132 122.744 11.196 121.544 9.684 121.544C8.784 121.544 7.848 122.192 7.404 123.608L6.936 124.856C6.576 125.816 6.12 125.924 5.772 125.924C5.028 125.924 4.596 125.264 4.596 124.472C4.596 123.776 4.86 123.26 5.412 122.984C5.664 122.864 5.76 122.696 5.688 122.432L5.592 122.132C5.52 121.868 5.316 121.736 5.052 121.844C4.104 122.228 3.468 123.164 3.468 124.484C3.468 125.936 4.356 127.208 5.808 127.208C6.588 127.208 7.536 126.824 8.064 125.24L8.484 123.992C8.736 123.308 9.132 122.78 9.768 122.78C10.488 122.78 11.016 123.44 11.016 124.52C11.016 125.36 10.608 125.996 10.092 126.296C9.84 126.428 9.744 126.572 9.804 126.836L9.888 127.184C9.96 127.448 10.164 127.592 10.428 127.472C11.412 127.04 12.132 125.984 12.132 124.496ZM12.132 117.164C12.132 116.732 12.06 116.144 11.736 115.544C11.544 115.16 11.256 115.076 11.028 115.244L10.908 115.328C10.68 115.484 10.656 115.676 10.788 115.94C11.04 116.456 11.052 116.972 11.052 117.104C11.052 118.376 10.2 119.312 8.988 119.312C7.776 119.312 6.936 118.376 6.936 117.104C6.936 116.972 6.948 116.456 7.2 115.94C7.32 115.676 7.308 115.496 7.08 115.328L6.96 115.232C6.732 115.064 6.492 115.1 6.348 115.352C5.952 116.036 5.856 116.684 5.856 117.164C5.856 119.336 7.296 120.548 9.06 120.548C10.776 120.548 12.132 119.288 12.132 117.164ZM12 113.308L12 112.948C12 112.672 11.844 112.516 11.568 112.516L9.708 112.516C7.248 112.516 7.032 111.436 7.032 111.004C7.032 110.896 7.044 110.788 7.068 110.68C7.116 110.476 6.996 110.356 6.696 110.356L6.348 110.356C6.108 110.356 5.904 110.392 5.868 110.644L5.856 110.908C5.856 111.628 6.372 112.312 7.332 112.516L6.42 112.516C6.144 112.516 5.988 112.672 5.988 112.948L5.988 113.308C5.988 113.584 6.144 113.752 6.42 113.752L11.568 113.752C11.844 113.752 12 113.584 12 113.308ZM12.132 106.704C12.132 104.94 10.728 103.512 8.988 103.512C7.272 103.512 5.856 104.94 5.856 106.704C5.856 108.456 7.26 109.872 8.988 109.872C10.74 109.872 12.132 108.456 12.132 106.704ZM11.052 106.704C11.052 107.772 10.14 108.648 9 108.648C7.86 108.648 6.936 107.772 6.936 106.704C6.936 105.612 7.86 104.748 9 104.748C10.14 104.748 11.052 105.612 11.052 106.704ZM12 101.671L12 101.311C12 101.035 11.844 100.879 11.568 100.879L3.756 100.879C3.48 100.879 3.324 101.035 3.324 101.311L3.324 101.671C3.324 101.947 3.48 102.115 3.756 102.115L11.568 102.115C11.844 102.115 12 101.947 12 101.671ZM12 98.5536L12 98.1936C12 97.9176 11.844 97.7616 11.568 97.7616L3.756 97.7616C3.48 97.7616 3.324 97.9176 3.324 98.1936L3.324 98.5536C3.324 98.8296 3.48 98.9976 3.756 98.9976L11.568 98.9976C11.844 98.9976 12 98.8296 12 98.5536ZM12 92.0918L12 89.7758C12 87.0998 10.116 85.4558 7.8 85.4558C5.484 85.4558 3.6 87.0998 3.6 89.7758L3.6 92.0918C3.6 92.3678 3.756 92.5238 4.032 92.5238L11.568 92.5238C11.844 92.5238 12 92.3678 12 92.0918ZM10.956 91.2518L4.644 91.2518L4.644 89.7998C4.644 87.9158 6.048 86.7518 7.8 86.7518C9.552 86.7518 10.956 87.9158 10.956 89.7998L10.956 91.2518ZM12.132 81.2862C12.132 79.5222 10.728 78.0942 8.988 78.0942C7.272 78.0942 5.856 79.5222 5.856 81.2862C5.856 83.0382 7.26 84.4542 8.988 84.4542C10.74 84.4542 12.132 83.0382 12.132 81.2862ZM11.052 81.2862C11.052 82.3542 10.14 83.2302 9 83.2302C7.86 83.2302 6.936 82.3542 6.936 81.2862C6.936 80.1942 7.86 79.3302 9 79.3302C10.14 79.3302 11.052 80.1942 11.052 81.2862ZM12 75L12 74.604C12 74.352 11.88 74.184 11.64 74.112L7.896 72.9L11.64 71.688C11.88 71.604 12 71.448 12 71.196L12 70.8C12 70.548 11.904 70.392 11.652 70.296L6.48 68.436C6.168 68.328 5.988 68.46 5.988 68.784L5.988 69.168C5.988 69.42 6.084 69.588 6.336 69.672L10.344 71.052L6.528 72.288C6.288 72.36 6.156 72.516 6.156 72.768L6.156 73.032C6.156 73.272 6.288 73.44 6.528 73.512L10.344 74.736L6.336 76.128C6.084 76.212 5.988 76.38 5.988 76.632L5.988 77.016C5.988 77.328 6.168 77.472 6.48 77.364L11.652 75.492C11.892 75.408 12 75.252 12 75ZM12 66.6208L12 66.2608C12 65.9848 11.844 65.8288 11.568 65.8288L9.18 65.8288C7.356 65.8288 6.936 64.5808 6.936 63.9568C6.936 63.3208 7.38 62.7568 8.616 62.7568L11.568 62.7568C11.844 62.7568 12 62.6008 12 62.3248L12 61.9648C12 61.6888 11.844 61.5208 11.568 61.5208L8.604 61.5208C6.72 61.5208 5.856 62.4928 5.856 63.8248C5.856 64.7968 6.324 65.5648 7.164 65.8288L6.42 65.8288C6.144 65.8288 5.988 65.9848 5.988 66.2608L5.988 66.6208C5.988 66.8968 6.144 67.0648 6.42 67.0648L11.568 67.0648C11.844 67.0648 12 66.8968 12 66.6208Z" fill="#716C6A"/>
<path d="M8 8L8 56" stroke="#716C6A" stroke-dasharray="5 5"/>
<circle cx="8" cy="4" r="4" fill="#FF5005"/>
</svg>
