<svg width="22" height="20" viewBox="0 0 22 20" fill="none" xmlns="http://www.w3.org/2000/svg">
<path d="M10.3667 0.133336C10.1621 0.21266 9.97522 0.331603 9.81671 0.483338L1.48338 8.81667C1.32798 8.97207 1.20471 9.15655 1.12061 9.35959C1.03651 9.56262 0.993225 9.78024 0.993225 10C0.993225 10.4438 1.16954 10.8695 1.48338 11.1833C1.63878 11.3387 1.82326 11.462 2.0263 11.5461C2.22933 11.6302 2.44695 11.6735 2.66671 11.6735C3.11055 11.6735 3.5362 11.4972 3.85004 11.1833L9.33338 5.68334L9.33338 18.3333C9.33338 18.7754 9.50897 19.1993 9.82153 19.5118C10.1341 19.8244 10.558 20 11 20C11.4421 20 11.866 19.8244 12.1786 19.5118C12.4911 19.1993 12.6667 18.7754 12.6667 18.3333L12.6667 5.68333L18.15 11.1833C18.305 11.3395 18.4893 11.4635 18.6924 11.5482C18.8955 11.6328 19.1134 11.6763 19.3334 11.6763C19.5534 11.6763 19.7712 11.6328 19.9743 11.5482C20.1774 11.4635 20.3618 11.3395 20.5167 11.1833C20.6729 11.0284 20.7969 10.8441 20.8815 10.641C20.9661 10.4379 21.0097 10.22 21.0097 10C21.0097 9.77998 20.9661 9.56214 20.8815 9.35904C20.7969 9.15594 20.6729 8.97161 20.5167 8.81667L12.1834 0.483338C12.0249 0.331603 11.838 0.21266 11.6334 0.133336C11.2276 -0.0333606 10.7725 -0.0333606 10.3667 0.133336Z" fill="white"/>
</svg>
