<svg width="21" height="20" viewBox="0 0 21 20" fill="none" xmlns="http://www.w3.org/2000/svg">
<path d="M18 13.3332H6.33335C6.11234 13.3332 5.90038 13.2454 5.7441 13.0891C5.58782 12.9328 5.50002 12.7209 5.50002 12.4998C5.50002 12.2788 5.58782 12.0669 5.7441 11.9106C5.90038 11.7543 6.11234 11.6665 6.33335 11.6665H15.0334C15.5906 11.6665 16.1318 11.4804 16.5712 11.1377C17.0105 10.795 17.3228 10.3153 17.4584 9.77484L18.8334 4.3665C18.8646 4.24351 18.8673 4.11501 18.8413 3.99081C18.8153 3.86661 18.7613 3.74999 18.6834 3.64984C18.6023 3.54711 18.4982 3.46492 18.3795 3.4099C18.2608 3.35489 18.1308 3.3286 18 3.33317H6.13335C5.96143 2.84688 5.6433 2.42567 5.22257 2.12729C4.80185 1.8289 4.29914 1.66795 3.78335 1.6665H3.00002C2.77901 1.6665 2.56704 1.7543 2.41076 1.91058C2.25448 2.06686 2.16669 2.27882 2.16669 2.49984C2.16669 2.72085 2.25448 2.93281 2.41076 3.08909C2.56704 3.24537 2.77901 3.33317 3.00002 3.33317H3.78335C3.97372 3.32762 4.16023 3.38745 4.31186 3.50268C4.46348 3.61792 4.57106 3.78161 4.61669 3.9665L4.66669 4.3665L6.10835 9.99984C5.44531 10.0297 4.82128 10.3217 4.37354 10.8116C3.92579 11.3016 3.69102 11.9493 3.72085 12.6123C3.75069 13.2754 4.0427 13.8994 4.53264 14.3472C5.02258 14.7949 5.67031 15.0297 6.33335 14.9998H6.48335C6.3463 15.3774 6.30226 15.7825 6.35496 16.1808C6.40767 16.579 6.55556 16.9587 6.78612 17.2876C7.01668 17.6166 7.32312 17.8852 7.67948 18.0706C8.03585 18.256 8.43164 18.3528 8.83335 18.3528C9.23507 18.3528 9.63086 18.256 9.98723 18.0706C10.3436 17.8852 10.65 17.6166 10.8806 17.2876C11.1111 16.9587 11.259 16.579 11.3117 16.1808C11.3644 15.7825 11.3204 15.3774 11.1834 14.9998H13.15C13.013 15.3774 12.9689 15.7825 13.0216 16.1808C13.0743 16.579 13.2222 16.9587 13.4528 17.2876C13.6833 17.6166 13.9898 17.8852 14.3461 18.0706C14.7025 18.256 15.0983 18.3528 15.5 18.3528C15.9017 18.3528 16.2975 18.256 16.6539 18.0706C17.0103 17.8852 17.3167 17.6166 17.5473 17.2876C17.7778 16.9587 17.9257 16.579 17.9784 16.1808C18.0311 15.7825 17.9871 15.3774 17.85 14.9998H18C18.221 14.9998 18.433 14.912 18.5893 14.7558C18.7456 14.5995 18.8334 14.3875 18.8334 14.1665C18.8334 13.9455 18.7456 13.7335 18.5893 13.5772C18.433 13.421 18.221 13.3332 18 13.3332ZM16.9334 4.99984L15.8417 9.3665C15.7961 9.5514 15.6885 9.71509 15.5369 9.83033C15.3852 9.94556 15.1987 10.0054 15.0084 9.99984H7.81669L6.56669 4.99984H16.9334ZM8.83335 16.6665C8.66854 16.6665 8.50742 16.6176 8.37038 16.5261C8.23334 16.4345 8.12653 16.3043 8.06345 16.1521C8.00038 15.9998 7.98388 15.8322 8.01603 15.6706C8.04819 15.5089 8.12755 15.3605 8.2441 15.2439C8.36064 15.1274 8.50913 15.048 8.67078 15.0159C8.83243 14.9837 8.99999 15.0002 9.15226 15.0633C9.30453 15.1263 9.43468 15.2332 9.52625 15.3702C9.61781 15.5072 9.66669 15.6684 9.66669 15.8332C9.66669 16.0542 9.57889 16.2661 9.42261 16.4224C9.26633 16.5787 9.05437 16.6665 8.83335 16.6665ZM15.5 16.6665C15.3352 16.6665 15.1741 16.6176 15.037 16.5261C14.9 16.4345 14.7932 16.3043 14.7301 16.1521C14.667 15.9998 14.6505 15.8322 14.6827 15.6706C14.7149 15.5089 14.7942 15.3605 14.9108 15.2439C15.0273 15.1274 15.1758 15.048 15.3374 15.0159C15.4991 14.9837 15.6667 15.0002 15.8189 15.0633C15.9712 15.1263 16.1013 15.2332 16.1929 15.3702C16.2845 15.5072 16.3334 15.6684 16.3334 15.8332C16.3334 16.0542 16.2456 16.2661 16.0893 16.4224C15.933 16.5787 15.721 16.6665 15.5 16.6665Z" fill="#514E4D"/>
</svg>
