<svg width="20" height="20" viewBox="0 0 20 20" fill="none" xmlns="http://www.w3.org/2000/svg">
<path d="M10 2.5C8.51664 2.5 7.06659 2.93987 5.83323 3.76398C4.59986 4.58809 3.63856 5.75943 3.07091 7.12987C2.50325 8.50032 2.35472 10.0083 2.64411 11.4632C2.9335 12.918 3.64781 14.2544 4.6967 15.3033C5.7456 16.3522 7.08197 17.0665 8.53683 17.3559C9.99168 17.6453 11.4997 17.4968 12.8701 16.9291C14.2406 16.3614 15.4119 15.4001 16.236 14.1668C17.0601 12.9334 17.5 11.4834 17.5 10C17.5 9.01508 17.306 8.03981 16.9291 7.12987C16.5522 6.21993 15.9997 5.39314 15.3033 4.6967C14.6069 4.00026 13.7801 3.44781 12.8701 3.0709C11.9602 2.69399 10.9849 2.5 10 2.5Z" fill="#41E189"/>
<path d="M12.3898 7.75961L8.96884 11.5984L7.65309 10.1254C7.58161 10.0319 7.49364 9.95605 7.39471 9.90246C7.29577 9.84887 7.18802 9.81876 7.0782 9.81401C6.96838 9.80926 6.85887 9.82998 6.75654 9.87486C6.65421 9.91975 6.56127 9.98783 6.48356 10.0748C6.40585 10.1618 6.34504 10.2659 6.30495 10.3804C6.26486 10.495 6.24635 10.6176 6.25059 10.7406C6.25484 10.8635 6.28173 10.9841 6.3296 11.0949C6.37746 11.2057 6.44526 11.3042 6.52873 11.3842L8.40267 13.4911C8.47718 13.5738 8.56555 13.6393 8.6627 13.6837C8.75986 13.7281 8.86389 13.7507 8.96884 13.75C9.17803 13.749 9.3785 13.656 9.52703 13.4911L13.5141 9.02732C13.5889 8.94432 13.6482 8.84558 13.6887 8.73679C13.7292 8.628 13.75 8.51132 13.75 8.39346C13.75 8.27561 13.7292 8.15892 13.6887 8.05013C13.6482 7.94134 13.5889 7.8426 13.5141 7.75961C13.3647 7.59333 13.1626 7.5 12.9519 7.5C12.7413 7.5 12.5392 7.59333 12.3898 7.75961Z" fill="white"/>
</svg>
