<svg width="18" height="18" viewBox="0 0 18 18" fill="none" xmlns="http://www.w3.org/2000/svg">
<path d="M9.18562 1.6875C5.0512 1.6875 1.6875 5.0512 1.6875 9.18562C1.6875 13.32 5.0512 16.6837 9.18562 16.6837C13.32 16.6837 16.6837 13.32 16.6837 9.18562C16.6837 5.0512 13.32 1.6875 9.18562 1.6875ZM11.9005 11.085C11.9563 11.1381 12.0009 11.2017 12.0317 11.2723C12.0625 11.3428 12.0789 11.4188 12.0799 11.4958C12.0809 11.5728 12.0665 11.6492 12.0375 11.7205C12.0085 11.7918 11.9655 11.8566 11.911 11.911C11.8566 11.9655 11.7918 12.0085 11.7205 12.0375C11.6492 12.0665 11.5728 12.0809 11.4958 12.0799C11.4188 12.0789 11.3428 12.0625 11.2723 12.0317C11.2017 12.0009 11.1381 11.9563 11.085 11.9005L9.18562 10.0014L7.28622 11.9005C7.17717 12.0041 7.03197 12.061 6.88157 12.059C6.73117 12.0571 6.58747 11.9965 6.48111 11.8901C6.37475 11.7838 6.31415 11.6401 6.31222 11.4897C6.31029 11.3393 6.3672 11.1941 6.4708 11.085L8.36984 9.18562L6.4708 7.28622C6.3672 7.17717 6.31029 7.03197 6.31222 6.88157C6.31415 6.73117 6.37475 6.58747 6.48111 6.48111C6.58747 6.37475 6.73117 6.31415 6.88157 6.31222C7.03197 6.31029 7.17717 6.3672 7.28622 6.4708L9.18562 8.36984L11.085 6.4708C11.1941 6.3672 11.3393 6.31029 11.4897 6.31222C11.6401 6.31415 11.7838 6.37475 11.8901 6.48111C11.9965 6.58747 12.0571 6.73117 12.059 6.88157C12.061 7.03197 12.0041 7.17717 11.9005 7.28622L10.0014 9.18562L11.9005 11.085Z" fill="#F85464"/>
</svg>
