<svg width="18" height="18" viewBox="0 0 18 18" fill="none" xmlns="http://www.w3.org/2000/svg">
<path fill-rule="evenodd" clip-rule="evenodd" d="M10.6872 5.62451C9.54364 5.62451 8.99973 4.88994 8.99973 3.93618C8.99973 2.98408 9.60108 2.24951 10.6872 2.24951C11.7734 2.24951 12.3747 2.98408 12.3747 3.93785C12.373 4.89162 11.8308 5.62451 10.6872 5.62451ZM5.06223 10.1245C3.15538 10.1245 2.24973 8.90254 2.24973 7.31201C2.24973 5.72148 3.25291 4.49951 5.06223 4.49951C6.87154 4.49951 7.87473 5.72148 7.87473 7.31201C7.87473 8.90254 6.96907 10.1245 5.06223 10.1245ZM9.30797 7.10149C9.86822 6.87426 10.5185 6.74951 11.2497 6.74951C14.1477 6.74951 15.752 8.70545 15.7497 11.2495C15.7497 13.7936 14.303 15.7495 11.2497 15.7495C8.19648 15.7495 6.74973 13.7936 6.74973 11.2495C6.74973 11.1693 6.75198 11.0891 6.75423 11.0111C8.47997 10.4899 9.30797 9.00842 9.30797 7.1906V7.10149Z" fill="#FF8D5C"/>
</svg>
