<svg width="21" height="20" viewBox="0 0 21 20" fill="none" xmlns="http://www.w3.org/2000/svg">
<path d="M10.5 3.8291C9.59203 2.99418 8.40353 2.5308 7.17003 2.53076C6.51714 2.53144 5.87084 2.66123 5.26831 2.91265C4.66578 3.16408 4.11891 3.53217 3.65919 3.99576C1.69836 5.96493 1.69919 9.04493 3.66086 11.0058L9.77086 17.1158C9.91253 17.3649 10.1859 17.5258 10.5 17.5258C10.629 17.5245 10.7559 17.493 10.8706 17.4338C10.9852 17.3746 11.0843 17.2894 11.16 17.1849L17.3392 11.0058C19.3009 9.0441 19.3009 5.96493 17.3375 3.99243C16.878 3.52969 16.3316 3.16234 15.7297 2.9115C15.1277 2.66065 14.4821 2.53126 13.83 2.53076C12.5965 2.53096 11.4081 2.99432 10.5 3.8291ZM16.1592 5.17076C17.4617 6.47993 17.4625 8.52493 16.1609 9.82743L10.5 15.4883L4.83919 9.82743C3.53752 8.52493 3.53836 6.47993 4.83752 5.1741C5.47086 4.5441 6.29919 4.19743 7.17003 4.19743C8.04086 4.19743 8.86586 4.54409 9.49419 5.17243L9.91086 5.5891C9.98818 5.66655 10.08 5.728 10.1811 5.76992C10.2822 5.81185 10.3906 5.83343 10.5 5.83343C10.6095 5.83343 10.7178 5.81185 10.8189 5.76992C10.92 5.728 11.0119 5.66655 11.0892 5.5891L11.5059 5.17243C12.7659 3.91493 14.9009 3.91826 16.1592 5.17076Z" fill="#514E4D"/>
</svg>
