<svg width="21" height="20" viewBox="0 0 21 20" fill="none" xmlns="http://www.w3.org/2000/svg">
<path d="M8.41669 8.75022H10.5C10.721 8.75022 10.933 8.66242 11.0893 8.50614C11.2456 8.34986 11.3334 8.1379 11.3334 7.91689C11.3334 7.69587 11.2456 7.48391 11.0893 7.32763C10.933 7.17135 10.721 7.08355 10.5 7.08355H9.66669V6.66689C9.66669 6.44587 9.5789 6.23391 9.42262 6.07763C9.26634 5.92135 9.05437 5.83355 8.83336 5.83355C8.61235 5.83355 8.40039 5.92135 8.24411 6.07763C8.08782 6.23391 8.00003 6.44587 8.00003 6.66689V7.12522C7.49371 7.22803 7.04366 7.5153 6.73724 7.93127C6.43082 8.34724 6.28989 8.86223 6.34181 9.37626C6.39374 9.89029 6.63481 10.3667 7.01822 10.713C7.40164 11.0593 7.90005 11.2507 8.41669 11.2502H9.25003C9.36053 11.2502 9.46652 11.2941 9.54466 11.3723C9.6228 11.4504 9.66669 11.5564 9.66669 11.6669C9.66669 11.7774 9.6228 11.8834 9.54466 11.9615C9.46652 12.0397 9.36053 12.0836 9.25003 12.0836H7.16669C6.94568 12.0836 6.73372 12.1713 6.57744 12.3276C6.42116 12.4839 6.33336 12.6959 6.33336 12.9169C6.33336 13.1379 6.42116 13.3499 6.57744 13.5061C6.73372 13.6624 6.94568 13.7502 7.16669 13.7502H8.00003V14.1669C8.00003 14.3879 8.08782 14.5999 8.24411 14.7561C8.40039 14.9124 8.61235 15.0002 8.83336 15.0002C9.05437 15.0002 9.26634 14.9124 9.42262 14.7561C9.5789 14.5999 9.66669 14.3879 9.66669 14.1669V13.7086C10.173 13.6057 10.6231 13.3185 10.9295 12.9025C11.2359 12.4865 11.3768 11.9715 11.3249 11.4575C11.273 10.9435 11.0319 10.4671 10.6485 10.1208C10.2651 9.7745 9.76667 9.58303 9.25003 9.58355H8.41669C8.30619 9.58355 8.20021 9.53965 8.12207 9.46151C8.04393 9.38337 8.00003 9.27739 8.00003 9.16689C8.00003 9.05638 8.04393 8.9504 8.12207 8.87226C8.20021 8.79412 8.30619 8.75022 8.41669 8.75022ZM18 10.0002H15.5V2.50022C15.5006 2.35338 15.4624 2.20899 15.3892 2.08167C15.316 1.95436 15.2105 1.84864 15.0834 1.77522C14.9567 1.70208 14.813 1.66357 14.6667 1.66357C14.5204 1.66357 14.3767 1.70208 14.25 1.77522L11.75 3.20855L9.25003 1.77522C9.12334 1.70208 8.97964 1.66357 8.83336 1.66357C8.68708 1.66357 8.54338 1.70208 8.41669 1.77522L5.91669 3.20855L3.41669 1.77522C3.29001 1.70208 3.14631 1.66357 3.00003 1.66357C2.85375 1.66357 2.71004 1.70208 2.58336 1.77522C2.45619 1.84864 2.35068 1.95436 2.27751 2.08167C2.20434 2.20899 2.16611 2.35338 2.16669 2.50022V15.8336C2.16669 16.4966 2.43009 17.1325 2.89893 17.6013C3.36777 18.0702 4.00365 18.3336 4.66669 18.3336H16.3334C16.9964 18.3336 17.6323 18.0702 18.1011 17.6013C18.57 17.1325 18.8334 16.4966 18.8334 15.8336V10.8336C18.8334 10.6125 18.7456 10.4006 18.5893 10.2443C18.433 10.088 18.221 10.0002 18 10.0002ZM4.66669 16.6669C4.44568 16.6669 4.23372 16.5791 4.07744 16.4228C3.92116 16.2665 3.83336 16.0546 3.83336 15.8336V3.94189L5.50003 4.89189C5.62864 4.95906 5.77159 4.99415 5.91669 4.99415C6.0618 4.99415 6.20475 4.95906 6.33336 4.89189L8.83336 3.45855L11.3334 4.89189C11.462 4.95906 11.6049 4.99415 11.75 4.99415C11.8951 4.99415 12.0381 4.95906 12.1667 4.89189L13.8334 3.94189V15.8336C13.8356 16.1178 13.8863 16.3997 13.9834 16.6669H4.66669ZM17.1667 15.8336C17.1667 16.0546 17.0789 16.2665 16.9226 16.4228C16.7663 16.5791 16.5544 16.6669 16.3334 16.6669C16.1123 16.6669 15.9004 16.5791 15.7441 16.4228C15.5878 16.2665 15.5 16.0546 15.5 15.8336V11.6669H17.1667V15.8336Z" fill="#514E4D"/>
</svg>
