<svg width="100" height="100" viewBox="0 0 100 100" fill="none" xmlns="http://www.w3.org/2000/svg">
<circle cx="50" cy="50" r="50" fill="#FFC9B3"/>
<path d="M69.4199 66.5803L61.9999 59.2203C64.8801 55.6291 66.2749 51.0709 65.8976 46.4829C65.5202 41.8949 63.3993 37.6259 59.971 34.5536C56.5427 31.4813 52.0675 29.8393 47.4658 29.9652C42.864 30.0912 38.4854 31.9754 35.2302 35.2306C31.9751 38.4857 30.0908 42.8644 29.9649 47.4661C29.839 52.0679 31.4809 56.543 34.5532 59.9713C37.6255 63.3996 41.8945 65.5205 46.4825 65.8979C51.0705 66.2753 55.6288 64.8805 59.2199 62.0003L66.5799 69.3603C66.7659 69.5478 66.9871 69.6965 67.2308 69.7981C67.4745 69.8996 67.7359 69.9519 67.9999 69.9519C68.264 69.9519 68.5254 69.8996 68.7691 69.7981C69.0128 69.6965 69.234 69.5478 69.4199 69.3603C69.7804 68.9874 69.9819 68.489 69.9819 67.9703C69.9819 67.4516 69.7804 66.9532 69.4199 66.5803ZM47.9999 62.0003C45.231 62.0003 42.5242 61.1792 40.2219 59.6409C37.9197 58.1025 36.1252 55.916 35.0656 53.3579C34.006 50.7997 33.7287 47.9848 34.2689 45.269C34.8091 42.5533 36.1425 40.0587 38.1004 38.1008C40.0584 36.1429 42.5529 34.8095 45.2687 34.2693C47.9844 33.7291 50.7993 34.0064 53.3575 35.066C55.9157 36.1256 58.1022 37.92 59.6405 40.2223C61.1789 42.5246 61.9999 45.2314 61.9999 48.0003C61.9999 51.7133 60.5249 55.2743 57.8994 57.8998C55.2739 60.5253 51.713 62.0003 47.9999 62.0003Z" fill="#FF5005"/>
</svg>
