<svg width="21" height="20" viewBox="0 0 21 20" fill="none" xmlns="http://www.w3.org/2000/svg">
<path d="M7.31818 17.1591H4.13636C3.9254 17.1591 3.72307 17.0753 3.57389 16.9261C3.42472 16.7769 3.34091 16.5746 3.34091 16.3636V13.1818C3.34091 12.9709 3.2571 12.7685 3.10793 12.6193C2.95875 12.4702 2.75642 12.3864 2.54545 12.3864C2.33449 12.3864 2.13216 12.4702 1.98298 12.6193C1.83381 12.7685 1.75 12.9709 1.75 13.1818V16.3636C1.75 16.9965 2.00142 17.6035 2.44895 18.0511C2.89648 18.4986 3.50346 18.75 4.13636 18.75H7.31818C7.52915 18.75 7.73148 18.6662 7.88065 18.517C8.02983 18.3678 8.11364 18.1655 8.11364 17.9545C8.11364 17.7436 8.02983 17.5413 7.88065 17.3921C7.73148 17.2429 7.52915 17.1591 7.31818 17.1591V17.1591ZM18.4545 12.3864C18.2436 12.3864 18.0413 12.4702 17.8921 12.6193C17.7429 12.7685 17.6591 12.9709 17.6591 13.1818V16.3636C17.6591 16.5746 17.5753 16.7769 17.4261 16.9261C17.2769 17.0753 17.0746 17.1591 16.8636 17.1591H13.6818C13.4709 17.1591 13.2685 17.2429 13.1193 17.3921C12.9702 17.5413 12.8864 17.7436 12.8864 17.9545C12.8864 18.1655 12.9702 18.3678 13.1193 18.517C13.2685 18.6662 13.4709 18.75 13.6818 18.75H16.8636C17.4965 18.75 18.1035 18.4986 18.5511 18.0511C18.9986 17.6035 19.25 16.9965 19.25 16.3636V13.1818C19.25 12.9709 19.1662 12.7685 19.017 12.6193C18.8678 12.4702 18.6655 12.3864 18.4545 12.3864ZM16.8636 1.25H13.6818C13.4709 1.25 13.2685 1.33381 13.1193 1.48298C12.9702 1.63216 12.8864 1.83449 12.8864 2.04545C12.8864 2.25642 12.9702 2.45875 13.1193 2.60793C13.2685 2.7571 13.4709 2.84091 13.6818 2.84091H16.8636C17.0746 2.84091 17.2769 2.92472 17.4261 3.07389C17.5753 3.22307 17.6591 3.4254 17.6591 3.63636V6.81818C17.6591 7.02915 17.7429 7.23148 17.8921 7.38065C18.0413 7.52983 18.2436 7.61364 18.4545 7.61364C18.6655 7.61364 18.8678 7.52983 19.017 7.38065C19.1662 7.23148 19.25 7.02915 19.25 6.81818V3.63636C19.25 3.00346 18.9986 2.39648 18.5511 1.94895C18.1035 1.50142 17.4965 1.25 16.8636 1.25V1.25ZM2.54545 7.61364C2.75642 7.61364 2.95875 7.52983 3.10793 7.38065C3.2571 7.23148 3.34091 7.02915 3.34091 6.81818V3.63636C3.34091 3.4254 3.42472 3.22307 3.57389 3.07389C3.72307 2.92472 3.9254 2.84091 4.13636 2.84091H7.31818C7.52915 2.84091 7.73148 2.7571 7.88065 2.60793C8.02983 2.45875 8.11364 2.25642 8.11364 2.04545C8.11364 1.83449 8.02983 1.63216 7.88065 1.48298C7.73148 1.33381 7.52915 1.25 7.31818 1.25H4.13636C3.50346 1.25 2.89648 1.50142 2.44895 1.94895C2.00142 2.39648 1.75 3.00346 1.75 3.63636V6.81818C1.75 7.02915 1.83381 7.23148 1.98298 7.38065C2.13216 7.52983 2.33449 7.61364 2.54545 7.61364ZM8.90909 4.43182H5.72727C5.51631 4.43182 5.31398 4.51562 5.1648 4.6648C5.01562 4.81398 4.93182 5.01631 4.93182 5.22727V8.40909C4.93182 8.62006 5.01562 8.82239 5.1648 8.97156C5.31398 9.12074 5.51631 9.20455 5.72727 9.20455H8.90909C9.12006 9.20455 9.32239 9.12074 9.47156 8.97156C9.62074 8.82239 9.70455 8.62006 9.70455 8.40909V5.22727C9.70455 5.01631 9.62074 4.81398 9.47156 4.6648C9.32239 4.51562 9.12006 4.43182 8.90909 4.43182ZM8.11364 7.61364H6.52273V6.02273H8.11364V7.61364ZM12.0909 9.20455H15.2727C15.4837 9.20455 15.686 9.12074 15.8352 8.97156C15.9844 8.82239 16.0682 8.62006 16.0682 8.40909V5.22727C16.0682 5.01631 15.9844 4.81398 15.8352 4.6648C15.686 4.51562 15.4837 4.43182 15.2727 4.43182H12.0909C11.8799 4.43182 11.6776 4.51562 11.5284 4.6648C11.3793 4.81398 11.2955 5.01631 11.2955 5.22727V8.40909C11.2955 8.62006 11.3793 8.82239 11.5284 8.97156C11.6776 9.12074 11.8799 9.20455 12.0909 9.20455ZM12.8864 6.02273H14.4773V7.61364H12.8864V6.02273ZM8.90909 10.7955H5.72727C5.51631 10.7955 5.31398 10.8793 5.1648 11.0284C5.01562 11.1776 4.93182 11.3799 4.93182 11.5909V14.7727C4.93182 14.9837 5.01562 15.186 5.1648 15.3352C5.31398 15.4844 5.51631 15.5682 5.72727 15.5682H8.90909C9.12006 15.5682 9.32239 15.4844 9.47156 15.3352C9.62074 15.186 9.70455 14.9837 9.70455 14.7727V11.5909C9.70455 11.3799 9.62074 11.1776 9.47156 11.0284C9.32239 10.8793 9.12006 10.7955 8.90909 10.7955ZM8.11364 13.9773H6.52273V12.3864H8.11364V13.9773ZM12.0909 13.1818C12.3019 13.1818 12.5042 13.098 12.6534 12.9488C12.8026 12.7997 12.8864 12.5973 12.8864 12.3864C13.0973 12.3864 13.2997 12.3026 13.4488 12.1534C13.598 12.0042 13.6818 11.8019 13.6818 11.5909C13.6818 11.3799 13.598 11.1776 13.4488 11.0284C13.2997 10.8793 13.0973 10.7955 12.8864 10.7955H12.0909C11.8799 10.7955 11.6776 10.8793 11.5284 11.0284C11.3793 11.1776 11.2955 11.3799 11.2955 11.5909V12.3864C11.2955 12.5973 11.3793 12.7997 11.5284 12.9488C11.6776 13.098 11.8799 13.1818 12.0909 13.1818ZM15.2727 10.7955C15.0618 10.7955 14.8594 10.8793 14.7103 11.0284C14.5611 11.1776 14.4773 11.3799 14.4773 11.5909V13.9773C14.2663 13.9773 14.064 14.0611 13.9148 14.2103C13.7656 14.3594 13.6818 14.5618 13.6818 14.7727C13.6818 14.9837 13.7656 15.186 13.9148 15.3352C14.064 15.4844 14.2663 15.5682 14.4773 15.5682H15.2727C15.4837 15.5682 15.686 15.4844 15.8352 15.3352C15.9844 15.186 16.0682 14.9837 16.0682 14.7727V11.5909C16.0682 11.3799 15.9844 11.1776 15.8352 11.0284C15.686 10.8793 15.4837 10.7955 15.2727 10.7955ZM12.0909 13.9773C11.9336 13.9773 11.7798 14.0239 11.649 14.1113C11.5182 14.1987 11.4162 14.323 11.356 14.4683C11.2958 14.6137 11.28 14.7736 11.3107 14.9279C11.3414 15.0822 11.4172 15.224 11.5284 15.3352C11.6397 15.4464 11.7814 15.5222 11.9357 15.5529C12.09 15.5836 12.25 15.5678 12.3953 15.5076C12.5407 15.4474 12.6649 15.3455 12.7523 15.2147C12.8397 15.0838 12.8864 14.9301 12.8864 14.7727C12.8864 14.5618 12.8026 14.3594 12.6534 14.2103C12.5042 14.0611 12.3019 13.9773 12.0909 13.9773Z" fill="#514E4D"/>
</svg>
