<svg width="21" height="20" viewBox="0 0 21 20" fill="none" xmlns="http://www.w3.org/2000/svg">
<g clip-path="url(#clip0)">
<path d="M20.0813 0.975299C20.0404 0.819723 19.9589 0.677802 19.8451 0.564058C19.7314 0.450314 19.5895 0.368831 19.4339 0.327947C17.5715 -0.155666 15.6105 -0.103497 13.7764 0.478449C11.9424 1.0604 10.31 2.14846 9.0672 3.61737L8.05396 4.81946L5.68972 4.24928C5.11477 4.04868 4.48666 4.06292 3.9214 4.28939C3.35615 4.51586 2.89195 4.93925 2.61457 5.48134L0.61713 9.02225C0.547194 9.14624 0.507392 9.28493 0.500935 9.42713C0.494478 9.56933 0.521547 9.71106 0.579958 9.84087C0.638369 9.97068 0.726485 10.0849 0.837192 10.1744C0.947899 10.2639 1.07809 10.3261 1.21727 10.356L4.00733 10.9543C3.77106 11.6737 3.60236 12.4135 3.50343 13.1642C3.48545 13.302 3.49934 13.4421 3.54405 13.5737C3.58875 13.7053 3.66307 13.8249 3.76128 13.9232L6.57585 16.7378C6.66025 16.8222 6.76047 16.8892 6.87077 16.9348C6.98107 16.9805 7.09929 17.0039 7.21866 17.0038C7.24409 17.0038 7.27042 17.0029 7.29675 17.0002C8.06438 16.9312 8.8227 16.7821 9.5593 16.5553L10.144 19.2827C10.1739 19.4219 10.2361 19.5521 10.3256 19.6628C10.4151 19.7735 10.5293 19.8616 10.6591 19.92C10.7889 19.9785 10.9307 20.0055 11.0729 19.9991C11.2151 19.9926 11.3538 19.9528 11.4777 19.8829L15.0232 17.8836C15.5223 17.5804 15.9122 17.1265 16.1366 16.5873C16.361 16.0481 16.4082 15.4516 16.2716 14.8838L15.6651 12.3779L16.7882 11.3456C18.2625 10.1061 19.3545 8.47344 19.9373 6.63761C20.5201 4.80178 20.5697 2.83822 20.0804 0.975299H20.0813ZM2.80432 8.83885L4.21706 6.33297C4.30497 6.16298 4.45455 6.03303 4.63516 5.96973C4.81577 5.90643 5.01374 5.91458 5.18854 5.9925L6.74836 6.3702L6.15821 7.07112C5.59849 7.74163 5.11437 8.47177 4.7146 9.24833L2.80432 8.83885ZM14.1262 16.3038L11.6611 17.6948L11.2707 15.8744C12.0614 15.4802 12.798 14.9858 13.4625 14.4035L14.1371 13.7834L14.5039 15.2942C14.5513 15.4809 14.5406 15.6777 14.4731 15.8581C14.4056 16.0386 14.2845 16.1941 14.1262 16.3038V16.3038ZM15.5925 9.98011L12.2468 13.0544C10.9227 14.1994 9.28953 14.9272 7.55278 15.1462L5.36922 12.9636C5.66244 11.2221 6.41496 9.59047 7.54915 8.2369L9.07356 6.4274C9.09889 6.40106 9.12254 6.37316 9.14438 6.34387L10.4473 4.79585C11.4106 3.65811 12.6586 2.79641 14.0639 2.29874C15.4692 1.80107 16.9814 1.68526 18.4461 1.96312C18.7306 3.43236 18.6159 4.95101 18.114 6.36087C17.6121 7.77073 16.7414 9.02023 15.5925 9.97921V9.98011ZM14.7545 4.38366C14.4851 4.38366 14.2218 4.46353 13.9978 4.61318C13.7739 4.76282 13.5993 4.97552 13.4962 5.22437C13.3932 5.47323 13.3662 5.74706 13.4187 6.01124C13.4713 6.27542 13.601 6.51808 13.7915 6.70855C13.9819 6.89901 14.2246 7.02872 14.4888 7.08127C14.7529 7.13382 15.0268 7.10685 15.2756 7.00377C15.5245 6.90069 15.7372 6.72613 15.8868 6.50217C16.0365 6.27821 16.1163 6.0149 16.1163 5.74555C16.1163 5.38435 15.9729 5.03795 15.7175 4.78254C15.4621 4.52714 15.1157 4.38366 14.7545 4.38366Z" fill="#514E4D"/>
</g>
<defs>
<clipPath id="clip0">
<rect width="20" height="20" fill="white" transform="translate(0.5)"/>
</clipPath>
</defs>
</svg>
