<svg width="21" height="20" viewBox="0 0 21 20" fill="none" xmlns="http://www.w3.org/2000/svg">
<path d="M8.00002 8.33317C7.77901 8.33317 7.56705 8.42097 7.41077 8.57725C7.25448 8.73353 7.16669 8.94549 7.16669 9.1665V10.8332C7.16669 11.0542 7.25448 11.2661 7.41077 11.4224C7.56705 11.5787 7.77901 11.6665 8.00002 11.6665C8.22103 11.6665 8.433 11.5787 8.58928 11.4224C8.74556 11.2661 8.83335 11.0542 8.83335 10.8332V9.1665C8.83335 8.94549 8.74556 8.73353 8.58928 8.57725C8.433 8.42097 8.22103 8.33317 8.00002 8.33317ZM18 9.1665C18.221 9.1665 18.433 9.07871 18.5893 8.92243C18.7456 8.76615 18.8334 8.55418 18.8334 8.33317V4.99984C18.8334 4.77882 18.7456 4.56686 18.5893 4.41058C18.433 4.2543 18.221 4.1665 18 4.1665H3.00002C2.77901 4.1665 2.56704 4.2543 2.41076 4.41058C2.25448 4.56686 2.16669 4.77882 2.16669 4.99984V8.33317C2.16669 8.55418 2.25448 8.76615 2.41076 8.92243C2.56704 9.07871 2.77901 9.1665 3.00002 9.1665C3.22103 9.1665 3.433 9.2543 3.58928 9.41058C3.74556 9.56686 3.83335 9.77882 3.83335 9.99984C3.83335 10.2209 3.74556 10.4328 3.58928 10.5891C3.433 10.7454 3.22103 10.8332 3.00002 10.8332C2.77901 10.8332 2.56704 10.921 2.41076 11.0772C2.25448 11.2335 2.16669 11.4455 2.16669 11.6665V14.9998C2.16669 15.2209 2.25448 15.4328 2.41076 15.5891C2.56704 15.7454 2.77901 15.8332 3.00002 15.8332H18C18.221 15.8332 18.433 15.7454 18.5893 15.5891C18.7456 15.4328 18.8334 15.2209 18.8334 14.9998V11.6665C18.8334 11.4455 18.7456 11.2335 18.5893 11.0772C18.433 10.921 18.221 10.8332 18 10.8332C17.779 10.8332 17.567 10.7454 17.4108 10.5891C17.2545 10.4328 17.1667 10.2209 17.1667 9.99984C17.1667 9.77882 17.2545 9.56686 17.4108 9.41058C17.567 9.2543 17.779 9.1665 18 9.1665ZM17.1667 7.64984C16.6841 7.82501 16.2671 8.14453 15.9724 8.56498C15.6777 8.98542 15.5196 9.48641 15.5196 9.99984C15.5196 10.5133 15.6777 11.0143 15.9724 11.4347C16.2671 11.8551 16.6841 12.1747 17.1667 12.3498V14.1665H8.83335C8.83335 13.9455 8.74556 13.7335 8.58928 13.5772C8.433 13.421 8.22103 13.3332 8.00002 13.3332C7.77901 13.3332 7.56705 13.421 7.41077 13.5772C7.25448 13.7335 7.16669 13.9455 7.16669 14.1665H3.83335V12.3498C4.31598 12.1747 4.73297 11.8551 5.02765 11.4347C5.32233 11.0143 5.48042 10.5133 5.48042 9.99984C5.48042 9.48641 5.32233 8.98542 5.02765 8.56498C4.73297 8.14453 4.31598 7.82501 3.83335 7.64984V5.83317H7.16669C7.16669 6.05418 7.25448 6.26615 7.41077 6.42243C7.56705 6.57871 7.77901 6.6665 8.00002 6.6665C8.22103 6.6665 8.433 6.57871 8.58928 6.42243C8.74556 6.26615 8.83335 6.05418 8.83335 5.83317H17.1667V7.64984Z" fill="#514E4D"/>
</svg>
