<svg width="21" height="20" viewBox="0 0 21 20" fill="none" xmlns="http://www.w3.org/2000/svg">
<path d="M10.75 10.1832C11.1946 9.79828 11.5513 9.32224 11.7957 8.78736C12.0401 8.25247 12.1667 7.67126 12.1666 7.08317C12.1666 5.9781 11.7277 4.91829 10.9463 4.13689C10.1649 3.35549 9.10505 2.9165 7.99998 2.9165C6.89491 2.9165 5.8351 3.35549 5.0537 4.13689C4.2723 4.91829 3.83331 5.9781 3.83331 7.08317C3.83331 7.67126 3.95981 8.25247 4.20425 8.78736C4.44869 9.32224 4.80533 9.79828 5.24998 10.1832C4.08343 10.7114 3.0937 11.5644 2.39913 12.6403C1.70456 13.7161 1.33454 14.9693 1.33331 16.2498C1.33331 16.4709 1.42111 16.6828 1.57739 16.8391C1.73367 16.9954 1.94563 17.0832 2.16665 17.0832C2.38766 17.0832 2.59962 16.9954 2.7559 16.8391C2.91218 16.6828 2.99998 16.4709 2.99998 16.2498C2.99998 14.9238 3.52676 13.652 4.46445 12.7143C5.40213 11.7766 6.6739 11.2498 7.99998 11.2498C9.32606 11.2498 10.5978 11.7766 11.5355 12.7143C12.4732 13.652 13 14.9238 13 16.2498C13 16.4709 13.0878 16.6828 13.2441 16.8391C13.4003 16.9954 13.6123 17.0832 13.8333 17.0832C14.0543 17.0832 14.2663 16.9954 14.4226 16.8391C14.5788 16.6828 14.6666 16.4709 14.6666 16.2498C14.6654 14.9693 14.2954 13.7161 13.6008 12.6403C12.9063 11.5644 11.9165 10.7114 10.75 10.1832V10.1832ZM7.99998 9.58317C7.50553 9.58317 7.02218 9.43655 6.61105 9.16185C6.19993 8.88714 5.8795 8.4967 5.69028 8.03988C5.50106 7.58306 5.45155 7.0804 5.54802 6.59545C5.64448 6.11049 5.88258 5.66504 6.23221 5.3154C6.58184 4.96577 7.0273 4.72767 7.51225 4.63121C7.99721 4.53474 8.49987 4.58425 8.95669 4.77347C9.4135 4.96269 9.80395 5.28312 10.0787 5.69425C10.3534 6.10537 10.5 6.58872 10.5 7.08317C10.5 7.74621 10.2366 8.3821 9.76775 8.85094C9.29891 9.31978 8.66302 9.58317 7.99998 9.58317ZM16.1166 9.84984C16.65 9.24928 16.9983 8.50738 17.1198 7.71345C17.2413 6.91952 17.1308 6.1074 16.8015 5.37484C16.4722 4.64228 15.9381 4.0205 15.2637 3.58436C14.5893 3.14821 13.8032 2.91629 13 2.9165C12.779 2.9165 12.567 3.0043 12.4107 3.16058C12.2544 3.31686 12.1666 3.52882 12.1666 3.74984C12.1666 3.97085 12.2544 4.18281 12.4107 4.33909C12.567 4.49537 12.779 4.58317 13 4.58317C13.663 4.58317 14.2989 4.84656 14.7677 5.3154C15.2366 5.78425 15.5 6.42013 15.5 7.08317C15.4988 7.52087 15.3827 7.95059 15.1634 8.32936C14.944 8.70812 14.629 9.02266 14.25 9.2415C14.1264 9.31277 14.0232 9.41456 13.9503 9.53712C13.8773 9.65968 13.8371 9.79892 13.8333 9.9415C13.8298 10.083 13.8624 10.223 13.928 10.3484C13.9936 10.4738 14.0901 10.5804 14.2083 10.6582L14.5333 10.8748L14.6416 10.9332C15.6461 11.4096 16.4936 12.1632 17.0841 13.1051C17.6747 14.047 17.9838 15.1381 17.975 16.2498C17.975 16.4709 18.0628 16.6828 18.2191 16.8391C18.3753 16.9954 18.5873 17.0832 18.8083 17.0832C19.0293 17.0832 19.2413 16.9954 19.3976 16.8391C19.5538 16.6828 19.6416 16.4709 19.6416 16.2498C19.6485 14.971 19.3282 13.7117 18.7112 12.5916C18.0942 11.4714 17.2011 10.5276 16.1166 9.84984V9.84984Z" fill="#514E4D"/>
</svg>
