<svg width="401" height="32" viewBox="0 0 401 32" fill="none" xmlns="http://www.w3.org/2000/svg">
<path d="M11.4542 11.2942C10.8567 10.2653 10.2404 5.89118 9.9897 3.76457H10.1197C10.3667 3.76457 10.5665 3.56735 10.5665 3.32362V2.25194C10.5665 1.4147 9.87661 0.735596 9.03031 0.735596H6.52348C5.67531 0.735596 4.98734 1.41656 4.98734 2.25194V3.32176C4.98734 3.56549 5.18713 3.76271 5.43593 3.76271H5.56599C5.3153 5.88932 4.69896 10.2635 4.10147 11.2923C3.22502 12.8013 2.91779 14.2339 2.97057 16.5782L3.22125 27.7749C3.24198 28.6848 4.00723 29.4234 4.92891 29.4234H10.6305C11.5522 29.4234 12.3175 28.6829 12.3382 27.7749L12.5889 16.5782C12.6379 14.2339 12.3325 12.8013 11.4542 11.2942ZM3.86398 16.5596C3.85078 15.9753 3.86021 15.4581 3.89602 14.9874C3.9488 14.9967 4.00723 15.0041 4.06943 15.0041H11.6163C11.6314 15.0041 11.6465 15.0023 11.6615 15.0023C11.6955 15.4711 11.7068 15.9828 11.6936 16.5614L11.5635 22.3775H4.06943C4.04304 22.3775 4.01854 22.3794 3.99403 22.3812L3.86398 16.5596ZM5.88075 2.25194C5.88075 1.90216 6.16913 1.6175 6.52348 1.6175H9.03031C9.38466 1.6175 9.67304 1.90216 9.67304 2.25194V2.87895H9.49021H6.06547H5.88264V2.25194H5.88075ZM4.87614 11.7333C5.64515 10.4104 6.28411 5.32557 6.46694 3.76271H9.08874C9.26969 5.32371 9.91053 10.4104 10.6795 11.7333C11.1979 12.6245 11.49 13.4729 11.6182 14.5613H11.6163H4.06943C4.02231 14.5613 3.97895 14.5651 3.93749 14.5706C4.06377 13.4785 4.35592 12.6282 4.87614 11.7333ZM10.6287 28.5415H4.92703C4.48786 28.5415 4.12409 28.1898 4.11278 27.7563L4.00157 22.8147C4.02231 22.8166 4.04492 22.8184 4.06754 22.8184H11.5503L11.4391 27.7582C11.4316 28.1899 11.0659 28.5415 10.6287 28.5415Z" fill="#716C6A"/>
<path d="M24.7856 11.2942C24.1881 10.2653 23.5718 5.89118 23.3211 3.76457H23.4512C23.6981 3.76457 23.8979 3.56735 23.8979 3.32362V2.25194C23.8979 1.4147 23.208 0.735596 22.3617 0.735596H19.8549C19.0067 0.735596 18.3188 1.41656 18.3188 2.25194V3.32176C18.3188 3.56549 18.5186 3.76271 18.7674 3.76271H18.8974C18.6467 5.88932 18.0304 10.2635 17.4329 11.2923C16.5564 12.8013 16.2492 14.2339 16.302 16.5782L16.5527 27.7749C16.5734 28.6848 17.3386 29.4234 18.2603 29.4234H23.962C24.8836 29.4234 25.6489 28.6829 25.6696 27.7749L25.9203 16.5782C25.9693 14.2339 25.664 12.8013 24.7856 11.2942ZM17.1954 16.5596C17.1822 15.9753 17.1916 15.4581 17.2274 14.9874C17.2802 14.9967 17.3386 15.0041 17.4008 15.0041H24.9477C24.9628 15.0041 24.9779 15.0023 24.993 15.0023C25.0269 15.4711 25.0382 15.9828 25.025 16.5614L24.895 22.3775H17.4008C17.3745 22.3775 17.35 22.3794 17.3255 22.3812L17.1954 16.5596ZM19.2122 2.25194C19.2122 1.90216 19.5006 1.6175 19.8549 1.6175H22.3617C22.7161 1.6175 23.0045 1.90216 23.0045 2.25194V2.87895H22.8216H19.3969H19.2141V2.25194H19.2122ZM18.2076 11.7333C18.9766 10.4104 19.6155 5.32557 19.7984 3.76271H22.4202C22.6011 5.32371 23.242 10.4104 24.011 11.7333C24.5293 12.6245 24.8214 13.4729 24.9496 14.5613H24.9477H17.4008C17.3537 14.5613 17.3104 14.5651 17.2689 14.5706C17.3952 13.4785 17.6873 12.6282 18.2076 11.7333ZM23.9601 28.5415H18.2584C17.8193 28.5415 17.4555 28.1898 17.4442 27.7563L17.333 22.8147C17.3537 22.8166 17.3763 22.8184 17.399 22.8184H24.8818L24.7706 27.7582C24.763 28.1899 24.3974 28.5415 23.9601 28.5415Z" fill="#716C6A"/>
<path d="M38.119 11.2942C37.5215 10.2653 36.9052 5.89118 36.6545 3.76457H36.7845C37.0315 3.76457 37.2313 3.56735 37.2313 3.32362V2.25194C37.2313 1.4147 36.5414 0.735596 35.6951 0.735596H33.1883C32.3401 0.735596 31.6521 1.41656 31.6521 2.25194V3.32176C31.6521 3.56549 31.8519 3.76271 32.1007 3.76271H32.2308C31.9801 5.88932 31.3638 10.2635 30.7663 11.2923C29.8898 12.8013 29.5826 14.2339 29.6354 16.5782L29.886 27.7749C29.9068 28.6848 30.672 29.4234 31.5937 29.4234H37.2953C38.217 29.4234 38.9823 28.6829 39.003 27.7749L39.2537 16.5782C39.3027 14.2339 38.9973 12.8013 38.119 11.2942ZM30.5288 16.5596C30.5156 15.9753 30.525 15.4581 30.5608 14.9874C30.6136 14.9967 30.672 15.0041 30.7342 15.0041H38.2811C38.2962 15.0041 38.3113 15.0023 38.3263 15.0023C38.3603 15.4711 38.3716 15.9828 38.3584 16.5614L38.2283 22.3775H30.7342C30.7078 22.3775 30.6833 22.3794 30.6588 22.3812L30.5288 16.5596ZM32.5455 2.25194C32.5455 1.90216 32.8339 1.6175 33.1883 1.6175H35.6951C36.0495 1.6175 36.3378 1.90216 36.3378 2.25194V2.87895H36.155H32.7303H32.5474V2.25194H32.5455ZM31.5409 11.7333C32.3099 10.4104 32.9489 5.32557 33.1317 3.76271H35.7535C35.9345 5.32371 36.5753 10.4104 37.3443 11.7333C37.8627 12.6245 38.1548 13.4729 38.283 14.5613H38.2811H30.7342C30.6871 14.5613 30.6437 14.5651 30.6023 14.5706C30.7286 13.4785 31.0207 12.6282 31.5409 11.7333ZM37.2935 28.5415H31.5918C31.1527 28.5415 30.7889 28.1898 30.7776 27.7563L30.6664 22.8147C30.6871 22.8166 30.7097 22.8184 30.7323 22.8184H38.2151L38.1039 27.7582C38.0964 28.1899 37.7307 28.5415 37.2935 28.5415Z" fill="#716C6A"/>
<line x1="49" y1="15.5" x2="397" y2="15.5" stroke="#716C6A" stroke-dasharray="5 5"/>
<circle cx="397" cy="16" r="4" fill="#FF5005"/>
</svg>
