<svg width="132" height="32" viewBox="0 0 132 32" fill="none" xmlns="http://www.w3.org/2000/svg">
<path d="M11.4542 11.2942C10.8567 10.2653 10.2404 5.89118 9.9897 3.76457H10.1197C10.3667 3.76457 10.5665 3.56735 10.5665 3.32362V2.25194C10.5665 1.4147 9.87661 0.735596 9.03031 0.735596H6.52348C5.67531 0.735596 4.98734 1.41656 4.98734 2.25194V3.32176C4.98734 3.56549 5.18713 3.76271 5.43593 3.76271H5.56599C5.3153 5.88932 4.69896 10.2635 4.10147 11.2923C3.22502 12.8013 2.91779 14.2339 2.97057 16.5782L3.22125 27.7749C3.24198 28.6848 4.00723 29.4234 4.92891 29.4234H10.6305C11.5522 29.4234 12.3175 28.6829 12.3382 27.7749L12.5889 16.5782C12.6379 14.2339 12.3325 12.8013 11.4542 11.2942ZM3.86398 16.5596C3.85078 15.9753 3.86021 15.4581 3.89602 14.9874C3.9488 14.9967 4.00723 15.0041 4.06943 15.0041H11.6163C11.6314 15.0041 11.6465 15.0023 11.6615 15.0023C11.6955 15.4711 11.7068 15.9828 11.6936 16.5614L11.5635 22.3775H4.06943C4.04304 22.3775 4.01854 22.3794 3.99403 22.3812L3.86398 16.5596ZM5.88075 2.25194C5.88075 1.90216 6.16913 1.6175 6.52348 1.6175H9.03031C9.38466 1.6175 9.67304 1.90216 9.67304 2.25194V2.87895H9.49021H6.06547H5.88264V2.25194H5.88075ZM4.87614 11.7333C5.64515 10.4104 6.28411 5.32557 6.46694 3.76271H9.08874C9.26969 5.32371 9.91053 10.4104 10.6795 11.7333C11.1979 12.6245 11.49 13.4729 11.6182 14.5613H11.6163H4.06943C4.02231 14.5613 3.97895 14.5651 3.93749 14.5706C4.06377 13.4785 4.35592 12.6282 4.87614 11.7333ZM10.6287 28.5415H4.92703C4.48786 28.5415 4.12409 28.1898 4.11278 27.7563L4.00157 22.8147C4.02231 22.8166 4.04492 22.8184 4.06754 22.8184H11.5503L11.4391 27.7582C11.4316 28.1899 11.0659 28.5415 10.6287 28.5415Z" fill="#716C6A"/>
<path d="M24.7858 11.2942C24.1883 10.2653 23.5719 5.89118 23.3212 3.76457H23.4513C23.6982 3.76457 23.898 3.56735 23.898 3.32362V2.25194C23.898 1.4147 23.2082 0.735596 22.3619 0.735596H19.855C19.0069 0.735596 18.3189 1.41656 18.3189 2.25194V3.32176C18.3189 3.56549 18.5187 3.76271 18.7675 3.76271H18.8975C18.6468 5.88932 18.0305 10.2635 17.433 11.2923C16.5566 12.8013 16.2493 14.2339 16.3021 16.5782L16.5528 27.7749C16.5735 28.6848 17.3388 29.4234 18.2605 29.4234H23.9621C24.8838 29.4234 25.649 28.6829 25.6697 27.7749L25.9204 16.5782C25.9694 14.2339 25.6641 12.8013 24.7858 11.2942ZM17.1955 16.5596C17.1823 15.9753 17.1918 15.4581 17.2276 14.9874C17.2803 14.9967 17.3388 15.0041 17.401 15.0041H24.9479C24.9629 15.0041 24.978 15.0023 24.9931 15.0023C25.027 15.4711 25.0383 15.9828 25.0251 16.5614L24.8951 22.3775H17.401C17.3746 22.3775 17.3501 22.3794 17.3256 22.3812L17.1955 16.5596ZM19.2123 2.25194C19.2123 1.90216 19.5007 1.6175 19.855 1.6175H22.3619C22.7162 1.6175 23.0046 1.90216 23.0046 2.25194V2.87895H22.8218H19.397H19.2142V2.25194H19.2123ZM18.2077 11.7333C18.9767 10.4104 19.6157 5.32557 19.7985 3.76271H22.4203C22.6012 5.32371 23.2421 10.4104 24.0111 11.7333C24.5294 12.6245 24.8216 13.4729 24.9497 14.5613H24.9479H17.401C17.3538 14.5613 17.3105 14.5651 17.269 14.5706C17.3953 13.4785 17.6875 12.6282 18.2077 11.7333ZM23.9602 28.5415H18.2586C17.8194 28.5415 17.4556 28.1898 17.4443 27.7563L17.3331 22.8147C17.3538 22.8166 17.3765 22.8184 17.3991 22.8184H24.8819L24.7707 27.7582C24.7631 28.1899 24.3975 28.5415 23.9602 28.5415Z" fill="#716C6A"/>
<path d="M38.1188 11.2942C37.5213 10.2653 36.9049 5.89118 36.6542 3.76457H36.7843C37.0312 3.76457 37.231 3.56735 37.231 3.32362V2.25194C37.231 1.4147 36.5412 0.735596 35.6949 0.735596H33.188C32.3399 0.735596 31.6519 1.41656 31.6519 2.25194V3.32176C31.6519 3.56549 31.8517 3.76271 32.1005 3.76271H32.2305C31.9799 5.88932 31.3635 10.2635 30.766 11.2923C29.8896 12.8013 29.5823 14.2339 29.6351 16.5782L29.8858 27.7749C29.9065 28.6848 30.6718 29.4234 31.5935 29.4234H37.2951C38.2168 29.4234 38.982 28.6829 39.0028 27.7749L39.2534 16.5782C39.3024 14.2339 38.9971 12.8013 38.1188 11.2942ZM30.5285 16.5596C30.5153 15.9753 30.5248 15.4581 30.5606 14.9874C30.6133 14.9967 30.6718 15.0041 30.734 15.0041H38.2809C38.2959 15.0041 38.311 15.0023 38.3261 15.0023C38.36 15.4711 38.3713 15.9828 38.3581 16.5614L38.2281 22.3775H30.734C30.7076 22.3775 30.6831 22.3794 30.6586 22.3812L30.5285 16.5596ZM32.5453 2.25194C32.5453 1.90216 32.8337 1.6175 33.188 1.6175H35.6949C36.0492 1.6175 36.3376 1.90216 36.3376 2.25194V2.87895H36.1548H32.73H32.5472V2.25194H32.5453ZM31.5407 11.7333C32.3097 10.4104 32.9487 5.32557 33.1315 3.76271H35.7533C35.9342 5.32371 36.5751 10.4104 37.3441 11.7333C37.8624 12.6245 38.1546 13.4729 38.2827 14.5613H38.2809H30.734C30.6869 14.5613 30.6435 14.5651 30.602 14.5706C30.7283 13.4785 31.0205 12.6282 31.5407 11.7333ZM37.2932 28.5415H31.5916C31.1524 28.5415 30.7886 28.1898 30.7773 27.7563L30.6661 22.8147C30.6869 22.8166 30.7095 22.8184 30.7321 22.8184H38.2149L38.1037 27.7582C38.0961 28.1899 37.7305 28.5415 37.2932 28.5415Z" fill="#716C6A"/>
<line x1="49" y1="15.5" x2="128" y2="15.5" stroke="#716C6A" stroke-dasharray="5 5"/>
<circle cx="128" cy="16" r="4" fill="#FF5005"/>
</svg>
