<svg id="Layer_1" data-name="Layer 1" xmlns="http://www.w3.org/2000/svg" viewBox="0 0 495 483.56"><defs><style>.cls-1{fill:#fe5005;}.cls-1,.cls-2,.cls-3{fill-rule:evenodd;}.cls-2,.cls-3{fill:none;stroke-miterlimit:10;}.cls-2{stroke:#fe5005;stroke-width:4px;}.cls-3{stroke:#fff;stroke-width:3px;}</style></defs><path class="cls-1" d="M479.3,218.91S455.23,17.22,210.77,66.05c0,0-180.28,30.89-144.59,260.27,0,0,28.06,137.41,161.12,143.23C227.3,469.55,527.28,511,479.3,218.91Z" transform="translate(-25.5 -23.22)"/><path class="cls-2" d="M512.47,211.5S484.53-22.61,200.77,34.07c0,0-209.26,35.85-167.84,302.11,0,0,32.58,159.5,187,166.26C220,502.44,568.16,550.49,512.47,211.5Z" transform="translate(-25.5 -23.22)"/><path class="cls-3" d="M428.58,230.24S410.43,78.14,226.07,115c0,0-135.95,23.29-109,196.27,0,0,21.16,103.63,121.5,108C238.53,419.26,464.76,450.48,428.58,230.24Z" transform="translate(-25.5 -23.22)"/></svg>