<svg width="62" height="47" viewBox="0 0 62 47" fill="none" xmlns="http://www.w3.org/2000/svg">
<g opacity="0.6">
<g clip-path="url(#clip0)">
<path d="M44.28 3.99C44.64 -0.800003 36.63 -1.57 36.06 3.31C31.05 3.97 22.59 6.05 18.01 12.62C13.71 18.79 12.58 27.09 12.36 29.15C7.2 32.88 2.66 35.67 0.6 37.64C-0.0800003 38.3 -0.2 39.35 0.33 40.14C0.61 40.57 1.04 40.87 1.54 40.98C2.04 41.09 2.56 40.99 2.99 40.71C3.24 40.55 5.59 39.17 11.68 40.03C22.63 41.58 20.24 47.23 31.96 46.2C42.14 45.27 48.28 37.98 49.84 35.92C51.78 36.01 53.69 36.14 55.6 36.38C56.9 36.68 58.26 36.52 59.46 35.93C60.5 35.25 61.2 34.17 61.39 32.95C61.76 30.96 61.91 28.93 61.85 26.9C61.83 15.17 55.22 7.48 44.28 3.99ZM23.81 29.08C24.43 23.87 27.38 7.63 39.92 5.12C49.46 10.5 44.82 28.77 43.49 33.36C35.7 32.23 27.92 29.85 23.81 29.08ZM42.22 3.38C40.93 2.98 39.57 2.89 38.24 3.12C38.81 1.57 41.93 1.8 42.22 3.41V3.38ZM19.74 13.81C22.9 9.27 28.32 7.09 32.79 6.04C24.57 11.97 22.33 24.22 21.78 28.83C19.4 28.5 16.98 28.42 14.58 28.59C14.93 25.74 16.2 18.88 19.74 13.81ZM31.78 44.12C20.92 45.15 23.56 39.61 11.97 37.95C6.89 37.23 4.03 37.95 2.72 38.52C4.94 36.66 9.26 33.97 13.77 30.71C23.36 29.27 34.51 35.05 47.3 35.85C43.37 40.49 37.82 43.45 31.78 44.12ZM59.38 32.5C58.96 34.49 57.91 34.65 55.87 34.38C51.38 33.79 48.92 33.98 45.59 33.62C47.95 25.4 49.7 12.84 44.37 6.19C51.75 8.73 57.32 13.39 59.16 21.12C59.95 24.86 60.03 28.72 59.38 32.5Z" fill="black"/>
</g>
</g>
<defs>
<clipPath id="clip0">
<rect width="61.87" height="46.31" fill="white"/>
</clipPath>
</defs>
</svg>
