<svg width="50" height="50" viewBox="0 0 50 50" fill="none" xmlns="http://www.w3.org/2000/svg">
<g opacity="0.6">
<g clip-path="url(#clip0)">
<path d="M34.73 16.53L34.2 14.8C33.53 12.84 31.4 11.79 29.44 12.45C28.34 12.82 27.47 13.69 27.09 14.8L26.57 16.53C26.13 17.99 26.04 19.53 26.3 21.03C26.54 22.29 27.34 23.38 28.48 23.98L27.89 37.12C27.81 37.85 28.05 38.59 28.54 39.13C29.6 40.29 31.41 40.37 32.57 39.31C32.63 39.25 32.69 39.19 32.75 39.13C33.23 38.6 33.47 37.89 33.4 37.17L32.81 23.98C33.94 23.38 34.74 22.3 34.98 21.04C35.26 19.52 35.17 17.98 34.73 16.53ZM33.39 20.74C33.21 21.65 32.57 22.39 31.69 22.69C31.36 22.81 31.15 23.14 31.16 23.49L31.78 37.29C31.81 37.56 31.72 37.83 31.53 38.03C31.04 38.52 30.25 38.52 29.75 38.03C29.56 37.81 29.47 37.52 29.51 37.24L30.13 23.5C30.15 23.15 29.93 22.82 29.6 22.7C28.73 22.4 28.08 21.65 27.9 20.75C27.68 19.51 27.76 18.23 28.12 17.02L28.64 15.29C29.05 14.19 30.27 13.63 31.36 14.04C31.94 14.25 32.4 14.71 32.61 15.29L33.13 17.02C33.53 18.22 33.61 19.49 33.39 20.74Z" fill="black"/>
<path d="M22.07 12.26C21.62 12.26 21.25 12.63 21.25 13.08V20.1L19.04 22.31C18.88 22.47 18.79 22.7 18.8 22.93L19.52 37.23C19.54 37.54 19.43 37.84 19.21 38.06C18.76 38.51 18.03 38.51 17.58 38.07C17.58 38.07 17.58 38.07 17.57 38.06C17.36 37.84 17.24 37.54 17.26 37.23L17.98 22.93C17.99 22.7 17.9 22.47 17.74 22.31L15.53 20.1V13.08C15.53 12.63 15.16 12.26 14.71 12.26C14.26 12.26 13.89 12.63 13.89 13.08V20.44C13.89 20.66 13.98 20.86 14.13 21.02L16.33 23.22L15.63 37.16C15.56 38.68 16.73 39.98 18.25 40.05C19.77 40.12 21.07 38.95 21.14 37.43C21.14 37.34 21.14 37.25 21.14 37.16L20.44 23.22L22.64 21.02C22.79 20.87 22.88 20.66 22.88 20.44V13.08C22.89 12.63 22.52 12.26 22.07 12.26Z" fill="black"/>
<path d="M17.16 12.26C16.71 12.26 16.34 12.63 16.34 13.08V19.62C16.34 20.07 16.71 20.44 17.16 20.44C17.61 20.44 17.98 20.07 17.98 19.62V13.08C17.98 12.63 17.62 12.26 17.16 12.26Z" fill="black"/>
<path d="M19.62 12.26C19.17 12.26 18.8 12.63 18.8 13.08V19.62C18.8 20.07 19.17 20.44 19.62 20.44C20.07 20.44 20.44 20.07 20.44 19.62V13.08C20.43 12.63 20.07 12.26 19.62 12.26Z" fill="black"/>
<path d="M24.52 0C10.98 0 0 10.98 0 24.52C0 38.06 10.98 49.04 24.52 49.04C38.06 49.04 49.04 38.06 49.04 24.52C49.03 10.98 38.06 0.02 24.52 0ZM24.52 47.41C11.88 47.41 1.63 37.16 1.63 24.52C1.63 11.88 11.88 1.63 24.52 1.63C37.16 1.63 47.41 11.88 47.41 24.52C47.39 37.15 37.15 47.39 24.52 47.41Z" fill="black"/>
<path d="M27.17 39.86C27.13 39.41 26.73 39.08 26.28 39.13C26.27 39.13 26.26 39.13 26.25 39.13C25.1 39.26 23.94 39.26 22.79 39.13C22.34 39.08 21.94 39.4 21.88 39.85C21.83 40.3 22.15 40.7 22.6 40.76C23.88 40.91 25.17 40.91 26.44 40.76C26.89 40.71 27.22 40.31 27.17 39.86Z" fill="black"/>
<path d="M37.03 13.99C36.74 13.64 36.22 13.6 35.88 13.89C35.53 14.18 35.49 14.7 35.78 15.04C40.71 20.89 40.33 29.54 34.91 34.94C34.59 35.26 34.59 35.78 34.91 36.1C35.23 36.42 35.75 36.42 36.07 36.1C42.08 30.1 42.5 20.49 37.03 13.99Z" fill="black"/>
<path d="M28.38 8.63C25.19 7.86 21.84 8.07 18.76 9.22C18.34 9.38 18.12 9.85 18.28 10.27C18.4 10.59 18.7 10.8 19.04 10.8C19.14 10.8 19.23 10.78 19.33 10.75C22.1 9.71 25.12 9.53 27.99 10.22C28.43 10.33 28.87 10.06 28.98 9.62C29.09 9.18 28.81 8.74 28.38 8.63Z" fill="black"/>
<path d="M14.1 34.9C11.34 32.15 9.8 28.41 9.81 24.52C9.8 21.41 10.79 18.38 12.62 15.87C12.89 15.51 12.82 15 12.46 14.73C12.1 14.46 11.59 14.53 11.32 14.89C11.32 14.9 11.31 14.9 11.31 14.91C6.58 21.41 7.28 30.37 12.95 36.06C13.27 36.38 13.79 36.38 14.11 36.06C14.42 35.74 14.42 35.22 14.1 34.9Z" fill="black"/>
</g>
</g>
<defs>
<clipPath id="clip0">
<rect width="49.04" height="49.04" fill="white"/>
</clipPath>
</defs>
</svg>
