<svg width="54" height="47" viewBox="0 0 54 47" fill="none" xmlns="http://www.w3.org/2000/svg">
<g opacity="0.5">
<g clip-path="url(#clip0)">
<path d="M52.26 31C52.75 31 53.15 30.6 53.15 30.11V23.02C53.15 22.53 52.75 22.13 52.26 22.13H41.11L46.68 16.56C47.03 16.21 47.03 15.65 46.68 15.31L41.84 10.47C41.49 10.12 40.93 10.12 40.59 10.47C39.21 11.85 36.96 11.85 35.58 10.47C34.2 9.09 34.2 6.84 35.58 5.46C35.93 5.11 35.93 4.55 35.58 4.21L31.63 0.259998C31.28 -0.0900024 30.72 -0.0900024 30.38 0.259998L8.49 22.14H0.89C0.4 22.14 0 22.54 0 23.03V30.12C0 30.61 0.4 31 0.89 31C2.85 31 4.43 32.59 4.43 34.54C4.43 36.49 2.84 38.08 0.89 38.08C0.4 38.09 0 38.48 0 38.97V46.06C0 46.55 0.4 46.95 0.89 46.95H52.26C52.75 46.95 53.15 46.55 53.15 46.06V38.97C53.15 38.48 52.75 38.08 52.26 38.08C50.3 38.08 48.72 36.49 48.72 34.54C48.72 32.59 50.3 31 52.26 31ZM31 2.14L33.75 4.89C32.04 7.28 32.6 10.6 34.98 12.3C36.83 13.62 39.31 13.62 41.16 12.3L44.8 15.94L38.6 22.14H35.8L37.83 20.11C38.18 19.76 38.18 19.2 37.83 18.86L28.09 9.12C27.74 8.77 27.18 8.77 26.84 9.12L13.81 22.14H11L31 2.14ZM33.29 22.14H16.31L27.46 11L35.95 19.49L33.29 22.14ZM47.01 35.43C47.39 37.66 49.14 39.41 51.37 39.79V45.18H44.28V41.64H42.51V45.18H10.63V44.29H8.86V45.18H1.77V39.79C4.66 39.3 6.62 36.56 6.13 33.67C5.75 31.44 4 29.69 1.77 29.31V23.92H8.86V26.58H10.63V23.92H51.38V29.31C48.48 29.79 46.53 32.53 47.01 35.43Z" fill="black"/>
<path d="M44.29 25.69H42.52V29.23H44.29V25.69Z" fill="black"/>
<path d="M44.29 31H42.52V34.54H44.29V31Z" fill="black"/>
<path d="M44.29 36.32H42.52V39.86H44.29V36.32Z" fill="black"/>
<path d="M10.63 28.34H8.85999V31.88H10.63V28.34Z" fill="black"/>
<path d="M10.63 33.66H8.85999V37.2H10.63V33.66Z" fill="black"/>
<path d="M10.63 38.97H8.85999V42.51H10.63V38.97Z" fill="black"/>
<path d="M38.97 28.34C37.99 28.34 37.2 27.55 37.2 26.57C37.2 26.08 36.8 25.68 36.31 25.68H16.83C16.34 25.68 15.94 26.08 15.94 26.57C15.94 27.55 15.15 28.34 14.17 28.34C13.68 28.34 13.28 28.74 13.28 29.23V39.86C13.28 40.35 13.68 40.75 14.17 40.75C15.15 40.75 15.94 41.54 15.94 42.52C15.94 43.01 16.34 43.41 16.83 43.41H36.32C36.81 43.41 37.21 43.01 37.21 42.52C37.21 41.54 38 40.75 38.98 40.75C39.47 40.75 39.87 40.35 39.87 39.86V29.23C39.86 28.74 39.46 28.34 38.97 28.34ZM38.09 39.09C36.84 39.41 35.87 40.39 35.54 41.64H17.6C17.28 40.39 16.3 39.42 15.05 39.09V30C16.3 29.68 17.27 28.7 17.6 27.45H35.54C35.86 28.7 36.84 29.67 38.09 30V39.09Z" fill="black"/>
</g>
</g>
<defs>
<clipPath id="clip0">
<rect width="53.15" height="46.95" fill="white"/>
</clipPath>
</defs>
</svg>
