<svg width="16" height="215" viewBox="0 0 16 215" fill="none" xmlns="http://www.w3.org/2000/svg">
<line x1="8.5" y1="1" x2="8.5" y2="90" stroke="black" stroke-dasharray="5 5"/>
<line x1="8.5" y1="126" x2="8.5" y2="215" stroke="black" stroke-dasharray="5 5"/>
<path d="M15 108C15 111.866 11.866 115 8 115C4.13401 115 1 111.866 1 108C1 104.134 4.13401 101 8 101C11.866 101 15 104.134 15 108ZM2.43947 108C2.43947 111.071 4.92901 113.561 8 113.561C11.071 113.561 13.5605 111.071 13.5605 108C13.5605 104.929 11.071 102.439 8 102.439C4.92901 102.439 2.43947 104.929 2.43947 108Z" fill="#FF5005"/>
</svg>
