<svg width="121" height="40" viewBox="0 0 121 40" fill="none" xmlns="http://www.w3.org/2000/svg">
<g clip-path="url(#clip0)">
<path d="M110.731 7.92969e-06H10.1314C9.76466 7.92969e-06 9.40236 7.92975e-06 9.03663 0.00200793C8.73048 0.00400793 8.42677 0.00981793 8.11768 0.0147079C7.44619 0.0226097 6.77629 0.0816842 6.11378 0.191418C5.4522 0.303541 4.81135 0.514924 4.2129 0.818418C3.61518 1.12448 3.06902 1.52218 2.59425 1.99708C2.11698 2.47064 1.71914 3.01802 1.41603 3.61817C1.11208 4.21712 0.90132 4.85895 0.79103 5.52149C0.679691 6.18319 0.619778 6.85253 0.61183 7.52349C0.60255 7.83009 0.60157 8.13771 0.59668 8.44435V31.5586C0.60157 31.8691 0.60255 32.1699 0.61183 32.4805C0.619781 33.1514 0.679693 33.8207 0.79103 34.4824C0.901016 35.1453 1.11179 35.7875 1.41603 36.3867C1.71901 36.9849 2.1169 37.5301 2.59425 38.001C3.06722 38.478 3.61373 38.876 4.2129 39.1797C4.81135 39.484 5.45213 39.6967 6.11378 39.8105C6.7764 39.9194 7.44624 39.9785 8.11768 39.9873C8.42677 39.9941 8.73048 39.998 9.03663 39.998C9.40235 40 9.76468 40 10.1314 40H110.731C111.091 40 111.456 40 111.815 39.998C112.12 39.998 112.433 39.9941 112.737 39.9873C113.408 39.9789 114.076 39.9198 114.737 39.8105C115.401 39.6959 116.044 39.4833 116.646 39.1797C117.244 38.8758 117.79 38.4779 118.263 38.001C118.739 37.5282 119.138 36.9835 119.444 36.3867C119.746 35.7871 119.955 35.145 120.063 34.4824C120.175 33.8206 120.237 33.1515 120.249 32.4805C120.253 32.1699 120.253 31.8691 120.253 31.5586C120.261 31.1953 120.261 30.834 120.261 30.4648V9.53614C120.261 9.16993 120.261 8.80665 120.253 8.44435C120.253 8.13771 120.253 7.83009 120.249 7.52345C120.237 6.85243 120.175 6.18324 120.063 5.52145C119.955 4.85929 119.746 4.21751 119.444 3.61813C118.827 2.4152 117.848 1.43603 116.646 0.818328C116.044 0.515575 115.401 0.304248 114.737 0.191328C114.076 0.0811107 113.408 0.0220157 112.737 0.0145679C112.433 0.00968793 112.12 0.00382793 111.815 0.00187793C111.456 -0.00012207 111.091 -0.00012207 110.731 -0.00012207V7.92969e-06Z" fill="#A6A6A6"/>
<path d="M9.04155 39.125C8.73687 39.125 8.43955 39.1211 8.13726 39.1143C7.51104 39.1061 6.88628 39.0516 6.26812 38.9512C5.69171 38.8519 5.13332 38.6673 4.61138 38.4033C4.09422 38.1415 3.62253 37.7983 3.21438 37.3867C2.80032 36.98 2.45559 36.5082 2.19387 35.9902C1.92926 35.4688 1.74613 34.9099 1.65087 34.333C1.54799 33.7131 1.49233 33.0863 1.48437 32.458C1.47803 32.2471 1.46973 31.5449 1.46973 31.5449V8.44434C1.46973 8.44434 1.47857 7.75293 1.48442 7.5498C1.49204 6.92248 1.54738 6.29665 1.64995 5.67773C1.74539 5.09925 1.92865 4.53875 2.19341 4.01563C2.45417 3.49794 2.79698 3.02586 3.20855 2.61768C3.61965 2.20562 4.09285 1.8606 4.61089 1.59521C5.13163 1.33209 5.68896 1.14873 6.26421 1.05127C6.8844 0.949836 7.51133 0.894996 8.13972 0.88721L9.04204 0.875H111.811L112.724 0.8877C113.346 0.895099 113.968 0.94945 114.582 1.05029C115.163 1.14898 115.726 1.33362 116.253 1.59814C117.291 2.13299 118.135 2.97916 118.668 4.01807C118.929 4.53758 119.109 5.09351 119.203 5.66699C119.307 6.29099 119.365 6.92174 119.377 7.5542C119.38 7.8374 119.38 8.1416 119.38 8.44434C119.388 8.81934 119.388 9.17627 119.388 9.53613V30.4648C119.388 30.8281 119.388 31.1826 119.38 31.54C119.38 31.8652 119.38 32.1631 119.376 32.4697C119.364 33.0909 119.307 33.7104 119.205 34.3232C119.112 34.9043 118.93 35.4675 118.665 35.9932C118.402 36.5056 118.059 36.9733 117.649 37.3789C117.241 37.7927 116.768 38.1379 116.25 38.4014C115.725 38.6674 115.163 38.8527 114.582 38.9512C113.964 39.0522 113.339 39.1067 112.713 39.1143C112.42 39.1211 112.113 39.125 111.815 39.125L110.731 39.127L9.04155 39.125Z" fill="black"/>
<path fill-rule="evenodd" clip-rule="evenodd" d="M56.9414 13.4243C56.9414 12.6138 57.5449 12.1465 58.6162 12.0801L59.8359 12.0098V11.6211C59.8359 11.1455 59.5215 10.877 58.9141 10.877C58.418 10.877 58.0742 11.0591 57.9756 11.3775H57.1152C57.2061 10.604 57.9336 10.1079 58.9551 10.1079C60.084 10.1079 60.7207 10.6699 60.7207 11.6211V14.6978H59.8652V14.065H59.7949C59.6522 14.2919 59.4518 14.477 59.2142 14.6012C58.9766 14.7254 58.7102 14.7843 58.4424 14.772C58.2534 14.7916 58.0623 14.7714 57.8815 14.7127C57.7008 14.654 57.5343 14.5581 57.3929 14.4312C57.2515 14.3042 57.1382 14.149 57.0605 13.9756C56.9827 13.8022 56.9422 13.6144 56.9414 13.4243ZM59.8359 13.0396V12.6631L58.7363 12.7334C58.1162 12.7749 57.835 12.9858 57.835 13.3828C57.835 13.7881 58.1865 14.0239 58.67 14.0239C58.8116 14.0383 58.9547 14.024 59.0907 13.9819C59.2267 13.9398 59.3528 13.8708 59.4616 13.7789C59.5704 13.6871 59.6596 13.5743 59.7239 13.4473C59.7882 13.3203 59.8263 13.1816 59.8359 13.0396ZM58.4219 9.44189L59.46 8.01953H60.502L59.3398 9.44189H58.4219ZM23.7483 8.7207C23.8451 9.98494 23.4453 11.2371 22.6338 12.2113C22.2452 12.6946 21.752 13.0835 21.1913 13.3486C20.6306 13.6137 20.0171 13.7481 19.397 13.7417C19.3574 13.1337 19.4381 12.524 19.6343 11.9472C19.8306 11.3704 20.1386 10.838 20.5407 10.3803C21.3632 9.44348 22.5085 8.85092 23.7483 8.7207ZM26.0102 17.9213C25.5981 18.6473 25.3764 19.4657 25.3657 20.3003C25.3667 21.2392 25.644 22.157 26.1632 22.9393C26.6823 23.7216 27.4202 24.3338 28.2849 24.6995C27.9449 25.8039 27.4325 26.8476 26.7665 27.792C25.8721 29.1299 24.9344 30.437 23.446 30.4611C22.7381 30.4775 22.2603 30.2739 21.7624 30.0618C21.243 29.8406 20.7019 29.61 19.855 29.61C18.9568 29.61 18.3914 29.848 17.8461 30.0775C17.3748 30.2758 16.9186 30.4679 16.2756 30.4945C14.8581 30.547 13.7749 29.0666 12.848 27.7412C10.9953 25.0346 9.55275 20.1136 11.4868 16.7651C11.9332 15.9629 12.5799 15.2899 13.3638 14.8118C14.1477 14.3338 15.042 14.0669 15.9597 14.0373C16.7636 14.0207 17.535 14.3306 18.2113 14.6023C18.7286 14.81 19.1902 14.9954 19.5682 14.9954C19.9005 14.9954 20.3492 14.8173 20.8721 14.6098C21.6959 14.2828 22.7039 13.8828 23.7311 13.9906C24.5183 14.0152 25.2889 14.2231 25.9817 14.5976C26.6745 14.9722 27.2705 15.5031 27.7222 16.1483C27.0111 16.5854 26.4222 17.1954 26.0102 17.9213ZM42.8989 27.1397H38.1655L37.0288 30.4961H35.0239L39.5073 18.0781H41.5903L46.0737 30.4961H44.0347L42.8989 27.1397ZM38.6558 25.5908H42.4078L40.5581 20.1436H40.5064L38.6558 25.5908ZM51.9781 30.5905C54.2505 30.5905 55.7564 28.7829 55.7564 25.9695C55.7564 23.1638 54.2417 21.3474 51.9439 21.3474C51.3636 21.3287 50.789 21.4676 50.2814 21.7495C49.7738 22.0313 49.352 22.4455 49.0611 22.948H49.0269V21.4421H47.228V33.4909H49.0864V29.0065H49.1294C49.4076 29.5114 49.8223 29.9278 50.3261 30.2079C50.8299 30.4881 51.4024 30.6207 51.9781 30.5905ZM51.4536 22.9314C52.8989 22.9314 53.8462 24.1365 53.8462 25.9695C53.8462 27.8191 52.899 29.0154 51.4536 29.0154C50.0337 29.0154 49.0786 27.7937 49.0786 25.9695C49.0786 24.1618 50.0337 22.9314 51.4536 22.9314ZM65.7212 25.9694C65.7212 28.7829 64.2154 30.5905 61.9429 30.5905C61.3672 30.6206 60.7947 30.488 60.291 30.2079C59.7872 29.9278 59.3724 29.5114 59.0943 29.0065H59.0513V33.4909H57.1929V21.4421H58.9917V22.948H59.0259C59.3168 22.4455 59.7386 22.0313 60.2462 21.7495C60.7538 21.4676 61.3284 21.3287 61.9087 21.3474C64.2066 21.3474 65.7212 23.1638 65.7212 25.9694ZM63.8111 25.9694C63.8111 24.1364 62.8638 22.9314 61.4185 22.9314C59.9986 22.9314 59.0435 24.1618 59.0435 25.9694C59.0435 27.7937 59.9986 29.0153 61.4185 29.0153C62.8638 29.0153 63.8111 27.8191 63.8111 25.9694ZM75.2759 29.0762C73.6412 29.0762 72.4449 28.2676 72.3072 27.0362L70.4048 27.0361C70.5249 29.2822 72.3843 30.7031 75.1382 30.7031C78.0815 30.7031 79.9321 29.248 79.9321 26.9248C79.9321 25.1084 78.8735 24.0849 76.3257 23.4824L74.9575 23.1465C73.3569 22.751 72.7026 22.2344 72.7026 21.3565C72.7026 20.2549 73.7271 19.4981 75.2241 19.4981C76.7212 19.4981 77.7456 20.2461 77.8579 21.4854H79.7339C79.6734 19.3428 77.8745 17.8711 75.2505 17.8711C72.5992 17.8711 70.732 19.3428 70.732 21.4854C70.732 23.2158 71.7906 24.2822 74.0708 24.833L75.6802 25.2207C77.2896 25.6162 77.9693 26.1934 77.9693 27.1572C77.9693 28.2676 76.8423 29.0762 75.2759 29.0762ZM83.9429 19.2998V21.4424H85.6645V22.9141H83.9429V27.9053C83.9429 28.6807 84.2876 29.042 85.0444 29.042C85.2488 29.0384 85.4529 29.0241 85.6558 28.999V30.4619C85.3155 30.5255 84.9696 30.5543 84.6235 30.5478C82.7905 30.5478 82.0757 29.8593 82.0757 28.1035V22.9141H80.7593V21.4424H82.0757V19.2998H83.9429ZM90.9556 21.3311C88.3393 21.3311 86.6616 23.1211 86.6616 25.9697C86.6616 28.8262 88.3227 30.6084 90.9556 30.6084C93.5894 30.6084 95.2505 28.8262 95.2505 25.9697C95.2505 23.1211 93.5806 21.3311 90.9556 21.3311ZM90.9556 22.8623C92.4614 22.8623 93.3569 24.0156 93.3569 25.9697C93.3569 27.9316 92.4614 29.0762 90.9556 29.0762C89.4497 29.0762 88.5552 27.9316 88.5552 25.9697C88.5552 24.0244 89.4497 22.8623 90.9556 22.8623ZM96.7827 21.442H98.5552V22.983H98.5982C98.7181 22.5017 99.0001 22.0764 99.3966 21.7785C99.7932 21.4806 100.28 21.3284 100.776 21.3473C100.99 21.3465 101.204 21.3698 101.413 21.4166V23.1549C101.142 23.0723 100.86 23.0343 100.578 23.0426C100.308 23.0316 100.039 23.0792 99.7887 23.1821C99.5388 23.285 99.3142 23.4408 99.1302 23.6386C98.9463 23.8365 98.8073 24.0719 98.7229 24.3286C98.6384 24.5852 98.6105 24.8571 98.6411 25.1256V30.4957H96.7827L96.7827 21.442ZM106.083 30.6084C108.13 30.6084 109.731 29.4805 109.981 27.8369L108.216 27.8369C108.051 28.246 107.759 28.5909 107.382 28.8203C107.005 29.0498 106.565 29.1515 106.125 29.1103C105.791 29.1227 105.458 29.0637 105.148 28.9374C104.839 28.8111 104.559 28.6203 104.329 28.3778C104.099 28.1352 103.923 27.8464 103.812 27.5306C103.702 27.2148 103.66 26.8791 103.69 26.5459V26.4336H110.084V25.7969C110.084 23.0518 108.509 21.3311 106.004 21.3311C103.458 21.3311 101.814 23.1729 101.814 26.0127C101.814 28.8437 103.449 30.6084 106.083 30.6084ZM108.225 25.1348H103.699C103.698 24.8321 103.757 24.5323 103.873 24.2527C103.988 23.973 104.158 23.7191 104.373 23.5054C104.587 23.2918 104.842 23.1227 105.122 23.008C105.402 22.8933 105.702 22.8351 106.004 22.8369C106.304 22.8305 106.602 22.8861 106.88 23.0003C107.157 23.1145 107.408 23.2849 107.617 23.5006C107.825 23.7164 107.987 23.9729 108.092 24.2541C108.196 24.5354 108.242 24.8352 108.225 25.1348ZM38.4228 8.73138C38.8125 8.70342 39.2034 8.76228 39.5675 8.90371C39.9316 9.04515 40.2598 9.26563 40.5284 9.54925C40.797 9.83288 40.9993 10.1726 41.1207 10.5438C41.2421 10.9151 41.2796 11.3087 41.2305 11.6962C41.2305 13.6025 40.2002 14.6982 38.4228 14.6982H36.2676V8.73138H38.4228ZM37.1943 13.8544H38.3193C38.5977 13.871 38.8763 13.8254 39.1349 13.7208C39.3934 13.6161 39.6254 13.4552 39.8139 13.2496C40.0024 13.0441 40.1427 12.7991 40.2245 12.5324C40.3064 12.2658 40.3278 11.9843 40.2871 11.7084C40.3248 11.4335 40.3013 11.1538 40.2181 10.8891C40.135 10.6244 39.9944 10.3814 39.8063 10.1775C39.6183 9.97358 39.3874 9.81378 39.1303 9.70954C38.8733 9.6053 38.5963 9.55922 38.3193 9.57459H37.1943V13.8544ZM45.5697 14.4872C45.9264 14.2491 46.188 13.8931 46.3088 13.4815L45.4533 13.4815C45.349 13.6685 45.1915 13.8202 45.0007 13.9174C44.81 14.0146 44.5946 14.0529 44.382 14.0274C44.2162 14.0292 44.0519 13.9964 43.8995 13.931C43.7471 13.8656 43.61 13.7691 43.4971 13.6476C43.3842 13.5262 43.2979 13.3825 43.2438 13.2257C43.1897 13.069 43.1689 12.9026 43.1828 12.7374V12.6876H46.3625V12.3775C46.3625 10.9635 45.6066 10.1075 44.3537 10.1075C44.0562 10.105 43.7616 10.1664 43.4899 10.2876C43.2182 10.4088 42.9757 10.587 42.7788 10.81C42.5819 11.0331 42.4353 11.2959 42.3488 11.5805C42.2623 11.8652 42.238 12.1652 42.2775 12.46C42.2369 12.754 42.2608 13.0533 42.3475 13.3371C42.4342 13.621 42.5816 13.8825 42.7795 14.1036C42.9774 14.3248 43.2211 14.5002 43.4936 14.6177C43.7661 14.7353 44.0609 14.7921 44.3576 14.7843C44.784 14.8305 45.213 14.7254 45.5697 14.4872ZM45.4572 12.0304H43.1828C43.1808 11.8767 43.2096 11.7241 43.2675 11.5817C43.3254 11.4393 43.4112 11.31 43.5198 11.2013C43.6285 11.0926 43.7578 11.0067 43.9002 10.9487C44.0425 10.8908 44.1951 10.8619 44.3488 10.8639C44.5003 10.8604 44.6508 10.8886 44.7908 10.9468C44.9307 11.005 45.0569 11.0918 45.1613 11.2017C45.2657 11.3115 45.3459 11.442 45.3969 11.5847C45.4478 11.7274 45.4684 11.8792 45.4572 12.0304ZM49.2012 10.1074C50.2139 10.1074 50.876 10.5786 50.9629 11.3726H50.1103C50.0283 11.042 49.7051 10.8311 49.2012 10.8311C48.7051 10.8311 48.3282 11.0664 48.3282 11.418C48.3282 11.687 48.5557 11.8565 49.044 11.9683L49.792 12.1416C50.6484 12.3403 51.0498 12.7085 51.0498 13.3701C51.0498 14.2178 50.2598 14.7842 49.1846 14.7842C48.1133 14.7842 47.415 14.3003 47.3359 13.5024H48.2256C48.3022 13.6923 48.4405 13.851 48.6181 13.9529C48.7957 14.0548 49.0024 14.0941 49.2051 14.0644C49.7588 14.0644 50.1523 13.8164 50.1523 13.4565C50.1523 13.188 49.9414 13.0142 49.4902 12.9067L48.7051 12.7246C47.8486 12.522 47.4521 12.1377 47.4521 11.4678C47.4521 10.6694 48.1836 10.1074 49.2012 10.1074ZM54.805 11.0874C55.0001 11.2277 55.1385 11.4331 55.1952 11.6666L56.0594 11.6667C56.0044 11.207 55.7722 10.7869 55.4122 10.4958C55.0521 10.2047 54.5927 10.0656 54.1317 10.1081C53.8331 10.0974 53.5358 10.152 53.2605 10.2681C52.9852 10.3842 52.7386 10.559 52.5378 10.7803C52.337 11.0015 52.187 11.2639 52.0981 11.5492C52.0093 11.8345 51.9837 12.1357 52.0233 12.4318C51.9816 12.7302 52.0056 13.034 52.0936 13.3221C52.1817 13.6102 52.3315 13.8756 52.5328 14.0997C52.7341 14.3238 52.9819 14.5012 53.2589 14.6196C53.536 14.7379 53.8355 14.7943 54.1366 14.7848C54.5939 14.8303 55.0508 14.6954 55.41 14.4088C55.7693 14.1222 56.0023 13.7066 56.0594 13.2506H55.1952C55.1386 13.4824 54.9993 13.6856 54.8035 13.8219C54.6076 13.9583 54.3687 14.0183 54.1317 13.9909C53.3915 13.9909 52.9325 13.4079 52.9325 12.4318C52.9325 11.4723 53.3876 10.902 54.1317 10.902C54.3711 10.8814 54.6099 10.9471 54.805 11.0874ZM62.9678 10.1947H62.1123L62.1123 14.6976H63.001V12.0389C62.9999 11.8918 63.0296 11.746 63.0882 11.611C63.1468 11.476 63.233 11.3548 63.3413 11.2551C63.4495 11.1554 63.5774 11.0795 63.7168 11.0322C63.8561 10.9848 64.0038 10.9672 64.1504 10.9803C64.3172 10.9812 64.4834 10.9992 64.6465 11.0341V10.1571C64.516 10.1306 64.3831 10.1182 64.25 10.1199C63.9925 10.1026 63.7361 10.1673 63.5177 10.3048C63.2992 10.4423 63.13 10.6454 63.0342 10.8851H62.9678V10.1947ZM65.4629 15.1484H66.3726C66.4478 15.4751 66.8237 15.686 67.4233 15.686C68.1636 15.686 68.602 15.3344 68.602 14.7392V13.875H68.5357C68.3963 14.1169 68.1927 14.3156 67.9475 14.4491C67.7022 14.5825 67.4248 14.6456 67.146 14.6313C65.9966 14.6313 65.2852 13.7426 65.2852 12.3945C65.2852 11.0215 66.0044 10.1201 67.1548 10.1201C67.4406 10.1101 67.7237 10.1789 67.9731 10.3189C68.2224 10.459 68.4285 10.6648 68.5688 10.914H68.6392V10.1948H69.4907V14.7348C69.4907 15.7646 68.6841 16.4179 67.4106 16.4179C66.2856 16.418 65.5576 15.9135 65.4629 15.1484ZM68.6186 12.3901C68.6186 11.4931 68.1548 10.9184 67.3979 10.9184C66.6333 10.9184 66.2036 11.4931 66.2036 12.3901C66.2036 13.2876 66.6333 13.8623 67.3979 13.8623C68.1597 13.8623 68.6187 13.292 68.6186 12.3901ZM72.3247 12.0806C71.2534 12.147 70.6499 12.6142 70.6499 13.4248C70.6506 13.6149 70.6912 13.8026 70.769 13.9761C70.8467 14.1495 70.96 14.3047 71.1014 14.4316C71.2428 14.5586 71.4093 14.6545 71.59 14.7132C71.7708 14.7719 71.9619 14.7921 72.1509 14.7724C72.4187 14.7848 72.6851 14.7259 72.9227 14.6017C73.1603 14.4775 73.3607 14.2924 73.5034 14.0654H73.5737V14.6982H74.4292V11.6216C74.4292 10.6704 73.7925 10.1084 72.6636 10.1084C71.6421 10.1084 70.9146 10.6045 70.8237 11.3779H71.6841C71.7827 11.0596 72.1265 10.8774 72.6226 10.8774C73.23 10.8774 73.5444 11.146 73.5444 11.6216V12.0102L72.3247 12.0806ZM73.5444 12.6636V13.04C73.5348 13.1821 73.4967 13.3207 73.4324 13.4477C73.3681 13.5748 73.2789 13.6876 73.1701 13.7794C73.0613 13.8712 72.9352 13.9403 72.7992 13.9823C72.6632 14.0244 72.5201 14.0387 72.3785 14.0244C71.895 14.0244 71.5435 13.7886 71.5435 13.3833C71.5435 12.9863 71.8247 12.7754 72.4448 12.7339L73.5444 12.6636ZM75.8618 8.43652H76.7505V14.6973H75.8618V8.43652ZM78.085 11.5682C77.9912 11.8503 77.9573 12.1489 77.9856 12.4448C77.9568 12.741 77.9902 13.04 78.0838 13.3225C78.1774 13.605 78.3291 13.8648 78.5291 14.0853C78.7291 14.3057 78.973 14.4818 79.2451 14.6023C79.5172 14.7229 79.8115 14.7851 80.1092 14.7851C80.4068 14.7851 80.7011 14.7229 80.9732 14.6023C81.2454 14.4818 81.4893 14.3057 81.6893 14.0853C81.8892 13.8648 82.0409 13.605 82.1345 13.3225C82.2281 13.04 82.2616 12.741 82.2327 12.4448C82.261 12.1489 82.2272 11.8503 82.1333 11.5682C82.0395 11.2862 81.8877 11.0268 81.6878 10.8068C81.4878 10.5868 81.2441 10.4111 80.9723 10.2908C80.7004 10.1705 80.4064 10.1084 80.1092 10.1084C79.8119 10.1084 79.5179 10.1705 79.2461 10.2908C78.9742 10.4111 78.7305 10.5868 78.5306 10.8068C78.3306 11.0268 78.1789 11.2862 78.085 11.5682ZM80.1106 10.8979C80.8801 10.8979 81.3186 11.4687 81.3186 12.4448C81.3186 13.4248 80.8802 13.9951 80.1106 13.9951C79.3382 13.9951 78.9036 13.4287 78.9036 12.4448C78.9036 11.4687 79.3382 10.8979 80.1106 10.8979ZM89.6764 13.4815C89.5557 13.8931 89.2941 14.2491 88.9374 14.4872C88.5807 14.7254 88.1516 14.8305 87.7253 14.7843C87.4286 14.7921 87.1338 14.7353 86.8613 14.6177C86.5888 14.5002 86.3451 14.3248 86.1472 14.1036C85.9493 13.8825 85.8019 13.621 85.7152 13.3371C85.6285 13.0533 85.6046 12.754 85.6452 12.46C85.6057 12.1652 85.63 11.8652 85.7165 11.5805C85.803 11.2959 85.9496 11.0331 86.1465 10.81C86.3433 10.587 86.5858 10.4088 86.8575 10.2876C87.1293 10.1664 87.4238 10.105 87.7213 10.1075C88.9743 10.1075 89.7301 10.9635 89.7301 12.3775V12.6876H86.5504V12.7374C86.5365 12.9026 86.5573 13.069 86.6114 13.2257C86.6656 13.3825 86.7518 13.5262 86.8647 13.6476C86.9776 13.7691 87.1147 13.8656 87.2671 13.931C87.4195 13.9964 87.5838 14.0292 87.7497 14.0274C87.9622 14.0529 88.1776 14.0146 88.3684 13.9174C88.5591 13.8202 88.7167 13.6685 88.821 13.4815L89.6764 13.4815ZM86.5504 12.0304H88.8248C88.836 11.8792 88.8155 11.7274 88.7645 11.5847C88.7136 11.442 88.6333 11.3115 88.5289 11.2017C88.4245 11.0918 88.2983 11.005 88.1584 10.9468C88.0185 10.8886 87.8679 10.8604 87.7164 10.8639C87.5627 10.8619 87.4102 10.8908 87.2678 10.9487C87.1255 11.0067 86.9961 11.0925 86.8875 11.2013C86.7788 11.31 86.693 11.4393 86.6351 11.5817C86.5772 11.7241 86.5484 11.8767 86.5504 12.0304ZM91.7788 10.1949H90.9233V14.6978H91.812V12.0635C91.7962 11.9154 91.8127 11.7657 91.8602 11.6246C91.9078 11.4834 91.9852 11.3543 92.0874 11.2459C92.1895 11.1375 92.3138 11.0525 92.4519 10.9966C92.59 10.9408 92.7384 10.9155 92.8872 10.9224C93.5444 10.9224 93.8589 11.2823 93.8589 12.0059V14.6977H94.7476V11.7827C94.7797 11.5654 94.7626 11.3436 94.6974 11.1338C94.6322 10.924 94.5206 10.7315 94.3709 10.5707C94.2212 10.4098 94.0373 10.2847 93.8327 10.2046C93.6281 10.1245 93.4081 10.0915 93.189 10.1079C92.9094 10.0852 92.6296 10.1503 92.3887 10.2941C92.1479 10.4379 91.9579 10.6533 91.8452 10.9102H91.7788V10.1949ZM102.373 13.4815C102.252 13.8931 101.99 14.2491 101.634 14.4872C101.277 14.7254 100.848 14.8305 100.422 14.7843C100.125 14.7921 99.8301 14.7353 99.5576 14.6177C99.2851 14.5002 99.0414 14.3248 98.8435 14.1036C98.6456 13.8825 98.4982 13.621 98.4115 13.3371C98.3248 13.0533 98.3009 12.754 98.3415 12.46C98.302 12.1652 98.3263 11.8652 98.4128 11.5805C98.4993 11.2959 98.6459 11.0331 98.8428 10.81C99.0396 10.587 99.2821 10.4088 99.5538 10.2876C99.8255 10.1664 100.12 10.105 100.418 10.1075C101.671 10.1075 102.426 10.9635 102.426 12.3775V12.6876H99.2467V12.7374C99.2328 12.9026 99.2536 13.069 99.3077 13.2257C99.3618 13.3825 99.4481 13.5262 99.561 13.6476C99.6739 13.7691 99.811 13.8656 99.9634 13.931C100.116 13.9964 100.28 14.0292 100.446 14.0274C100.659 14.0529 100.874 14.0146 101.065 13.9174C101.255 13.8202 101.413 13.6685 101.517 13.4815L102.373 13.4815ZM99.2467 12.0304H101.521C101.532 11.8792 101.512 11.7274 101.461 11.5847C101.41 11.442 101.33 11.3115 101.225 11.2017C101.121 11.0918 100.995 11.005 100.855 10.9468C100.715 10.8886 100.564 10.8604 100.413 10.8639C100.259 10.8619 100.106 10.8908 99.9641 10.9487C99.8218 11.0067 99.6924 11.0925 99.5838 11.2012C99.4751 11.31 99.3893 11.4393 99.3314 11.5817C99.2735 11.7241 99.2447 11.8767 99.2467 12.0304ZM104.549 8.43652H103.661V14.6973H104.549V8.43652Z" fill="white"/>
</g>
<defs>
<clipPath id="clip0">
<path d="M0.59668 0H120.261V40H0.59668V0Z" fill="white"/>
</clipPath>
</defs>
</svg>
