<svg width="100%" viewBox="0 0 384 492" fill="none" xmlns="http://www.w3.org/2000/svg">
  <path d="M0 0H384V492H0V0Z" fill="#FCFBFB"/>
  <path d="M0 0H384V492H0V0Z" style="mix-blend-mode:multiply"/>
  <g style="mix-blend-mode:multiply">
    <path
      d="M324.169 243.469C316.947 337.125 265.015 380.156 192.046 380.156C143.065 380.156 56.6202 354.454 59.9232 243.469C59.9232 167.978 109.469 111.844 192.046 111.844C274.623 111.844 324.169 167.978 324.169 243.469Z"
      fill="#EEEDEC"/>
    <mask id="mask0" mask-type="alpha" maskUnits="userSpaceOnUse" x="59" y="111" width="266" height="270">
      <path
        d="M324.169 243.469C316.947 337.125 265.015 380.156 192.046 380.156C143.065 380.156 56.6202 354.454 59.9232 243.469C59.9232 167.978 109.469 111.844 192.046 111.844C274.623 111.844 324.169 167.978 324.169 243.469Z"
        fill="#FF5005"/>
    </mask>
    <g mask="url(#mask0)">
    </g>
    <path fill-rule="evenodd" clip-rule="evenodd"
          d="M91.7011 244.612C89.1927 327.235 154.839 346.369 192.035 346.369C247.448 346.369 286.884 314.334 292.369 244.612C292.369 188.414 254.744 146.625 192.035 146.625C129.326 146.625 91.7011 188.414 91.7011 244.612ZM290.055 244.521C287.332 278.932 276.265 303.742 259.329 319.954C242.384 336.174 219.294 344.045 192.035 344.045C173.753 344.045 148.57 339.329 128.337 324.593C108.24 309.955 92.7819 285.263 94.0138 244.683L94.0149 244.648V244.612C94.0149 217.04 103.237 193.16 119.996 176.18C136.747 159.208 161.209 148.949 192.035 148.949C222.861 148.949 247.323 159.208 264.074 176.18C280.815 193.141 290.034 216.988 290.055 244.521Z"
          fill="#F5F4F4"/>
    <path fill-rule="evenodd" clip-rule="evenodd"
          d="M33.1107 243C29.137 374.538 133.131 405 192.055 405C279.838 405 342.312 354 351 243C351 153.53 291.396 87 192.055 87C92.7149 87 33.1107 153.53 33.1107 243ZM349.012 242.922C344.685 298.043 327.031 338.007 299.81 364.193C272.584 390.383 235.558 403.012 192.055 403.012C162.868 403.012 122.595 395.457 90.1701 371.723C57.8603 348.073 33.1291 308.211 35.0972 243.06L35.0982 243.03V243C35.0982 198.71 49.8444 160.235 76.7483 132.841C103.644 105.455 142.844 88.9875 192.055 88.9875C241.266 88.9875 280.466 105.455 307.362 132.841C334.251 160.219 348.995 198.666 349.012 242.922Z"
          fill="#EEEDEC"/>
  </g>
</svg>
