<svg width="734" height="215" viewBox="0 0 734 215" fill="none" xmlns="http://www.w3.org/2000/svg">
<line x1="265" y1="198.5" x2="734" y2="198.5" stroke="#716C6A" stroke-dasharray="5 5"/>
<g opacity="0.6">
<path d="M11.4542 194.294C10.8567 193.265 10.2404 188.891 9.9897 186.765H10.1198C10.3667 186.765 10.5665 186.567 10.5665 186.324V185.252C10.5665 184.415 9.87661 183.736 9.03031 183.736H6.52348C5.67531 183.736 4.98734 184.417 4.98734 185.252V186.322C4.98734 186.566 5.18713 186.763 5.43593 186.763H5.56599C5.3153 188.889 4.69896 193.264 4.10147 194.292C3.22502 195.801 2.91779 197.234 2.97057 199.578L3.22125 210.775C3.24198 211.685 4.00723 212.424 4.92891 212.424H10.6305C11.5522 212.424 12.3175 211.683 12.3382 210.775L12.5889 199.578C12.6379 197.234 12.3325 195.801 11.4542 194.294ZM3.86398 199.56C3.85079 198.975 3.86021 198.458 3.89602 197.988C3.9488 197.997 4.00723 198.004 4.06943 198.004H11.6163C11.6314 198.004 11.6465 198.002 11.6615 198.002C11.6955 198.471 11.7068 198.983 11.6936 199.562L11.5635 205.378H4.06943C4.04304 205.378 4.01854 205.379 3.99403 205.381L3.86398 199.56ZM5.88075 185.252C5.88075 184.902 6.16913 184.618 6.52348 184.618H9.03031C9.38466 184.618 9.67304 184.902 9.67304 185.252V185.879H9.49021H6.06547H5.88264V185.252H5.88075ZM4.87614 194.733C5.64515 193.411 6.28411 188.326 6.46694 186.763H9.08874C9.26969 188.324 9.91053 193.411 10.6795 194.733C11.1979 195.625 11.49 196.473 11.6182 197.561H11.6163H4.06943C4.02231 197.561 3.97895 197.565 3.93749 197.571C4.06377 196.479 4.35592 195.628 4.87614 194.733ZM10.6287 211.542H4.92703C4.48786 211.542 4.12409 211.19 4.11278 210.756L4.00157 205.815C4.02231 205.817 4.04492 205.819 4.06754 205.819H11.5503L11.4391 210.758C11.4316 211.19 11.0659 211.542 10.6287 211.542Z" fill="#716C6A"/>
<path d="M24.7853 194.294C24.1878 193.265 23.5714 188.891 23.3208 186.765H23.4508C23.6977 186.765 23.8975 186.567 23.8975 186.324V185.252C23.8975 184.415 23.2077 183.736 22.3614 183.736H19.8545C19.0064 183.736 18.3184 184.417 18.3184 185.252V186.322C18.3184 186.566 18.5182 186.763 18.767 186.763H18.897C18.6464 188.889 18.03 193.264 17.4325 194.292C16.5561 195.801 16.2488 197.234 16.3016 199.578L16.5523 210.775C16.573 211.685 17.3383 212.424 18.26 212.424H23.9616C24.8833 212.424 25.6485 211.683 25.6693 210.775L25.9199 199.578C25.9689 197.234 25.6636 195.801 24.7853 194.294ZM17.195 199.56C17.1818 198.975 17.1913 198.458 17.2271 197.988C17.2799 197.997 17.3383 198.004 17.4005 198.004H24.9474C24.9624 198.004 24.9775 198.002 24.9926 198.002C25.0265 198.471 25.0378 198.983 25.0246 199.562L24.8946 205.378H17.4005C17.3741 205.378 17.3496 205.379 17.3251 205.381L17.195 199.56ZM19.2118 185.252C19.2118 184.902 19.5002 184.618 19.8545 184.618H22.3614C22.7157 184.618 23.0041 184.902 23.0041 185.252V185.879H22.8213H19.3965H19.2137V185.252H19.2118ZM18.2072 194.733C18.9762 193.411 19.6152 188.326 19.798 186.763H22.4198C22.6007 188.324 23.2416 193.411 24.0106 194.733C24.5289 195.625 24.8211 196.473 24.9493 197.561H24.9474H17.4005C17.3534 197.561 17.31 197.565 17.2685 197.571C17.3948 196.479 17.687 195.628 18.2072 194.733ZM23.9597 211.542H18.2581C17.8189 211.542 17.4551 211.19 17.4438 210.756L17.3326 205.815C17.3534 205.817 17.376 205.819 17.3986 205.819H24.8814L24.7702 210.758C24.7627 211.19 24.397 211.542 23.9597 211.542Z" fill="#716C6A"/>
<path d="M38.1193 194.294C37.5218 193.265 36.9054 188.891 36.6547 186.765H36.7848C37.0317 186.765 37.2315 186.567 37.2315 186.324V185.252C37.2315 184.415 36.5417 183.736 35.6954 183.736H33.1885C32.3403 183.736 31.6524 184.417 31.6524 185.252V186.322C31.6524 186.566 31.8522 186.763 32.101 186.763H32.231C31.9803 188.889 31.364 193.264 30.7665 194.292C29.8901 195.801 29.5828 197.234 29.6356 199.578L29.8863 210.775C29.907 211.685 30.6723 212.424 31.594 212.424H37.2956C38.2173 212.424 38.9825 211.683 39.0032 210.775L39.2539 199.578C39.3029 197.234 38.9976 195.801 38.1193 194.294ZM30.529 199.56C30.5158 198.975 30.5252 198.458 30.5611 197.988C30.6138 197.997 30.6723 198.004 30.7345 198.004H38.2814C38.2964 198.004 38.3115 198.002 38.3266 198.002C38.3605 198.471 38.3718 198.983 38.3586 199.562L38.2286 205.378H30.7345C30.7081 205.378 30.6836 205.379 30.6591 205.381L30.529 199.56ZM32.5458 185.252C32.5458 184.902 32.8342 184.618 33.1885 184.618H35.6954C36.0497 184.618 36.3381 184.902 36.3381 185.252V185.879H36.1553H32.7305H32.5477V185.252H32.5458ZM31.5412 194.733C32.3102 193.411 32.9492 188.326 33.132 186.763H35.7538C35.9347 188.324 36.5756 193.411 37.3446 194.733C37.8629 195.625 38.1551 196.473 38.2832 197.561H38.2814H30.7345C30.6873 197.561 30.644 197.565 30.6025 197.571C30.7288 196.479 31.021 195.628 31.5412 194.733ZM37.2937 211.542H31.5921C31.1529 211.542 30.7891 211.19 30.7778 210.756L30.6666 205.815C30.6873 205.817 30.71 205.819 30.7326 205.819H38.2154L38.1042 210.758C38.0966 211.19 37.731 211.542 37.2937 211.542Z" fill="#716C6A"/>
</g>
<g opacity="0.5">
<g clip-path="url(#clip0)">
<path d="M109.101 204.128C109.435 204.128 109.707 203.855 109.707 203.522V198.689C109.707 198.355 109.435 198.083 109.101 198.083H101.501L105.297 194.286C105.536 194.048 105.536 193.666 105.297 193.434L101.999 190.135C101.76 189.897 101.378 189.897 101.147 190.135C100.206 191.076 98.6725 191.076 97.7319 190.135C96.7913 189.195 96.7913 187.661 97.7319 186.721C97.9705 186.482 97.9705 186.1 97.7319 185.869L95.0397 183.176C94.8011 182.938 94.4195 182.938 94.1877 183.176L79.268 198.089H74.088C73.7541 198.089 73.4814 198.362 73.4814 198.696V203.528C73.4814 203.862 73.7541 204.128 74.088 204.128C75.4239 204.128 76.5008 205.212 76.5008 206.541C76.5008 207.87 75.4171 208.954 74.088 208.954C73.7541 208.96 73.4814 209.226 73.4814 209.56V214.393C73.4814 214.727 73.7541 214.999 74.088 214.999H109.101C109.435 214.999 109.707 214.727 109.707 214.393V209.56C109.707 209.226 109.435 208.954 109.101 208.954C107.765 208.954 106.688 207.87 106.688 206.541C106.688 205.212 107.765 204.128 109.101 204.128ZM94.6103 184.458L96.4846 186.332C95.3191 187.961 95.7008 190.224 97.323 191.383C98.5839 192.282 100.274 192.282 101.535 191.383L104.016 193.864L99.7903 198.089H97.8819L99.2655 196.706C99.504 196.467 99.504 196.086 99.2655 195.854L92.6269 189.215C92.3884 188.977 92.0067 188.977 91.7749 189.215L82.894 198.089H80.9788L94.6103 184.458ZM96.1711 198.089H84.598L92.1975 190.497L97.9841 196.283L96.1711 198.089ZM105.522 207.148C105.781 208.667 106.974 209.86 108.494 210.119V213.793H103.662V211.38H102.455V213.793H80.7266V213.186H79.5202V213.793H74.6878V210.119C76.6576 209.785 77.9935 207.918 77.6595 205.948C77.4005 204.428 76.2077 203.235 74.6878 202.976V199.303H79.5202V201.116H80.7266V199.303H108.501V202.976C106.524 203.303 105.195 205.171 105.522 207.148Z" fill="#716C6A"/>
<path d="M103.668 200.51H102.462V202.923H103.668V200.51Z" fill="#716C6A"/>
<path d="M103.668 204.129H102.462V206.542H103.668V204.129Z" fill="#716C6A"/>
<path d="M103.668 207.755H102.462V210.168H103.668V207.755Z" fill="#716C6A"/>
<path d="M80.7269 202.316H79.5205V204.729H80.7269V202.316Z" fill="#716C6A"/>
<path d="M80.7269 205.942H79.5205V208.355H80.7269V205.942Z" fill="#716C6A"/>
<path d="M80.7269 209.561H79.5205V211.974H80.7269V209.561Z" fill="#716C6A"/>
<path d="M100.043 202.316C99.375 202.316 98.8365 201.777 98.8365 201.11C98.8365 200.776 98.5639 200.503 98.2299 200.503H84.9528C84.6188 200.503 84.3462 200.776 84.3462 201.11C84.3462 201.777 83.8078 202.316 83.1398 202.316C82.8058 202.316 82.5332 202.589 82.5332 202.923V210.168C82.5332 210.502 82.8058 210.774 83.1398 210.774C83.8078 210.774 84.3462 211.313 84.3462 211.981C84.3462 212.315 84.6188 212.587 84.9528 212.587H98.2367C98.5707 212.587 98.8433 212.315 98.8433 211.981C98.8433 211.313 99.3818 210.774 100.05 210.774C100.384 210.774 100.656 210.502 100.656 210.168V202.923C100.649 202.589 100.377 202.316 100.043 202.316ZM99.4431 209.643C98.5911 209.861 97.93 210.529 97.7051 211.381H85.4776C85.2595 210.529 84.5916 209.868 83.7396 209.643V203.447C84.5916 203.229 85.2527 202.561 85.4776 201.709H97.7051C97.9232 202.561 98.5911 203.222 99.4431 203.447V209.643Z" fill="#716C6A"/>
</g>
</g>
<g opacity="0.6">
<g clip-path="url(#clip1)">
<path d="M164.37 193.786L164.024 192.657C163.587 191.378 162.197 190.693 160.918 191.124C160.2 191.365 159.632 191.933 159.384 192.657L159.045 193.786C158.758 194.739 158.699 195.744 158.869 196.723C159.026 197.545 159.548 198.256 160.291 198.648L159.906 207.222C159.854 207.698 160.011 208.181 160.331 208.533C161.022 209.29 162.203 209.343 162.96 208.651C162.999 208.612 163.039 208.573 163.078 208.533C163.391 208.188 163.548 207.724 163.502 207.254L163.117 198.648C163.854 198.256 164.376 197.551 164.533 196.729C164.716 195.737 164.657 194.732 164.37 193.786ZM163.495 196.533C163.378 197.127 162.96 197.61 162.386 197.806C162.171 197.884 162.034 198.099 162.04 198.328L162.445 207.333C162.464 207.509 162.406 207.685 162.282 207.816C161.962 208.135 161.446 208.135 161.12 207.816C160.996 207.672 160.937 207.483 160.964 207.3L161.368 198.334C161.381 198.106 161.238 197.891 161.022 197.812C160.455 197.617 160.03 197.127 159.913 196.54C159.769 195.731 159.822 194.896 160.057 194.106L160.396 192.977C160.663 192.259 161.459 191.894 162.171 192.161C162.549 192.298 162.849 192.599 162.986 192.977L163.326 194.106C163.587 194.889 163.639 195.718 163.495 196.533Z" fill="#716C6A"/>
<path d="M156.108 191C155.815 191 155.573 191.242 155.573 191.535V196.116L154.131 197.558C154.027 197.662 153.968 197.813 153.974 197.963L154.444 207.294C154.457 207.496 154.386 207.692 154.242 207.835C153.948 208.129 153.472 208.129 153.178 207.842C153.178 207.842 153.178 207.842 153.172 207.835C153.035 207.692 152.956 207.496 152.97 207.294L153.439 197.963C153.446 197.813 153.387 197.662 153.283 197.558L151.841 196.116V191.535C151.841 191.242 151.599 191 151.306 191C151.012 191 150.771 191.242 150.771 191.535V196.338C150.771 196.481 150.829 196.612 150.927 196.716L152.363 198.152L151.906 207.248C151.86 208.24 152.624 209.088 153.616 209.134C154.607 209.18 155.456 208.416 155.501 207.424C155.501 207.366 155.501 207.307 155.501 207.248L155.045 198.152L156.48 196.716C156.578 196.618 156.637 196.481 156.637 196.338V191.535C156.643 191.242 156.402 191 156.108 191Z" fill="#716C6A"/>
<path d="M152.904 191C152.611 191 152.369 191.242 152.369 191.535V195.803C152.369 196.096 152.611 196.338 152.904 196.338C153.198 196.338 153.439 196.096 153.439 195.803V191.535C153.439 191.242 153.204 191 152.904 191Z" fill="#716C6A"/>
<path d="M154.51 191C154.216 191 153.975 191.242 153.975 191.535V195.803C153.975 196.096 154.216 196.338 154.51 196.338C154.803 196.338 155.045 196.096 155.045 195.803V191.535C155.038 191.242 154.803 191 154.51 191Z" fill="#716C6A"/>
<path d="M157.707 183C148.872 183 141.707 190.165 141.707 199C141.707 207.835 148.872 215 157.707 215C166.542 215 173.707 207.835 173.707 199C173.701 190.165 166.542 183.013 157.707 183ZM157.707 213.936C149.459 213.936 142.771 207.248 142.771 199C142.771 190.752 149.459 184.064 157.707 184.064C165.955 184.064 172.643 190.752 172.643 199C172.63 207.241 165.948 213.923 157.707 213.936Z" fill="#716C6A"/>
<path d="M159.436 209.01C159.41 208.716 159.149 208.501 158.855 208.533C158.848 208.533 158.842 208.533 158.835 208.533C158.085 208.618 157.328 208.618 156.578 208.533C156.284 208.501 156.023 208.71 155.984 209.003C155.951 209.297 156.16 209.558 156.454 209.597C157.289 209.695 158.131 209.695 158.959 209.597C159.253 209.564 159.468 209.303 159.436 209.01Z" fill="#716C6A"/>
<path d="M165.87 192.129C165.681 191.9 165.341 191.874 165.12 192.064C164.891 192.253 164.865 192.592 165.054 192.814C168.271 196.631 168.023 202.276 164.487 205.799C164.278 206.008 164.278 206.347 164.487 206.556C164.695 206.765 165.035 206.765 165.244 206.556C169.165 202.641 169.439 196.37 165.87 192.129Z" fill="#716C6A"/>
<path d="M160.226 188.631C158.145 188.129 155.959 188.266 153.949 189.016C153.675 189.121 153.531 189.427 153.636 189.701C153.714 189.91 153.91 190.047 154.132 190.047C154.197 190.047 154.256 190.034 154.321 190.015C156.128 189.336 158.099 189.219 159.972 189.669C160.259 189.741 160.546 189.564 160.618 189.277C160.69 188.99 160.507 188.703 160.226 188.631Z" fill="#716C6A"/>
<path d="M150.907 205.773C149.106 203.979 148.102 201.538 148.108 199C148.102 196.971 148.748 194.993 149.942 193.356C150.118 193.121 150.072 192.788 149.837 192.612C149.602 192.436 149.27 192.481 149.093 192.716C149.093 192.723 149.087 192.723 149.087 192.729C146 196.971 146.457 202.817 150.157 206.53C150.366 206.739 150.705 206.739 150.914 206.53C151.116 206.321 151.116 205.982 150.907 205.773Z" fill="#716C6A"/>
</g>
</g>
<g opacity="0.6">
<g clip-path="url(#clip2)">
<path d="M236.305 185.757C236.553 182.447 231.019 181.915 230.625 185.287C227.163 185.743 221.317 187.181 218.152 191.72C215.181 195.984 214.4 201.719 214.248 203.143C210.683 205.72 207.545 207.648 206.122 209.009C205.652 209.465 205.569 210.191 205.935 210.737C206.129 211.034 206.426 211.241 206.772 211.317C207.117 211.393 207.476 211.324 207.773 211.13C207.946 211.02 209.57 210.066 213.778 210.661C221.345 211.732 219.693 215.636 227.792 214.924C234.826 214.281 239.069 209.244 240.147 207.821C241.487 207.883 242.807 207.973 244.127 208.138C245.025 208.346 245.965 208.235 246.794 207.828C247.513 207.358 247.996 206.611 248.128 205.768C248.383 204.393 248.487 202.991 248.445 201.588C248.432 193.482 243.864 188.169 236.305 185.757ZM222.16 203.094C222.588 199.494 224.627 188.272 233.292 186.538C239.884 190.256 236.678 202.88 235.759 206.052C230.376 205.271 225 203.626 222.16 203.094ZM234.881 185.336C233.99 185.059 233.05 184.997 232.131 185.156C232.525 184.085 234.681 184.244 234.881 185.356V185.336ZM219.348 192.543C221.531 189.406 225.276 187.899 228.365 187.174C222.685 191.271 221.137 199.736 220.757 202.921C219.113 202.693 217.44 202.638 215.782 202.756C216.024 200.786 216.901 196.046 219.348 192.543ZM227.667 213.487C220.163 214.198 221.987 210.37 213.979 209.223C210.468 208.726 208.492 209.223 207.587 209.617C209.121 208.332 212.106 206.473 215.222 204.221C221.849 203.225 229.554 207.219 238.391 207.772C235.676 210.978 231.841 213.024 227.667 213.487ZM246.739 205.457C246.448 206.832 245.723 206.943 244.313 206.756C241.211 206.349 239.511 206.48 237.21 206.231C238.841 200.551 240.05 191.872 236.367 187.277C241.466 189.032 245.315 192.252 246.587 197.594C247.133 200.178 247.188 202.845 246.739 205.457Z" fill="#716C6A"/>
</g>
</g>
<line x1="189.207" y1="215" x2="189.207" y2="183" stroke="#716C6A" stroke-dasharray="2 2"/>
<line x1="125.207" y1="215" x2="125.207" y2="183" stroke="#716C6A" stroke-dasharray="2 2"/>
<line x1="56.9814" y1="215" x2="56.9814" y2="183" stroke="#716C6A" stroke-dasharray="2 2"/>
<line x1="3.5" y1="3" x2="3.49999" y2="167" stroke="#716C6A" stroke-dasharray="5 5"/>
<circle cx="3.5" cy="3.5" r="3.5" fill="#FF5005"/>
<defs>
<clipPath id="clip0">
<rect x="73.4814" y="183" width="36.2258" height="32" fill="white"/>
</clipPath>
<clipPath id="clip1">
<rect x="141.707" y="183" width="32" height="32" fill="white"/>
</clipPath>
<clipPath id="clip2">
<rect x="205.707" y="183" width="42.7519" height="32" fill="white"/>
</clipPath>
</defs>
</svg>
