<svg width="70" height="54" viewBox="0 0 70 54" fill="none" xmlns="http://www.w3.org/2000/svg">
<g opacity="0.6">
<path d="M19.3289 19.059C18.3206 17.3228 17.2805 9.94142 16.8575 6.35277H17.077C17.4936 6.35277 17.8308 6.01996 17.8308 5.60867V3.80021C17.8308 2.38736 16.6667 1.24138 15.2385 1.24138H11.0083C9.57696 1.24138 8.41602 2.3905 8.41602 3.80021V5.60553C8.41602 6.01683 8.75317 6.34963 9.17301 6.34963H9.39248C8.96945 9.93828 7.92938 17.3197 6.92111 19.0559C5.4421 21.6022 4.92365 24.0197 5.01271 27.9757L5.43574 46.8703C5.47072 48.4056 6.76207 49.652 8.31742 49.652H17.9389C19.4943 49.652 20.7856 48.4024 20.8206 46.8703L21.2436 27.9757C21.3263 24.0197 20.8111 21.6022 19.3289 19.059ZM6.52034 27.9443C6.49808 26.9585 6.51398 26.0856 6.57441 25.2913C6.66347 25.307 6.76207 25.3196 6.86703 25.3196H19.6024C19.6278 25.3196 19.6533 25.3164 19.6787 25.3164C19.736 26.1076 19.7551 26.971 19.7328 27.9475L19.5133 37.7621H6.86703C6.8225 37.7621 6.78116 37.7652 6.73981 37.7684L6.52034 27.9443ZM9.92365 3.80021C9.92365 3.20996 10.4103 2.72958 11.0083 2.72958H15.2385C15.8365 2.72958 16.3231 3.20996 16.3231 3.80021V4.85829H16.0146H10.2354H9.92683V3.80021H9.92365ZM8.22836 19.8C9.52607 17.5677 10.6043 8.98696 10.9128 6.34963H15.3371C15.6425 8.98382 16.7239 17.5677 18.0216 19.8C18.8963 21.3039 19.3893 22.7356 19.6056 24.5723H19.6024H6.86703C6.78752 24.5723 6.71436 24.5786 6.64439 24.588C6.85749 22.745 7.35049 21.3102 8.22836 19.8ZM17.9357 48.1638H8.31423C7.57314 48.1638 6.95927 47.5704 6.94019 46.8389L6.75253 38.4999C6.78752 38.503 6.82569 38.5062 6.86385 38.5062H19.4911L19.3034 46.842C19.2907 47.5704 18.6736 48.1638 17.9357 48.1638Z" fill="#2E2C3C"/>
<path d="M41.8258 19.059C40.8175 17.3228 39.7775 9.94142 39.3544 6.35277H39.5739C39.9906 6.35277 40.3277 6.01996 40.3277 5.60867V3.80021C40.3277 2.38736 39.1636 1.24138 37.7355 1.24138H33.5052C32.0739 1.24138 30.913 2.3905 30.913 3.80021V5.60553C30.913 6.01683 31.2501 6.34963 31.67 6.34963H31.8894C31.4664 9.93828 30.4263 17.3197 29.4181 19.0559C27.939 21.6022 27.4206 24.0197 27.5097 27.9757L27.9327 46.8703C27.9677 48.4056 29.259 49.652 30.8144 49.652H40.4359C41.9912 49.652 43.2826 48.4024 43.3175 46.8703L43.7406 27.9757C43.8233 24.0197 43.308 21.6022 41.8258 19.059ZM29.0173 27.9443C28.995 26.9585 29.0109 26.0856 29.0714 25.2913C29.1604 25.307 29.259 25.3196 29.364 25.3196H42.0994C42.1248 25.3196 42.1502 25.3164 42.1757 25.3164C42.2329 26.1076 42.252 26.971 42.2298 27.9475L42.0103 37.7621H29.364C29.3195 37.7621 29.2781 37.7652 29.2368 37.7684L29.0173 27.9443ZM32.4206 3.80021C32.4206 3.20996 32.9072 2.72958 33.5052 2.72958H37.7355C38.3334 2.72958 38.8201 3.20996 38.8201 3.80021V4.85829H38.5116H32.7323H32.4238V3.80021H32.4206ZM30.7253 19.8C32.023 17.5677 33.1013 8.98696 33.4098 6.34963H37.8341C38.1394 8.98382 39.2209 17.5677 40.5186 19.8C41.3932 21.3039 41.8862 22.7356 42.1025 24.5723H42.0994H29.364C29.2845 24.5723 29.2113 24.5786 29.1413 24.588C29.3544 22.745 29.8474 21.3102 30.7253 19.8ZM40.4327 48.1638H30.8112C30.0701 48.1638 29.4562 47.5704 29.4371 46.8389L29.2495 38.4999C29.2845 38.503 29.3226 38.5062 29.3608 38.5062H41.988L41.8004 46.842C41.7876 47.5704 41.1706 48.1638 40.4327 48.1638Z" fill="#2E2C3C"/>
<path d="M64.3258 19.059C63.3176 17.3228 62.2775 9.94142 61.8544 6.35277H62.0739C62.4906 6.35277 62.8277 6.01996 62.8277 5.60867V3.80021C62.8277 2.38736 61.6636 1.24138 60.2355 1.24138H56.0052C54.5739 1.24138 53.413 2.3905 53.413 3.80021V5.60553C53.413 6.01683 53.7501 6.34963 54.17 6.34963H54.3894C53.9664 9.93828 52.9263 17.3197 51.9181 19.0559C50.439 21.6022 49.9206 24.0197 50.0097 27.9757L50.4327 46.8703C50.4677 48.4056 51.759 49.652 53.3144 49.652H62.9359C64.4912 49.652 65.7826 48.4024 65.8176 46.8703L66.2406 27.9757C66.3233 24.0197 65.808 21.6022 64.3258 19.059ZM51.5173 27.9443C51.495 26.9585 51.5109 26.0856 51.5714 25.2913C51.6604 25.307 51.759 25.3196 51.864 25.3196H64.5994C64.6248 25.3196 64.6502 25.3164 64.6757 25.3164C64.7329 26.1076 64.752 26.971 64.7298 27.9475L64.5103 37.7621H51.864C51.8195 37.7621 51.7781 37.7652 51.7368 37.7684L51.5173 27.9443ZM54.9206 3.80021C54.9206 3.20996 55.4072 2.72958 56.0052 2.72958H60.2355C60.8335 2.72958 61.3201 3.20996 61.3201 3.80021V4.85829H61.0116H55.2323H54.9238V3.80021H54.9206ZM53.2253 19.8C54.523 17.5677 55.6013 8.98696 55.9098 6.34963H60.3341C60.6394 8.98382 61.7209 17.5677 63.0186 19.8C63.8933 21.3039 64.3863 22.7356 64.6025 24.5723H64.5994H51.864C51.7845 24.5723 51.7113 24.5786 51.6413 24.588C51.8544 22.745 52.3474 21.3102 53.2253 19.8ZM62.9327 48.1638H53.3112C52.5701 48.1638 51.9562 47.5704 51.9371 46.8389L51.7495 38.4999C51.7845 38.503 51.8226 38.5062 51.8608 38.5062H64.488L64.3004 46.842C64.2877 47.5704 63.6706 48.1638 62.9327 48.1638Z" fill="#2E2C3C"/>
</g>
</svg>
