<svg width="249" height="81" viewBox="0 0 249 81" fill="none" xmlns="http://www.w3.org/2000/svg">
<path d="M249 70.0503C249 76.0971 244.074 80.9952 237.994 80.9952H11.006C4.93027 81 0 76.0971 0 70.0503V10.9449C0 4.90291 4.93027 0 11.006 0H237.994C244.07 0 249 4.90291 249 10.9449V70.0503Z" fill="black"/>
<path d="M64.9335 53.5382C63.6162 56.4429 62.9862 57.7387 61.2871 60.3064C58.9198 63.8899 55.5789 68.3561 51.4457 68.3941C47.7707 68.4273 46.8256 66.0162 41.8381 66.0447C36.8506 66.0731 35.8101 68.4368 32.1351 68.4036C28.0019 68.3656 24.8375 64.336 22.4702 60.7478C15.8456 50.7237 15.1583 38.9577 19.2391 32.7068C22.1409 28.2643 26.718 25.6633 31.023 25.6633C35.4044 25.6633 38.1631 28.0555 41.7856 28.0555C45.3031 28.0555 47.4461 25.6633 52.51 25.6633C56.3425 25.6633 60.3994 27.7375 63.2917 31.3256C53.8177 36.4848 55.3594 49.9405 64.9335 53.5382Z" fill="white"/>
<path d="M48.668 21.6527C50.5103 19.3033 51.9087 15.9809 51.398 12.592C48.3912 12.7961 44.8736 14.6994 42.8166 17.1817C40.9504 19.4362 39.4136 22.7728 40.0102 26.0193C43.2986 26.1237 46.6968 24.173 48.668 21.6527Z" fill="white"/>
<path d="M85.1078 32.5549L75.6196 60.3207H79.9628L82.793 51.7963H91.9758L94.8872 60.3207H99.3498L89.8233 32.5549H85.1078ZM87.3558 37.1209C87.6756 38.3596 88.024 39.6459 88.4679 41.0365L91.0261 48.398H83.7524L86.2724 40.9891C86.6542 39.7883 87.0169 38.4925 87.3558 37.1209Z" fill="white"/>
<path d="M111.63 39.7549C108.752 39.7549 106.447 40.8608 104.915 42.9586L104.748 40.1963H100.882L100.906 40.5475C101.02 42.2657 101.068 44.1642 101.068 46.879V68.28H105.292V58.2939C106.604 59.8554 108.695 60.7619 111.067 60.7619C113.534 60.7619 115.811 59.7984 117.467 58.0565C119.319 56.1106 120.293 53.315 120.293 49.9736C120.293 47.0214 119.443 44.4679 117.839 42.5932C116.269 40.7658 114.064 39.7549 111.63 39.7549ZM110.58 43.2339C114.346 43.2339 116.031 46.7034 116.031 50.1397C116.031 54.5728 113.878 57.3304 110.418 57.3304C108.055 57.3304 106.012 55.7309 105.44 53.4337C105.34 53.0777 105.292 52.6078 105.292 52.0715V48.6921C105.292 48.3884 105.359 48.0134 105.425 47.6574C105.445 47.5435 105.468 47.4296 105.487 47.3157C106.117 44.9093 108.208 43.2339 110.58 43.2339Z" fill="white"/>
<path d="M133.384 39.7549C130.506 39.7549 128.201 40.8608 126.669 42.9586L126.502 40.1963H122.641L122.66 40.5475C122.775 42.2704 122.822 44.1642 122.822 46.879V68.28H127.046V58.2939C128.359 59.8554 130.449 60.7619 132.821 60.7619C135.289 60.7619 137.565 59.7984 139.226 58.0565C141.073 56.1106 142.052 53.315 142.052 49.9736C142.052 47.0214 141.202 44.4679 139.594 42.5932C138.024 40.7658 135.818 39.7549 133.384 39.7549ZM132.334 43.2339C136.1 43.2339 137.785 46.7034 137.785 50.1397C137.785 54.5728 135.632 57.3304 132.172 57.3304C129.81 57.3304 127.762 55.7309 127.194 53.4337C127.094 53.0777 127.046 52.6078 127.046 52.0715V48.6921C127.046 48.3836 127.113 48.0134 127.18 47.6527C127.199 47.5388 127.223 47.4249 127.242 47.3157C127.872 44.9093 129.962 43.2339 132.334 43.2339Z" fill="white"/>
<path d="M160.642 44.321C156.699 42.8021 155.435 41.6108 155.435 39.4038C155.435 37.548 156.919 35.6732 160.236 35.6732C162.971 35.6732 164.722 36.6177 165.195 36.912L165.553 37.1303L166.746 33.6228L166.512 33.4852C165.806 33.0723 163.787 32.1135 160.36 32.1135C154.972 32.1135 151.211 35.2745 151.211 39.8025C151.211 43.4524 153.568 46.0059 158.628 47.8332C162.212 49.1669 163.548 50.5291 163.548 52.869C163.548 55.5174 161.491 57.1596 158.179 57.1596C156.022 57.1596 153.802 56.5331 152.089 55.4415L151.721 55.2089L150.585 58.7971L150.795 58.9347C152.39 59.9932 155.392 60.7621 157.935 60.7621C165.195 60.7621 167.772 56.3575 167.772 52.589C167.767 48.7065 165.701 46.3096 160.642 44.321Z" fill="white"/>
<path d="M175.37 35.4121L171.228 36.7078V40.1964H168.192V43.552H171.228V53.8372C171.228 56.3242 171.705 58.0661 172.688 59.1672C173.633 60.1972 175.084 60.762 176.774 60.762C178.372 60.762 179.504 60.4487 180.038 60.2589L180.277 60.1734L180.076 56.8083L179.671 56.9317C179.136 57.0931 178.587 57.1596 177.704 57.1596C176.067 57.1596 175.37 56.1296 175.37 53.7138V43.5567H180.468V40.2011H175.37V35.4121Z" fill="white"/>
<path d="M190.934 39.7549C185.026 39.7549 180.897 44.1404 180.897 50.4198C180.897 56.5093 184.892 60.7667 190.615 60.7667H190.653C195.488 60.7667 200.69 57.4158 200.69 50.0591C200.69 47.0689 199.759 44.5012 197.998 42.6264C196.227 40.7516 193.784 39.7549 190.934 39.7549ZM190.815 43.0725C194.614 43.0725 196.347 46.7556 196.347 50.1825C196.347 54.3924 193.984 57.449 190.734 57.449H190.691C187.488 57.449 185.159 54.4446 185.159 50.3011C185.164 46.7034 186.911 43.0725 190.815 43.0725Z" fill="white"/>
<path d="M213.629 39.9495L213.376 39.8878C213.004 39.7976 212.698 39.7549 212.326 39.7549C210.116 39.7549 208.131 41.0506 207.028 43.139L206.904 40.201H203.115L203.138 40.5523C203.253 42.2135 203.296 44.0835 203.296 46.6038L203.258 60.33H207.482V49.6224C207.482 49.0386 207.52 48.488 207.596 47.9944C208.073 45.4219 209.815 43.7607 212.04 43.7607C212.474 43.7607 212.813 43.794 213.176 43.8319L213.629 43.8794V39.9495Z" fill="white"/>
<path d="M223.127 39.717C217.504 39.717 213.576 44.1833 213.576 50.586C213.576 56.7467 217.485 60.7288 223.532 60.7288C226.711 60.7288 228.926 60.0359 230.219 59.4521L230.472 59.3382L229.661 56.2056L229.307 56.348C228.157 56.8131 226.625 57.2878 224.014 57.2878C222.177 57.2878 217.948 56.685 217.686 51.1983L231.322 51.241L231.379 50.9705C231.465 50.5433 231.508 49.969 231.508 49.2191C231.508 44.8335 229.312 39.717 223.127 39.717ZM222.845 42.9113C224.134 42.9113 225.174 43.3052 225.947 44.0884C227.164 45.3176 227.374 47.1307 227.403 47.9993H217.767C218.163 45.5739 219.686 42.9113 222.845 42.9113Z" fill="white"/>
<path d="M75.6196 13.5889C76.7985 13.4323 78.1683 13.3184 79.6717 13.3184C82.397 13.3184 84.3347 13.8642 85.6186 14.9368C86.9454 16.0095 87.7091 17.5473 87.7091 19.6736C87.7091 21.8189 86.9454 23.5703 85.5947 24.7806C84.2011 26.0099 81.934 26.6744 79.0799 26.6744C77.7053 26.6744 76.5981 26.6364 75.6149 26.5178V13.5889H75.6196ZM77.5383 25.2315C78.0156 25.3075 78.7124 25.3075 79.4569 25.3075C83.509 25.3264 85.7093 23.2808 85.7093 19.7306C85.7331 16.5933 83.7715 14.6616 79.7624 14.6616C78.784 14.6616 78.0394 14.7422 77.5383 14.8372V25.2315Z" fill="white"/>
<path d="M94.5054 26.7691C91.6704 26.7691 89.451 24.8991 89.451 21.9137C89.451 18.7527 91.7802 16.9016 94.6772 16.9016C97.7079 16.9016 99.7554 18.8713 99.7554 21.7381C99.7554 25.2456 97.0302 26.7691 94.5293 26.7691H94.5054ZM94.5722 25.4829C96.4002 25.4829 97.7748 23.9403 97.7748 21.7998C97.7748 20.2003 96.8822 18.1926 94.6152 18.1926C92.372 18.1926 91.3888 20.0626 91.3888 21.8567C91.3888 23.9214 92.6965 25.4829 94.5484 25.4829H94.5722Z" fill="white"/>
<path d="M102.791 17.1199L104.209 21.8994C104.49 22.9531 104.777 23.945 104.972 24.9228H105.039C105.278 23.9688 105.626 22.9531 105.974 21.9184L107.697 17.1199H109.311L110.943 21.8377C111.334 22.9483 111.64 23.964 111.878 24.918H111.945C112.122 23.964 112.403 22.9673 112.752 21.8567L114.255 17.1199H116.15L112.752 26.5555H111.01L109.397 22.0513C109.024 20.9786 108.719 20.0436 108.461 18.933H108.418C108.156 20.0626 107.831 21.0593 107.459 22.0702L105.76 26.5555H104.018L100.834 17.1199H102.791Z" fill="white"/>
<path d="M118.064 19.6736C118.064 18.6769 118.04 17.8985 117.978 17.1201H119.677L119.787 18.6626H119.83C120.355 17.7846 121.572 16.9065 123.314 16.9065C124.774 16.9065 127.041 17.6849 127.041 20.9218V26.5557H125.127V21.1164C125.127 19.5976 124.493 18.3114 122.689 18.3114C121.448 18.3114 120.464 19.1088 120.116 20.0675C120.03 20.2811 119.987 20.5944 119.987 20.8649V26.5604H118.069V19.6736H118.064Z" fill="white"/>
<path d="M130.153 12.7107H132.072V26.5556H130.153V12.7107Z" fill="white"/>
<path d="M139.546 26.7691C136.716 26.7691 134.492 24.8991 134.492 21.9137C134.492 18.7527 136.821 16.9016 139.723 16.9016C142.749 16.9016 144.796 18.8713 144.796 21.7381C144.796 25.2456 142.071 26.7691 139.565 26.7691H139.546ZM139.613 25.4829C141.441 25.4829 142.815 23.9403 142.815 21.7998C142.815 20.2003 141.923 18.1926 139.656 18.1926C137.413 18.1926 136.43 20.0626 136.43 21.8567C136.43 23.9214 137.737 25.4829 139.589 25.4829H139.613Z" fill="white"/>
<path d="M154.647 24.2917C154.647 25.1081 154.69 25.9102 154.8 26.5509H153.077L152.9 25.3644H152.838C152.27 26.1048 151.115 26.7693 149.612 26.7693C147.478 26.7693 146.385 25.4261 146.385 24.0591C146.385 21.7762 148.653 20.5279 152.724 20.5516V20.357C152.724 19.5786 152.485 18.1548 150.328 18.1738C149.326 18.1738 148.299 18.4253 147.56 18.8762L147.125 17.7276C147.999 17.2387 149.283 16.9065 150.609 16.9065C153.855 16.9065 154.638 18.8762 154.638 20.7652V24.2917H154.647ZM152.771 21.7382C150.681 21.7002 148.304 22.0325 148.304 23.8645C148.304 24.9942 149.13 25.502 150.089 25.502C151.483 25.502 152.375 24.7236 152.681 23.9215C152.748 23.7459 152.767 23.5513 152.767 23.3757V21.7382H152.771Z" fill="white"/>
<path d="M166.822 12.7107V24.116C166.822 24.9561 166.846 25.9101 166.908 26.5556H165.185L165.099 24.9181H165.056C164.469 25.9718 163.205 26.7692 161.482 26.7692C158.933 26.7692 156.948 24.8374 156.948 21.9707C156.924 18.8097 159.129 16.9017 161.677 16.9017C163.314 16.9017 164.403 17.5851 164.861 18.3255H164.904V12.7107H166.822ZM164.909 20.9597C164.909 20.7272 164.889 20.4519 164.823 20.2193C164.541 19.1466 163.496 18.2496 162.054 18.2496C160.074 18.2496 158.895 19.8111 158.895 21.8758C158.895 23.8075 159.964 25.3833 162.011 25.3833C163.295 25.3833 164.474 24.6049 164.823 23.3376C164.889 23.105 164.909 22.8677 164.909 22.5972V20.9597Z" fill="white"/>
<path d="M178.917 26.7691C176.086 26.7691 173.862 24.8991 173.862 21.9137C173.862 18.7527 176.196 16.9016 179.093 16.9016C182.124 16.9016 184.171 18.8713 184.171 21.7381C184.171 25.2456 181.446 26.7691 178.945 26.7691H178.917ZM178.983 25.4829C180.811 25.4829 182.186 23.9403 182.186 21.7998C182.186 20.2003 181.293 18.1926 179.026 18.1926C176.783 18.1926 175.8 20.0626 175.8 21.8567C175.8 23.9214 177.108 25.4829 178.96 25.4829H178.983Z" fill="white"/>
<path d="M186.586 19.6736C186.586 18.6769 186.563 17.8985 186.501 17.1201H188.2L188.309 18.6626H188.352C188.877 17.7846 190.094 16.9065 191.837 16.9065C193.297 16.9065 195.564 17.6849 195.564 20.9218V26.5557H193.645V21.1164C193.645 19.5976 193.015 18.3114 191.206 18.3114C189.966 18.3114 188.982 19.1088 188.634 20.0675C188.548 20.2811 188.505 20.5944 188.505 20.8649V26.5604H186.586V19.6736Z" fill="white"/>
<path d="M205.606 14.856V17.1152H208.35V18.4204H205.606V23.5084C205.606 24.676 205.978 25.3405 207.042 25.3405C207.563 25.3405 207.868 25.3025 208.154 25.2218L208.24 26.5271C207.868 26.6457 207.281 26.7596 206.541 26.7596C205.649 26.7596 204.928 26.4843 204.47 26.0382C203.945 25.5114 203.73 24.6713 203.73 23.5606V18.4252H202.098V17.1199H203.73V15.3828L205.606 14.856Z" fill="white"/>
<path d="M210.507 12.7107H212.426V18.6008H212.469C212.775 18.112 213.252 17.6658 213.844 17.3905C214.412 17.0773 215.085 16.9017 215.805 16.9017C217.218 16.9017 219.485 17.68 219.485 20.936V26.5508H217.566V21.1353C217.566 19.5928 216.936 18.3255 215.128 18.3255C213.887 18.3255 212.927 19.1039 212.555 20.0437C212.445 20.2763 212.421 20.5326 212.421 20.8648V26.5603H210.503V12.7107H210.507Z" fill="white"/>
<path d="M223.69 22.1272C223.733 24.4481 225.37 25.4021 227.284 25.4021C228.658 25.4021 229.508 25.1886 230.205 24.9323L230.553 26.1426C229.875 26.4178 228.701 26.7453 227.021 26.7453C223.795 26.7453 221.833 24.8136 221.833 21.9896C221.833 19.1228 223.728 16.8826 226.802 16.8826C230.243 16.8826 231.135 19.5927 231.135 21.3298C231.135 21.6811 231.116 21.9516 231.073 22.1462L223.69 22.1272ZM229.293 20.9027C229.312 19.83 228.792 18.1119 226.654 18.1119C224.692 18.1119 223.867 19.7114 223.714 20.9027H229.293Z" fill="white"/>
</svg>
