<svg width="136" height="40" viewBox="0 0 136 40" fill="none" xmlns="http://www.w3.org/2000/svg">
<g clip-path="url(#clip0)">
<path d="M130.261 40H5.26074C2.51074 40 0.260742 37.75 0.260742 35V5C0.260742 2.25 2.51074 0 5.26074 0H130.261C133.011 0 135.261 2.25 135.261 5V35C135.261 37.75 133.011 40 130.261 40Z" fill="black"/>
<path d="M130.261 0.8C132.581 0.8 134.461 2.68 134.461 5V35C134.461 37.32 132.581 39.2 130.261 39.2H5.26074C2.94074 39.2 1.06074 37.32 1.06074 35V5C1.06074 2.68 2.94074 0.8 5.26074 0.8H130.261ZM130.261 0H5.26074C2.51074 0 0.260742 2.25 0.260742 5V35C0.260742 37.75 2.51074 40 5.26074 40H130.261C133.011 40 135.261 37.75 135.261 35V5C135.261 2.25 133.011 0 130.261 0Z" fill="#A6A6A6"/>
<path d="M68.4008 21.75C66.0508 21.75 64.1308 23.54 64.1308 26C64.1308 28.45 66.0508 30.25 68.4008 30.25C70.7508 30.25 72.6708 28.45 72.6708 26C72.6708 23.54 70.7508 21.75 68.4008 21.75ZM68.4008 28.58C67.1108 28.58 66.0008 27.52 66.0008 26C66.0008 24.47 67.1108 23.42 68.4008 23.42C69.6908 23.42 70.8008 24.47 70.8008 26C70.8008 27.52 69.6808 28.58 68.4008 28.58ZM59.0808 21.75C56.7308 21.75 54.8108 23.54 54.8108 26C54.8108 28.45 56.7308 30.25 59.0808 30.25C61.4308 30.25 63.3508 28.45 63.3508 26C63.3508 23.54 61.4308 21.75 59.0808 21.75ZM59.0808 28.58C57.7908 28.58 56.6808 27.52 56.6808 26C56.6808 24.47 57.7908 23.42 59.0808 23.42C60.3708 23.42 61.4808 24.47 61.4808 26C61.4808 27.52 60.3708 28.58 59.0808 28.58ZM48.0008 23.06V24.86H52.3208C52.1908 25.87 51.8508 26.62 51.3408 27.13C50.7108 27.76 49.7308 28.45 48.0108 28.45C45.3508 28.45 43.2708 26.31 43.2708 23.65C43.2708 20.99 45.3508 18.85 48.0108 18.85C49.4408 18.85 50.4908 19.41 51.2608 20.14L52.5308 18.87C51.4508 17.84 50.0208 17.05 48.0008 17.05C44.3608 17.05 41.3008 20.01 41.3008 23.66C41.3008 27.3 44.3608 30.27 48.0008 30.27C49.9708 30.27 51.4508 29.63 52.6108 28.42C53.8008 27.23 54.1708 25.55 54.1708 24.2C54.1708 23.78 54.1408 23.39 54.0708 23.07H48.0008V23.06ZM93.3108 24.46C92.9608 23.51 91.8808 21.75 89.6708 21.75C87.4808 21.75 85.6608 23.47 85.6608 26C85.6608 28.38 87.4608 30.25 89.8808 30.25C91.8308 30.25 92.9608 29.06 93.4208 28.37L91.9708 27.4C91.4908 28.11 90.8308 28.58 89.8808 28.58C88.9308 28.58 88.2508 28.14 87.8208 27.29L93.5108 24.94L93.3108 24.46ZM87.5108 25.88C87.4608 24.24 88.7808 23.4 89.7308 23.4C90.4708 23.4 91.1008 23.77 91.3108 24.3L87.5108 25.88ZM82.8908 30H84.7608V17.5H82.8908V30ZM79.8308 22.7H79.7608C79.3408 22.2 78.5408 21.75 77.5208 21.75C75.3908 21.75 73.4408 23.62 73.4408 26.02C73.4408 28.4 75.3908 30.26 77.5208 30.26C78.5308 30.26 79.3408 29.81 79.7608 29.29H79.8208V29.9C79.8208 31.53 78.9508 32.4 77.5508 32.4C76.4108 32.4 75.7008 31.58 75.4108 30.89L73.7808 31.57C74.2508 32.7 75.4908 34.08 77.5508 34.08C79.7408 34.08 81.5908 32.79 81.5908 29.65V22.01H79.8208V22.7H79.8308ZM77.6808 28.58C76.3908 28.58 75.3108 27.5 75.3108 26.02C75.3108 24.52 76.3908 23.43 77.6808 23.43C78.9508 23.43 79.9508 24.53 79.9508 26.02C79.9608 27.5 78.9608 28.58 77.6808 28.58ZM102.071 17.5H97.6008V30H99.4708V25.26H102.081C104.151 25.26 106.181 23.76 106.181 21.38C106.181 19 104.131 17.5 102.071 17.5ZM102.111 23.52H99.4608V19.23H102.111C103.511 19.23 104.301 20.39 104.301 21.37C104.301 22.35 103.511 23.52 102.111 23.52ZM113.651 21.73C112.301 21.73 110.901 22.33 110.321 23.64L111.981 24.33C112.331 23.64 112.991 23.41 113.681 23.41C114.641 23.41 115.631 23.99 115.641 25.02V25.15C115.301 24.96 114.581 24.67 113.691 24.67C111.901 24.67 110.091 25.65 110.091 27.48C110.091 29.15 111.551 30.23 113.191 30.23C114.441 30.23 115.141 29.67 115.571 29.01H115.631V29.98H117.431V25.19C117.441 22.97 115.781 21.73 113.651 21.73ZM113.421 28.58C112.811 28.58 111.961 28.27 111.961 27.52C111.961 26.56 113.021 26.19 113.941 26.19C114.761 26.19 115.151 26.37 115.641 26.61C115.501 27.76 114.501 28.58 113.421 28.58ZM124.001 22L121.861 27.42H121.801L119.581 22H117.571L120.901 29.58L119.001 33.79H120.951L126.081 22H124.001ZM107.201 30H109.071V17.5H107.201V30Z" fill="white"/>
<path d="M10.7012 7.54C10.4112 7.85 10.2412 8.33 10.2412 8.94V31.06C10.2412 31.68 10.4112 32.16 10.7012 32.46L10.7712 32.53L23.1612 20.15V20V19.85L10.7712 7.47L10.7012 7.54Z" fill="url(#paint0_linear)"/>
<path d="M27.2911 24.28L23.1611 20.15V20V19.85L27.2911 15.72L27.3811 15.77L32.2711 18.55C33.6711 19.34 33.6711 20.64 32.2711 21.44L27.3811 24.22L27.2911 24.28Z" fill="url(#paint1_linear)"/>
<path d="M27.3812 24.22L23.1612 20L10.7012 32.46C11.1612 32.95 11.9212 33.01 12.7812 32.52L27.3812 24.22Z" fill="url(#paint2_linear)"/>
<path d="M27.3804 15.78L12.7704 7.47999C11.9104 6.98999 11.1504 7.04999 10.6904 7.53999L23.1604 20L27.3804 15.78Z" fill="url(#paint3_linear)"/>
<path opacity="0.2" d="M27.2912 24.13L12.7712 32.38C11.9612 32.84 11.2312 32.81 10.7712 32.39L10.7012 32.46L10.7712 32.53C11.2412 32.95 11.9612 32.98 12.7712 32.52L27.3812 24.22L27.2912 24.13Z" fill="black"/>
<path opacity="0.12" d="M10.7012 32.32C10.4112 32.01 10.2412 31.53 10.2412 30.92V31.07C10.2412 31.69 10.4112 32.17 10.7012 32.47L10.7712 32.4L10.7012 32.32Z" fill="black"/>
<path opacity="0.12" d="M32.2703 21.3L27.2803 24.13L27.3703 24.22L32.2603 21.44C32.9603 21.04 33.3103 20.52 33.3103 20C33.2603 20.47 32.9103 20.94 32.2703 21.3Z" fill="black"/>
<path opacity="0.25" d="M12.7705 7.62L32.2705 18.7C32.9005 19.06 33.2605 19.52 33.3205 20C33.3205 19.48 32.9705 18.95 32.2705 18.56L12.7705 7.48C11.3705 6.69 10.2305 7.35 10.2305 8.95V9.1C10.2305 7.49 11.3805 6.83 12.7705 7.62Z" fill="white"/>
<path fill-rule="evenodd" clip-rule="evenodd" d="M51.3412 13.1304C50.9012 13.1304 50.4812 12.9904 50.0612 12.7004C49.6412 12.4104 49.3712 12.0204 49.2412 11.5004L49.9412 11.2204C50.0212 11.5504 50.1912 11.8304 50.4512 12.0504C50.7112 12.2804 51.0012 12.3904 51.3312 12.3904C51.6612 12.3904 51.9512 12.3004 52.1912 12.1304C52.4312 11.9504 52.5512 11.7204 52.5512 11.4104C52.5512 11.0804 52.4312 10.8204 52.1912 10.6404C51.9512 10.4604 51.5812 10.2904 51.0612 10.1304C50.5312 9.96035 50.1312 9.75035 49.8512 9.48035C49.5812 9.21035 49.4412 8.88035 49.4412 8.46035C49.4412 8.03035 49.6112 7.66035 49.9512 7.34035C50.2912 7.02035 50.7412 6.86035 51.2812 6.86035C51.7912 6.86035 52.2012 6.99035 52.5212 7.24035C52.8412 7.49035 53.0512 7.77035 53.1412 8.07035L52.4412 8.36035C52.3912 8.17035 52.2712 7.99035 52.0712 7.83035C51.8712 7.67035 51.6212 7.59035 51.3012 7.59035C51.0012 7.59035 50.7512 7.67035 50.5412 7.84035C50.3312 8.01035 50.2312 8.21035 50.2312 8.46035C50.2312 8.68035 50.3312 8.87035 50.5212 9.03035C50.7112 9.18035 51.0012 9.32035 51.3712 9.44035C51.6712 9.54035 51.9112 9.63035 52.1112 9.72035C52.3112 9.81035 52.5112 9.93035 52.7112 10.0804C52.9112 10.2304 53.0712 10.4104 53.1712 10.6304C53.2712 10.8504 53.3312 11.1104 53.3312 11.4004C53.3312 11.6904 53.2712 11.9504 53.1512 12.1804C53.0312 12.4104 52.8712 12.5904 52.6712 12.7204C52.4712 12.8504 52.2612 12.9604 52.0312 13.0304C51.8112 13.1004 51.5812 13.1304 51.3412 13.1304ZM41.541 7V13H43.381C44.301 13 45.031 12.72 45.581 12.17C46.131 11.61 46.411 10.89 46.411 10C46.411 9.11 46.131 8.39 45.581 7.83C45.031 7.28 44.291 7 43.371 7H41.541ZM43.371 12.26H42.311V7.73H43.371C44.071 7.73 44.611 7.93 45.021 8.33C45.431 8.73 45.631 9.28 45.631 9.99C45.631 10.71 45.431 11.26 45.021 11.66C44.611 12.06 44.061 12.26 43.371 12.26ZM48.2715 7H47.5015V13H48.2715V7ZM54.4512 13H55.2212V10.58H56.4912C57.0012 10.58 57.4412 10.41 57.8112 10.07C58.1812 9.73 58.3712 9.3 58.3712 8.79C58.3712 8.27 58.1812 7.85 57.8112 7.51C57.4412 7.17 57.0012 7 56.4912 7H54.4512V13ZM56.5112 9.83H55.2212V7.73H56.5112C56.8312 7.73 57.0912 7.84 57.2912 8.06C57.4812 8.28 57.5812 8.52 57.5812 8.78C57.5812 9.04 57.4912 9.28 57.2912 9.5C57.0912 9.72 56.8312 9.83 56.5112 9.83ZM64.2514 12.2201C63.6614 12.8301 62.9314 13.1301 62.0514 13.1301C61.1714 13.1301 60.4414 12.8301 59.8514 12.2201C59.2614 11.6201 58.9614 10.8801 58.9614 10.0001C58.9614 9.12012 59.2514 8.38012 59.8414 7.78012C60.4314 7.17012 61.1614 6.87012 62.0414 6.87012C62.9114 6.87012 63.6414 7.17012 64.2414 7.78012C64.8314 8.39012 65.1314 9.13012 65.1314 10.0001C65.1314 10.8801 64.8314 11.6201 64.2514 12.2201ZM60.4214 11.7201C60.8614 12.1701 61.4114 12.3901 62.0514 12.3901C62.6914 12.3901 63.2414 12.1701 63.6814 11.7201C64.1214 11.2701 64.3514 10.7001 64.3514 10.0001C64.3514 9.30012 64.1314 8.73012 63.6814 8.28012C63.2414 7.83012 62.6914 7.61012 62.0514 7.61012C61.4114 7.61012 60.8614 7.83012 60.4214 8.28012C59.9814 8.73012 59.7514 9.30012 59.7514 10.0001C59.7514 10.7001 59.9714 11.2701 60.4214 11.7201ZM67.1514 7H66.2114V13H66.9914V9.27L66.9614 8.11H66.9914L70.0414 13H70.8414V7H70.0714V10.51L70.1014 11.67H70.0714L67.1514 7ZM72.2114 7H72.9814V13H72.2114V7ZM76.5313 7H74.3613V13H76.6413C77.1413 13 77.5613 12.84 77.9413 12.5C78.3013 12.18 78.4813 11.77 78.4813 11.28C78.4813 10.95 78.3813 10.67 78.1913 10.42C78.0013 10.17 77.7613 10 77.4613 9.9V9.87C77.7113 9.76 77.9013 9.6 78.0513 9.38C78.2013 9.17 78.2713 8.92 78.2713 8.63C78.2713 8.16 78.0913 7.77 77.7513 7.46C77.4113 7.16 77.0013 7 76.5313 7ZM76.5313 9.57H75.1313V7.73H76.5613C76.8413 7.73 77.0613 7.83 77.2313 8.02C77.4113 8.21 77.4913 8.42 77.4913 8.65C77.4913 8.88 77.4113 9.09 77.2313 9.28C77.0513 9.47 76.8213 9.57 76.5313 9.57ZM76.6813 12.26H75.1313H75.1213V10.29H76.6413C76.9513 10.29 77.2013 10.4 77.3913 10.6C77.5913 10.8 77.6813 11.02 77.6813 11.27C77.6813 11.52 77.5813 11.74 77.4013 11.95C77.2213 12.16 76.9813 12.26 76.6813 12.26ZM79.5015 7H80.2715V12.26H82.8715V13H79.5015V7ZM84.6113 7.74H87.3413V7H83.8413V13H87.3413V12.26H84.6113V10.36H87.0713V9.64H84.6113V7.74ZM94.0713 7.74H91.3413V9.64H93.8013V10.36H91.3413V12.26H94.0713V13H90.5713V7H94.0713V7.74ZM96.211 7H95.271V13H96.051V9.27L96.021 8.11H96.051L99.101 13H99.901V7H99.131V10.51L99.161 11.67H99.131L96.211 7Z" fill="white"/>
<path d="M49.2412 11.5004L49.2041 11.4075L49.123 11.4399L49.1442 11.5246L49.2412 11.5004ZM49.9412 11.2204L50.0384 11.1968L50.0112 11.0846L49.9041 11.1275L49.9412 11.2204ZM50.4512 12.0504L50.5175 11.9754L50.5158 11.974L50.4512 12.0504ZM52.1912 12.1304L52.249 12.212L52.2512 12.2104L52.1912 12.1304ZM51.0612 10.1304L51.0307 10.2256L51.0318 10.2259L51.0612 10.1304ZM49.8512 9.48035L49.7805 9.55107L49.7818 9.55233L49.8512 9.48035ZM53.1412 8.07035L53.1795 8.16274L53.263 8.12816L53.237 8.04162L53.1412 8.07035ZM52.4412 8.36035L52.3445 8.3858L52.3737 8.49658L52.4795 8.45274L52.4412 8.36035ZM50.5412 7.84035L50.6041 7.91808L50.5412 7.84035ZM50.5212 9.03035L50.4568 9.10688L50.4592 9.10884L50.5212 9.03035ZM51.3712 9.44035L51.4028 9.34548L51.4021 9.34523L51.3712 9.44035ZM52.0312 13.0304L52.0021 12.9347L52.0009 12.9351L52.0312 13.0304ZM41.541 13H41.441V13.1H41.541V13ZM41.541 7V6.9H41.441V7H41.541ZM45.581 12.17L45.6517 12.2407L45.6524 12.2401L45.581 12.17ZM45.581 7.83L45.6524 7.75993L45.6517 7.75929L45.581 7.83ZM42.311 12.26H42.211V12.36H42.311V12.26ZM42.311 7.73V7.63H42.211V7.73H42.311ZM47.5015 7V6.9H47.4015V7H47.5015ZM48.2715 7H48.3715V6.9H48.2715V7ZM47.5015 13H47.4015V13.1H47.5015V13ZM48.2715 13V13.1H48.3715V13H48.2715ZM55.2212 13V13.1H55.3212V13H55.2212ZM54.4512 13H54.3512V13.1H54.4512V13ZM55.2212 10.58V10.48H55.1212V10.58H55.2212ZM57.8112 10.07L57.7435 9.99637V9.99637L57.8112 10.07ZM57.8112 7.51L57.7435 7.58363V7.58363L57.8112 7.51ZM54.4512 7V6.9H54.3512V7H54.4512ZM55.2212 9.83H55.1212V9.93H55.2212V9.83ZM55.2212 7.73V7.63H55.1212V7.73H55.2212ZM57.2912 8.06L57.3669 7.99462L57.3652 7.99273L57.2912 8.06ZM64.2514 12.2201L64.3233 12.2896L64.3233 12.2896L64.2514 12.2201ZM59.8514 12.2201L59.9233 12.1506L59.9227 12.15L59.8514 12.2201ZM59.8414 7.78012L59.9127 7.85023L59.9133 7.84964L59.8414 7.78012ZM64.2414 7.78012L64.3133 7.71059L64.3127 7.70999L64.2414 7.78012ZM60.4214 11.7201L60.4929 11.6502L60.4921 11.6494L60.4214 11.7201ZM63.6814 8.28012L63.6099 8.35003L63.6107 8.35083L63.6814 8.28012ZM60.4214 8.28012L60.3499 8.21021L60.4214 8.28012ZM66.2114 7V6.9H66.1114V7H66.2114ZM67.1514 7L67.2362 6.94698L67.2068 6.9H67.1514V7ZM66.2114 13H66.1114V13.1H66.2114V13ZM66.9914 13V13.1H67.0914V13H66.9914ZM66.9914 9.27H67.0915L67.0914 9.26741L66.9914 9.27ZM66.9614 8.11V8.01H66.8588L66.8615 8.11259L66.9614 8.11ZM66.9914 8.11L67.0763 8.05708L67.0469 8.01H66.9914V8.11ZM70.0414 13L69.9566 13.0529L69.9859 13.1H70.0414V13ZM70.8414 13V13.1H70.9414V13H70.8414ZM70.8414 7H70.9414V6.9H70.8414V7ZM70.0714 7V6.9H69.9714V7H70.0714ZM70.0714 10.51H69.9714L69.9715 10.5126L70.0714 10.51ZM70.1014 11.67V11.77H70.204L70.2014 11.6674L70.1014 11.67ZM70.0714 11.67L69.9866 11.723L70.016 11.77H70.0714V11.67ZM72.9814 7H73.0814V6.9H72.9814V7ZM72.2114 7V6.9H72.1114V7H72.2114ZM72.9814 13V13.1H73.0814V13H72.9814ZM72.2114 13H72.1114V13.1H72.2114V13ZM74.3613 7V6.9H74.2613V7H74.3613ZM74.3613 13H74.2613V13.1H74.3613V13ZM77.9413 12.5L77.8749 12.4253L77.8746 12.4255L77.9413 12.5ZM77.4613 9.9H77.3613V9.97208L77.4297 9.99487L77.4613 9.9ZM77.4613 9.87L77.4211 9.77847L77.3613 9.80475V9.87H77.4613ZM78.0513 9.38L77.9699 9.32186L77.9687 9.32367L78.0513 9.38ZM77.7513 7.46L77.8187 7.38609L77.8175 7.38502L77.7513 7.46ZM75.1313 9.57H75.0313V9.67H75.1313V9.57ZM75.1313 7.73V7.63H75.0313V7.73H75.1313ZM77.2313 8.02L77.1568 8.08671L77.1587 8.08877L77.2313 8.02ZM75.1213 12.26H75.0213V12.36H75.1213V12.26ZM75.1213 10.29V10.19H75.0213V10.29H75.1213ZM77.3913 10.6L77.3188 10.6689L77.3206 10.6707L77.3913 10.6ZM80.2715 7H80.3715V6.9H80.2715V7ZM79.5015 7V6.9H79.4015V7H79.5015ZM80.2715 12.26H80.1715V12.36H80.2715V12.26ZM82.8715 12.26H82.9715V12.16H82.8715V12.26ZM82.8715 13V13.1H82.9715V13H82.8715ZM79.5015 13H79.4015V13.1H79.5015V13ZM87.3413 7.74V7.84H87.4413V7.74H87.3413ZM84.6113 7.74V7.64H84.5113V7.74H84.6113ZM87.3413 7H87.4413V6.9H87.3413V7ZM83.8413 7V6.9H83.7413V7H83.8413ZM83.8413 13H83.7413V13.1H83.8413V13ZM87.3413 13V13.1H87.4413V13H87.3413ZM87.3413 12.26H87.4413V12.16H87.3413V12.26ZM84.6113 12.26H84.5113V12.36H84.6113V12.26ZM84.6113 10.36V10.26H84.5113V10.36H84.6113ZM87.0713 10.36V10.46H87.1713V10.36H87.0713ZM87.0713 9.64H87.1713V9.54H87.0713V9.64ZM84.6113 9.64H84.5113V9.74H84.6113V9.64ZM91.3413 7.74V7.64H91.2413V7.74H91.3413ZM94.0713 7.74V7.84H94.1713V7.74H94.0713ZM91.3413 9.64H91.2413V9.74H91.3413V9.64ZM93.8013 9.64H93.9013V9.54H93.8013V9.64ZM93.8013 10.36V10.46H93.9013V10.36H93.8013ZM91.3413 10.36V10.26H91.2413V10.36H91.3413ZM91.3413 12.26H91.2413V12.36H91.3413V12.26ZM94.0713 12.26H94.1713V12.16H94.0713V12.26ZM94.0713 13V13.1H94.1713V13H94.0713ZM90.5713 13H90.4713V13.1H90.5713V13ZM90.5713 7V6.9H90.4713V7H90.5713ZM94.0713 7H94.1713V6.9H94.0713V7ZM95.271 7V6.9H95.171V7H95.271ZM96.211 7L96.2958 6.94698L96.2664 6.9H96.211V7ZM95.271 13H95.171V13.1H95.271V13ZM96.051 13V13.1H96.151V13H96.051ZM96.051 9.27H96.151L96.151 9.26742L96.051 9.27ZM96.021 8.11V8.01H95.9184L95.921 8.11259L96.021 8.11ZM96.051 8.11L96.1358 8.05708L96.1065 8.01H96.051V8.11ZM99.101 13L99.0161 13.0529L99.0455 13.1H99.101V13ZM99.901 13V13.1H100.001V13H99.901ZM99.901 7H100.001V6.9H99.901V7ZM99.131 7V6.9H99.031V7H99.131ZM99.131 10.51H99.031L99.031 10.5126L99.131 10.51ZM99.161 11.67V11.77H99.2636L99.261 11.6674L99.161 11.67ZM99.131 11.67L99.0462 11.723L99.0756 11.77H99.131V11.67ZM50.0044 12.7826C50.4386 13.0824 50.878 13.2304 51.3412 13.2304V13.0304C50.9244 13.0304 50.5239 12.8983 50.118 12.6181L50.0044 12.7826ZM49.1442 11.5246C49.2799 12.0675 49.5638 12.4784 50.0044 12.7826L50.118 12.6181C49.7186 12.3423 49.4625 11.9732 49.3382 11.4761L49.1442 11.5246ZM49.9041 11.1275L49.2041 11.4075L49.2783 11.5932L49.9784 11.3132L49.9041 11.1275ZM50.5158 11.974C50.2724 11.768 50.1135 11.5067 50.0384 11.1968L49.844 11.2439C49.9289 11.594 50.1101 11.8927 50.3866 12.1267L50.5158 11.974ZM51.3312 12.2904C51.0263 12.2904 50.7597 12.1898 50.5175 11.9755L50.385 12.1252C50.6627 12.3709 50.9761 12.4904 51.3312 12.4904V12.2904ZM52.1334 12.0487C51.9117 12.2058 51.6423 12.2904 51.3312 12.2904V12.4904C51.6801 12.4904 51.9907 12.3949 52.249 12.212L52.1334 12.0487ZM52.4512 11.4104C52.4512 11.6883 52.3465 11.8889 52.1312 12.0504L52.2512 12.2104C52.5159 12.0118 52.6512 11.7525 52.6512 11.4104H52.4512ZM52.1312 10.7204C52.3428 10.8791 52.4512 11.1076 52.4512 11.4104H52.6512C52.6512 11.0531 52.5196 10.7616 52.2512 10.5604L52.1312 10.7204ZM51.0318 10.2259C51.5474 10.3846 51.9047 10.5505 52.1312 10.7204L52.2512 10.5604C51.9977 10.3702 51.615 10.1961 51.0906 10.0348L51.0318 10.2259ZM49.7818 9.55233C50.0771 9.83705 50.493 10.0531 51.0307 10.2256L51.0918 10.0351C50.5694 9.86758 50.1854 9.66365 49.9206 9.40837L49.7818 9.55233ZM49.3412 8.46035C49.3412 8.90603 49.4912 9.26172 49.7805 9.55106L49.9219 9.40964C49.6713 9.15898 49.5412 8.85467 49.5412 8.46035H49.3412ZM49.8827 7.26753C49.5248 7.60436 49.3412 7.9999 49.3412 8.46035H49.5412C49.5412 8.0608 49.6976 7.71634 50.0197 7.41317L49.8827 7.26753ZM51.2812 6.76035C50.7206 6.76035 50.2445 6.92702 49.8827 7.26753L50.0197 7.41317C50.338 7.11368 50.7618 6.96035 51.2812 6.96035V6.76035ZM52.5828 7.16155C52.2418 6.89518 51.8088 6.76035 51.2812 6.76035V6.96035C51.7736 6.96035 52.1606 7.08552 52.4596 7.31915L52.5828 7.16155ZM53.237 8.04162C53.1395 7.71647 52.9141 7.42039 52.5828 7.16155L52.4596 7.31915C52.7683 7.56032 52.963 7.82423 53.0454 8.09909L53.237 8.04162ZM52.4795 8.45274L53.1795 8.16274L53.1029 7.97797L52.4029 8.26797L52.4795 8.45274ZM52.0087 7.90844C52.1951 8.05752 52.3009 8.22013 52.3445 8.3858L52.5379 8.3349C52.4815 8.12057 52.3473 7.92318 52.1337 7.75226L52.0087 7.90844ZM51.3012 7.69035C51.6034 7.69035 51.83 7.76543 52.0087 7.90844L52.1337 7.75226C51.9124 7.57527 51.639 7.49035 51.3012 7.49035V7.69035ZM50.6041 7.91808C50.7937 7.76459 51.0205 7.69035 51.3012 7.69035V7.49035C50.9819 7.49035 50.7087 7.57611 50.4783 7.76263L50.6041 7.91808ZM50.3312 8.46035C50.3312 8.24321 50.4154 8.07084 50.6041 7.91808L50.4783 7.76263C50.247 7.94986 50.1312 8.17749 50.1312 8.46035H50.3312ZM50.5856 8.95386C50.4137 8.80905 50.3312 8.6454 50.3312 8.46035H50.1312C50.1312 8.7153 50.2488 8.93166 50.4568 9.10684L50.5856 8.95386ZM51.4021 9.34523C51.0374 9.22695 50.76 9.09144 50.5832 8.95186L50.4592 9.10884C50.6624 9.26926 50.965 9.41375 51.3404 9.53547L51.4021 9.34523ZM52.1522 9.62916C51.948 9.53723 51.7044 9.44602 51.4028 9.34548L51.3396 9.53522C51.638 9.63468 51.8745 9.72348 52.0702 9.81154L52.1522 9.62916ZM52.7712 10.0004C52.5661 9.84654 52.3598 9.72256 52.1522 9.62916L52.0702 9.81154C52.2626 9.89814 52.4563 10.0142 52.6512 10.1604L52.7712 10.0004ZM53.2622 10.589C53.1538 10.3505 52.9815 10.1581 52.7712 10.0004L52.6512 10.1604C52.8409 10.3026 52.9886 10.4702 53.0802 10.6717L53.2622 10.589ZM53.4312 11.4004C53.4312 11.0965 53.3683 10.8223 53.2622 10.589L53.0802 10.6717C53.1741 10.8784 53.2312 11.1242 53.2312 11.4004H53.4312ZM53.2399 12.2266C53.3682 11.9807 53.4312 11.7045 53.4312 11.4004H53.2312C53.2312 11.6762 53.1743 11.92 53.0626 12.1341L53.2399 12.2266ZM52.7257 12.8042C52.9414 12.664 53.1126 12.4705 53.2399 12.2266L53.0626 12.1341C52.9498 12.3502 52.801 12.5167 52.6167 12.6365L52.7257 12.8042ZM52.0603 13.126C52.302 13.0525 52.5207 12.9375 52.7257 12.8042L52.6167 12.6365C52.4218 12.7632 52.2204 12.8682 52.0021 12.9347L52.0603 13.126ZM51.3412 13.2304C51.5896 13.2304 51.83 13.1993 52.0615 13.1256L52.0009 12.9351C51.7924 13.0014 51.5728 13.0304 51.3412 13.0304V13.2304ZM41.641 13V7H41.441V13H41.641ZM43.381 12.9H41.541V13.1H43.381V12.9ZM45.5103 12.0993C44.9821 12.6275 44.2791 12.9 43.381 12.9V13.1C44.323 13.1 45.08 12.8125 45.6517 12.2407L45.5103 12.0993ZM46.311 10C46.311 10.867 46.0392 11.5608 45.5097 12.0999L45.6524 12.2401C46.2228 11.6592 46.511 10.913 46.511 10H46.311ZM45.5097 7.90007C46.0392 8.43922 46.311 9.13303 46.311 10H46.511C46.511 9.08697 46.2228 8.34078 45.6524 7.75993L45.5097 7.90007ZM43.371 7.1C44.2694 7.1 44.9823 7.37268 45.5103 7.90071L45.6517 7.75929C45.0798 7.18732 44.3126 6.9 43.371 6.9V7.1ZM41.541 7.1H43.371V6.9H41.541V7.1ZM42.311 12.36H43.371V12.16H42.311V12.36ZM42.211 7.73V12.26H42.411V7.73H42.211ZM43.371 7.63H42.311V7.83H43.371V7.63ZM45.0908 8.25842C44.6586 7.83672 44.0917 7.63 43.371 7.63V7.83C44.0504 7.83 44.5634 8.02328 44.9512 8.40158L45.0908 8.25842ZM45.731 9.99C45.731 9.26032 45.5248 8.68177 45.0908 8.25842L44.9512 8.40158C45.3372 8.77823 45.531 9.29968 45.531 9.99H45.731ZM45.0908 11.7316C45.5249 11.3081 45.731 10.7294 45.731 9.99H45.531C45.531 10.6906 45.3371 11.2119 44.9512 11.5884L45.0908 11.7316ZM43.371 12.36C44.0814 12.36 44.6585 12.1534 45.0908 11.7316L44.9512 11.5884C44.5636 11.9666 44.0406 12.16 43.371 12.16V12.36ZM47.5015 7.1H48.2715V6.9H47.5015V7.1ZM47.6015 13V7H47.4015V13H47.6015ZM48.2715 12.9H47.5015V13.1H48.2715V12.9ZM48.1715 7V13H48.3715V7H48.1715ZM55.2212 12.9H54.4512V13.1H55.2212V12.9ZM55.1212 10.58V13H55.3212V10.58H55.1212ZM56.4912 10.48H55.2212V10.68H56.4912V10.48ZM57.7435 9.99637C57.3923 10.3191 56.9765 10.48 56.4912 10.48V10.68C57.0258 10.68 57.4901 10.5009 57.8788 10.1436L57.7435 9.99637ZM58.2712 8.79C58.2712 9.27208 58.0928 9.67535 57.7435 9.99637L57.8788 10.1436C58.2695 9.78465 58.4712 9.32792 58.4712 8.79H58.2712ZM57.7435 7.58363C58.0931 7.90486 58.2712 8.29823 58.2712 8.79H58.4712C58.4712 8.24177 58.2693 7.79514 57.8788 7.43637L57.7435 7.58363ZM56.4912 7.1C56.9765 7.1 57.3923 7.26087 57.7435 7.58363L57.8788 7.43637C57.4901 7.07913 57.0258 6.9 56.4912 6.9V7.1ZM54.4512 7.1H56.4912V6.9H54.4512V7.1ZM54.5512 13V7H54.3512V13H54.5512ZM55.2212 9.93H56.5112V9.73H55.2212V9.93ZM55.1212 7.73V9.83H55.3212V7.73H55.1212ZM56.5112 7.63H55.2212V7.83H56.5112V7.63ZM57.3652 7.99273C57.1446 7.75016 56.8569 7.63 56.5112 7.63V7.83C56.8054 7.83 57.0377 7.92983 57.2172 8.12727L57.3652 7.99273ZM57.6812 8.78C57.6812 8.49194 57.5697 8.22948 57.3669 7.99464L57.2155 8.12536C57.3927 8.33052 57.4812 8.54806 57.4812 8.78H57.6812ZM57.3652 9.56727C57.5811 9.32972 57.6812 9.06601 57.6812 8.78H57.4812C57.4812 9.01399 57.4012 9.23028 57.2172 9.43273L57.3652 9.56727ZM56.5112 9.93C56.8569 9.93 57.1446 9.80984 57.3652 9.56727L57.2172 9.43273C57.0377 9.63016 56.8054 9.73 56.5112 9.73V9.93ZM62.0514 13.2301C62.9572 13.2301 63.7135 12.9201 64.3233 12.2896L64.1795 12.1506C63.6093 12.7401 62.9057 13.0301 62.0514 13.0301V13.2301ZM59.7795 12.2896C60.3893 12.9201 61.1457 13.2301 62.0514 13.2301V13.0301C61.1972 13.0301 60.4935 12.7401 59.9233 12.1506L59.7795 12.2896ZM58.8614 10.0001C58.8614 10.9054 59.1711 11.6709 59.7801 12.2902L59.9227 12.15C59.3517 11.5693 59.0614 10.8548 59.0614 10.0001H58.8614ZM59.7701 7.71C59.1605 8.32993 58.8614 9.09565 58.8614 10.0001H59.0614C59.0614 9.14458 59.3423 8.43031 59.9127 7.85023L59.7701 7.71ZM62.0414 6.77012C61.1357 6.77012 60.3793 7.08015 59.7696 7.71059L59.9133 7.84964C60.4835 7.26009 61.1872 6.97012 62.0414 6.97012V6.77012ZM64.3127 7.70999C63.6934 7.08035 62.9375 6.77012 62.0414 6.77012V6.97012C62.8854 6.97012 63.5895 7.25989 64.1701 7.85024L64.3127 7.70999ZM65.2314 10.0001C65.2314 9.10448 64.9216 8.33946 64.3133 7.71059L64.1696 7.84964C64.7413 8.44077 65.0314 9.15576 65.0314 10.0001H65.2314ZM64.3233 12.2896C64.9218 11.6705 65.2314 10.9053 65.2314 10.0001H65.0314C65.0314 10.8549 64.741 11.5698 64.1795 12.1506L64.3233 12.2896ZM62.0514 12.2901C61.4368 12.2901 60.913 12.0799 60.4929 11.6502L60.3499 11.79C60.8098 12.2604 61.3861 12.4901 62.0514 12.4901V12.2901ZM63.6099 11.6502C63.1898 12.0799 62.6661 12.2901 62.0514 12.2901V12.4901C62.7168 12.4901 63.293 12.2604 63.7529 11.79L63.6099 11.6502ZM64.2514 10.0001C64.2514 10.6758 64.0304 11.2202 63.6099 11.6502L63.7529 11.79C64.2124 11.3201 64.4514 10.7244 64.4514 10.0001H64.2514ZM63.6107 8.35083C64.0398 8.77989 64.2514 9.32338 64.2514 10.0001H64.4514C64.4514 9.27686 64.2231 8.68035 63.7521 8.20941L63.6107 8.35083ZM62.0514 7.71012C62.6661 7.71012 63.1898 7.92036 63.6099 8.35003L63.7529 8.21021C63.293 7.73987 62.7168 7.51012 62.0514 7.51012V7.71012ZM60.4929 8.35003C60.913 7.92036 61.4368 7.71012 62.0514 7.71012V7.51012C61.3861 7.51012 60.8098 7.73987 60.3499 8.21021L60.4929 8.35003ZM59.8514 10.0001C59.8514 9.32441 60.0725 8.78007 60.4929 8.35003L60.3499 8.21021C59.8904 8.68017 59.6514 9.27583 59.6514 10.0001H59.8514ZM60.4921 11.6494C60.0631 11.2203 59.8514 10.6769 59.8514 10.0001H59.6514C59.6514 10.7234 59.8798 11.3199 60.3507 11.7908L60.4921 11.6494ZM66.2114 7.1H67.1514V6.9H66.2114V7.1ZM66.3114 13V7H66.1114V13H66.3114ZM66.9914 12.9H66.2114V13.1H66.9914V12.9ZM66.8914 9.27V13H67.0914V9.27H66.8914ZM66.8615 8.11259L66.8915 9.27259L67.0914 9.26741L67.0614 8.10741L66.8615 8.11259ZM66.9914 8.01H66.9614V8.21H66.9914V8.01ZM70.1263 12.9471L67.0763 8.05708L66.9066 8.16292L69.9566 13.0529L70.1263 12.9471ZM70.8414 12.9H70.0414V13.1H70.8414V12.9ZM70.7414 7V13H70.9414V7H70.7414ZM70.0714 7.1H70.8414V6.9H70.0714V7.1ZM70.1714 10.51V7H69.9714V10.51H70.1714ZM70.2014 11.6674L70.1714 10.5074L69.9715 10.5126L70.0015 11.6726L70.2014 11.6674ZM70.0714 11.77H70.1014V11.57H70.0714V11.77ZM67.0666 7.05302L69.9866 11.723L70.1562 11.617L67.2362 6.94698L67.0666 7.05302ZM72.9814 6.9H72.2114V7.1H72.9814V6.9ZM73.0814 13V7H72.8814V13H73.0814ZM72.2114 13.1H72.9814V12.9H72.2114V13.1ZM72.1114 7V13H72.3114V7H72.1114ZM74.3613 7.1H76.5313V6.9H74.3613V7.1ZM74.4613 13V7H74.2613V13H74.4613ZM76.6413 12.9H74.3613V13.1H76.6413V12.9ZM77.8746 12.4255C77.5128 12.7492 77.1165 12.9 76.6413 12.9V13.1C77.1661 13.1 77.6098 12.9308 78.008 12.5745L77.8746 12.4255ZM78.3813 11.28C78.3813 11.7423 78.2129 12.1248 77.8749 12.4253L78.0078 12.5747C78.3898 12.2352 78.5813 11.7977 78.5813 11.28H78.3813ZM78.1117 10.4805C78.2889 10.7136 78.3813 10.9725 78.3813 11.28H78.5813C78.5813 10.9275 78.4738 10.6264 78.2709 10.3595L78.1117 10.4805ZM77.4297 9.99487C77.711 10.0886 77.9341 10.2469 78.1117 10.4805L78.2709 10.3595C78.0685 10.0931 77.8116 9.91136 77.493 9.80513L77.4297 9.99487ZM77.3613 9.87V9.9H77.5613V9.87H77.3613ZM77.9687 9.32367C77.8291 9.52835 77.6538 9.67608 77.4211 9.77847L77.5016 9.96153C77.7689 9.84392 77.9735 9.67165 78.134 9.43633L77.9687 9.32367ZM78.1713 8.63C78.1713 8.90323 78.1057 9.13187 77.97 9.32187L78.1327 9.43812C78.297 9.20813 78.3713 8.93677 78.3713 8.63H78.1713ZM77.684 7.53389C78.0038 7.82554 78.1713 8.189 78.1713 8.63H78.3713C78.3713 8.131 78.1788 7.71446 77.8187 7.3861L77.684 7.53389ZM76.5313 7.1C76.9767 7.1 77.3632 7.25092 77.6852 7.53498L77.8175 7.38502C77.4594 7.06908 77.026 6.9 76.5313 6.9V7.1ZM75.1313 9.67H76.5313V9.47H75.1313V9.67ZM75.0313 7.73V9.57H75.2313V7.73H75.0313ZM76.5613 7.63H75.1313V7.83H76.5613V7.63ZM77.3059 7.95332C77.1162 7.74131 76.8687 7.63 76.5613 7.63V7.83C76.814 7.83 77.0065 7.91869 77.1568 8.08668L77.3059 7.95332ZM77.5913 8.65C77.5913 8.39364 77.501 8.15923 77.3039 7.95123L77.1587 8.08877C77.3217 8.26077 77.3913 8.44636 77.3913 8.65H77.5913ZM77.3039 9.34878C77.501 9.14077 77.5913 8.90636 77.5913 8.65H77.3913C77.3913 8.85364 77.3217 9.03923 77.1587 9.21123L77.3039 9.34878ZM76.5313 9.67C76.8474 9.67 77.1041 9.55966 77.3039 9.34878L77.1587 9.21123C76.9985 9.38034 76.7952 9.47 76.5313 9.47V9.67ZM75.1313 12.36H76.6813V12.16H75.1313V12.36ZM75.1213 12.36H75.1313V12.16H75.1213V12.36ZM75.0213 10.29V12.26H75.2213V10.29H75.0213ZM76.6413 10.19H75.1213V10.39H76.6413V10.19ZM77.4638 10.5311C77.2542 10.3104 76.9776 10.19 76.6413 10.19V10.39C76.9251 10.39 77.1485 10.4896 77.3188 10.6689L77.4638 10.5311ZM77.7813 11.27C77.7813 10.9919 77.6797 10.7469 77.462 10.5293L77.3206 10.6707C77.503 10.8531 77.5813 11.0481 77.5813 11.27H77.7813ZM77.4773 12.0151C77.6684 11.7921 77.7813 11.5499 77.7813 11.27H77.5813C77.5813 11.4901 77.4943 11.6879 77.3254 11.8849L77.4773 12.0151ZM76.6813 12.36C77.0064 12.36 77.2757 12.2502 77.4773 12.0151L77.3254 11.8849C77.1669 12.0698 76.9563 12.16 76.6813 12.16V12.36ZM80.2715 6.9H79.5015V7.1H80.2715V6.9ZM80.3715 12.26V7H80.1715V12.26H80.3715ZM82.8715 12.16H80.2715V12.36H82.8715V12.16ZM82.9715 13V12.26H82.7715V13H82.9715ZM79.5015 13.1H82.8715V12.9H79.5015V13.1ZM79.4015 7V13H79.6015V7H79.4015ZM87.3413 7.64H84.6113V7.84H87.3413V7.64ZM87.2413 7V7.74H87.4413V7H87.2413ZM83.8413 7.1H87.3413V6.9H83.8413V7.1ZM83.9413 13V7H83.7413V13H83.9413ZM87.3413 12.9H83.8413V13.1H87.3413V12.9ZM87.2413 12.26V13H87.4413V12.26H87.2413ZM84.6113 12.36H87.3413V12.16H84.6113V12.36ZM84.5113 10.36V12.26H84.7113V10.36H84.5113ZM87.0713 10.26H84.6113V10.46H87.0713V10.26ZM86.9713 9.64V10.36H87.1713V9.64H86.9713ZM84.6113 9.74H87.0713V9.54H84.6113V9.74ZM84.5113 7.74V9.64H84.7113V7.74H84.5113ZM91.3413 7.84H94.0713V7.64H91.3413V7.84ZM91.4413 9.64V7.74H91.2413V9.64H91.4413ZM93.8013 9.54H91.3413V9.74H93.8013V9.54ZM93.9013 10.36V9.64H93.7013V10.36H93.9013ZM91.3413 10.46H93.8013V10.26H91.3413V10.46ZM91.4413 12.26V10.36H91.2413V12.26H91.4413ZM94.0713 12.16H91.3413V12.36H94.0713V12.16ZM94.1713 13V12.26H93.9713V13H94.1713ZM90.5713 13.1H94.0713V12.9H90.5713V13.1ZM90.4713 7V13H90.6713V7H90.4713ZM94.0713 6.9H90.5713V7.1H94.0713V6.9ZM94.1713 7.74V7H93.9713V7.74H94.1713ZM95.271 7.1H96.211V6.9H95.271V7.1ZM95.371 13V7H95.171V13H95.371ZM96.051 12.9H95.271V13.1H96.051V12.9ZM95.951 9.27V13H96.151V9.27H95.951ZM95.921 8.11259L95.951 9.27259L96.151 9.26742L96.121 8.10742L95.921 8.11259ZM96.051 8.01H96.021V8.21H96.051V8.01ZM99.1858 12.9471L96.1358 8.05708L95.9661 8.16292L99.0161 13.0529L99.1858 12.9471ZM99.901 12.9H99.101V13.1H99.901V12.9ZM99.801 7V13H100.001V7H99.801ZM99.131 7.1H99.901V6.9H99.131V7.1ZM99.231 10.51V7H99.031V10.51H99.231ZM99.261 11.6674L99.231 10.5074L99.031 10.5126L99.061 11.6726L99.261 11.6674ZM99.131 11.77H99.161V11.57H99.131V11.77ZM96.1262 7.05302L99.0462 11.723L99.2158 11.617L96.2958 6.94698L96.1262 7.05302Z" fill="white"/>
</g>
<defs>
<linearGradient id="paint0_linear" x1="22.0609" y1="8.7097" x2="5.27851" y2="25.4921" gradientUnits="userSpaceOnUse">
<stop stop-color="#00A0FF"/>
<stop offset="0.00657445" stop-color="#00A1FF"/>
<stop offset="0.2601" stop-color="#00BEFF"/>
<stop offset="0.5122" stop-color="#00D2FF"/>
<stop offset="0.7604" stop-color="#00DFFF"/>
<stop offset="1" stop-color="#00E3FF"/>
</linearGradient>
<linearGradient id="paint1_linear" x1="34.0955" y1="20.0014" x2="9.89864" y2="20.0014" gradientUnits="userSpaceOnUse">
<stop stop-color="#FFE000"/>
<stop offset="0.4087" stop-color="#FFBD00"/>
<stop offset="0.7754" stop-color="#FFA500"/>
<stop offset="1" stop-color="#FF9C00"/>
</linearGradient>
<linearGradient id="paint2_linear" x1="25.0882" y1="22.2961" x2="2.32987" y2="45.0544" gradientUnits="userSpaceOnUse">
<stop stop-color="#FF3A44"/>
<stop offset="1" stop-color="#C31162"/>
</linearGradient>
<linearGradient id="paint3_linear" x1="7.55773" y1="0.176187" x2="17.7203" y2="10.3387" gradientUnits="userSpaceOnUse">
<stop stop-color="#32A071"/>
<stop offset="0.0685" stop-color="#2DA771"/>
<stop offset="0.4762" stop-color="#15CF74"/>
<stop offset="0.8009" stop-color="#06E775"/>
<stop offset="1" stop-color="#00F076"/>
</linearGradient>
<clipPath id="clip0">
<path d="M0.260742 0H135.261V40H0.260742V0Z" fill="white"/>
</clipPath>
</defs>
</svg>
