<svg width="247" height="81" viewBox="0 0 247 81" fill="none" xmlns="http://www.w3.org/2000/svg">
<path d="M247 70.0538C247 76.1006 242.113 81 236.081 81H10.9186C4.88707 81 0 76.1006 0 70.0538V10.9462C0 4.89941 4.88707 0 10.9186 0H236.081C242.108 0 247 4.89941 247 10.9462V70.0538Z" fill="black"/>
<path d="M18.5245 15.594V43.02V70.4461L46.1181 43.02L18.5245 15.594Z" fill="url(#paint0_linear)"/>
<path d="M53.526 35.6564L42.3901 29.2078L18.5245 15.3955V15.594L46.1182 43.02L53.526 35.6564Z" fill="url(#paint1_linear)"/>
<path d="M18.5245 70.4461V70.6494L42.3901 56.8323L53.526 50.3885L46.1182 43.02L18.5245 70.4461Z" fill="url(#paint2_linear)"/>
<path d="M53.526 35.6562L46.1182 43.0199L53.526 50.3884L66.2556 43.0199L53.526 35.6562Z" fill="url(#paint3_linear)"/>
<path d="M192.228 53.7435C191.19 53.7435 190.248 53.5499 189.388 53.1674C188.534 52.785 187.814 52.1943 187.23 51.4003H187.056C187.172 52.3299 187.23 53.2158 187.23 54.0485V60.6133H184.82V37.5009H186.781L187.114 39.6844H187.23C187.848 38.8129 188.572 38.1787 189.393 37.7914C190.214 37.4041 191.161 37.2104 192.223 37.2104C194.333 37.2104 195.961 37.9318 197.11 39.3794C198.26 40.8269 198.829 42.8554 198.829 45.4649C198.829 48.084 198.245 50.1222 197.081 51.5698C195.917 53.0173 194.3 53.7435 192.228 53.7435ZM191.88 39.2632C190.253 39.2632 189.079 39.7134 188.355 40.6187C187.631 41.5192 187.254 42.9571 187.235 44.9275V45.4649C187.235 47.7064 187.606 49.3089 188.355 50.2772C189.099 51.2406 190.296 51.7247 191.938 51.7247C193.315 51.7247 194.391 51.168 195.169 50.0496C195.946 48.9361 196.338 47.3966 196.338 45.4358C196.338 43.4461 195.946 41.921 195.169 40.856C194.387 39.7909 193.29 39.2632 191.88 39.2632Z" fill="#F9F9F9"/>
<path d="M204.412 53.4531H202.002V30.8054H204.412V53.4531Z" fill="#F9F9F9"/>
<path d="M218.271 53.4531L217.793 51.1825H217.677C216.885 52.1847 216.093 52.8576 215.301 53.211C214.514 53.5645 213.529 53.7436 212.346 53.7436C210.767 53.7436 209.531 53.3369 208.637 52.5187C207.744 51.7054 207.295 50.5435 207.295 49.0427C207.295 45.8232 209.864 44.1336 215.002 43.9786L217.702 43.8915V42.9039C217.702 41.65 217.431 40.7253 216.895 40.1298C216.359 39.5343 215.499 39.2342 214.316 39.2342C212.988 39.2342 211.491 39.6408 209.816 40.459L209.077 38.6096C209.859 38.1836 210.719 37.8495 211.656 37.6075C212.588 37.3654 213.524 37.2444 214.466 37.2444C216.364 37.2444 217.769 37.6656 218.682 38.5128C219.595 39.3552 220.053 40.7108 220.053 42.5747V53.4628H218.271V53.4531ZM212.824 51.749C214.326 51.749 215.499 51.3374 216.359 50.5144C217.214 49.6914 217.644 48.5343 217.644 47.048V45.6053L215.234 45.707C213.317 45.7748 211.936 46.0749 211.09 46.6026C210.245 47.1303 209.82 47.9534 209.82 49.0717C209.82 49.9431 210.081 50.6113 210.612 51.0663C211.139 51.5214 211.878 51.749 212.824 51.749Z" fill="#F9F9F9"/>
<path d="M221.454 37.501H224.037L227.524 46.5978C228.287 48.6747 228.765 50.1755 228.949 51.0954H229.065C229.19 50.6016 229.456 49.7543 229.857 48.5537C230.257 47.353 231.571 43.6736 233.797 37.501H236.381L229.543 55.6656C228.867 57.4617 228.075 58.735 227.167 59.4854C226.264 60.2358 225.153 60.6134 223.835 60.6134C223.101 60.6134 222.371 60.5311 221.657 60.3665V58.43C222.188 58.5462 222.787 58.6043 223.443 58.6043C225.1 58.6043 226.278 57.6747 226.988 55.8108L227.872 53.5402L221.454 37.501Z" fill="#F9F9F9"/>
<path d="M147.583 38.9821C148.346 39.6163 149.944 40.9526 149.944 43.4894C149.944 45.9585 148.548 47.1252 147.148 48.229C146.713 48.6599 146.216 49.1295 146.216 49.8654C146.216 50.5964 146.713 50.9983 147.08 51.2984L148.278 52.2328C149.741 53.4673 151.074 54.6051 151.074 56.9047C151.074 60.0418 148.046 63.2081 142.324 63.2081C137.495 63.2081 135.167 60.9084 135.167 58.4345C135.167 57.2339 135.766 55.5346 137.731 54.363C139.793 53.0946 142.589 52.93 144.086 52.8283C143.618 52.228 143.087 51.5938 143.087 50.5626C143.087 49.9961 143.256 49.6621 143.42 49.2602C143.053 49.2941 142.686 49.328 142.353 49.328C138.827 49.328 136.828 46.6895 136.828 44.0897C136.828 42.555 137.528 40.8509 138.958 39.6164C140.856 38.0478 143.121 37.7815 144.917 37.7815H151.77L149.64 38.9821H147.583ZM145.216 53.7966C144.951 53.7627 144.782 53.7627 144.453 53.7627C144.154 53.7627 142.353 53.8304 140.957 54.3001C140.223 54.5663 138.093 55.3651 138.093 57.7374C138.093 60.1048 140.392 61.8089 143.951 61.8089C147.143 61.8089 148.843 60.2694 148.843 58.2022C148.848 56.498 147.747 55.6024 145.216 53.7966ZM146.182 47.4593C146.945 46.6895 147.013 45.6244 147.013 45.0241C147.013 42.6228 145.583 38.8853 142.821 38.8853C141.957 38.8853 141.025 39.3162 140.489 39.9891C139.924 40.6911 139.755 41.5916 139.755 42.4582C139.755 44.6949 141.054 48.3985 143.917 48.3985C144.753 48.3937 145.651 47.9918 146.182 47.4593Z" fill="#F9F9F9"/>
<path d="M126.629 53.2641C121.346 53.2641 118.521 49.1345 118.521 45.4018C118.521 41.0398 122.075 37.3071 127.127 37.3071C132.009 37.3071 135.066 41.1366 135.066 45.1694C135.071 49.1006 132.047 53.2641 126.629 53.2641ZM130.782 50.5675C131.579 49.5024 131.782 48.1662 131.782 46.8687C131.782 43.9349 130.386 38.3383 126.267 38.3383C125.171 38.3383 124.075 38.774 123.278 39.4712C121.984 40.638 121.747 42.1 121.747 43.5379C121.747 46.8348 123.374 52.2619 127.397 52.2619C128.691 52.2619 130.019 51.6326 130.782 50.5675Z" fill="#F9F9F9"/>
<path d="M108.621 53.2641C103.338 53.2641 100.513 49.1345 100.513 45.4018C100.513 41.0398 104.068 37.3071 109.119 37.3071C114.001 37.3071 117.058 41.1366 117.058 45.1694C117.058 49.1006 114.035 53.2641 108.621 53.2641ZM112.774 50.5675C113.571 49.5024 113.774 48.1662 113.774 46.8687C113.774 43.9349 112.378 38.3383 108.259 38.3383C107.163 38.3383 106.067 38.774 105.27 39.4712C103.976 40.638 103.739 42.1 103.739 43.5379C103.739 46.8348 105.367 52.2619 109.389 52.2619C110.679 52.2619 112.007 51.6326 112.774 50.5675Z" fill="#F9F9F9"/>
<path d="M97.9731 52.7413L93.1971 53.8451C91.2606 54.1453 89.5222 54.4115 87.6871 54.4115C78.4635 54.4115 74.9575 47.6143 74.9575 42.2889C74.9575 35.7918 79.9363 29.7644 88.4549 29.7644C90.261 29.7644 91.9947 30.0307 93.5641 30.4664C96.0705 31.1684 97.2391 32.0398 97.9731 32.5433L95.2012 35.1867L94.0326 35.4529L94.868 34.1119C93.7332 33.0081 91.6615 30.965 87.7209 30.965C82.4427 30.965 78.4683 34.9833 78.4683 40.8462C78.4683 47.1399 83.0125 53.0705 90.2948 53.0705C92.4341 53.0705 93.5352 52.6348 94.5396 52.2329V46.8494L89.498 47.1157L92.1685 45.673H99.2528L98.3836 46.5105C98.147 46.7138 98.118 46.7816 98.0504 47.0479C98.0166 47.3481 97.9828 48.3212 97.9828 48.6552V52.7413H97.9731Z" fill="#F9F9F9"/>
<path d="M158.139 51.7778C157.038 51.6761 156.806 51.4776 156.806 50.1705V49.8026V31.2119C156.811 31.1393 156.816 31.0667 156.826 30.9941C156.961 29.8225 157.294 29.624 158.332 29.0188H153.551L151.045 30.2243H153.6V30.2388V30.2243V49.7929V50.9015C153.6 51.5696 153.469 51.6713 152.697 52.6735H158.612L159.849 51.9376C159.279 51.8746 158.709 51.8456 158.139 51.7778Z" fill="#F9F9F9"/>
<path d="M171.733 52.0829C171.371 52.2814 171.004 52.5186 170.642 52.6832C169.545 53.1819 168.415 53.3174 167.421 53.3174C166.363 53.3174 164.702 53.2497 163.007 52.02C160.655 50.3545 159.626 47.4933 159.626 45.0001C159.626 39.8441 163.808 37.3169 167.223 37.3169C168.415 37.3169 169.647 37.6171 170.642 38.2464C172.298 39.3406 172.733 40.7736 172.96 41.5385L165.165 44.6999L162.611 44.8984C163.437 49.12 166.291 51.5794 169.444 51.5794C171.134 51.5794 172.366 50.9839 173.491 50.4175L171.733 52.0829ZM168.618 42.1727C169.246 41.9403 169.579 41.7419 169.579 41.2771C169.579 39.9457 168.087 38.4159 166.295 38.4159C164.967 38.4159 162.48 39.4471 162.48 43.0393C162.48 43.6058 162.548 44.2012 162.582 44.8016L168.618 42.1727Z" fill="#F9F9F9"/>
<path d="M174.94 37.5444V39.7376H174.674V37.5444H173.95V37.3169H175.664V37.5444H174.94Z" fill="#F9F9F9"/>
<path d="M177.924 39.7376V37.5202H177.91L177.234 39.7376H177.026L176.345 37.5202H176.335V39.7376H176.094V37.3169H176.509L177.123 39.2728H177.132L177.736 37.3169H178.156V39.7376H177.924Z" fill="#F9F9F9"/>
<path d="M81.588 23.2432H79.9268C79.9268 23.0157 79.7674 22.3669 79.4535 21.297H77.0583C76.7347 22.3476 76.5705 22.9963 76.5705 23.2432H75.0107C75.0107 23.1077 75.4164 21.999 76.2228 19.9124C77.0293 17.8306 77.435 16.6832 77.435 16.4702H79.3956C79.3956 16.6687 79.7626 17.7967 80.4918 19.864C81.2258 21.9312 81.588 23.0592 81.588 23.2432ZM79.1928 20.3094C78.6036 18.5181 78.3042 17.5547 78.3042 17.4094H78.2221C78.2221 17.545 77.9179 18.5132 77.3046 20.3094H79.1928Z" fill="#F9F9FA"/>
<path d="M88.2811 23.2432H87.0014C87.0014 23.1028 86.5281 22.3524 85.5768 20.992C84.582 19.559 84.0122 18.581 83.8769 18.0533H83.7948C83.8818 18.8134 83.9252 19.5009 83.9252 20.1109C83.9252 20.9678 83.9494 22.0087 83.9977 23.2432H82.7228C82.7759 22.1684 82.8 20.9872 82.8 19.6994C82.8 18.4358 82.7759 17.3562 82.7228 16.4702H84.2633C84.2633 16.6542 84.6882 17.3852 85.543 18.6682C86.4509 20.0286 86.9724 20.9533 87.1076 21.4422H87.1849C87.1028 20.6676 87.0593 19.9753 87.0593 19.3605C87.0593 18.4213 87.0352 17.4578 86.9869 16.4702H88.2859C88.2377 17.332 88.2135 18.4067 88.2135 19.6994C88.2087 21.0065 88.2328 22.1878 88.2811 23.2432Z" fill="#F9F9FA"/>
<path d="M95.8001 19.6268C95.8001 20.6096 95.4862 21.4713 94.8536 22.2072C94.2258 22.9431 93.342 23.311 92.2072 23.311C91.6953 23.311 90.9903 23.2917 90.092 23.2481C90.1355 22.2024 90.1596 21.0211 90.1596 19.7042C90.1596 18.4407 90.1355 17.3659 90.092 16.4751H90.9999C91.1496 16.4751 91.3718 16.4703 91.6663 16.4606C91.9609 16.4509 92.1541 16.446 92.241 16.446C93.4869 16.446 94.3948 16.7559 94.955 17.3804C95.5151 18.0049 95.8001 18.7505 95.8001 19.6268ZM94.3803 19.8495C94.3803 19.1814 94.1871 18.6246 93.8008 18.1647C93.4145 17.7096 92.8205 17.4821 92.0285 17.4821C91.8788 17.4821 91.676 17.4966 91.4152 17.5305C91.449 18.2228 91.4683 18.949 91.4683 19.7042C91.4683 20.5321 91.4877 21.3551 91.5215 22.1685C91.7484 22.212 91.9706 22.2363 92.1975 22.2363C92.9412 22.2363 93.4917 22.0039 93.8491 21.5439C94.2016 21.0792 94.3803 20.5176 94.3803 19.8495Z" fill="#F9F9FA"/>
<path d="M102.73 23.2432H101.194C100.793 22.0136 100.484 21.2583 100.272 20.9727C100.059 20.687 99.7117 20.5418 99.2336 20.5418C99.0308 20.5418 98.8424 20.5418 98.6589 20.5466C98.6589 21.4374 98.6734 22.3379 98.7072 23.2481H97.2633C97.3068 22.2024 97.3309 21.0211 97.3309 19.7042C97.3309 18.4407 97.3068 17.3659 97.2633 16.4751H98.1615C98.2629 16.4751 98.4802 16.4703 98.8134 16.4606C99.1418 16.4509 99.4509 16.446 99.731 16.446C101.32 16.446 102.112 16.9883 102.112 18.0776C102.112 18.9393 101.658 19.5445 100.755 19.8834V19.9608C101.102 20.0577 101.412 20.3288 101.672 20.779C101.928 21.2244 102.286 22.0474 102.73 23.2432ZM100.784 18.46C100.784 17.7726 100.339 17.424 99.4557 17.424C99.1322 17.424 98.8424 17.4482 98.5961 17.4966C98.6348 18.034 98.6541 18.736 98.6541 19.5977C98.8424 19.6026 99.0066 19.6074 99.137 19.6074C100.233 19.6123 100.784 19.225 100.784 18.46Z" fill="#F9F9FA"/>
<path d="M110.167 19.7332C110.167 20.7983 109.843 21.6794 109.191 22.3814C108.539 23.0834 107.738 23.432 106.777 23.432C105.864 23.432 105.101 23.1124 104.483 22.4685C103.87 21.8246 103.561 21.0065 103.561 20.0188C103.561 18.9537 103.884 18.0726 104.536 17.3706C105.188 16.6686 105.99 16.3201 106.951 16.3201C107.863 16.3201 108.626 16.6396 109.244 17.2835C109.858 17.9225 110.167 18.7407 110.167 19.7332ZM108.737 19.8881C108.737 19.1619 108.554 18.5761 108.182 18.1259C107.81 17.6756 107.356 17.4481 106.811 17.4481C106.303 17.4481 105.879 17.6756 105.526 18.1307C105.173 18.5858 104.995 19.1571 104.995 19.8542C104.995 20.5756 105.178 21.1614 105.55 21.6165C105.922 22.0667 106.376 22.2942 106.917 22.2942C107.424 22.2942 107.849 22.0667 108.201 21.6116C108.559 21.1469 108.737 20.5756 108.737 19.8881Z" fill="#F9F9FA"/>
<path d="M113.098 23.2432H111.63C111.673 22.1684 111.698 20.9872 111.698 19.6994C111.698 18.4358 111.673 17.3562 111.63 16.4702H113.098C113.055 17.3417 113.03 18.4213 113.03 19.6994C113.03 21.0114 113.055 22.1926 113.098 23.2432Z" fill="#F9F9FA"/>
<path d="M120.617 19.6268C120.617 20.6096 120.303 21.4713 119.67 22.2072C119.043 22.9431 118.159 23.311 117.024 23.311C116.512 23.311 115.807 23.2917 114.909 23.2481C114.952 22.2024 114.977 21.0211 114.977 19.7042C114.977 18.4407 114.952 17.3659 114.909 16.4751H115.817C115.967 16.4751 116.189 16.4703 116.483 16.4606C116.778 16.4509 116.971 16.446 117.058 16.446C118.304 16.446 119.212 16.7559 119.772 17.3804C120.337 18.0049 120.617 18.7505 120.617 19.6268ZM119.202 19.8495C119.202 19.1814 119.009 18.6246 118.623 18.1647C118.236 17.7096 117.642 17.4821 116.85 17.4821C116.701 17.4821 116.498 17.4966 116.237 17.5305C116.271 18.2228 116.29 18.949 116.29 19.7042C116.29 20.5321 116.309 21.3551 116.343 22.1685C116.57 22.212 116.792 22.2363 117.019 22.2363C117.763 22.2363 118.313 22.0039 118.671 21.5439C119.023 21.0792 119.202 20.5176 119.202 19.8495Z" fill="#F9F9FA"/>
<path d="M130.594 23.2432H128.933C128.933 23.0157 128.773 22.3669 128.46 21.297H126.064C125.741 22.3476 125.577 22.9963 125.577 23.2432H124.017C124.017 23.1077 124.422 21.999 125.229 19.9124C126.035 17.8306 126.441 16.6832 126.441 16.4702H128.402C128.402 16.6687 128.769 17.7967 129.498 19.864C130.227 21.9312 130.594 23.0592 130.594 23.2432ZM128.199 20.3094C127.61 18.5181 127.31 17.5547 127.31 17.4094H127.228C127.228 17.545 126.924 18.5132 126.311 20.3094H128.199Z" fill="#F9F9FA"/>
<path d="M136.645 18.247C136.645 19.0748 136.336 19.6897 135.723 20.0818C135.109 20.4788 134.356 20.6725 133.462 20.6725C133.298 20.6725 133.182 20.6676 133.115 20.6628C133.115 21.3164 133.134 22.1733 133.173 23.2432H131.714C131.758 22.2411 131.782 21.0598 131.782 19.6994C131.782 18.4503 131.758 17.3755 131.714 16.4702H132.617C132.743 16.4702 132.989 16.4654 133.356 16.4557C133.718 16.446 134.032 16.4412 134.303 16.4412C134.96 16.4412 135.515 16.5912 135.969 16.8866C136.418 17.1867 136.645 17.6418 136.645 18.247ZM135.307 18.5326C135.307 17.7919 134.815 17.4191 133.834 17.4191C133.588 17.4191 133.327 17.4433 133.057 17.4966C133.095 18.1501 133.115 18.8957 133.115 19.7236C133.202 19.7284 133.303 19.7333 133.414 19.7333C134.675 19.7333 135.307 19.3363 135.307 18.5326Z" fill="#F9F9FA"/>
<path d="M142.865 18.247C142.865 19.0748 142.556 19.6897 141.942 20.0818C141.329 20.4788 140.576 20.6725 139.682 20.6725C139.518 20.6725 139.402 20.6676 139.335 20.6628C139.335 21.3164 139.354 22.1733 139.393 23.2432H137.934C137.978 22.2411 138.002 21.0598 138.002 19.6994C138.002 18.4503 137.978 17.3755 137.934 16.4702H138.837C138.963 16.4702 139.209 16.4654 139.576 16.4557C139.938 16.446 140.252 16.4412 140.523 16.4412C141.179 16.4412 141.735 16.5912 142.189 16.8866C142.643 17.1867 142.865 17.6418 142.865 18.247ZM141.527 18.5326C141.527 17.7919 141.035 17.4191 140.054 17.4191C139.808 17.4191 139.547 17.4433 139.277 17.4966C139.315 18.1501 139.335 18.8957 139.335 19.7236C139.422 19.7284 139.523 19.7333 139.634 19.7333C140.899 19.7333 141.527 19.3363 141.527 18.5326Z" fill="#F9F9FA"/>
<path d="M153.04 19.7332C153.04 20.7983 152.716 21.6794 152.064 22.3814C151.412 23.0834 150.611 23.432 149.65 23.432C148.737 23.432 147.974 23.1124 147.356 22.4685C146.743 21.8246 146.433 21.0065 146.433 20.0188C146.433 18.9537 146.757 18.0726 147.409 17.3706C148.061 16.6686 148.863 16.3201 149.824 16.3201C150.736 16.3201 151.499 16.6396 152.117 17.2835C152.731 17.9225 153.04 18.7407 153.04 19.7332ZM151.605 19.8881C151.605 19.1619 151.422 18.5761 151.05 18.1259C150.678 17.6756 150.224 17.4481 149.679 17.4481C149.172 17.4481 148.747 17.6756 148.394 18.1307C148.042 18.5858 147.863 19.1571 147.863 19.8542C147.863 20.5756 148.046 21.1614 148.423 21.6165C148.795 22.0667 149.249 22.2942 149.79 22.2942C150.297 22.2942 150.722 22.0667 151.074 21.6116C151.432 21.1469 151.605 20.5756 151.605 19.8881Z" fill="#F9F9FA"/>
<path d="M160.071 23.2432H158.791C158.791 23.1028 158.318 22.3524 157.367 20.992C156.372 19.559 155.802 18.581 155.667 18.0533H155.585C155.672 18.8134 155.715 19.5009 155.715 20.1109C155.715 20.9678 155.739 22.0087 155.788 23.2432H154.513C154.566 22.1684 154.59 20.9872 154.59 19.6994C154.59 18.4358 154.566 17.3562 154.513 16.4702H156.053C156.053 16.6542 156.478 17.3852 157.333 18.6682C158.241 20.0286 158.762 20.9533 158.898 21.4422H158.975C158.893 20.6676 158.849 19.9753 158.849 19.3605C158.849 18.4213 158.825 17.4578 158.777 16.4702H160.076C160.028 17.332 160.003 18.4067 160.003 19.6994C159.999 21.0065 160.023 22.1878 160.071 23.2432Z" fill="#F9F9FA"/>
<defs>
<linearGradient id="paint0_linear" x1="32.3221" y1="15.5945" x2="32.3221" y2="70.4479" gradientUnits="userSpaceOnUse">
<stop stop-color="#257CB0"/>
<stop offset="0.2863" stop-color="#4A93B5"/>
<stop offset="0.767" stop-color="#78BCBB"/>
<stop offset="1" stop-color="#89CFBD"/>
</linearGradient>
<linearGradient id="paint1_linear" x1="18.5269" y1="29.2083" x2="53.5281" y2="29.2083" gradientUnits="userSpaceOnUse">
<stop stop-color="#52C1AD"/>
<stop offset="1" stop-color="#DEE89A"/>
</linearGradient>
<linearGradient id="paint2_linear" x1="36.0272" y1="43.0216" x2="36.0272" y2="70.6474" gradientUnits="userSpaceOnUse">
<stop stop-color="#EC413D"/>
<stop offset="0.1668" stop-color="#DA4452"/>
<stop offset="0.5748" stop-color="#B0487A"/>
<stop offset="0.8619" stop-color="#954A92"/>
<stop offset="1" stop-color="#8A4A9D"/>
</linearGradient>
<linearGradient id="paint3_linear" x1="56.1865" y1="35.6546" x2="56.1865" y2="50.3874" gradientUnits="userSpaceOnUse">
<stop stop-color="#F58879"/>
<stop offset="0.1194" stop-color="#F69079"/>
<stop offset="0.7128" stop-color="#FCB877"/>
<stop offset="1" stop-color="#FEC874"/>
</linearGradient>
</defs>
</svg>
