<svg width="36" height="36" viewBox="0 0 36 36" fill="none" xmlns="http://www.w3.org/2000/svg">
<g filter="url(#filter0_d)">
<rect width="32" height="32" transform="translate(2 1)" fill="white"/>
<path fill-rule="evenodd" clip-rule="evenodd" d="M24.7242 12.5586C25.0862 12.5586 25.2577 12.3316 25.2577 12.0361C25.2577 11.741 25.0676 11.5136 24.7242 11.5136C24.3811 11.5136 24.1906 11.741 24.1906 12.0361C24.1906 12.3312 24.3625 12.5586 24.7242 12.5586ZM23.6721 13.3077C23.6721 13.8983 23.3286 14.3526 22.6049 14.3526C21.8812 14.3526 21.5381 13.8983 21.5381 13.3077C21.5381 12.717 21.9184 12.2627 22.6049 12.2627C23.2918 12.2627 23.6721 12.717 23.6721 13.3077ZM24.6517 13.0716C24.4719 13.0716 24.3102 13.0938 24.1649 13.1342C24.1708 13.1936 24.174 13.2538 24.174 13.3156C24.174 13.9779 23.8686 14.521 23.2324 14.7274C23.3136 15.4388 23.8115 15.9617 24.6517 15.9617C25.5731 15.9617 26.0833 15.3334 26.0833 14.5166C26.0833 13.6998 25.6226 13.0716 24.6517 13.0716ZM23.6372 16.2656C23.9026 16.4193 24.3273 16.5068 24.6517 16.5068C25.0209 16.5068 25.3738 16.4165 25.6416 16.2576V20.9347C25.6416 21.105 25.5038 21.2429 25.3334 21.2429H23.9454C23.7751 21.2429 23.6372 21.105 23.6372 20.9347V16.2656ZM27.0862 19.3696V17.3672H26.3285C26.2009 17.3672 26.0971 17.2638 26.0971 17.1358V16.0651C26.0971 15.9376 26.2005 15.8338 26.3285 15.8338H27.0732L27.0851 14.9433C27.0854 14.9247 27.0866 14.906 27.0906 14.8878C27.1393 14.6593 27.3005 14.5448 27.5382 14.5448H28.7694C28.9397 14.5448 29.0776 14.6826 29.0776 14.853V15.8338H30.0176C30.1451 15.8338 30.2489 15.9372 30.2489 16.0651V17.1362C30.2489 17.2638 30.1455 17.3676 30.0176 17.3676H29.078V19.3906C29.078 19.6271 29.1913 19.7198 29.3351 19.7198C29.5513 19.7198 29.6234 19.5035 29.6234 19.3082C29.6234 19.2464 29.6234 19.1949 29.6131 19.1434C29.5925 18.9271 29.6646 18.8142 29.8702 18.8142H30.6316C30.7964 18.8142 30.9299 18.876 30.9814 19.0408C31.0317 19.1711 31.0523 19.3114 31.063 19.452C31.0634 19.4591 31.0638 19.4667 31.0638 19.4738C31.0586 20.9775 29.9914 21.3566 29.0673 21.3566C28.1003 21.3558 27.0862 20.9545 27.0862 19.3696Z" fill="#FF5005"/>
<path fill-rule="evenodd" clip-rule="evenodd" d="M6.04956 19.3696V17.3672H5.25334C5.12579 17.3672 5.022 17.2638 5.022 17.1358V16.0651C5.022 15.9376 5.12539 15.8338 5.25334 15.8338H6.03648L6.04837 14.9433C6.04876 14.9247 6.04995 14.906 6.05391 14.8878C6.10264 14.6593 6.26386 14.5448 6.50154 14.5448H7.7327C7.90303 14.5448 8.04089 14.6826 8.04089 14.853V15.8338H8.9805C9.10805 15.8338 9.21184 15.9372 9.21184 16.0651V17.1362C9.21184 17.2638 9.10845 17.3676 8.9805 17.3676H8.04089V19.3906C8.04089 19.6271 8.15418 19.7198 8.29797 19.7198C8.51426 19.7198 8.58635 19.5035 8.58635 19.3082C8.58635 19.2464 8.58635 19.1949 8.57605 19.1434C8.55545 18.9271 8.62755 18.8142 8.83314 18.8142H9.5945C9.75928 18.8142 9.89278 18.876 9.94428 19.0408C9.99458 19.1712 10.0152 19.3114 10.0259 19.452C10.0263 19.4591 10.0267 19.4667 10.0267 19.4738C10.0215 20.9775 8.95435 21.3566 8.03019 21.3566C7.06324 21.3558 6.04956 20.9545 6.04956 19.3696ZM10.1923 18.5361C10.1923 20.1725 11.2935 21.3557 12.7342 21.3557C13.4338 21.3557 13.9895 21.0575 14.2779 20.5635V20.941C14.2779 21.1113 14.4158 21.2492 14.5861 21.2492H15.9741C16.1445 21.2492 16.2823 21.1113 16.2823 20.941V16.1376C16.2823 15.9672 16.1445 15.8294 15.9741 15.8294H14.5861C14.4158 15.8294 14.2779 15.9672 14.2779 16.1376V16.498C13.9895 16.0144 13.4338 15.7161 12.7342 15.7161C11.2931 15.7165 10.1923 16.8997 10.1923 18.5361ZM12.1266 18.5092C12.1266 17.9185 12.5068 17.4642 13.1937 17.4642C13.8802 17.4642 14.2605 17.9185 14.2605 18.5092C14.2605 19.0998 13.9171 19.5542 13.1937 19.5542C12.47 19.5542 12.1266 19.0998 12.1266 18.5092ZM19.0164 16.4984C19.3048 16.0148 19.8605 15.7165 20.5601 15.7165C22.0008 15.7165 23.102 16.8997 23.102 18.5365C23.102 20.1725 22.0008 21.3561 20.5601 21.3561C19.8605 21.3561 19.3048 21.0579 19.0164 20.5639V22.213C19.0164 22.3833 18.8785 22.5211 18.7082 22.5211H17.3202C17.1498 22.5211 17.012 22.3833 17.012 22.213V16.1379C17.012 15.9676 17.1498 15.8298 17.3202 15.8298H18.7082C18.8785 15.8298 19.0164 15.9676 19.0164 16.1379V16.4984ZM19.0338 18.5092C19.0338 19.0998 19.3769 19.5542 20.1006 19.5542C20.8243 19.5542 21.1677 19.0998 21.1677 18.5092C21.1677 17.9185 20.7871 17.4642 20.1006 17.4642C19.4141 17.4642 19.0338 17.9185 19.0338 18.5092Z" fill="#191419"/>
</g>
<defs>
<filter id="filter0_d" x="0" y="0" width="36" height="36" filterUnits="userSpaceOnUse" color-interpolation-filters="sRGB">
<feFlood flood-opacity="0" result="BackgroundImageFix"/>
<feColorMatrix in="SourceAlpha" type="matrix" values="0 0 0 0 0 0 0 0 0 0 0 0 0 0 0 0 0 0 127 0"/>
<feOffset dy="1"/>
<feGaussianBlur stdDeviation="1"/>
<feColorMatrix type="matrix" values="0 0 0 0 0.203922 0 0 0 0 0.0627451 0 0 0 0 0 0 0 0 0.13 0"/>
<feBlend mode="normal" in2="BackgroundImageFix" result="effect1_dropShadow"/>
<feBlend mode="normal" in="SourceGraphic" in2="effect1_dropShadow" result="shape"/>
</filter>
</defs>
</svg>
