<svg width="500" height="490" viewBox="0 0 500 490" fill="none" xmlns="http://www.w3.org/2000/svg">
<path fill-rule="evenodd" clip-rule="evenodd" d="M451.124 200.061C451.124 200.061 427.452 2.06474 187.099 50.0032C187.099 50.0032 25.9464 79.942 44.9226 305.521C44.9226 305.521 70.8082 442.329 203.338 443.422C203.338 443.41 500.377 498.903 451.124 200.061Z" fill="#FF5005"/>
<path fill-rule="evenodd" clip-rule="evenodd" d="M492.154 190.904C492.154 190.904 463.665 -47.4891 174.265 10.2265C174.265 10.2265 -19.7668 46.2624 3.08981 317.861C3.08981 317.861 34.2547 482.567 193.826 483.891C193.826 483.891 551.443 550.691 492.154 190.904Z" stroke="#FF5005" stroke-width="2" stroke-miterlimit="10"/>
<path fill-rule="evenodd" clip-rule="evenodd" d="M411.176 208.988C411.176 208.988 392.212 50.319 199.591 88.7354C199.591 88.7354 70.4432 112.723 85.6607 293.497C85.6607 293.497 106.401 403.123 212.619 404.01C212.607 403.997 450.65 448.474 411.176 208.988Z" stroke="white" stroke-width="2" stroke-miterlimit="10"/>
</svg>
