<svg width="144" height="61" viewBox="0 0 144 61" fill="none" xmlns="http://www.w3.org/2000/svg">
<g clip-path="url(#clip0)">
<path d="M108.542 8.63403C107.548 8.63403 106.654 8.75697 105.85 8.98089C105.883 9.31018 105.901 9.64386 105.901 9.98632C105.901 13.6568 104.212 16.6665 100.694 17.8103C101.143 21.753 103.896 24.6507 108.542 24.6507C113.637 24.6507 116.458 21.169 116.458 16.6424C116.458 12.1157 113.911 8.63403 108.542 8.63403Z" fill="#C2C2C2"/>
<path d="M103.125 9.9425C103.125 13.2156 101.226 15.7336 97.2244 15.7336C93.2226 15.7336 91.3257 13.2156 91.3257 9.9425C91.3257 6.66934 93.4285 4.15137 97.2244 4.15137C101.023 4.15137 103.125 6.66934 103.125 9.9425Z" fill="#C2C2C2"/>
<path d="M28.5889 38.9177C28.5889 47.9864 34.6781 54.5436 42.6445 54.5436C46.5128 54.5436 49.5859 52.8906 51.1805 50.1531V52.2452C51.1805 53.1891 51.9427 53.9531 52.8846 53.9531H60.5597C61.5015 53.9531 62.2638 53.1891 62.2638 52.2452V25.6253C62.2638 24.6814 61.5015 23.9174 60.5597 23.9174H52.8846C51.9427 23.9174 51.1805 24.6814 51.1805 25.6253V27.623C49.5859 24.9426 46.5128 23.2896 42.6445 23.2896C34.6759 23.2917 28.5889 29.849 28.5889 38.9177ZM39.2845 38.7684C39.2845 35.4953 41.3873 32.9773 45.1854 32.9773C48.9813 32.9773 51.0841 35.4953 51.0841 38.7684C51.0841 42.0416 49.185 44.5595 45.1854 44.5595C41.1836 44.5595 39.2845 42.0416 39.2845 38.7684Z" fill="#C2C2C2"/>
<path d="M108.542 27.6714C106.748 27.6714 104.4 27.1862 102.933 26.3344V52.2101C102.933 53.1541 103.695 53.918 104.637 53.918H112.312C113.254 53.918 114.016 53.1541 114.016 52.2101V26.2905C112.535 27.1708 110.584 27.6714 108.542 27.6714Z" fill="#C2C2C2"/>
<path d="M5.68185 43.5367V32.4396H1.27918C0.57388 32.4396 0 31.8667 0 31.1576V25.2238C0 24.5169 0.571689 23.9418 1.27918 23.9418H5.60957L5.67528 19.0068C5.67747 18.9036 5.68404 18.8004 5.70594 18.6994C5.97536 17.4328 6.86684 16.7983 8.18107 16.7983H14.9888C15.9306 16.7983 16.6929 17.5623 16.6929 18.5063V23.9418H21.8885C22.5938 23.9418 23.1677 24.5147 23.1677 25.2238V31.1598C23.1677 31.8667 22.596 32.4418 21.8885 32.4418H16.6929V43.6531C16.6929 44.9637 17.3193 45.4774 18.1144 45.4774C19.3104 45.4774 19.709 44.2787 19.709 43.1965C19.709 42.854 19.709 42.5686 19.6521 42.2832C19.5382 41.0846 19.9368 40.459 21.0737 40.459H25.2836C26.1948 40.459 26.9329 40.8014 27.2177 41.7147C27.4958 42.4369 27.6097 43.214 27.6689 43.9934C27.6711 44.0329 27.6733 44.0746 27.6733 44.1141C27.6448 52.4473 21.7439 54.5482 16.6338 54.5482C11.287 54.5438 5.68185 52.32 5.68185 43.5367Z" fill="#C2C2C2"/>
<path d="M122.004 43.5367V32.4396H117.814C117.109 32.4396 116.535 31.8667 116.535 31.1576V25.2238C116.535 24.5169 117.106 23.9418 117.814 23.9418H121.932L121.998 19.0068C122 18.9036 122.006 18.8004 122.028 18.6994C122.298 17.4328 123.189 16.7983 124.503 16.7983H131.311C132.253 16.7983 133.015 17.5623 133.015 18.5063V23.9418H138.213C138.918 23.9418 139.492 24.5147 139.492 25.2238V31.1598C139.492 31.8667 138.92 32.4418 138.213 32.4418H133.017V43.6531C133.017 44.9637 133.644 45.4774 134.439 45.4774C135.635 45.4774 136.034 44.2787 136.034 43.1965C136.034 42.854 136.034 42.5686 135.977 42.2832C135.863 41.0846 136.261 40.459 137.398 40.459H141.608C142.519 40.459 143.257 40.8014 143.542 41.7147C143.82 42.4369 143.934 43.214 143.993 43.9934C143.996 44.0329 143.998 44.0746 143.998 44.1141C143.969 52.4473 138.068 54.5482 132.958 54.5482C127.612 54.5438 122.004 52.32 122.004 43.5367Z" fill="#C2C2C2"/>
<path d="M85.9177 23.2917C82.0495 23.2917 78.9764 24.9448 77.3818 27.6252V25.6275C77.3818 24.6835 76.6195 23.9196 75.6777 23.9196H68.0026C67.0607 23.9196 66.2985 24.6835 66.2985 25.6275V59.2942C66.2985 60.2382 67.0607 61.0021 68.0026 61.0021H75.6777C76.6195 61.0021 77.3818 60.2382 77.3818 59.2942V50.1553C78.9764 52.8928 82.0495 54.5458 85.9177 54.5458C93.8841 54.5458 99.9734 47.9863 99.9734 38.9199C99.9734 29.849 93.8841 23.2917 85.9177 23.2917ZM83.3769 44.5595C79.375 44.5595 77.4782 42.0416 77.4782 38.7684C77.4782 35.4953 79.5809 32.9773 83.3769 32.9773C87.1728 32.9773 89.2777 35.4953 89.2777 38.7684C89.2777 42.0416 87.3787 44.5595 83.3769 44.5595Z" fill="#C2C2C2"/>
<path d="M111.893 2.89556C111.893 4.53324 110.945 5.79113 108.943 5.79113C106.943 5.79113 105.992 4.53104 105.992 2.89556C105.992 1.26009 107.046 0 108.943 0C110.842 0 111.893 1.26009 111.893 2.89556Z" fill="#C2C2C2"/>
</g>
<defs>
<clipPath id="clip0">
<rect width="144" height="61" fill="white"/>
</clipPath>
</defs>
</svg>
