<svg width="28" height="28" viewBox="0 0 28 28" fill="none" xmlns="http://www.w3.org/2000/svg">
<path d="M19.25 0H8.75C3.91848 0 0 3.91848 0 8.75V19.25C0 24.0815 3.91848 28 8.75 28H19.25C24.0815 28 28 24.0815 28 19.25V8.75C28 3.91848 24.0815 0 19.25 0ZM25.375 19.25C25.375 22.6274 22.6274 25.375 19.25 25.375H8.75C5.37259 25.375 2.625 22.6274 2.625 19.25V8.75C2.625 5.37259 5.37259 2.625 8.75 2.625H19.25C22.6274 2.625 25.375 5.37259 25.375 8.75V19.25Z" fill="white"/>
<path d="M14 7C10.1322 7 7 10.1322 7 14C7 17.8678 10.1322 21 14 21C17.8678 21 21 17.8678 21 14C21 10.1322 17.8678 7 14 7ZM14 18.375C11.5906 18.375 9.625 16.4094 9.625 14C9.625 11.5864 11.5906 9.625 14 9.625C16.4094 9.625 18.375 11.5864 18.375 14C18.375 16.4136 16.4136 18.375 14 18.375Z" fill="white"/>
<path d="M21.5241 7.41011C22.0401 7.41011 22.4583 6.99186 22.4583 6.47593C22.4583 5.95999 22.0401 5.54175 21.5241 5.54175C21.0082 5.54175 20.59 5.95999 20.59 6.47593C20.59 6.99186 21.0082 7.41011 21.5241 7.41011Z" fill="white"/>
</svg>
