<svg width="50" height="24" viewBox="0 0 50 24" fill="none" xmlns="http://www.w3.org/2000/svg">
<path fill-rule="evenodd" clip-rule="evenodd" d="M36.2617 4.42006C36.8796 4.42006 37.1724 4.03268 37.1724 3.52834C37.1724 3.02468 36.8479 2.63662 36.2617 2.63662C35.6763 2.63662 35.3511 3.02468 35.3511 3.52834C35.3511 4.032 35.6445 4.42006 36.2617 4.42006ZM34.4662 5.69848C34.4662 6.70648 33.88 7.48192 32.6449 7.48192C31.4097 7.48192 30.8242 6.70648 30.8242 5.69848C30.8242 4.69047 31.4732 3.91504 32.6449 3.91504C33.8171 3.91504 34.4662 4.69047 34.4662 5.69848ZM36.138 5.29555C35.8311 5.29555 35.5552 5.33341 35.3071 5.40237C35.3173 5.50378 35.3227 5.60654 35.3227 5.712C35.3227 6.84237 34.8014 7.76924 33.7157 8.12146C33.8543 9.33566 34.7041 10.2281 36.138 10.2281C37.7105 10.2281 38.5813 9.15583 38.5813 7.7618C38.5813 6.36777 37.795 5.29555 36.138 5.29555ZM34.4066 10.7466C34.8595 11.0089 35.5843 11.1583 36.138 11.1583C36.7681 11.1583 37.3704 11.0042 37.8275 10.7331V18.7153C37.8275 19.006 37.5922 19.2412 37.3015 19.2412H34.9326C34.6419 19.2412 34.4066 19.006 34.4066 18.7153V10.7466ZM40.2931 16.0442V12.6267H38.9998C38.7821 12.6267 38.6049 12.4503 38.6049 12.2319V10.4045C38.6049 10.1868 38.7814 10.0097 38.9998 10.0097H40.2708L40.291 8.48991C40.2917 8.45814 40.2937 8.42636 40.3005 8.39526C40.3837 8.00518 40.6588 7.8098 41.0644 7.8098H43.1656C43.4563 7.8098 43.6916 8.04507 43.6916 8.33577V10.0097H45.2959C45.5136 10.0097 45.6907 10.1861 45.6907 10.4045V12.2326C45.6907 12.4503 45.5142 12.6274 45.2959 12.6274H43.6923V16.08C43.6923 16.4836 43.8856 16.6418 44.131 16.6418C44.5002 16.6418 44.6232 16.2727 44.6232 15.9394C44.6232 15.8339 44.6232 15.746 44.6056 15.6581C44.5705 15.289 44.6935 15.0963 45.0444 15.0963H46.3438C46.625 15.0963 46.8528 15.2018 46.9407 15.483C47.0266 15.7055 47.0617 15.9448 47.08 16.1848C47.0807 16.197 47.0813 16.2098 47.0813 16.222C47.0726 18.7883 45.2513 19.4353 43.674 19.4353C42.0238 19.4339 40.2931 18.7491 40.2931 16.0442Z" fill="#FF5005"/>
<path fill-rule="evenodd" clip-rule="evenodd" d="M4.39041 16.0442V12.6267H3.03154C2.81385 12.6267 2.63672 12.4503 2.63672 12.2319V10.4045C2.63672 10.1868 2.81317 10.0097 3.03154 10.0097H4.3681L4.38838 8.48991C4.38906 8.45814 4.39109 8.42636 4.39785 8.39526C4.481 8.00518 4.75616 7.8098 5.16179 7.8098H7.26297C7.55368 7.8098 7.78894 8.04507 7.78894 8.33577V10.0097H9.39255C9.61024 10.0097 9.78737 10.1861 9.78737 10.4045V12.2326C9.78737 12.4503 9.61092 12.6274 9.39255 12.6274H7.78894V16.08C7.78894 16.4836 7.9823 16.6418 8.2277 16.6418C8.59683 16.6418 8.71987 16.2727 8.71987 15.9394C8.71987 15.8339 8.71987 15.746 8.7023 15.6581C8.66714 15.289 8.79018 15.0963 9.14106 15.0963H10.4404C10.7217 15.0963 10.9495 15.2018 11.0374 15.483C11.1233 15.7055 11.1584 15.9448 11.1767 16.1848C11.1773 16.197 11.178 16.2098 11.178 16.222C11.1692 18.7883 9.34793 19.4353 7.77069 19.4353C6.12044 19.4339 4.39041 18.7491 4.39041 16.0442ZM11.4606 14.6218C11.4606 17.4145 13.34 19.4339 15.7989 19.4339C16.9928 19.4339 17.9413 18.9249 18.4334 18.0818V18.7261C18.4334 19.0168 18.6687 19.2521 18.9594 19.2521H21.3283C21.619 19.2521 21.8543 19.0168 21.8543 18.7261V10.5282C21.8543 10.2375 21.619 10.0023 21.3283 10.0023H18.9594C18.6687 10.0023 18.4334 10.2375 18.4334 10.5282V11.1434C17.9413 10.318 16.9928 9.8089 15.7989 9.8089C13.3394 9.80957 11.4606 11.829 11.4606 14.6218ZM14.7618 14.5758C14.7618 13.5678 15.4108 12.7923 16.5831 12.7923C17.7547 12.7923 18.4037 13.5678 18.4037 14.5758C18.4037 15.5838 17.8176 16.3592 16.5831 16.3592C15.3479 16.3592 14.7618 15.5838 14.7618 14.5758ZM26.5204 11.1441C27.0126 10.3186 27.9611 9.80958 29.155 9.80958C31.6138 9.80958 33.4933 11.829 33.4933 14.6224C33.4933 17.4145 31.6138 19.4346 29.155 19.4346C27.9611 19.4346 27.0126 18.9255 26.5204 18.0825V20.8969C26.5204 21.1876 26.2852 21.4229 25.9945 21.4229H23.6256C23.3349 21.4229 23.0996 21.1876 23.0996 20.8969V10.5289C23.0996 10.2382 23.3349 10.0029 23.6256 10.0029H25.9945C26.2852 10.0029 26.5204 10.2382 26.5204 10.5289V11.1441ZM26.5502 14.5758C26.5502 15.5838 27.1356 16.3592 28.3708 16.3592C29.606 16.3592 30.1921 15.5838 30.1921 14.5758C30.1921 13.5678 29.5424 12.7923 28.3708 12.7923C27.1992 12.7923 26.5502 13.5678 26.5502 14.5758Z" fill="white"/>
</svg>
