<svg id="BTN_copy" data-name="BTN copy" xmlns="http://www.w3.org/2000/svg" width="33" height="33" viewBox="0 0 33 33">
  <defs>
    <style>
      .cls-1 {
        fill: #262424;
      }

      .cls-2 {
        fill: #fff;
        fill-rule: evenodd;
      }
    </style>
  </defs>
  <circle class="cls-1" cx="16.5" cy="16.5" r="16.5"/>
  <path class="cls-2" d="M22.808,16.414c-0.294-.018-0.589-0.038-0.884-0.054q-2.631-.147-5.262-0.293-1.863-.1-3.727-0.2c-0.5-.025-0.5-0.018-0.672-0.483-0.63-1.729-1.257-3.46-1.894-5.186a0.229,0.229,0,0,1,.12-0.331,1.03,1.03,0,0,1,.971-0.019c1.259,0.547,2.521,1.086,3.776,1.643,2.311,1.026,4.611,2.077,6.845,3.264A14.277,14.277,0,0,1,23.971,15.9a2.46,2.46,0,0,1,.361.326,0.278,0.278,0,0,1,0,.416,3.078,3.078,0,0,1-.6.5A27.763,27.763,0,0,1,20.552,18.9c-2.976,1.475-6.016,2.809-9.071,4.112a1.041,1.041,0,0,1-1.036-.039,0.188,0.188,0,0,1-.085-0.263q1.014-2.769,2.016-5.541a0.177,0.177,0,0,1,.183-0.142q1.957-.1,3.914-0.217,2.2-.124,4.4-0.248c0.556-.032,1.111-0.059,1.667-0.089l0.269-.014C22.808,16.447,22.808,16.431,22.808,16.414Z"/>
</svg>
